<svg id="Instagram_Button" data-name="Instagram  Button" xmlns="http://www.w3.org/2000/svg" width="44" height="44" viewBox="0 0 44 44">
  <rect id="Rectangle_3218" data-name="Rectangle 3218" width="44" height="44" rx="8" fill="#e1306c"/>
  <g id="brand_instagram" data-name="brand instagram" transform="translate(15 15)">
    <path id="brand_instagram-2" data-name="brand instagram" d="M6.927,35.235a3.589,3.589,0,1,0,3.589,3.589A3.583,3.583,0,0,0,6.927,35.235Zm0,5.922A2.333,2.333,0,1,1,9.26,38.823,2.337,2.337,0,0,1,6.927,41.157ZM11.5,35.088a.837.837,0,1,1-.837-.837A.835.835,0,0,1,11.5,35.088Zm2.377.85A4.142,4.142,0,0,0,12.745,33a4.169,4.169,0,0,0-2.933-1.131c-1.156-.066-4.619-.066-5.775,0A4.163,4.163,0,0,0,1.1,33,4.156,4.156,0,0,0-.026,35.934c-.066,1.156-.066,4.619,0,5.775A4.142,4.142,0,0,0,1.1,44.642a4.175,4.175,0,0,0,2.933,1.131c1.156.066,4.619.066,5.775,0a4.142,4.142,0,0,0,2.933-1.131,4.169,4.169,0,0,0,1.131-2.933C13.941,40.554,13.941,37.093,13.876,35.938Zm-1.493,7.012a2.362,2.362,0,0,1-1.331,1.331,15.425,15.425,0,0,1-4.126.281A15.546,15.546,0,0,1,2.8,44.28,2.362,2.362,0,0,1,1.47,42.949a15.426,15.426,0,0,1-.281-4.126A15.546,15.546,0,0,1,1.47,34.7,2.362,2.362,0,0,1,2.8,33.367a15.426,15.426,0,0,1,4.126-.281,15.546,15.546,0,0,1,4.126.281A2.362,2.362,0,0,1,12.383,34.7a15.426,15.426,0,0,1,.281,4.126A15.417,15.417,0,0,1,12.383,42.949Z" transform="translate(0.075 -31.825)" fill="#fff"/>
  </g>
</svg>
