<svg xmlns="http://www.w3.org/2000/svg" width="56" height="56" viewBox="0 0 56 56">
  <g id="Phone" transform="translate(0 -878)">
    <circle id="Ellipse_119" data-name="Ellipse 119" cx="28" cy="28" r="28" transform="translate(0 878)" fill="#2aafc0" opacity="0.2"/>
    <path id="solid_phone" data-name="solid phone" d="M19.263.951,15.2.013a.944.944,0,0,0-1.074.543L12.251,4.931a.935.935,0,0,0,.27,1.094l2.367,1.937a14.477,14.477,0,0,1-6.922,6.922L6.029,12.517a.936.936,0,0,0-1.094-.27L.56,14.122A.949.949,0,0,0,.013,15.2l.937,4.062a.937.937,0,0,0,.914.727A18.123,18.123,0,0,0,19.99,1.865.936.936,0,0,0,19.263.951Z" transform="translate(18.51 896.012)" fill="#2aafc0"/>
  </g>
</svg>
