<svg xmlns="http://www.w3.org/2000/svg" xmlns:xlink="http://www.w3.org/1999/xlink" width="220.78" height="174.862" viewBox="0 0 220.78 174.862">
  <defs>
    <clipPath id="clip-path">
      <rect id="Rectangle_9455" data-name="Rectangle 9455" width="220.78" height="174.862" fill="none"/>
    </clipPath>
  </defs>
  <g id="Group_21082" data-name="Group 21082" clip-path="url(#clip-path)">
    <path id="Path_2052" data-name="Path 2052" d="M129.8,89.343A49.828,49.828,0,1,1,79.972,39.514,49.83,49.83,0,0,1,129.8,89.343" transform="translate(27.229 35.691)" fill="#2aafc0"/>
    <path id="Path_2053" data-name="Path 2053" d="M90.9,54.657c.638.518-8.671,13.037-20.787,27.959-2.585,3.133-5.061,6.138-7.339,8.9l-1,1.218L60.7,91.626c-9.463-9.75-15.925-16.99-15.466-17.449s7.7,6,17.449,15.466l-2.08.108,7.208-9.01c12.116-14.922,22.458-26.6,23.1-26.084" transform="translate(40.835 49.354)" fill="#fff"/>
    <path id="Path_2054" data-name="Path 2054" d="M97.444,57.4c-1.477-5.234-8.281-4.726-8.281-4.726l.187,3.639c3.934-.678,6.378,3.93,6.378,3.93Z" transform="translate(80.537 47.562)" fill="#2aafc0"/>
    <path id="Path_2055" data-name="Path 2055" d="M21.613,63.163c-1.477-5.234-8.281-4.726-8.281-4.726l.188,3.639c3.932-.678,6.376,3.93,6.376,3.93Z" transform="translate(12.042 52.771)" fill="#e0e0e0"/>
    <path id="Path_2056" data-name="Path 2056" d="M60.509,27.355c7.891,2.39,12.8-6.711,12.8-6.711l-4.8-2.735c-2.347,5.575-10.228,4.929-10.228,4.929Z" transform="translate(52.642 16.176)" fill="#e0e0e0"/>
    <path id="Path_2057" data-name="Path 2057" d="M38.393,28.019c-3.671.39-4.111,5-4.111,5l2.457.293c0-2.71,3.361-3.818,3.361-3.818Z" transform="translate(30.966 25.308)" fill="#2aafc0"/>
    <path id="Path_2058" data-name="Path 2058" d="M118.215,48.212c.533-3.654-3.824-5.223-3.824-5.223L113.5,45.3c2.626.668,2.864,4.2,2.864,4.2Z" transform="translate(102.519 38.829)" fill="#e0e0e0"/>
    <path id="Path_2059" data-name="Path 2059" d="M49.937,5.223C50.47,1.568,46.114,0,46.114,0l-.893,2.307c2.625.67,2.864,4.2,2.864,4.2Z" transform="translate(40.846 -0.001)" fill="#2aafc0"/>
    <path id="Path_2060" data-name="Path 2060" d="M.04,34.859c-.66,5.729,6.93,7.116,6.93,7.116l1.37-3.748c-4.554-.413-5.211-5.776-5.211-5.776Z" transform="translate(0 29.311)" fill="#2aafc0"/>
    <path id="Path_2061" data-name="Path 2061" d="M89.468,25.158c3.687.211,4.867-4.269,4.867-4.269L91.957,20.2c-.436,2.674-3.934,3.222-3.934,3.222Z" transform="translate(79.508 18.249)" fill="#2aafc0"/>
    <path id="Path_2062" data-name="Path 2062" d="M102.255,30.847a8.064,8.064,0,0,1-3.043.3,8.07,8.07,0,0,1-3.045-.3,8.071,8.071,0,0,1,3.045-.3,8.065,8.065,0,0,1,3.043.3" transform="translate(86.863 27.594)" fill="#e0e0e0"/>
    <path id="Path_2063" data-name="Path 2063" d="M101.2,26.355a8.3,8.3,0,0,1,.3,3.089,8.3,8.3,0,0,1-.3,3.089,8.3,8.3,0,0,1-.3-3.089,8.3,8.3,0,0,1,.3-3.089" transform="translate(91.146 23.805)" fill="#e0e0e0"/>
    <path id="Path_2064" data-name="Path 2064" d="M102.873,30.743a8.064,8.064,0,0,1,3.043-.3,8.071,8.071,0,0,1,3.045.3,8.071,8.071,0,0,1-3.045.3,8.064,8.064,0,0,1-3.043-.3" transform="translate(92.921 27.5)" fill="#e0e0e0"/>
    <path id="Path_2065" data-name="Path 2065" d="M101.316,37.885a8.3,8.3,0,0,1-.3-3.089,8.3,8.3,0,0,1,.3-3.089,8.3,8.3,0,0,1,.3,3.089,8.3,8.3,0,0,1-.3,3.089" transform="translate(91.246 28.639)" fill="#e0e0e0"/>
    <path id="Path_2066" data-name="Path 2066" d="M104.8,34.323c-.126.1-.714-.388-1.309-1.1s-.98-1.384-.855-1.488.712.392,1.309,1.108.98,1.382.855,1.485" transform="translate(92.684 28.648)" fill="#e0e0e0"/>
    <path id="Path_2067" data-name="Path 2067" d="M104.686,28.161c.116.116-.291.718-.912,1.342s-1.22,1.041-1.336.925.293-.718.914-1.344,1.218-1.039,1.334-.923" transform="translate(92.511 25.419)" fill="#e0e0e0"/>
    <path id="Path_2068" data-name="Path 2068" d="M100.968,30.268c-.1.126-.67-.169-1.26-.662s-.986-.992-.879-1.119.668.171,1.26.662.984.993.879,1.119" transform="translate(89.252 25.704)" fill="#e0e0e0"/>
    <path id="Path_2069" data-name="Path 2069" d="M100.78,31.593c.122.11-.236.7-.8,1.319s-1.119,1.03-1.241.919.238-.7.8-1.319,1.117-1.03,1.239-.919" transform="translate(89.166 28.519)" fill="#e0e0e0"/>
    <path id="Path_2070" data-name="Path 2070" d="M15.14,21.933a8.064,8.064,0,0,1-3.043.3,8.07,8.07,0,0,1-3.045-.3,8.071,8.071,0,0,1,3.045-.3,8.065,8.065,0,0,1,3.043.3" transform="translate(8.175 19.542)" fill="#2aafc0"/>
    <path id="Path_2071" data-name="Path 2071" d="M14.09,17.441a8.3,8.3,0,0,1,.3,3.089,8.3,8.3,0,0,1-.3,3.089,8.3,8.3,0,0,1-.3-3.089,8.3,8.3,0,0,1,.3-3.089" transform="translate(12.459 15.753)" fill="#2aafc0"/>
    <path id="Path_2072" data-name="Path 2072" d="M15.758,21.829a8.064,8.064,0,0,1,3.043-.3,8.071,8.071,0,0,1,3.045.3,8.071,8.071,0,0,1-3.045.3,8.065,8.065,0,0,1-3.043-.3" transform="translate(14.234 19.448)" fill="#2aafc0"/>
    <path id="Path_2073" data-name="Path 2073" d="M14.2,28.971a8.3,8.3,0,0,1-.3-3.089,8.3,8.3,0,0,1,.3-3.089,8.3,8.3,0,0,1,.3,3.089,8.3,8.3,0,0,1-.3,3.089" transform="translate(12.558 20.587)" fill="#2aafc0"/>
    <path id="Path_2074" data-name="Path 2074" d="M17.684,25.41c-.126.1-.714-.39-1.311-1.106s-.98-1.382-.853-1.486.712.39,1.309,1.106.98,1.382.855,1.486" transform="translate(13.996 20.597)" fill="#2aafc0"/>
    <path id="Path_2075" data-name="Path 2075" d="M17.571,19.247c.116.116-.291.718-.912,1.344s-1.22,1.039-1.336.923.293-.718.914-1.342,1.218-1.041,1.334-.925" transform="translate(13.823 17.367)" fill="#2aafc0"/>
    <path id="Path_2076" data-name="Path 2076" d="M13.853,21.354c-.1.126-.67-.169-1.26-.662s-.986-.992-.879-1.119.668.171,1.26.662.984.994.879,1.119" transform="translate(10.564 17.652)" fill="#2aafc0"/>
    <path id="Path_2077" data-name="Path 2077" d="M13.665,22.678c.122.11-.238.7-.8,1.319s-1.117,1.03-1.239.919.236-.7.8-1.319,1.117-1.03,1.239-.919" transform="translate(10.746 20.719)" fill="#2aafc0"/>
  </g>
</svg>
