<svg xmlns="http://www.w3.org/2000/svg" width="798.561" height="122.26" viewBox="0 0 798.561 122.26">
  <g id="Group_23302" data-name="Group 23302" transform="translate(-15 -0.434)">
    <path id="Path_6293" data-name="Path 6293" d="M590.079,219.64A44.221,44.221,0,1,1,634.3,175.418a44.222,44.222,0,0,1-44.222,44.221Z" transform="translate(-1.412 -115.333)" fill="#f0ecf9" fill-rule="evenodd"/>
    <path id="Path_6301" data-name="Path 6301" d="M393.923,219.64a44.221,44.221,0,1,1,44.222-44.221,44.221,44.221,0,0,1-44.222,44.221Z" transform="translate(14.072 -115.333)" fill="#e8ebed" fill-rule="evenodd"/>
    <path id="Path_6309" data-name="Path 6309" d="M198.946,219.64a44.221,44.221,0,1,1,44.221-44.221,44.221,44.221,0,0,1-44.221,44.221Z" transform="translate(-139.725 -115.333)" fill="#00b5be" fill-rule="evenodd"/>
    <path id="Path_6318" data-name="Path 6318" d="M786.235,219.289a44.221,44.221,0,1,1,44.222-44.221,44.221,44.221,0,0,1-44.222,44.221Z" transform="translate(-16.897 -115.306)" fill="#e7f6f8" fill-rule="evenodd"/>
    <g id="Group_23301" data-name="Group 23301" transform="translate(49.337 29.01)">
      <path id="Path_6332" data-name="Path 6332" d="M200.765,161.435q0,.879,1.279,1.047v-2.106a1.54,1.54,0,0,0-.913.272.912.912,0,0,0-.367.788Z" transform="translate(-192.696 -146.646)" fill="#f9fdff" fill-rule="evenodd"/>
      <path id="Path_6333" data-name="Path 6333" d="M203.076,164.429v2.4a1.506,1.506,0,0,0,.987-.345,1.108,1.108,0,0,0,.4-.885q0-.917-1.385-1.173Z" transform="translate(-192.879 -146.966)" fill="#f9fdff" fill-rule="evenodd"/>
      <path id="Path_6334" data-name="Path 6334" d="M204.884,150.365a.368.368,0,0,1,.1.018,31.484,31.484,0,0,0,1.686-2.686c1.294-2.24-1.924-2.227-4.328-2.227s-5.524-.061-4.377,2.227a15.138,15.138,0,0,0,1.7,2.72.4.4,0,0,1,.187-.053Z" transform="translate(-192.456 -145.47)" fill="#f9fdff" fill-rule="evenodd"/>
      <path id="Path_6335" data-name="Path 6335" d="M204.26,166.207a3.26,3.26,0,0,1-2.059.811v1.16h-.849v-1.16a3.11,3.11,0,0,1-2.986-2.258l1.349-.315a1.739,1.739,0,0,0,1.637,1.426v-2.48a4.15,4.15,0,0,1-2.164-.97,2.081,2.081,0,0,1-.5-1.4q0-2.117,2.666-2.443v-.9h.849v.9a2.688,2.688,0,0,1,2.465,1.927l-1.274.269a1.343,1.343,0,0,0-1.192-1.039v2.188a15.337,15.337,0,0,1,1.655.539,1.82,1.82,0,0,1,.769.734,2.372,2.372,0,0,1,.342,1.281,2.312,2.312,0,0,1-.708,1.731Zm.775-13.781c-.092.422-.328.721-.6.721H199.4c-.315,0-.578-.391-.637-.905-3.721,2.257-6.758,8.035-6.758,12.588,0,5.784,4.426,7.389,9.883,7.389s9.884-1.6,9.884-7.389c0-4.434-3.264-10.03-6.738-12.4Z" transform="translate(-192.005 -146.004)" fill="#f9fdff" fill-rule="evenodd"/>
    </g>
    <path id="creditcard-svgrepo-com" d="M38.281,13.84V9.92A3.92,3.92,0,0,0,34.361,6h-3.92m7.84,7.84V25.6a3.92,3.92,0,0,1-3.92,3.92H20.64m17.64-15.68H3m0,0V25.6a3.92,3.92,0,0,0,3.92,3.92h3.92M3,13.84V9.92A3.92,3.92,0,0,1,6.92,6H20.64M8.88,23.64h7.84" transform="translate(748.698 30.072)" fill="none" stroke="#4f7497" stroke-linecap="round" stroke-linejoin="round" stroke-width="1.5"/>
    <g id="fingerprint-authentication-that-can-be-used-for-svgrepo-com" transform="translate(576.986 31.896)">
      <path id="Path_6336" data-name="Path 6336" d="M76.24,0A12.067,12.067,0,0,0,64.172,12.068v5.458a11.917,11.917,0,0,0,2.434,7.341A9.572,9.572,0,0,0,70.079,27.6,12.248,12.248,0,0,0,75.3,28.657a9.035,9.035,0,0,0,6.365-2.774,10.408,10.408,0,0,0,2.908-7.409V12.068a8.337,8.337,0,1,0-16.675,0v6.417a5.508,5.508,0,0,0,.56,2.373,7.086,7.086,0,0,0,2.434,2.78,6.465,6.465,0,0,0,3.578,1.141,7.178,7.178,0,0,0,3.085-.617,5.29,5.29,0,0,0,2.622-2.735,8.845,8.845,0,0,0,.665-3.545V12.068a4.607,4.607,0,1,0-9.214,0v6.417a2.742,2.742,0,0,0,5.484,0V12.068a.711.711,0,1,0-1.421,0v6.417A1.317,1.317,0,0,1,74.378,19.8a1.319,1.319,0,0,1-.937-.387,1.3,1.3,0,0,1-.388-.93V12.068a3.186,3.186,0,0,1,6.372,0v5.813a8.511,8.511,0,0,1-.231,2.044,5.32,5.32,0,0,1-.526,1.352,3.765,3.765,0,0,1-1.483,1.481,5.551,5.551,0,0,1-2.711.6A5.3,5.3,0,0,1,70.9,21.824a5.491,5.491,0,0,1-1.157-1.58,4.1,4.1,0,0,1-.422-1.76V12.068a6.916,6.916,0,0,1,13.832,0v6.406a8.981,8.981,0,0,1-2.5,6.414A7.616,7.616,0,0,1,75.3,27.236a10.838,10.838,0,0,1-4.626-.929,8.3,8.3,0,0,1-3.927-3.83,11.042,11.042,0,0,1-1.158-4.951V12.068a10.646,10.646,0,0,1,21.293,0v6.939a12.561,12.561,0,0,1-3.149,8.129,11.3,11.3,0,0,1-3.4,2.659,9.114,9.114,0,0,1-4.1.994.711.711,0,0,0,0,1.421,10.527,10.527,0,0,0,4.739-1.146,13.233,13.233,0,0,0,5.285-4.98,13.732,13.732,0,0,0,2.044-7.077V12.068A12.068,12.068,0,0,0,76.24,0Z" transform="translate(-64.172)" fill="#4f7497"/>
    </g>
    <text id="احراز_هویت" data-name="احراز هویت" transform="translate(559.941 77.291)" fill="#4f7497" font-size="11" font-family="SegoeUI, Segoe UI"><tspan x="0" y="0">احراز هویت</tspan></text>
    <text id="انتخاب_بسته" data-name="انتخاب بسته" transform="translate(737.652 77.291)" fill="#4f7497" font-size="11" font-family="SegoeUI, Segoe UI"><tspan x="0" y="0">انتخاب بسته</tspan></text>
    <text id="اعتبار_سنجی" data-name="اعتبار سنجی" transform="translate(379.262 75.151)" fill="#4f7497" font-size="11" font-family="SegoeUI, Segoe UI"><tspan x="0" y="0">اعتبار سنجی</tspan></text>
    <g id="certification-svgrepo-com" transform="translate(392.993 34.864)">
      <g id="Group_23304" data-name="Group 23304" transform="translate(0 0)">
        <g id="Group_23303" data-name="Group 23303" transform="translate(0 0)">
          <path id="Path_6337" data-name="Path 6337" d="M57.794,139.731H36.454a.784.784,0,1,0,0,1.569H57.794a.784.784,0,1,0,0-1.569Z" transform="translate(-31.863 -126.514)" fill="#4f7497"/>
          <path id="Path_6338" data-name="Path 6338" d="M52.935,173.151H36.454a.784.784,0,0,0,0,1.569H52.935a.784.784,0,0,0,0-1.569Z" transform="translate(-31.863 -156.368)" fill="#4f7497"/>
          <path id="Path_6339" data-name="Path 6339" d="M88.315,58.609h10.27a.784.784,0,0,0,.784-.784V52.507a.784.784,0,0,0-.784-.784H88.315a.784.784,0,0,0-.784.784v5.317A.784.784,0,0,0,88.315,58.609Zm.784-5.317h8.7V57.04H89.1Z" transform="translate(-78.19 -47.899)" fill="#4f7497"/>
          <path id="Path_6340" data-name="Path 6340" d="M30.522,32.395V16.674a.784.784,0,0,0-.784-.784H.784A.784.784,0,0,0,0,16.674V37.468a.784.784,0,0,0,.784.784H24.029a4.436,4.436,0,0,0,.363.433v5a.785.785,0,0,0,1.339.555L27.576,42.4l1.844,1.844a.785.785,0,0,0,1.339-.555v-5A4.388,4.388,0,0,0,30.522,32.395ZM23.3,36.683H1.569V17.459H28.953V31.478A4.4,4.4,0,0,0,23.3,36.683Zm5.89,5.109L28.13,40.734a.785.785,0,0,0-1.109,0l-1.059,1.059V39.747a4.418,4.418,0,0,0,3.228,0v2.046Zm-1.614-3.308A2.829,2.829,0,1,1,30.4,35.656,2.833,2.833,0,0,1,27.576,38.485Z" transform="translate(0 -15.89)" fill="#4f7497"/>
        </g>
      </g>
    </g>
    <g id="Group_23305" data-name="Group 23305" transform="translate(183.146 15.541)">
      <path id="Path_6301-2" data-name="Path 6301" d="M393.923,219.64a44.221,44.221,0,1,1,44.222-44.221,44.221,44.221,0,0,1-44.222,44.221Z" transform="translate(-349.703 -131.197)" fill="#fef6e0" fill-rule="evenodd"/>
    </g>
    <g id="accept-check-ok-prosess-svgrepo-com" transform="translate(210.43 34.864)">
      <path id="Path_6341" data-name="Path 6341" d="M28.271,2H11.3a3.1,3.1,0,0,0-.641.075A7.633,7.633,0,0,0,9.669,2,7.078,7.078,0,0,0,8.311,16.027V28.942A3,3,0,0,0,11.3,31.935H28.271a2.994,2.994,0,0,0,2.994-2.994V4.994A2.994,2.994,0,0,0,28.271,2ZM4.59,9.078a5.078,5.078,0,1,1,1.484,3.6,5.089,5.089,0,0,1-1.484-3.6ZM29.265,28.942a.994.994,0,0,1-.994.994H11.3a.994.994,0,0,1-.994-.994V16.112a7.013,7.013,0,0,0,4.426-2.138,1.069,1.069,0,0,0,.257,0h9.622a.93.93,0,0,0,0-1.86H16.062a7.056,7.056,0,0,0-1.433-8.2H28.314a.994.994,0,0,1,.994.994Z" transform="translate(-2.574 -2)" fill="#4f7497"/>
      <path id="Path_6342" data-name="Path 6342" d="M12.639,6.429a.984.984,0,0,0-1.411,0L8.619,9.049l-.962-.919A.994.994,0,1,0,6.245,9.5l1.668,1.668a.994.994,0,0,0,.706.289,1.069,1.069,0,0,0,.706-.289l3.314-3.325a.984.984,0,0,0,0-1.411Z" transform="translate(-2.348 -1.714)" fill="#4f7497"/>
      <path id="Path_6343" data-name="Path 6343" d="M23.842,15.13H14.22a.93.93,0,0,0,0,1.86h9.622a.93.93,0,0,0,0-1.86Z" transform="translate(-1.834 -1.092)" fill="#4f7497"/>
      <path id="Path_6344" data-name="Path 6344" d="M23.842,18.72H14.22a.93.93,0,0,0,0,1.86h9.622a.93.93,0,0,0,0-1.86Z" transform="translate(-1.834 -0.844)" fill="#4f7497"/>
    </g>
    <text id="تایید_نهایی" data-name="تایید نهایی" transform="translate(198.582 77.291)" fill="#4f7497" font-size="11" font-family="SegoeUI, Segoe UI"><tspan x="0" y="0">تایید نهایی</tspan></text>
    <text id="دریافت_اعتبار" data-name="دریافت اعتبار" transform="translate(33.909 72.086)" fill="#f3faff" font-size="11" font-family="SegoeUI, Segoe UI"><tspan x="0" y="0">دریافت اعتبار</tspan></text>
    <g id="Group_23342" data-name="Group 23342" transform="translate(112.656 0.434)">
      <path id="Path_6398" data-name="Path 6398" d="M772.741,198.942a1.933,1.933,0,1,1,0,3.866h-3.866a1.933,1.933,0,1,1,0-3.866Zm8.991,1.933a1.933,1.933,0,1,1-3.865,0v-.381l0-.381.005-.38.009-.38.011-.379.013-.378.015-.378.018-.376.02-.377.023-.375.014-.2a1.933,1.933,0,1,1,3.858.245l-.013.2-.022.351-.019.352-.016.354-.015.353-.013.355-.01.355-.007.355-.006.355,0,.356,0,.357Zm46.4-58.36a1.933,1.933,0,1,1,.584,3.821l-.246.036-.342.054-.342.055-.339.057-.34.06-.34.062-.337.063-.337.066-.337.067-.336.071-.335.072-.038.008a1.933,1.933,0,1,1-.846-3.772l.064-.015.358-.076.359-.075.361-.073.362-.07.362-.068.363-.066.364-.064.365-.062.365-.059.366-.057.245-.036Zm-15.3,4.461a1.933,1.933,0,1,1,1.591,3.523l-.241.108-.3.138-.3.141-.3.143-.3.145-.3.145-.3.148-.3.15-.3.151-.3.153-.3.155-.115.061a1.933,1.933,0,1,1-1.825-3.408l.135-.072.316-.166.318-.164.319-.162.318-.16.321-.158.323-.156.323-.154.324-.153.326-.151.327-.149.241-.108Zm-13.54,8.41a1.933,1.933,0,0,1,2.479,2.967l-.224.186-.254.213-.253.215-.251.215-.249.217-.248.219-.246.221-.246.221-.244.224-.243.225-.242.226-.1.1a1.933,1.933,0,0,1-2.668-2.8l.117-.111.259-.242.259-.24.262-.24.263-.236.263-.235.266-.235.267-.233.269-.231.269-.229.271-.228.224-.186Zm-10.8,11.712a1.933,1.933,0,0,1,3.177,2.2l-.138.2-.188.274-.187.274-.185.276-.184.277-.182.276-.18.28-.178.28-.176.281-.175.283-.174.285-.09.148a1.933,1.933,0,0,1-3.316-1.988l.1-.168.185-.3.187-.3.19-.3.19-.3.194-.3.195-.3.2-.3.2-.295.2-.294.2-.292.139-.2ZM781.2,181.28a1.933,1.933,0,1,1,3.654,1.262l-.115.329-.109.32-.108.319-.1.322-.1.323-.1.323-.1.325-.1.325-.1.326-.094.326-.092.327v0A1.933,1.933,0,0,1,780,185.094l.006-.02.1-.351.1-.349.1-.349.1-.348.107-.347.108-.345.111-.345.113-.345.115-.344.117-.342.115-.329Zm-39,9.7,1.052,1.621L730.5,200.874l12.754,8.267-2.1,3.244L725.9,202.5l-2.5-1.621,2.5-1.623,15.255-9.9,1.052,1.621Zm-4.255,11.829a1.933,1.933,0,0,1,0-3.866h3.866a1.933,1.933,0,1,1,0,3.866Zm15.464,0a1.933,1.933,0,1,1,0-3.866h3.866a1.933,1.933,0,0,1,0,3.866Z" transform="translate(-180.82 -140.238)" fill="#4f7497"/>
      <path id="Path_6399" data-name="Path 6399" d="M531.743,197a1.933,1.933,0,0,1,0,3.866h-3.866a1.933,1.933,0,0,1,0-3.866Zm8.991,1.933a1.933,1.933,0,1,1-3.866,0l0-.381,0-.381.005-.38.008-.38.012-.379.013-.378.016-.378.018-.376.02-.377.023-.376.013-.2a1.933,1.933,0,0,1,3.859.245l-.014.2-.021.352-.019.352-.016.354-.015.353-.013.354-.01.355-.007.355-.006.355,0,.356,0,.357Zm113.885-5.53a1.933,1.933,0,0,1-3.849.366l-.012-.129-.035-.348-.036-.346-.038-.346-.041-.346-.042-.345-.045-.345-.047-.343-.049-.345-.051-.342-.054-.342-.02-.125a1.932,1.932,0,1,1,3.813-.631l.025.147.057.366.055.366.053.366.051.369.047.368.046.37.043.37.042.37.039.373.036.372.012.128ZM651,177.872a1.933,1.933,0,0,1-3.6,1.4l-.092-.241-.123-.314-.125-.313-.126-.311-.127-.31-.13-.31-.132-.309-.134-.307-.135-.306-.137-.307-.138-.3-.051-.109a1.933,1.933,0,0,1,3.5-1.636l.061.132.149.326.146.327.145.328.143.329.141.331.139.331.136.333.135.334.133.335.132.335.092.24Zm-7.657-13.981a1.933,1.933,0,1,1-3.1,2.315l-.2-.262-.2-.265-.2-.264-.2-.263-.2-.26-.206-.261-.206-.258-.209-.257-.21-.256-.211-.255-.214-.253-.065-.076a1.933,1.933,0,0,1,2.938-2.513l.079.093.227.27.227.274.225.274.223.275.221.276.22.277.218.28.216.281.215.281.214.284.2.263Zm-11.108-11.424a1.933,1.933,0,1,1-2.37,3.053l-.218-.17-.262-.2-.264-.2-.264-.2-.266-.2-.266-.2-.269-.2-.27-.193-.271-.192-.272-.19-.274-.188-.12-.082a1.932,1.932,0,1,1,2.163-3.2l.141.1.292.2.291.2.291.205.288.206.286.207.286.21.285.212.284.214.281.215.281.216.218.171Zm-13.758-8.051a1.933,1.933,0,0,1-1.462,3.579l-.306-.126-.312-.125-.312-.125-.315-.123-.314-.121-.315-.118-.316-.116-.317-.115-.318-.113-.319-.111-.319-.11-.032-.011a1.933,1.933,0,0,1,1.216-3.669l.055.019.343.117.341.118.34.121.339.124.338.125.338.127.337.129.335.131.335.133.334.135.306.126Zm-15.408-4.052a1.933,1.933,0,0,1-.463,3.839l-.059-.008-.346-.04-.347-.039-.347-.036-.347-.034-.349-.032-.348-.03-.351-.028-.35-.025-.352-.024-.351-.021-.168-.009a1.933,1.933,0,1,1,.195-3.86l.194.01.376.023.375.025.375.028.374.029.374.032.373.035.372.036.372.039.372.042.369.043.059.007Zm-15.94.208a1.933,1.933,0,1,1,.585,3.821l-.245.036-.342.054-.342.055-.339.057-.34.06-.34.062-.338.063-.337.066-.336.067-.336.071-.336.072-.038.008a1.933,1.933,0,0,1-.845-3.772l.064-.015.358-.076.359-.075.361-.073.362-.07.362-.069.362-.065.364-.064.365-.062.365-.059.366-.057.245-.036Zm-15.3,4.461a1.933,1.933,0,0,1,1.591,3.523l-.241.108-.305.138-.3.141-.3.143-.3.144-.3.146-.3.148-.3.15-.3.151-.3.153-.3.155-.115.061a1.933,1.933,0,1,1-1.825-3.409l.135-.071.316-.166.317-.164.319-.162.319-.16.321-.158.323-.156.323-.155.324-.153.325-.151.326-.148.242-.108Zm-13.541,8.41a1.933,1.933,0,0,1,2.479,2.967l-.224.185-.253.213-.253.215-.251.215-.249.217-.248.219-.247.221-.245.221-.245.224-.242.225-.242.226-.1.1a1.933,1.933,0,0,1-2.668-2.8l.117-.111.258-.242.26-.24.262-.24.263-.236.263-.235.265-.235.267-.233.269-.231.269-.229.271-.228.223-.185Zm-10.8,11.712a1.933,1.933,0,1,1,3.177,2.2l-.139.2-.188.273-.186.275-.185.276-.185.277-.181.276-.18.279-.178.281-.177.281-.175.283-.174.285-.091.148a1.933,1.933,0,1,1-3.315-1.988l.1-.168.185-.3.187-.3.189-.3.191-.3.193-.3.2-.3.2-.3.2-.295.2-.294.2-.292.139-.2ZM540.2,179.337a1.933,1.933,0,1,1,3.654,1.262l-.115.329-.109.32-.107.319-.105.322-.1.323-.1.323-.1.325-.1.325-.1.326-.094.326-.092.327v0A1.933,1.933,0,0,1,539,183.151l.005-.02.1-.351.1-.349.1-.349.1-.349.106-.346.109-.345.111-.345.113-.345.115-.344.116-.342.115-.329Zm-38.995,9.7,1.052,1.621L489.5,198.931l12.753,8.268-2.1,3.244L484.9,200.554l-2.5-1.622,2.5-1.622,15.255-9.9,1.052,1.621Zm-4.255,11.829a1.933,1.933,0,1,1,0-3.866h3.866a1.933,1.933,0,0,1,0,3.866Zm15.463,0a1.933,1.933,0,1,1,0-3.866h3.866a1.933,1.933,0,0,1,0,3.866Z" transform="translate(-120.759 -140.013)" fill="#4f7497"/>
      <path id="Path_6400" data-name="Path 6400" d="M312.906,198.741a1.933,1.933,0,0,1-.02,3.866l-3.866-.021a1.933,1.933,0,0,1,.02-3.866l3.866.021Zm10.113,1.987a1.933,1.933,0,0,1-3.866-.021l0-.381.005-.381.008-.38.01-.379.013-.379.015-.378.018-.378.02-.376.022-.377.025-.376.015-.2a1.933,1.933,0,1,1,3.857.265l-.015.2-.023.352-.021.352-.018.353-.017.354-.014.354-.013.355-.009.355-.008.356,0,.355,0,.357Zm57.141,59.263a1.933,1.933,0,0,1-.152-3.863l.34-.012.354-.015.352-.017.352-.019.351-.022.351-.024.35-.025.349-.028.349-.03.348-.033.239-.024a1.933,1.933,0,0,1,.395,3.846l-.265.026-.372.035-.374.033-.374.029-.374.028-.375.025-.376.023-.376.021-.377.018-.376.015-.339.013Zm15.708-2.673a1.933,1.933,0,0,1-1.173-3.683l.224-.071.322-.1.321-.105.32-.107.32-.11.318-.112.318-.113.316-.115.315-.116.315-.119.314-.121.118-.046a1.933,1.933,0,0,1,1.42,3.6l-.139.055-.336.129-.336.127-.339.125-.339.124-.34.121-.341.119-.342.117-.343.115-.345.113-.345.111-.225.071Zm14.411-6.8a1.933,1.933,0,1,1-2.11-3.239l.014-.008.278-.183.277-.184.275-.185.274-.187.274-.188.272-.19.271-.192.269-.194.268-.194.266-.2.266-.2.05-.038a1.933,1.933,0,0,1,2.336,3.08l-.068.051-.285.213-.286.209-.286.209-.288.205-.29.205-.291.2-.292.2-.293.2-.3.2-.3.2-.3.195-.014.008Zm12.077-10.412a1.933,1.933,0,0,1-2.909-2.547l.208-.236.217-.249.216-.252.215-.253.213-.253.211-.255.21-.255.208-.258.207-.258.2-.259.2-.262.069-.089a1.933,1.933,0,1,1,3.069,2.35l-.082.107-.218.279-.22.279-.221.276-.223.275-.225.274-.225.273-.228.272-.23.27-.23.268-.233.266-.207.237Zm8.859-13.249a1.933,1.933,0,0,1-3.484-1.677l.144-.3.145-.3.142-.3.14-.3.138-.306.138-.305.135-.307.134-.308.132-.308.129-.31.127-.311.02-.049a1.933,1.933,0,0,1,3.589,1.437l-.029.072-.137.333-.138.332-.142.331-.142.329-.145.329-.147.327-.148.325-.15.326-.153.325-.155.324-.143.3Zm4.976-15.144a1.933,1.933,0,0,1-3.807-.676l.055-.306.059-.339.057-.342.055-.342.053-.342.052-.343.048-.344.046-.345.045-.345.042-.346.036-.31a1.933,1.933,0,0,1,3.841.435l-.039.335-.045.37-.047.369-.05.368-.053.368-.055.366-.056.366-.06.365-.061.365-.064.365-.055.306Zm.739-15.911a1.933,1.933,0,0,1-3.85.345l-.011-.129-.032-.348-.035-.347-.037-.346-.038-.346-.041-.346-.044-.345-.045-.345-.048-.344-.049-.343-.052-.342-.019-.125a1.933,1.933,0,1,1,3.817-.61l.024.147.055.366.053.367.051.367.048.369.046.368.044.37.041.37.04.371.037.373.034.372.011.129Zm-3.53-15.549a1.933,1.933,0,0,1-3.613,1.376l-.091-.241-.12-.315-.124-.313-.124-.312-.126-.311-.128-.311-.13-.309-.132-.308-.135-.308-.135-.306-.136-.305-.05-.109a1.933,1.933,0,1,1,3.51-1.618l.061.133.146.327.145.327.143.329.142.33.138.332.137.332.135.333.134.335.131.335.13.335.091.242Zm-7.584-14.022a1.933,1.933,0,1,1-3.108,2.3l-.194-.264-.2-.266-.2-.265-.2-.265-.2-.261-.2-.261-.205-.26-.207-.258-.208-.257-.21-.255-.212-.255-.065-.076a1.933,1.933,0,0,1,2.95-2.5l.079.094.226.272.225.275.223.275.222.276.22.277.217.279.217.281.215.282.214.283.212.284.194.265ZM414.77,154.749a1.933,1.933,0,1,1-2.386,3.041l-.217-.171-.262-.2-.263-.2-.264-.2-.265-.2-.265-.2-.267-.2-.269-.195-.27-.193-.271-.191-.272-.191-.121-.082a1.933,1.933,0,0,1,2.181-3.192l.14.1.291.2.29.2.288.206.287.208.286.209.285.212.284.213.283.215.28.216.28.218.216.171Zm-13.714-8.123a1.933,1.933,0,0,1-1.481,3.57l-.306-.127-.31-.127-.312-.126-.314-.125-.314-.122-.314-.121-.315-.118-.317-.116-.317-.115-.318-.114-.319-.111-.031-.011a1.933,1.933,0,1,1,1.235-3.663l.055.019.342.119.34.12.34.124.339.125.337.127.337.128.335.131.335.134.334.135.334.136.305.128Zm-15.386-4.134a1.933,1.933,0,0,1-.484,3.835l-.059-.007-.345-.043-.346-.04-.346-.038-.348-.036-.349-.034-.348-.032-.35-.03-.35-.027-.352-.025-.351-.024-.169-.01a1.933,1.933,0,0,1,.215-3.859l.195.011.375.025.375.026.375.03.374.031.374.035.373.036.372.038.372.041.37.044.37.045.059.008Zm-15.941.123a1.933,1.933,0,1,1,.564,3.825l-.245.035-.343.052-.342.054-.34.055-.34.058-.339.06-.338.062-.338.064-.336.066-.337.068-.336.07-.038.008a1.933,1.933,0,1,1-.826-3.776l.063-.015.359-.075.359-.073.362-.071.362-.068.362-.066.364-.065.364-.062.365-.06.365-.056.366-.055.245-.035ZM354.4,147a1.933,1.933,0,0,1,1.573,3.531l-.242.106-.305.137-.3.139-.3.141-.3.143-.3.145-.3.146-.3.148-.3.149-.3.152-.3.153-.115.06a1.933,1.933,0,1,1-1.807-3.418l.135-.071.317-.164.319-.163.319-.16.32-.158.322-.156.323-.155.324-.152.325-.151.326-.149.328-.147L354.4,147Zm-13.585,8.338a1.933,1.933,0,1,1,2.464,2.979l-.225.184-.255.213-.255.214-.251.215-.251.215-.249.217-.248.219-.247.221-.245.222-.245.223-.242.225-.1.1a1.933,1.933,0,0,1-2.652-2.812l.118-.111.259-.241.262-.239.262-.237.265-.236.265-.234.267-.233.268-.232.27-.229.27-.227.272-.227.225-.184Zm-10.866,11.654a1.933,1.933,0,0,1,3.166,2.219l-.14.2-.19.272-.187.274-.187.275-.186.275-.183.276-.181.278-.181.279-.177.281-.177.281-.175.284-.09.148a1.933,1.933,0,0,1-3.3-2.007l.1-.167.187-.3.189-.3.19-.3.193-.3.195-.3.2-.3.2-.295.2-.294.2-.293.2-.291.14-.2ZM322.59,181.13a1.933,1.933,0,1,1,3.648,1.282l-.117.327-.111.32-.109.319-.106.321-.105.322-.1.323-.1.325-.1.324-.1.325-.1.326-.094.327v0a1.933,1.933,0,1,1-3.727-1.028l.005-.02.1-.35.1-.349.1-.348.106-.348.109-.345.111-.345.112-.344.115-.345.117-.344.119-.341.116-.328Zm-40.178,9.485,1.043,1.627-12.8,8.206,12.709,8.335-2.121,3.232-15.2-9.969-2.492-1.635,2.509-1.609,15.306-9.815,1.044,1.627Zm-4.319,11.807a1.933,1.933,0,0,1,.02-3.866l3.866.021a1.933,1.933,0,1,1-.021,3.866l-3.865-.021Zm15.463.082a1.933,1.933,0,0,1,.021-3.865l3.867.02a1.933,1.933,0,0,1-.021,3.866l-3.867-.021Z" transform="translate(-83.456 -141.034)" fill="#4f7497"/>
      <path id="Path_6401" data-name="Path 6401" d="M91.991,194.9a1.933,1.933,0,1,1,0,3.866H88.125a1.933,1.933,0,1,1,0-3.866Zm8.992,1.933a1.933,1.933,0,0,1-3.866,0l0-.381,0-.381.006-.38.008-.38.011-.379.013-.378.015-.378.019-.376.019-.377.023-.376.014-.2a1.933,1.933,0,0,1,3.859.245l-.014.2-.021.352-.019.352-.016.353-.015.354-.012.354-.01.355-.008.355-.005.355,0,.356v.357Zm113.884-5.53a1.933,1.933,0,0,1-3.849.366l-.011-.129-.035-.348-.036-.346-.038-.346-.041-.346-.043-.345-.045-.345-.047-.344-.049-.344-.051-.342-.054-.342-.02-.125a1.932,1.932,0,1,1,3.813-.631l.025.147.057.366.055.367.053.366.05.368.048.369.045.369.044.371.042.37.039.373.036.372.011.128Zm-3.613-15.53a1.933,1.933,0,0,1-3.6,1.4l-.093-.241-.123-.314-.124-.313-.126-.311-.128-.31-.13-.31-.132-.309-.133-.307-.135-.306-.137-.307-.139-.3-.05-.109a1.933,1.933,0,0,1,3.5-1.636l.061.132.149.326.146.327.145.328.144.329.14.331.139.331.137.333.135.334.133.335.132.335.092.24ZM203.6,161.794a1.932,1.932,0,1,1-3.095,2.315l-.2-.262-.2-.265-.2-.264-.2-.263-.2-.261-.205-.26-.207-.258-.208-.257-.21-.256-.212-.255-.213-.253-.065-.076a1.933,1.933,0,0,1,2.938-2.513l.079.093.227.27.227.274.224.274.223.275.222.276.22.277.218.28.216.281.215.281.213.284.2.263Zm-11.108-11.425a1.933,1.933,0,0,1-2.37,3.054l-.218-.17-.263-.2-.264-.2-.265-.2-.265-.2-.267-.195-.268-.2-.27-.193-.271-.192-.273-.19-.273-.188-.121-.082a1.933,1.933,0,1,1,2.164-3.2l.14.1.293.2.291.2.29.2.288.207.287.207.286.21.285.212.284.214.281.215.281.215.218.171Zm-13.758-8.05a1.933,1.933,0,1,1-1.463,3.579l-.306-.126-.311-.125-.312-.125-.315-.123-.315-.121-.315-.118-.315-.116-.318-.115-.317-.113-.319-.112-.32-.109-.031-.011a1.933,1.933,0,1,1,1.216-3.669l.055.019.342.116.341.119.341.121.339.124.338.125.338.127.336.129.335.131.335.133.334.135.306.126Zm-15.408-4.052a1.933,1.933,0,0,1-.463,3.839l-.06-.008-.345-.04-.346-.039-.347-.036-.348-.034-.348-.032-.349-.03-.35-.028-.351-.025-.351-.024-.351-.021-.169-.009a1.933,1.933,0,1,1,.2-3.86l.194.01.376.023.375.025.375.028.374.029.374.032.373.035.372.036.372.039.371.042.37.043.059.007Zm-15.94.207a1.933,1.933,0,0,1,.585,3.822l-.245.036-.342.054-.343.055-.339.057-.34.06-.339.061-.338.064-.337.066-.336.067-.337.07-.335.073-.038.008a1.933,1.933,0,0,1-.846-3.772l.063-.015.359-.076.358-.075.361-.073.362-.07.362-.069.363-.065.364-.064.365-.062.365-.059.365-.057.245-.037Zm-15.3,4.462a1.933,1.933,0,0,1,1.591,3.523l-.242.108-.3.138-.3.14-.3.144-.3.144-.3.146-.3.148-.3.15-.3.151-.3.153-.3.155-.114.061a1.933,1.933,0,0,1-1.826-3.409l.135-.071.317-.166.317-.164.319-.162.319-.16.321-.158.322-.156.323-.155.324-.153.326-.151.326-.148.242-.108Zm-13.541,8.41a1.933,1.933,0,1,1,2.479,2.967l-.224.185-.254.213-.253.215-.25.215-.249.217-.248.218-.247.222-.245.221-.245.224-.243.225-.241.225-.1.1a1.933,1.933,0,0,1-2.668-2.8l.118-.111.258-.242.26-.241.262-.239.262-.236.264-.235.265-.235.267-.233.268-.231.27-.229.27-.228.224-.185Zm-10.8,11.712a1.933,1.933,0,1,1,3.178,2.2l-.139.2-.188.273-.186.275-.185.276-.184.276-.181.277-.18.279-.179.28-.176.282-.175.283-.175.285-.09.148a1.933,1.933,0,1,1-3.315-1.988l.1-.168.185-.3.187-.3.189-.3.191-.3.193-.3.195-.3.2-.3.2-.295.2-.294.2-.292.139-.2Zm-7.285,14.181A1.933,1.933,0,1,1,104.1,178.5l-.115.329-.109.32-.108.319-.1.322-.1.323-.1.323-.1.325-.1.325-.1.326-.094.327-.092.327v0a1.933,1.933,0,0,1-3.731-1.009l.005-.02.1-.35.1-.35.1-.348.1-.349.106-.346.109-.345.111-.345.113-.345.115-.345.117-.342.115-.328Zm-39,9.7,1.053,1.621-12.755,8.274L62.505,205.1l-2.1,3.244-15.254-9.889-2.5-1.622,2.5-1.622,15.254-9.9,1.052,1.622ZM57.2,198.768a1.933,1.933,0,1,1,0-3.866h3.866a1.933,1.933,0,1,1,0,3.866Zm15.464,0a1.933,1.933,0,1,1,0-3.866h3.866a1.933,1.933,0,1,1,0,3.866Z" transform="translate(-42.647 -137.333)" fill="#4f7497"/>
      <path id="Path_6402" data-name="Path 6402" d="M217.047,205.942a1.933,1.933,0,1,1,3.865-.049l0,.381v.761l0,.38-.006.379-.008.379-.01.377-.014.377-.015.377-.018.376-.01.2a1.933,1.933,0,0,1-3.861-.2l.011-.2.016-.351.015-.353.013-.353.01-.354.007-.355.006-.355,0-.355,0-.355,0-.356,0-.356Zm-113.805,6.969a1.933,1.933,0,1,1,3.844-.415l.013.128.039.348.04.345.043.346.045.345.047.345.049.344.051.343.054.343.055.342.058.341.022.125a1.933,1.933,0,0,1-3.806.679l-.025-.147-.063-.365-.059-.366-.056-.366-.055-.367-.053-.368-.051-.369-.047-.369-.046-.371-.044-.371-.041-.372-.014-.128Zm3.809,15.483a1.933,1.933,0,0,1,3.588-1.443l.095.24.127.312.128.311.13.31.132.308.134.308.135.307.137.305.139.305.141.3.143.3.052.109a1.933,1.933,0,0,1-3.481,1.68l-.063-.132-.153-.325-.15-.325-.15-.326-.146-.328-.145-.328-.143-.329-.142-.331-.139-.332-.137-.334-.135-.334-.1-.238Zm7.834,13.883a1.933,1.933,0,1,1,3.066-2.354l.2.259.2.263.2.261.205.26.207.257.208.258.21.255.213.255.213.254.215.252.216.251.065.075a1.933,1.933,0,0,1-2.906,2.549l-.08-.092-.231-.267-.23-.271-.228-.27-.226-.273-.225-.274-.224-.275-.222-.277-.219-.278-.219-.278-.216-.281-.2-.26Zm11.251,11.283a1.933,1.933,0,1,1,2.331-3.084l.221.168.265.2.266.2.267.2.268.194.269.192.271.192.273.19.273.187.275.186.275.185.122.08a1.933,1.933,0,0,1-2.123,3.231l-.141-.094-.3-.2-.294-.2-.293-.2-.29-.2-.29-.2-.289-.206-.287-.208-.285-.209-.285-.211-.284-.213-.22-.168ZM140,261.436a1.933,1.933,0,1,1,1.417-3.6l.308.123.313.121.314.121.316.119.316.116.316.115.317.113.319.111.319.109.32.107.321.1.032.011a1.933,1.933,0,0,1-1.169,3.685l-.055-.018-.344-.113-.343-.115-.342-.116-.341-.119-.34-.121-.34-.123-.337-.125-.336-.127-.336-.128-.335-.131-.308-.123Zm15.458,3.858a1.933,1.933,0,1,1,.415-3.844l.059.006.346.036.347.035.348.032.348.029.349.028.349.025.35.024.351.02.352.019.352.017.168.007a1.932,1.932,0,1,1-.145,3.862l-.195-.007-.376-.018-.375-.02-.376-.024-.374-.025-.375-.027-.373-.029-.372-.032-.373-.035-.372-.036-.37-.038-.059-.006Zm15.935-.41a1.933,1.933,0,0,1-.633-3.813l.245-.04.341-.058.342-.059.338-.062.339-.065.339-.065.336-.068.337-.07.335-.072.335-.075.335-.076.037-.009a1.933,1.933,0,1,1,.894,3.761l-.063.015-.358.081-.357.079-.36.077-.361.075-.361.074-.362.07-.363.068-.364.066-.365.064-.365.062-.245.04Zm15.245-4.654a1.933,1.933,0,0,1-1.636-3.5l.24-.111.3-.143.3-.145.3-.146.3-.148.3-.15.3-.151.3-.155.3-.155.295-.156.294-.158.113-.063a1.933,1.933,0,0,1,1.868,3.385l-.134.074-.315.17-.315.167-.317.166-.316.164-.319.162-.32.161-.321.158-.322.156-.324.156-.325.153-.24.112Zm13.434-8.582a1.933,1.933,0,1,1-2.517-2.934l.221-.189.251-.215.25-.218.248-.219.246-.221.245-.222.245-.224.243-.225.242-.226.239-.228.239-.228.1-.1a1.933,1.933,0,0,1,2.7,2.765l-.116.113-.255.245-.257.245-.258.242-.26.241-.26.238-.263.238-.264.235-.265.235-.267.233-.267.231-.221.188ZM210.723,239.8a1.933,1.933,0,0,1-3.2-2.162l.136-.2.185-.275.183-.276.182-.279.18-.279.178-.279.176-.282.175-.282.174-.284.171-.285.171-.287.088-.149a1.932,1.932,0,1,1,3.339,1.946l-.1.17-.181.306-.184.3-.185.3-.186.3-.19.3-.191.3-.192.3-.195.3-.2.3-.2.295-.136.2Zm7.105-14.272a1.933,1.933,0,0,1-3.669-1.216l.11-.33.105-.321.1-.322.1-.322.1-.325.1-.325.1-.326.094-.326.092-.327.089-.328.088-.328v0a1.933,1.933,0,1,1,3.744.962l-.005.02-.094.352-.1.35-.1.35-.1.35-.1.348-.1.346-.107.346-.108.346-.111.345-.113.343-.11.331Z" transform="translate(-48.149 -143.333)" fill="#4f7497"/>
      <path id="Path_6403" data-name="Path 6403" d="M5.49.32a1.765,1.765,0,0,1-.422,3.5l-.054-.007L4.7,3.78l-.317-.036-.316-.033L3.747,3.68l-.319-.029L3.11,3.624,2.79,3.6l-.32-.023-.32-.022-.321-.019-.154-.008A1.764,1.764,0,0,1,1.853,0L2.03.011l.344.021.343.022L3.058.08,3.4.107l.342.029L4.08.167,4.42.2l.34.036L5.1.274l.337.039L5.49.32Z" transform="matrix(0.996, -0.087, 0.087, 0.996, 656.022, 1.198)" fill="#4f7497"/>
    </g>
  </g>
</svg>
