<?xml version="1.0" encoding="UTF-8"?>
<svg id="Layer_2" data-name="Layer 2" xmlns="http://www.w3.org/2000/svg" viewBox="0 0 417.1 423.61">
  <defs>
    <style>
      .cls-1, .cls-2 {
        fill: none;
        stroke: #263238;
        stroke-miterlimit: 10;
        stroke-width: .75px;
      }

      .cls-3 {
        fill: #fff;
      }

      .cls-4 {
        fill: #dbdbdb;
      }

      .cls-5 {
        fill: #d3766a;
      }

      .cls-6 {
        fill: #455a64;
      }

      .cls-7, .cls-8 {
        opacity: .2;
      }

      .cls-9 {
        fill: #c7c7c7;
      }

      .cls-10, .cls-11 {
        opacity: .1;
      }

      .cls-12 {
        fill: #ebebeb;
      }

      .cls-13 {
        fill: #ffc727;
      }

      .cls-8, .cls-14 {
        fill: #263238;
      }

      .cls-2 {
        stroke-dasharray: 0 0 4.06 4.06;
      }

      .cls-11 {
        fill: #030402;
      }
    </style>
  </defs>
  <g id="Background_Complete" data-name="Background Complete">
    <g>
      <rect class="cls-12" x="370.95" y="281.85" width="26.48" height="11.19" transform="translate(768.39 574.89) rotate(180)"/>
      <path class="cls-12" d="M385.73,307.15l13.36-.28,6.58-.11c2.19-.05,4.36-.04,6.55-.05l-.45,.45-.05-11.19,.5,.5-13.24-.06c-4.41,0-8.83-.11-13.24-.16l.27-.27c-.02,1.83-.09,3.67-.13,5.54l-.14,5.65Zm0,0l-.14-5.54c-.05-1.87-.11-3.76-.13-5.65v-.27s.27,0,.27,0c4.41-.05,8.83-.16,13.24-.16l13.24-.06h.5s0,.5,0,.5l-.05,11.19v.45s-.45,0-.45,0c-2.23-.02-4.47,0-6.69-.05l-6.66-.11-13.12-.28Z"/>
      <path class="cls-12" d="M190.69,197.24l13.36-.28,6.58-.11c2.19-.05,4.36-.04,6.55-.06l-.45,.45-.05-11.19,.5,.5-13.24-.06c-4.41,0-8.83-.11-13.24-.16l.27-.27c-.02,1.83-.09,3.67-.13,5.54l-.14,5.65Zm0,0l-.14-5.54c-.05-1.87-.11-3.76-.13-5.65v-.27s.27,0,.27,0c4.41-.05,8.83-.16,13.24-.16l13.24-.06h.5s0,.5,0,.5l-.05,11.19v.45s-.45,0-.45,0c-2.23-.02-4.47,0-6.69-.06l-6.66-.11-13.12-.28Z"/>
      <rect class="cls-12" x="205.46" y="200.16" width="26.48" height="11.19" transform="translate(437.4 411.51) rotate(180)"/>
      <path class="cls-12" d="M175.69,211.35l13.36-.28,6.58-.11c2.19-.05,4.36-.04,6.55-.06l-.45,.45-.05-11.19,.5,.5-13.24-.06c-4.41,0-8.83-.11-13.24-.16l.27-.27c-.02,1.83-.09,3.67-.13,5.54l-.14,5.65Zm0,0l-.14-5.54c-.05-1.87-.11-3.76-.13-5.65v-.27s.27,0,.27,0c4.41-.05,8.83-.16,13.24-.16l13.24-.06h.5s0,.5,0,.5l-.05,11.19v.45s-.45,0-.45,0c-2.23-.02-4.47,0-6.69-.05l-6.66-.11-13.12-.28Z"/>
      <rect class="cls-12" x="231.46" y="58.43" width="26.48" height="11.19" transform="translate(489.41 128.05) rotate(180)"/>
      <path class="cls-12" d="M4.89,307.15l13.36-.28,6.58-.11c2.19-.05,4.36-.04,6.55-.05l-.45,.45-.05-11.19,.5,.5-13.24-.06c-4.41,0-8.83-.11-13.24-.16l.27-.27c-.02,1.83-.09,3.67-.13,5.54l-.14,5.65Zm0,0l-.14-5.54c-.05-1.87-.11-3.76-.13-5.65v-.27s.27,0,.27,0c4.41-.05,8.83-.16,13.24-.16l13.24-.06h.5s0,.5,0,.5l-.05,11.19v.45s-.45,0-.45,0c-2.23-.02-4.47,0-6.69-.05l-6.66-.11-13.12-.28Z"/>
      <path class="cls-12" d="M19.66,23.86l13.36-.28,6.58-.11c2.19-.05,4.36-.04,6.55-.06l-.45,.45-.05-11.19,.5,.5-13.24-.06c-4.41,0-8.83-.11-13.24-.16l.27-.27c-.02,1.83-.09,3.67-.13,5.54l-.14,5.65Zm0,0l-.14-5.54c-.05-1.87-.11-3.76-.13-5.65v-.27s.27,0,.27,0c4.41-.05,8.83-.16,13.24-.16l13.24-.06h.5s0,.5,0,.5l-.05,11.19v.45s-.45,0-.45,0c-2.23-.02-4.47,0-6.69-.06l-6.66-.11-13.12-.28Z"/>
      <rect class="cls-12" x="4.89" y="26.78" width="26.48" height="11.19" transform="translate(36.26 64.75) rotate(180)"/>
      <path class="cls-12" d="M385.73,23.86l13.36-.28,6.58-.11c2.19-.05,4.36-.04,6.55-.06l-.45,.45-.05-11.19,.5,.5-13.24-.06c-4.41,0-8.83-.11-13.24-.16l.27-.27c-.02,1.83-.09,3.67-.13,5.54l-.14,5.65Zm0,0l-.14-5.54c-.05-1.87-.11-3.76-.13-5.65v-.27s.27,0,.27,0c4.41-.05,8.83-.16,13.24-.16l13.24-.06h.5s0,.5,0,.5l-.05,11.19v.45s-.45,0-.45,0c-2.23-.02-4.47,0-6.69-.06l-6.66-.11-13.12-.28Z"/>
    </g>
    <g>
      <g>
        <rect class="cls-12" x="55.87" y="343.43" width="71.95" height="79.67"/>
        <rect class="cls-4" x="18.72" y="343.43" width="37.15" height="79.68" transform="translate(74.6 766.54) rotate(180)"/>
        <g>
          <path class="cls-12" d="M21.28,417.62c2.75-5.67,5.48-11.35,8.18-17.05l8.06-17.14,7.96-17.21c2.64-5.75,5.25-11.51,7.84-17.3-2.75,5.67-5.48,11.35-8.18,17.05l-8.06,17.14-7.96,17.21c-2.64,5.75-5.25,11.51-7.84,17.3Z"/>
          <path class="cls-12" d="M21.28,348.92c2.59,5.78,5.2,11.55,7.84,17.3l7.96,17.21,8.06,17.14c2.7,5.7,5.43,11.39,8.18,17.05-2.59-5.78-5.2-11.55-7.84-17.3l-7.96-17.21-8.06-17.14c-2.7-5.7-5.43-11.39-8.18-17.05Z"/>
        </g>
      </g>
      <g>
        <rect class="cls-12" x="55.87" y="223.1" width="71.95" height="74.18"/>
        <rect class="cls-4" x="18.72" y="223.1" width="37.15" height="74.19" transform="translate(74.6 520.4) rotate(180)"/>
        <polygon class="cls-4" points="85.74 240.32 87.26 240.32 88.41 240.32 89.06 239 89.98 240.32 91.22 237.59 92.4 240.32 95.76 240.32 97.3 240.32 97.86 238.5 98.38 240.32 99.38 240.32 99.38 223.1 85.74 223.1 85.74 240.32"/>
        <g>
          <path class="cls-12" d="M21.28,292.56c2.75-5.28,5.48-10.57,8.18-15.88l8.06-15.96,7.96-16.03c2.64-5.35,5.25-10.72,7.84-16.11-2.75,5.27-5.48,10.57-8.18,15.88l-8.06,15.96-7.96,16.03c-2.64,5.35-5.25,10.72-7.84,16.11Z"/>
          <path class="cls-12" d="M21.28,228.59c2.59,5.39,5.2,10.76,7.84,16.11l7.96,16.03,8.06,15.96c2.7,5.31,5.43,10.6,8.18,15.88-2.59-5.39-5.2-10.76-7.84-16.11l-7.96-16.03-8.06-15.96c-2.7-5.31-5.43-10.6-8.18-15.88Z"/>
        </g>
        <rect class="cls-3" x="60.61" y="284.69" width="7.99" height="7.99" transform="translate(129.21 577.37) rotate(180)"/>
      </g>
      <g>
        <rect class="cls-4" x="51.08" y="297.29" width="71.95" height="46.14"/>
        <rect class="cls-9" x="13.93" y="297.29" width="37.15" height="46.14" transform="translate(65.01 640.72) rotate(180)"/>
        <polygon class="cls-3" points="80.95 314.51 82.47 314.51 83.61 314.51 84.27 313.18 85.18 314.51 86.43 311.78 87.6 314.51 90.97 314.51 92.51 314.51 93.06 312.69 93.59 314.51 94.59 314.51 94.59 297.29 80.95 297.29 80.95 314.51"/>
        <g>
          <path class="cls-4" d="M16.49,340.69c2.75-3.35,5.48-6.72,8.18-10.09l8.06-10.14,7.96-10.19c2.64-3.4,5.25-6.81,7.84-10.24-2.75,3.35-5.48,6.71-8.18,10.09l-8.06,10.14-7.96,10.19c-2.64,3.4-5.25,6.81-7.84,10.24Z"/>
          <path class="cls-4" d="M16.49,300.04c2.59,3.42,5.2,6.84,7.84,10.24l7.96,10.19,8.06,10.14c2.7,3.37,5.43,6.74,8.18,10.09-2.59-3.42-5.2-6.84-7.84-10.24l-7.96-10.18-8.06-10.14c-2.7-3.37-5.43-6.74-8.18-10.09Z"/>
        </g>
      </g>
      <g>
        <rect class="cls-4" x="331.22" y="353.41" width="71.95" height="69.7"/>
        <rect class="cls-9" x="294.07" y="353.41" width="37.15" height="69.7" transform="translate(625.29 776.52) rotate(180)"/>
        <polygon class="cls-3" points="361.09 370.63 362.61 370.63 363.76 370.63 364.41 369.3 365.33 370.63 366.57 367.9 367.74 370.63 371.11 370.63 372.65 370.63 373.21 368.81 373.73 370.63 374.73 370.63 374.73 353.41 361.09 353.41 361.09 370.63"/>
        <g>
          <path class="cls-4" d="M296.63,418.96c2.75-5.06,5.48-10.14,8.18-15.24l8.06-15.32,7.96-15.38c2.64-5.14,5.25-10.29,7.84-15.46-2.75,5.06-5.48,10.14-8.18,15.24l-8.06,15.32-7.96,15.38c-2.64,5.14-5.25,10.29-7.84,15.46Z"/>
          <path class="cls-4" d="M296.63,357.56c2.59,5.17,5.2,10.33,7.84,15.46l7.96,15.38,8.06,15.32c2.7,5.1,5.43,10.18,8.18,15.24-2.59-5.17-5.2-10.33-7.84-15.46l-7.96-15.38-8.06-15.32c-2.7-5.1-5.43-10.18-8.18-15.24Z"/>
        </g>
      </g>
    </g>
    <g>
      <g>
        <g>
          <path class="cls-12" d="M278.06,8.61V178.71h117.06V8.61h-117.06Zm112.74,165.78h-108.42V12.93h108.42V174.39Z"/>
          <rect class="cls-3" x="282.38" y="12.93" width="108.42" height="161.46"/>
          <rect class="cls-12" x="282.39" y="96.5" width="108.42" height="4.32" transform="translate(673.2 197.32) rotate(180)"/>
        </g>
        <rect class="cls-4" x="270.12" y="178.71" width="132.97" height="12.4" transform="translate(673.2 369.81) rotate(180)"/>
        <polygon class="cls-12" points="273.64 196.06 399.56 198.7 399.56 191.1 273.64 191.1 273.64 196.06"/>
        <g>
          <path class="cls-4" d="M282.39,12.93h108.42V123.86h-108.42V12.93Zm104.42,4h-100.42V119.86h100.42V16.93Z"/>
          <rect class="cls-4" x="354.05" y="12.93" width="2.16" height="106.93"/>
          <rect class="cls-4" x="316.99" y="12.93" width="2.16" height="106.93"/>
        </g>
      </g>
      <g>
        <g>
          <path class="cls-12" d="M21.97,8.61V178.71h117.06V8.61H21.97Zm112.74,165.78H26.29V12.93h108.42V174.39Z"/>
          <rect class="cls-3" x="26.29" y="12.93" width="108.42" height="161.46"/>
          <rect class="cls-12" x="26.29" y="96.5" width="108.42" height="4.32" transform="translate(161 197.32) rotate(180)"/>
        </g>
        <rect class="cls-4" x="14.02" y="178.71" width="132.97" height="12.4" transform="translate(161 369.81) rotate(180)"/>
        <polygon class="cls-12" points="17.54 196.06 143.46 198.7 143.46 191.1 17.54 191.1 17.54 196.06"/>
        <g>
          <path class="cls-4" d="M26.29,12.93h108.42V123.86H26.29V12.93Zm104.42,4H30.29V119.86h100.42V16.93Z"/>
          <rect class="cls-4" x="97.95" y="12.93" width="2.16" height="106.93"/>
          <rect class="cls-4" x="60.89" y="12.93" width="2.16" height="106.93"/>
        </g>
      </g>
    </g>
  </g>
  <g id="Boxes">
    <g>
      <g>
        <rect class="cls-13" x="197.58" y="340.72" width="99.68" height="82.36"/>
        <rect class="cls-10" x="197.58" y="340.72" width="99.68" height="82.36"/>
        <rect class="cls-13" x="297.26" y="340.72" width="39.5" height="82.36"/>
        <rect class="cls-7" x="297.26" y="340.72" width="39.5" height="82.36"/>
        <g>
          <path class="cls-13" d="M334.03,417.4c-2.92-5.86-5.83-11.73-8.7-17.63l-8.57-17.71-8.46-17.79c-2.81-5.94-5.58-11.9-8.33-17.88,2.93,5.86,5.83,11.73,8.7,17.63l8.57,17.72,8.46,17.79c2.81,5.94,5.58,11.9,8.33,17.88Z"/>
          <path class="cls-13" d="M334.03,346.39c-2.75,5.98-5.53,11.94-8.33,17.88l-8.46,17.79-8.57,17.72c-2.87,5.9-5.77,11.77-8.7,17.63,2.75-5.98,5.53-11.94,8.33-17.88l8.46-17.79,8.57-17.71c2.87-5.9,5.77-11.77,8.7-17.63Z"/>
        </g>
        <polygon class="cls-3" points="254.47 358.51 252.89 358.51 251.71 358.51 251.03 357.14 250.09 358.51 248.8 355.69 247.59 358.51 244.11 358.51 242.52 358.51 241.94 356.63 241.4 358.51 240.37 358.51 240.37 340.72 254.47 340.72 254.47 358.51"/>
      </g>
      <g>
        <rect class="cls-13" x="228.9" y="258.36" width="74.37" height="82.35"/>
        <rect class="cls-13" x="303.27" y="258.36" width="38.4" height="82.36"/>
        <rect class="cls-10" x="303.27" y="258.36" width="38.4" height="82.36"/>
        <g class="cls-10">
          <path d="M297.82,335.04c-5.46-5.86-10.88-11.73-16.24-17.62l-16-17.71-15.79-17.79c-5.24-5.94-10.42-11.9-15.56-17.88,5.46,5.86,10.88,11.73,16.24,17.62l16,17.71,15.79,17.79c5.24,5.94,10.42,11.9,15.56,17.88Z"/>
          <path d="M297.82,264.03c-5.14,5.98-10.32,11.94-15.56,17.88l-15.79,17.79-16,17.71c-5.36,5.9-10.77,11.77-16.24,17.62,5.13-5.98,10.32-11.94,15.56-17.88l15.79-17.79,16-17.71c5.36-5.9,10.77-11.77,16.24-17.62Z"/>
        </g>
        <rect class="cls-3" x="329.53" y="326.78" width="6.73" height="9.5"/>
      </g>
    </g>
  </g>
  <g id="Floor">
    <polygon class="cls-14" points="0 423.11 52.14 422.87 104.27 422.78 208.55 422.61 312.82 422.78 364.96 422.86 417.1 423.11 364.96 423.35 312.82 423.44 208.55 423.61 104.27 423.44 52.14 423.35 0 423.11"/>
  </g>
  <g id="Fly">
    <g>
      <g>
        <path class="cls-1" d="M246.78,138.09c.57,.34,1.13,.7,1.69,1.06"/>
        <path class="cls-2" d="M251.81,141.46c18.09,13.38,32.17,37.71,16.41,61.49-9.29,14-25.03,8.24-30.45,3.22-5.99-5.54-.48-11.22,5.51-7.43,10.38,6.58,11.84,21.8,.34,33.05-7.49,7.33-17.24,7.79-22.61,7.36"/>
        <path class="cls-1" d="M218.99,238.93c-1.24-.18-1.97-.35-1.97-.35"/>
      </g>
      <g>
        <path class="cls-14" d="M208.85,237.81c-.47,4.03,7.7,6.24,8.31,.97,.62-5.27-7.84-5-8.31-.97Z"/>
        <g>
          <path class="cls-12" d="M219.58,244.43c-.76,1.52-3.45,1.72-6.23-.21-2.78-1.93-4.7-5.28-4.7-5.28,0,0,3.83-.46,7.04,.61,3.21,1.08,4.65,3.35,3.88,4.88Z"/>
          <g>
            <path class="cls-14" d="M208.65,238.94c1.58,.71,3.13,1.48,4.67,2.25,1.54,.79,3.08,1.57,4.59,2.41-1.58-.71-3.13-1.48-4.67-2.25-1.54-.79-3.08-1.57-4.59-2.41Z"/>
            <path class="cls-14" d="M215.91,244.4c-.36-.41-.67-.86-.97-1.31-.29-.46-.58-.92-.82-1.41,.36,.41,.67,.86,.97,1.31,.29,.46,.58,.92,.82,1.41Z"/>
            <path class="cls-14" d="M212.53,240.89c.55-.16,1.12-.24,1.68-.33,.57-.07,1.13-.15,1.7-.15-.55,.16-1.12,.24-1.68,.33-.57,.07-1.13,.15-1.7,.15Z"/>
            <path class="cls-14" d="M211.68,241.55c-.19-.21-.31-.45-.44-.69-.11-.25-.23-.49-.28-.77,.19,.21,.31,.45,.44,.69,.11,.25,.23,.49,.28,.77Z"/>
          </g>
        </g>
        <g>
          <path class="cls-12" d="M220.87,233.96c-.39-1.65-2.96-2.47-6.11-1.23-3.15,1.24-5.79,4.05-5.79,4.05,0,0,3.62,1.34,7,1.03,3.37-.31,5.3-2.19,4.9-3.85Z"/>
          <g>
            <path class="cls-14" d="M208.97,236.78c1.7-.33,3.38-.72,5.07-1.11,1.68-.41,3.36-.81,5.02-1.28-1.7,.32-3.38,.72-5.07,1.11-1.68,.41-3.36,.81-5.02,1.28Z"/>
            <path class="cls-14" d="M217.29,233.14c-.45,.32-.85,.69-1.25,1.05-.39,.38-.78,.76-1.12,1.18,.45-.32,.85-.69,1.25-1.05,.39-.38,.78-.76,1.12-1.18Z"/>
            <path class="cls-14" d="M213.2,235.78c.5,.28,1.03,.49,1.56,.71,.53,.2,1.07,.4,1.62,.54-.5-.28-1.03-.49-1.56-.71-.53-.2-1.07-.4-1.62-.54Z"/>
            <path class="cls-14" d="M212.52,234.94c-.23,.16-.41,.36-.59,.56-.17,.21-.34,.43-.45,.68,.23-.16,.41-.36,.59-.56,.17-.21,.33-.43,.45-.68Z"/>
          </g>
        </g>
        <path class="cls-6" d="M208.85,237.81c.8,.09,1.38,.82,1.28,1.62-.09,.8-.82,1.38-1.62,1.28s-1.38-.82-1.28-1.62c.09-.8,.82-1.38,1.62-1.28Z"/>
        <path class="cls-6" d="M209.19,234.9c.8,.09,1.38,.82,1.28,1.62s-.82,1.38-1.62,1.28-1.38-.82-1.28-1.62c.09-.8,.82-1.38,1.62-1.28Z"/>
      </g>
    </g>
  </g>
  <g id="Character">
    <g>
      <g>
        <g>
          <g>
            <path class="cls-5" d="M118.52,331.97s-21.29,42.69-21.3,42.73c-1.76,8.82-3.15,16.58-3.49,20.66,0,.02-.01,.04,0,.07-.13,1.54-.11,2.54,.11,2.85,.02,.03,.02,.05,.04,.07,2.27,2.3,72.33,18.43,74.96,18.17,2.64-.25,2.1-7.78-.12-10.58-2.24-2.8-26.29-20.97-26.29-20.97l20.85-42.76-44.75-10.24Z"/>
            <path class="cls-12" d="M167.78,416.52c-2.63,.26-71.64-15.88-73.9-18.17-.02-.02-.03-.04-.04-.07-.22-.31-.23-1.32-.11-2.85,0-.03,0-.04,.01-.07,.34-4.08,1.73-11.85,3.48-20.67,0-.01,2.74-5.48,5.1-10.22l44.2,12.12-4.08,8.38s23,18.17,25.23,20.97c2.23,2.8,2.76,10.33,.12,10.58Z"/>
            <g>
              <path class="cls-14" d="M168.73,415.4c-2.66,.2-72.89-17.7-75.13-20.08-.87-.89,1.15-11.28,3.94-23.75,.03-.13,.06-.26,.09-.39l45.44,11.04-.21,.76s23.82,18.88,26,21.75c2.17,2.86,2.54,10.47-.13,10.66Z"/>
              <g>
                <path class="cls-3" d="M168.63,412.48c-11.76-3.31-59.53-15.54-71.41-17.92-.1-.02-.11,.05-.02,.07,11.59,3.53,59.45,15.38,71.38,18.04,.25,.06,.3-.12,.05-.19Z"/>
                <path class="cls-3" d="M146.63,384.09c-4.44-2.06-10.32-2.79-14.72-.38-.17,.09-.04,.33,.13,.33,4.97-.28,9.49-.11,14.43,.64,.35,.05,.49-.44,.17-.58Z"/>
                <path class="cls-3" d="M149.47,386.97c-4.44-2.06-10.32-2.79-14.72-.38-.17,.09-.04,.33,.13,.33,4.97-.28,9.49-.11,14.43,.64,.35,.05,.49-.44,.17-.58Z"/>
                <path class="cls-3" d="M152.32,389.86c-4.44-2.06-10.32-2.79-14.72-.38-.17,.09-.04,.33,.13,.33,4.97-.28,9.49-.11,14.43,.64,.35,.05,.49-.44,.17-.58Z"/>
              </g>
              <path class="cls-13" d="M170.45,413.16c1.13,.8-.21,4.96-1.21,5.06-.99,.11-77.48-19.75-78.71-20.38-1.23-.62,.44-5.17,2.01-5.03,1.57,.15,77.9,20.34,77.9,20.34Z"/>
              <path class="cls-3" d="M107.22,382c-4.44-3.84-10.42,3.05-5.97,6.9,4.44,3.84,10.42-3.05,5.97-6.9Z"/>
            </g>
          </g>
          <g>
            <path class="cls-6" d="M102.47,361.06l51.24,12.92s47.76-86.19,46.69-108.1c-1.48-30.25-36.96-123.14-36.96-123.14h-42.48s28.2,100.45,28.56,117.35c.19,8.84-47.06,100.97-47.06,100.97Z"/>
            <g>
              <path class="cls-14" d="M155.9,363.58c-2.73-1.09-27.12-8.13-45.32-11.98-.12-.03-.16,.15-.04,.19,5.73,2.02,41.89,11.53,45.28,12,.11,.02,.2-.15,.08-.2Z"/>
              <path class="cls-14" d="M153.06,238.51c-3.38-14.18-6.94-28.32-10.8-42.38-3.87-14.12-7.87-28.22-12.34-42.17-.55-1.7-1.11-3.4-1.67-5.1-.09-.26-.49-.14-.41,.12,3.97,13.88,8.02,27.75,11.8,41.69,3.78,13.94,7.4,27.92,10.8,41.95,.84,3.48,1.67,6.95,2.49,10.43,.84,3.59,1.75,7.2,2.17,10.87,.4,3.53,.2,7.03-.7,10.47-.89,3.38-2.32,6.57-3.77,9.74-6.13,13.3-12.27,26.59-18.37,39.91-6.11,13.34-7.11,16.38-12.97,29.84-.73,1.67-1.46,3.34-2.15,5.02-.05,.11,.11,.2,.17,.09,6.7-13.18,7.73-16.36,13.95-29.77,6.26-13.5,12.5-27,18.71-40.51,2.8-6.1,6.09-12.32,6.51-19.14,.44-7.09-1.8-14.23-3.42-21.06Z"/>
            </g>
          </g>
        </g>
        <g>
          <g>
            <path class="cls-5" d="M155.38,348.86s1.64,46.99,1.64,47.03c.27,8.99,.66,16.86,1.25,20.92,0,.02,0,.04,.01,.07,.22,1.53,.46,2.5,.75,2.76,.02,.02,.03,.04,.05,.06,2.73,1.73,74.62,1.69,77.13,.85,2.52-.83,.29-8.06-2.5-10.28-2.81-2.22-30.34-14.52-30.34-14.52l-2.09-46.96-45.91,.09Z"/>
            <path class="cls-12" d="M156.69,386.24s.34,9.62,.34,9.65c.27,8.99,.66,16.86,1.25,20.92,0,.02,0,.04,.01,.07,.31,1.51,.57,2.5,.75,2.76,.02,.02,.03,.04,.05,.06,2.73,1.73,74.62,1.69,77.13,.85,2.52-.83,.29-8.06-2.5-10.28-2.81-2.22-30.34-14.52-30.34-14.52l-.21-9.8-46.48,.31Z"/>
            <g>
              <path class="cls-14" d="M236.25,420.44c-2.54,.81-75.01-.31-77.74-2.11-1.05-.66-1.5-11.23-1.68-24.02,0-.13,0-.27,0-.4l46.76,.2-.03,.79s27.55,12.84,30.34,15.13c2.77,2.28,4.9,9.6,2.35,10.4Z"/>
              <g>
                <path class="cls-3" d="M235.48,417.61c-12.21-.49-61.51-1.31-73.62-.87-.1,0-.1,.07,0,.08,12.09,.75,61.39,1.17,73.61,.99,.26,0,.26-.19,0-.2Z"/>
                <path class="cls-3" d="M207.49,395.11c-4.79-.97-10.68-.33-14.41,3.04-.14,.13,.04,.33,.2,.29,4.77-1.42,9.21-2.31,14.18-2.72,.35-.03,.37-.54,.03-.61Z"/>
                <path class="cls-3" d="M210.92,397.25c-4.79-.97-10.68-.32-14.41,3.04-.14,.13,.04,.33,.2,.29,4.77-1.42,9.21-2.31,14.18-2.72,.35-.03,.37-.54,.03-.61Z"/>
                <path class="cls-3" d="M214.36,399.4c-4.79-.97-10.68-.33-14.41,3.04-.14,.13,.04,.33,.2,.29,4.77-1.42,9.21-2.31,14.18-2.72,.35-.03,.37-.54,.03-.61Z"/>
              </g>
              <path class="cls-13" d="M237.4,417.86c1.29,.52,.94,4.87,0,5.21-.94,.33-79.95-1.24-81.29-1.56-1.34-.32-.77-5.13,.79-5.36,1.56-.22,80.49,1.71,80.49,1.71Z"/>
              <path class="cls-3" d="M168.67,402.21c-5.21-2.71-9.43,5.39-4.21,8.1,5.21,2.71,9.43-5.39,4.21-8.1Z"/>
            </g>
          </g>
          <g>
            <path class="cls-6" d="M162.92,142.7s0,.01-.01,.04c-.19,.87-10.78,42.74-12.1,43.53-1.5,.88,38.48,54.68,43.22,81.08,3.03,16.89,9.95,115.34,9.95,115.34h-50.92s-4.99-83.6-6.66-111.16c-.65-10.69-40.75-60.11-44.56-93.06-1.2-10.38,6.26-35.78,6.26-35.78h54.82Z"/>
            <g>
              <path class="cls-14" d="M151.77,342.83c-.61-13.85-1.16-27.73-2.17-41.56-.57-7.84-1.69-15.42-2.47-23.24-.04-.41-.37-.51-.36-.09,.36,13.91,1.51,27.67,2.25,41.57,.74,13.85,1.45,17.14,2.23,30.99,.44,7.84,.83,15.68,1.44,23.51,0,.12,.19,.12,.19,0,.03-13.91-.52-17.28-1.12-31.18Z"/>
              <path class="cls-14" d="M194.09,267.93c-.49-3.65-1.1-7.29-2.13-10.83-1-3.46-2.47-6.76-4.13-9.95-3.47-6.66-7.42-13.1-11.23-19.58-3.86-6.56-7.78-13.08-11.8-19.53-2.26-3.63-4.53-7.25-6.82-10.87-2.31-3.66-4.76-7.23-7.16-10.83-.09-.14-.32,0-.23,.14,3.9,6.53,7.76,13.09,11.66,19.63,3.9,6.53,7.74,13.1,11.59,19.67,3.78,6.46,7.57,12.92,11.18,19.47,1.73,3.14,3.38,6.34,4.59,9.72,1.25,3.47,1.99,7.08,2.57,10.71,1.36,8.47,2.47,16.99,4.17,25.39,.02,.11,.19,.08,.19-.03-.53-7.72-1.45-15.44-2.47-23.11Z"/>
              <path class="cls-14" d="M199.52,373.87c-2.92-.38-25.12-1.15-43.7-.35-.13,0-.12,.18,0,.19,6.06,.54,40.27,.77,43.67,.38,.11-.01,.16-.2,.02-.22Z"/>
              <g>
                <path class="cls-14" d="M157.47,183.32c-5.21,1.79-10.23,4.34-15.04,7-.19,.1-.06,.4,.14,.31,5.07-2.18,10.23-4.26,15.17-6.71,.39-.19,.13-.74-.27-.6Z"/>
                <path class="cls-14" d="M159,148.62c-.01-.17-.32-.21-.32-.02,.04,6.01-.34,11.3-.85,16.92-.24,2.61-2.33,17.03-6.86,15.98-.76-.18-1.14-.92-1.26-2.06-.14-1.37,.37-3.06,.6-4.42,.5-3.02,.91-6.05,1.16-9.1,.48-5.69,.51-11.38-.18-17.06-.02-.19-.29-.17-.29,.02,0,7.88-.2,15.74-1.38,23.55-.57,3.75-2.45,9.4,1.47,9.97,4,.59,6.58-8.87,7.07-11.46,1.36-7.22,1.41-15.01,.84-22.32Z"/>
                <path class="cls-14" d="M151.09,181.89c-.41,.97-.74,1.98-1.02,2.99-.22,.79-.51,1.64-.42,2.46,.02,.16,.23,.17,.31,.07,.53-.67,.75-1.59,1.05-2.39,.34-.92,.71-1.84,1.03-2.78,.21-.62-.7-.94-.95-.35Z"/>
              </g>
              <path class="cls-14" d="M153.21,284.89c-.47-7.11-.45-14.63-3.47-21.23-1.5-3.27-3.57-6.24-5.54-9.24-2.07-3.16-4.11-6.33-6.12-9.53-8.04-12.77-15.72-25.8-22.75-39.15-3.39-6.43-6.51-13.07-8.21-20.17-1.78-7.43-1.85-15.21-.93-22.76,.23-1.89,.49-3.77,.81-5.65,.02-.14-.18-.19-.21-.05-1.53,7.22-2.33,14.65-1.67,22.03,.63,7.11,2.89,13.84,5.87,20.29,3.1,6.71,6.79,13.17,10.43,19.61,3.75,6.63,7.61,13.2,11.59,19.7,3.96,6.47,8.12,12.79,12.25,19.15,2,3.08,3.86,6.24,4.87,9.8,1.03,3.61,1.31,7.38,1.55,11.11,1.02,15.74,5.01,68.07,6.42,83.73,.18,1.99,.36,3.98,.54,5.96,.02,.18,.28,.17,.28,0-.61-15.71-4.67-67.91-5.71-83.6Z"/>
              <path class="cls-14" d="M128.75,156.46c-.02-.11-.18-.07-.19,.03-.15,4.38-.02,8.89-1.71,13.02-1.54,3.79-4.64,6.45-8.11,8.44-2,1.15-4.12,2.12-6.23,3.05-.15,.07-.09,.31,.08,.26,4.04-1.28,8.13-2.67,11.48-5.35,3.58-2.87,5.15-7.04,5.33-11.55,.1-2.65-.21-5.28-.65-7.89Z"/>
            </g>
          </g>
        </g>
      </g>
      <g>
        <g>
          <g>
            <path class="cls-5" d="M150.94,85.23c5.71,17.56,21.17,47.47,26.69,51.08,4.89,3.19,27.9-.37,37.96-2.8,3.77-.91-4.7-29.57-8.7-28.52-4.81,1.26-19.14,4.49-20.18,3.7-1.15-.87-15.49-18.6-25.73-29.08-9.29-9.5-12.19-1.02-10.03,5.63Z"/>
            <g>
              <g>
                <path class="cls-5" d="M213.42,133.73c1.93-.24,18.26-.98,25.75-5.07,3.97-2.17,14.2-9.35,13.19-11.93-.93-2.35-4.22-1.07-4.22-1.07,0,0,4.52-3.27,3.19-6.53-1.33-3.26-6.76-.81-6.76-.81,0,0,4.39-3.7,2.84-6.85-1.56-3.15-6.61,.22-6.61,.22,0,0,4.17-3.19,1.8-5.25-2.86-2.48-9.89,4.28-14.63,5.86-1.08,.36-22.37,5.74-22.37,5.74l7.82,25.69Z"/>
                <g>
                  <path class="cls-14" d="M240.62,101.6c-5.18,4.95-8.31,6.22-15.22,7.63-.14,.03-.13,.23,.02,.22,6.9-.76,11.05-1.78,15.46-7.61,.22-.28,0-.47-.25-.24Z"/>
                  <path class="cls-14" d="M244.4,108.2c-5.83,4.68-9.21,6.08-16.35,8.08-.1,.03-.06,.2,.04,.18,7.17-1.38,11.28-2.5,16.49-7.93,.24-.25,.08-.55-.19-.33Z"/>
                  <path class="cls-14" d="M247.8,115.75c-5.97,4.12-9.61,5.82-16.79,6.87-.17,.02-.15,.27,.02,.27,7.42-.36,11.98-2.45,16.87-6.95,.33-.31,.27-.45-.11-.2Z"/>
                </g>
              </g>
              <g>
                <path class="cls-5" d="M200.02,108.96s5.95-6.73,9.21-9.11c3.27-2.38,18.7-6.78,19.84-3.5,1.47,4.23-6.94,8.53-11.33,10.09,0,0,3.41,9.79-1.96,14.18-5.37,4.39-15.76-11.66-15.76-11.66Z"/>
                <path class="cls-14" d="M229.09,97.65c-1.45,4.83-7.35,6.51-11.49,8.35-.32,.14-.31,.44-.16,.66,1.15,4.2,1.56,10.46-1.38,13.99-.09,.1,.05,.24,.15,.15,3.67-3.36,3.77-9.55,2.21-14.06,4.28-1.82,10.13-3.76,10.72-9.07,0-.03-.04-.04-.05-.01Z"/>
              </g>
            </g>
          </g>
          <g>
            <path class="cls-13" d="M213.41,138.68l-7.55-34.34-18.66,3.39c-7.36-8.43-22.07-25.28-28.03-30.34-6.99-5.94-11.58-1.47-9.01,7.52,5.87,20.56,22.92,50.72,27.41,53.61,6.44,4.15,35.83,.17,35.83,.17Z"/>
            <path class="cls-11" d="M186.77,118.16c.86,.3,1.91,.21,2.81,.33,1.97,.27,2.88,3.22,1.06,4.34-1.95,1.2-4.3,1.39-6.45,.55-2.01-.78-3.69-2.72-3.26-4.98,.38-1.98,2.42-2.55,3.99-1.54,.64,.41,1.11,1.05,1.84,1.3Zm-5.16-8.17c-.72,3.41,4.54,6.32,7.23,4.51,.96-.65,.93-2.13,.07-2.83-.78-.64-1.45-.74-2.15-1.32-.34-.28-.27-.23-.64-.67-.45-.55-.85-.97-1.49-1.33-1.3-.72-2.75,.39-3.02,1.64Zm-8.39,.18c-1.08,1.41-.27,3.53,.68,4.81,.94,1.26,2.33,2.08,3.93,1.91,1.21-.13,1.74-1.81,.74-2.56-.63-.47-1.11-1.1-1.4-1.75-.47-1.06-.79-2.42-1.97-2.89-.68-.27-1.52-.13-1.99,.47Zm22.15,22.24c-1.41,2.85,2.88,6.09,5.49,5.53,.87-.19,1.71-1.33,.93-2.15-.62-.65-1.36-1.18-1.94-1.88-.71-.85-1.09-1.94-2.21-2.37-.89-.34-1.84,0-2.27,.87Zm-40.28-34.95c-.24-.45-.57-.89-.98-1.21,.56,1.43,1.15,2.87,1.77,4.31,.12-1.05-.35-2.24-.79-3.1Zm5.57-3.01c-.07-2.47-1.27-4.79-2.76-6.71-1.2-1.54-3.27-4.03-5.48-3.47-.52,.13-.76,.62-.8,1.1-.14,1.69,1.8,3.51,2.63,4.85,1.05,1.7,1.8,3.58,2.87,5.27,1.01,1.58,3.58,.89,3.52-1.04Zm-.65,10.76c.79-.06,1.49-.58,1.68-1.38,.19-.8,.07-1.55-.15-2.33-.18-.64-.51-1.48-1.05-1.91-.82-.65-2.07-.42-2.34,.69-.14,.56-.03,1.19-.02,1.76,0,.25,0,.51-.02,.76-.02,.38,.06,.75,.12,1.13,.13,.74,1.05,1.33,1.77,1.28Z"/>
            <path class="cls-14" d="M206.88,135.66c-.86-2.03-2.97-10.88-3.47-13.09-.49-2.17-2.21-11.15-2.72-13.42-.03-.12,.14-.2,.17-.07,.54,2.24,2.96,11.06,3.48,13.26,.52,2.21,2.52,11.07,2.66,13.3,0,.08-.09,.1-.11,.03Z"/>
            <path class="cls-10" d="M189.57,140.39c-5.25-.03-9.85-.51-11.98-1.88-4.5-2.9-21.54-33.05-27.41-53.61-1.48-5.16-.59-8.83,1.75-9.9l37.65,65.39Z"/>
          </g>
        </g>
        <g>
          <path class="cls-13" d="M104.93,147.37c.13,.19,62.53,8.19,63.19,7.61,.25-.21,.75-5.27,.75-5.27,0,0-5.72-67.94-8.68-71.92-2.59-3.49-10.45-6-15.8-3.73-11.23,4.76-38.12,65.46-37.83,67.96,0,0-1.8,5.11-1.64,5.34Z"/>
          <path class="cls-11" d="M127.43,139.1c.86,.56,2.03,.74,2.98,1.12,2.08,.83,2.27,4.3-.01,5.02-2.46,.78-5.07,.35-7.19-1.14-1.98-1.4-3.29-3.97-2.21-6.32,.95-2.06,3.34-2.12,4.78-.6,.59,.62,.93,1.45,1.66,1.92Zm-3.42-10.33c-1.71,3.53,3.24,8.13,6.67,6.88,1.23-.45,1.59-2.07,.84-3.07-.68-.91-1.38-1.2-1.99-2.02-.3-.4-.23-.32-.51-.91-.35-.73-.66-1.29-1.27-1.86-1.22-1.14-3.11-.32-3.74,.98Zm-5.77-3.76c-1.87,.7-2.35,3.22-2.21,5,.14,1.76,.99,3.37,2.62,4.16,1.23,.6,2.74-.69,2.23-2-.32-.82-.41-1.71-.3-2.5,.18-1.29,.69-2.79-.16-3.93-.49-.66-1.38-1.03-2.18-.73Zm20.5,11.9c-.99-.13-1.91,.61-2.04,1.58-.15,1.06,.58,1.98,1.55,2.31,.73,.24,1.36,.22,2.1,.01,.35-.1,.64-.43,.81-.72,.19-.32,.3-.71,.23-1.08-.12-.68-.65-1.33-1.37-1.45-.06-.07-.13-.15-.22-.22-.31-.25-.67-.39-1.06-.44Zm-15.34-24.13c-1.67,1.72-.96,5.63,.92,6.95,1.09,.76,2.67,.22,2.85-1.17,.06-.46,.03-.74,.02-1.19,0-.43-.05-.71-.04-.96,.05-.84,.28-1.77,.09-2.59-.44-1.89-2.51-2.42-3.84-1.04Zm-10.84,24.84c-2.31,2.74,1.5,7.44,4.49,7.53,1,.03,2.23-.99,1.6-2.09-.5-.88-1.17-1.66-1.61-2.58-.54-1.12-.67-2.42-1.77-3.19-.88-.61-2.01-.51-2.72,.33Zm55.17-.87c-.69,.11-1.34,.57-1.58,1.44-.32,1.11-.36,2.1-1.19,2.97-.84,.87-1.83,1.41-2.45,2.48-.54,.91,.26,2.26,1.34,2.14,1.73-.18,3.34-1.11,4.47-2.44-.16-1.88-.36-4.11-.59-6.59Zm-5.03-8.25c-.57,1.36-.46,2.9-.93,4.32-.42,1.28-.91,2.6-1.48,3.82-.42,.89,.42,2.32,1.52,1.84,1.82-.81,3.17-1.87,4.06-3.71,.76-1.57,1.6-4.21,.87-5.88-.67-1.54-3.22-2.35-4.04-.38Zm-5.7,13.63c-.89,.99-1.86,2.04-3.11,2.55-1.19,.49-1.89,1.67-1.32,2.93,.58,1.28,1.9,1.47,3.07,.94,2.09-.96,3.7-2.63,4.34-4.86,.49-1.7-1.85-2.82-2.98-1.56Zm-9.14-49c1.18,.19,2.29-.42,2.6-1.62,.56-2.15-1.36-4.37-2.88-5.71-1.57-1.38-3.66-2.56-5.79-1.87-1.35,.44-1.51,1.9-.71,2.89,.93,1.16,2.22,2.01,3.21,3.14,1.07,1.22,1.83,2.88,3.57,3.16Zm7.65,8.48c.84-1.21,.19-2.99-.41-4.15-.32-.61-.81-1.18-1.42-1.52-.83-.46-2.09-.4-2.56,.55-.31,.62-.28,1.18-.12,1.82,.08,.32,.2,.59,.34,.9,.02,.04,.03,.07,.04,.09,0,.02,.01,.05,.02,.08,.29,.93,.47,1.96,1.18,2.67,.93,.94,2.28,.51,2.94-.45Zm5.15-7.16c-.07-2.47-1.27-4.79-2.76-6.71-1.2-1.54-3.27-4.03-5.48-3.47-.52,.13-.76,.62-.8,1.1-.14,1.69,1.8,3.51,2.63,4.85,1.05,1.7,1.8,3.58,2.87,5.27,1.01,1.58,3.58,.89,3.52-1.04Zm-7.55,17.12c.37,.07,.75,.06,1.12-.03,.57-.14,1-.58,1.3-1.05,.31-.49,.36-1.17,.39-1.73,.03-.59-.21-1.1-.45-1.61-.11-.14-.22-.27-.33-.41-.15-.11-.29-.21-.44-.32-.4-.22-.85-.28-1.28-.2-.8,.13-1.46,.72-1.65,1.52-.14,.59-.32,1.17-.35,1.78,.03,.18,.06,.37,.09,.55,.07,.28,.21,.53,.4,.74,.29,.37,.72,.69,1.2,.78Zm6.9-6.36c.79-.06,1.49-.58,1.68-1.38,.19-.8,.07-1.55-.15-2.33-.18-.64-.51-1.48-1.05-1.91-.82-.65-2.07-.42-2.34,.69-.14,.56-.03,1.19-.02,1.76,0,.25,0,.51-.02,.76-.02,.38,.06,.75,.12,1.13,.13,.74,1.05,1.33,1.77,1.28Z"/>
        </g>
        <g>
          <g>
            <path class="cls-5" d="M156.56,88.44c-3.81-.35-8.69-8.49-9.62-13.66-.06-.36,1.46-3.36,3.13-7.1,1.01-2.27,2.07-4.83,2.88-7.23l13.84,8.71s-3.17,4.54-4.55,8.74c-.11,.35-.19,.69-.23,1.02-.01,.05-.02,.11-.03,.17-.32,1.98-1.74,9.69-5.43,9.36Z"/>
            <path class="cls-14" d="M162.01,78.91s-.01,.1-.03,.16c-.49-.08-1.02-.23-1.58-.43-8.65-3.12-7.13-14.48-6.52-17.62l3.46,2.18,9.45,5.95s-3.17,4.54-4.54,8.74c-.11,.35-.19,.68-.23,1.02Z"/>
          </g>
          <g>
            <path class="cls-5" d="M154.39,44.41c-2.86,5.15-3.35,21.69-.19,26.08,4.58,6.36,13.78,8.84,19.61,2.95,5.65-5.71,5.92-27.28,2.23-31.45-5.43-6.13-17.42-5.19-21.65,2.42Z"/>
            <g>
              <g>
                <path class="cls-14" d="M167.67,57.78s-.09,.05-.09,.1c0,1.14-.2,2.44-1.24,2.78-.03,.01-.03,.07,0,.06,1.26-.13,1.5-1.87,1.32-2.95Z"/>
                <path class="cls-14" d="M166.69,56.56c-1.82-.2-2.09,3.46-.4,3.65,1.66,.18,1.93-3.48,.4-3.65Z"/>
              </g>
              <g>
                <path class="cls-14" d="M174.23,58.17s.08,.06,.08,.11c-.13,1.13-.08,2.45,.92,2.91,.03,.01,.02,.07-.01,.06-1.24-.28-1.28-2.03-.98-3.08Z"/>
                <path class="cls-14" d="M175.34,57.07c1.84,0,1.69,3.68-.01,3.67-1.67,0-1.52-3.68,.01-3.67Z"/>
              </g>
              <path class="cls-14" d="M168.18,55.82c-.5,.11-.99,.12-1.5,.18-.58,.06-1.03,.17-1.56-.11-.29-.15-.42-.61-.3-.9,.28-.68,.96-.93,1.65-1.03,.75-.11,1.35,0,2,.38,.63,.37,.37,1.34-.3,1.49Z"/>
              <path class="cls-14" d="M176.97,53.66c-.5-.12-.94-.31-1.43-.48-.55-.19-1-.29-1.36-.77-.19-.26-.12-.73,.11-.94,.55-.49,1.27-.43,1.94-.22,.72,.22,1.22,.58,1.64,1.21,.41,.61-.25,1.37-.91,1.21Z"/>
              <path class="cls-14" d="M166.84,66.8c1.48-.47,3.32-.17,4.48,.06,.13-.01,.27-.26,.3-.38h0s.09-2.41,.09-2.41c.3,.18,1.87,1.01,1.87,.56,.03-3.75,.05-7.92-.71-11.66-.02-.12-.21-.11-.21,.01-.17,3.6,.3,7.21,.19,10.83-.5-.23-1.31-.65-1.77-.67-.13,.03,.04,2.55-.03,2.93,0,0-2.24-.84-4.19,.23-.51,.28-.72,.72-.01,.5Z"/>
              <path class="cls-14" d="M163.87,69.18c.25,.28,.5,.66,.91,.72,.39,.06,.86-.09,1.23-.21,.04-.01,.07,.03,.05,.06-.32,.41-.95,.65-1.47,.52-.5-.12-.73-.58-.82-1.05-.01-.07,.07-.09,.11-.04Z"/>
            </g>
            <g>
              <path class="cls-8" d="M159.22,39.16c-.15,2.58-.76,10.54-1.99,12.16-1.18,1.56-3.86,5.39-5.2,5.98,.18-5.31,1-10.36,2.38-12.97,1.13-2.17,2.82-3.91,4.81-5.17Z"/>
              <g>
                <path class="cls-14" d="M173.47,46.95c-1.43,1.43-3.49,2.07-5.47,1.6-1.93-.45-3.76-1.94-4.33-3.88-.02-.06-.11-.03-.09,.03,.6,2.07,2.12,3.85,4.3,4.31,2.05,.43,4.34-.36,5.69-1.96,.06-.07-.04-.17-.1-.1Z"/>
                <path class="cls-14" d="M168.45,32.13c-3.39-.17-6.62,1.48-8.02,3.7-.85,1.35-1.06,2.76-.94,4.22,0,.06,.13,.06,.13,0-.03-2.3,1.28-4.83,3.85-6.25,2.46-1.37,5.63-1.62,8.26-.4,1.38,.64,2.46,1.61,2.97,2.75,.06,.13,.32,.07,.27-.06-.77-2.18-3.45-3.8-6.51-3.95Z"/>
                <path class="cls-14" d="M187.56,40.85c-.42-1.7-1.48-3.21-2.89-4.23-1.98-1.43-4.34-1.41-6.68-1.34-.06,0-.06,.1,0,.1,2-.05,4.02,0,5.78,1.07,1.43,.86,2.58,2.22,3.14,3.81,1.15,3.29-.43,7.16-3.59,8.66-1.79,.85-3.93,.92-5.76,.18-.07-.03-.13,.08-.06,.11,3.35,1.45,7.5,.17,9.29-3.04,.89-1.59,1.22-3.53,.78-5.31Z"/>
                <path class="cls-14" d="M153.38,47.64s-2.75-6.29,.19-9.58c1.67-1.87,6.69-1.23,6.69-1.23,0,0,1.84-2.78,6.09-3.42,4.3-.65,9.13,2.2,9.13,2.2,0,0,4.18-1.99,7.78,.44,5.01,3.39,3.75,11.32-1.71,13.48-3.84,1.52-8.62-2.14-8.62-2.14-.49,.03-5.66,2.64-9.07-2.06,0,0-3.25,2.47-5.83,.37,0,0-1.59,2.64-4.66,1.94Z"/>
              </g>
            </g>
            <g>
              <path class="cls-5" d="M155.02,58.11s-2.62-5.87-5.21-5.03c-2.59,.84-1.32,8.85,1.23,10.41,2.56,1.56,4.04-.78,4.04-.78l-.07-4.6Z"/>
              <path class="cls-14" d="M150.23,55.37s-.06,.05-.03,.07c1.78,1.15,2.45,3.14,2.8,5.13-.44-.83-1.14-1.37-2.23-.87-.06,.03-.02,.11,.03,.11,.82-.02,1.37,.23,1.78,.97,.29,.52,.44,1.14,.61,1.71,.06,.19,.39,.16,.36-.05,0-.02,0-.03,0-.05,.52-2.45-.73-6.27-3.32-7.02Z"/>
            </g>
          </g>
        </g>
        <g>
          <rect class="cls-13" x="193.2" y="84.8" width="112.6" height="66.28" transform="translate(-23.6 78.24) rotate(-17.03)"/>
          <rect class="cls-7" x="193.2" y="84.8" width="112.6" height="66.28" transform="translate(-23.6 78.24) rotate(-17.03)"/>
          <rect class="cls-7" x="266.32" y="73.85" width="37.84" height="66.28" transform="translate(-18.83 88.23) rotate(-17.03)"/>
          <g>
            <path class="cls-13" d="M291.89,72.99c-1.21,5.61-2.4,11.22-3.55,16.84l-3.42,16.88-3.3,16.91c-1.08,5.64-2.13,11.29-3.16,16.95,1.21-5.61,2.4-11.22,3.56-16.84l3.42-16.88,3.3-16.91c1.08-5.64,2.13-11.29,3.16-16.95Z"/>
            <path class="cls-13" d="M309.66,131.01c-4.02-4.11-8.05-8.21-12.11-12.27l-12.2-12.16-12.28-12.07c-4.1-4.01-8.23-8-12.38-11.96,4.02,4.11,8.05,8.21,12.11,12.27l12.2,12.16,12.28,12.07c4.1,4.01,8.23,8,12.38,11.96Z"/>
          </g>
          <g>
            <g>
              <rect class="cls-14" x="205.36" y="102.29" width=".62" height="8.71" transform="translate(433.56 148.38) rotate(162.97)"/>
              <rect class="cls-14" x="203.95" y="102.72" width=".62" height="8.71" transform="translate(430.92 149.63) rotate(162.97)"/>
              <rect class="cls-14" x="202.53" y="103.16" width=".62" height="8.71" transform="translate(428.27 150.92) rotate(162.97)"/>
              <rect class="cls-14" x="201.12" y="103.59" width=".62" height="8.71" transform="translate(425.63 152.19) rotate(162.98)"/>
              <rect class="cls-14" x="199.7" y="104.03" width=".62" height="8.71" transform="translate(422.99 153.42) rotate(162.97)"/>
              <rect class="cls-14" x="198.28" y="104.46" width=".62" height="8.71" transform="translate(420.34 154.68) rotate(162.97)"/>
              <rect class="cls-14" x="196.87" y="104.89" width=".62" height="8.71" transform="translate(417.7 155.97) rotate(162.97)"/>
              <rect class="cls-14" x="195.45" y="105.33" width=".62" height="8.71" transform="translate(415.06 157.19) rotate(162.96)"/>
              <rect class="cls-14" x="194.03" y="105.76" width=".62" height="8.71" transform="translate(412.41 158.5) rotate(162.97)"/>
            </g>
            <path class="cls-14" d="M210.68,101.25l-2.47,.06,5.33-1.63-2.08,1.33,.94,3.06c1.69-.28,2.83,1.12,3.69,3.93l-5.33,1.63c-.86-2.8-.7-4.61,.86-5.32l-.94-3.07Z"/>
            <polygon class="cls-14" points="216.04 103.38 217.43 102.95 216.18 98.88 219.74 97.78 220.99 101.86 222.39 101.43 220.51 106.65 216.04 103.38"/>
          </g>
          <polygon class="cls-10" points="185.96 102.74 187.56 107.94 261.98 95.66 257.44 80.85 185.96 102.74"/>
          <g>
            <polygon class="cls-13" points="326.99 140.32 290.8 151.4 276.85 144.22 313.04 133.13 326.99 140.32"/>
            <polygon class="cls-7" points="326.99 140.32 290.8 151.4 276.85 144.22 313.04 133.13 326.99 140.32"/>
          </g>
          <polygon class="cls-13" points="197.84 179.88 234.03 168.79 241.56 155.03 205.37 166.11 197.84 179.88"/>
          <polygon class="cls-10" points="197.84 179.88 234.03 168.79 241.56 155.03 205.37 166.11 197.84 179.88"/>
        </g>
        <g>
          <g>
            <path class="cls-5" d="M138.28,92.96c5.29,17.69,20.02,47.97,25.46,51.7,4.81,3.31,27.9,.3,38.02-1.89,3.79-.82-3.99-29.68-8.02-28.72-4.84,1.15-19.24,4.03-20.27,3.21-1.12-.9-15.04-18.97-25.03-29.69-9.06-9.72-12.16-1.31-10.16,5.38Z"/>
            <g>
              <path class="cls-5" d="M191.66,116.4s7.65-8.62,13.07-11.91c7.26-4.4,15.34-5.21,18.74-5.35,7.11-.28,24.5,3.95,24.15,9.17-.31,4.73-17.87-.5-17.87-.5,0,0,18.78,2.37,17.35,7.99-1.42,5.62-21.45-1.6-21.45-1.6,0,0,19.24,2.87,16.85,8.43-1.8,4.2-20.31-1.31-20.31-1.31,0,0,16.52,2.58,14.85,6.98-1.84,4.87-19.25,.85-19.25,.85-6.12,10.48-13.32,12.97-18.65,14.13-1.29,.28-7.49-26.88-7.49-26.88Z"/>
              <g>
                <path class="cls-14" d="M223.31,106.57c2.22,.2,4.46,.38,6.65,.78,2.19,.39,4.37,.87,6.51,1.46,5.26,1.46,8.32,3.2,8.12,3.12-4.75-2.05-12.57-3.59-14.76-3.98-2.19-.39-4.35-.9-6.54-1.29-.06,0-.03-.09,.02-.08Z"/>
                <path class="cls-14" d="M221.75,114.46c2.82,.38,5.63,.65,8.43,1.15,2.79,.5,5.39,1.21,8.14,1.9,.21,.05,.11,.15-.1,.1-2.77-.58-5.38-.9-8.16-1.45-2.77-.54-5.54-1.2-8.32-1.64-.04,0-.03-.07,.01-.07Z"/>
                <path class="cls-14" d="M219.18,120.98c4.34,.35,8.6,1.51,12.76,2.74,.21,.06,.07,.17-.15,.12-4.22-.99-7.53-1.8-12.62-2.71-.08-.01-.08-.16,.01-.15Z"/>
              </g>
            </g>
          </g>
          <g>
            <path class="cls-13" d="M199.45,147.89l-6.72-34.51-18.73,2.94c-7.15-8.6-21.46-25.8-27.3-31.01-6.85-6.11-11.54-1.75-9.19,7.3,5.38,20.7,21.7,51.25,26.12,54.25,6.34,4.3,35.82,1.03,35.82,1.03Z"/>
            <path class="cls-11" d="M186.77,118.16c.86,.3,1.91,.21,2.81,.33,1.97,.27,2.88,3.22,1.06,4.34-1.95,1.2-4.3,1.39-6.45,.55-2.01-.78-3.69-2.72-3.26-4.98,.38-1.98,2.42-2.55,3.99-1.54,.64,.41,1.11,1.05,1.84,1.3Zm-1.97-3.54c1.38,.57,2.93,.63,4.04-.12,.23-.16,.41-.36,.52-.6l-4.56,.72Zm-9.73,1.52c.79,.56,1.73,.86,2.76,.75,.73-.08,1.22-.72,1.26-1.38l-4.02,.63Zm21.2,15.41c-.37,.15-.69,.44-.9,.86-.84,1.69,.33,3.51,1.96,4.6l-1.06-5.46Zm-30.12,6.64c-.32,1.11-.36,2.1-1.19,2.97-.83,.87-1.82,1.41-2.45,2.48-.54,.91,.27,2.26,1.35,2.14,3.44-.37,6.43-3.7,6.13-7.22-.19-2.21-3.22-2.52-3.84-.37Zm-3.45-9.69c-.57,1.36-.46,2.9-.93,4.32-.42,1.28-.91,2.6-1.48,3.82-.42,.89,.42,2.32,1.52,1.84,1.82-.81,3.17-1.87,4.06-3.71,.76-1.57,1.6-4.21,.87-5.88-.67-1.54-3.22-2.35-4.04-.38Zm-14.85-35.37c1.18,.19,2.29-.42,2.6-1.62,.56-2.15-1.36-4.37-2.88-5.71-1.57-1.38-3.66-2.56-5.79-1.87-1.35,.44-1.51,1.9-.71,2.89,.93,1.16,2.22,2.01,3.21,3.14,1.07,1.22,1.83,2.88,3.57,3.16Zm7.65,8.48c.84-1.21,.19-2.99-.41-4.15-.32-.61-.81-1.18-1.42-1.52-.83-.46-2.09-.4-2.56,.55-.31,.62-.28,1.18-.12,1.82,.08,.32,.2,.59,.34,.9,.02,.04,.03,.07,.04,.09,0,.02,.01,.05,.02,.08,.29,.93,.47,1.96,1.18,2.67,.93,.94,2.28,.51,2.94-.45Zm-2.4,9.96c.37,.07,.75,.06,1.12-.03,.57-.14,1-.58,1.3-1.05,.31-.49,.36-1.17,.39-1.73,.03-.59-.21-1.1-.45-1.61-.11-.14-.22-.27-.33-.41-.15-.11-.29-.21-.44-.32-.4-.22-.85-.28-1.28-.2-.8,.13-1.46,.72-1.65,1.52-.14,.59-.32,1.17-.35,1.78,.03,.18,.06,.37,.09,.55,.07,.28,.21,.53,.4,.74,.29,.37,.72,.69,1.2,.78Zm8.44-10.06s-.01-.01-.01-.02c-.65-.75-1.31-1.51-1.95-2.25-.63-.05-1.25,.29-1.43,1.04-.14,.56-.04,1.18-.02,1.76,0,.25-.01,.5-.02,.76-.02,.38,.05,.75,.12,1.12,.12,.75,1.05,1.34,1.77,1.28,.79-.06,1.49-.58,1.68-1.38,.19-.78,.07-1.54-.14-2.31Z"/>
            <g>
              <path class="cls-14" d="M192.99,144.72c-.81-2.05-2.71-10.95-3.16-13.17-.44-2.18-1.95-11.2-2.4-13.48-.02-.12,.15-.2,.17-.07,.49,2.25,2.69,11.12,3.16,13.34,.47,2.22,2.26,11.12,2.34,13.36,0,.08-.09,.09-.11,.03Z"/>
              <g>
                <path class="cls-14" d="M186.81,148.86c-3.07,.17-6.14,.24-9.21,.22-4.6-.18-9.4,.1-13.76-1.73-3.83-2.83-5.86-7.25-8.23-11.2-3-5.38-5.58-10.98-8.1-16.58-2.46-5.63-4.8-11.32-6.91-17.09,5.1,11.16,10.08,22.39,15.82,33.23,2.26,3.83,4.24,8.29,7.72,11.11,1.27,.68,2.82,.96,4.31,1.21,6.05,.87,12.22,.88,18.35,.84h0Z"/>
                <path class="cls-14" d="M142.57,107.36c-.8-.84-1.54-1.79-1.88-2.92,.63,.96,1.37,1.88,1.88,2.92h0Z"/>
              </g>
              <g>
                <path class="cls-14" d="M158.33,98.09c5.47,5.61,10.13,11.95,15.49,17.64,.08,.08,.15,.14,.22,.2,.05,.05,.02,0,.02,.03,0,0,.07,0,.11,0,1.68-.07,6.15-.84,7.9-1.07,3.56-.52,7.11-1.06,10.68-1.55,0,0,0,.03,0,.03,0,0,.13,.88,.13,.88l-.21-.87,.04,.03c-6.2,1.25-12.32,2.59-18.63,3.26-.31,.03-.58-.22-.78-.41-5.35-5.64-10.02-12.22-15-18.18h0Z"/>
                <path class="cls-14" d="M159.65,98.4c.69,.93,1.33,1.97,1.53,3.13-.51-1.03-1.14-2.04-1.53-3.13h0Z"/>
              </g>
            </g>
          </g>
        </g>
      </g>
    </g>
  </g>
  <g id="Plant">
    <g>
      <g>
        <path class="cls-13" d="M39.71,359.88c-.38-9.36-.23-18.73,.39-28.07,1.26-19.27,4.44-38.39,8.79-57.19,2.45-10.58,5.47-20.99,8.62-31.38,.1-.31,.6-.23,.51,.1-9.73,36.64-17.71,74.45-17.16,112.54,.15,10.66,1.39,21.13,2.4,31.72,.03,.28-.44,.4-.5,.11-2.01-9.06-2.66-18.56-3.04-27.82Z"/>
        <path class="cls-13" d="M58.02,243.34s14.74,37.41,11.44,46.21c-3.3,8.79-10.1,10.67-10.1,10.67,0,0,9.02,12.88,2.72,24.95-6.3,12.08-20.31,11.51-21.24,25.2,0,0-.78-57.26,17.18-107.03Z"/>
        <path class="cls-14" d="M42.44,326.73c-.02-.06-.01-.13,.02-.2,2.07-25.44,6.58-50.8,14.3-75.27,.02-.07,.14-.05,.12,.03-2.92,10.94-5.52,21.95-7.74,33.01,1.91-1.97,4.42-3.1,7.04-3.92,.05-.02,.07,.05,.03,.08-2.73,1.18-5.34,2.54-7.27,4.85-.43,2.17-.85,4.34-1.25,6.51,3.29-3.68,7.86-5.51,12.43-7.24,.06-.02,.1,.07,.04,.1-4.76,1.94-9.5,4.44-12.73,8.54-1.12,6.21-2.11,12.44-2.96,18.69,2.41-2.52,5.38-4.21,8.79-5.04,.1-.02,.16,.13,.06,.16-3.5,1.01-6.52,2.97-8.91,5.71-.02,.02-.04,.03-.05,.04-.29,2.2-.57,4.4-.83,6.6,1.85-1.58,3.9-2.79,6.16-3.72,.06-.02,.09,.07,.03,.09-2.29,.98-4.36,2.38-6.17,4.08-.03,.02-.05,.02-.08,.03-.25,2.1-.49,4.19-.7,6.29,3.38-4.07,7.56-7.02,12.5-8.93,.1-.04,.15,.11,.05,.15-4.81,2.09-9.04,5.4-12.32,9.48-.09,.11-.21,.13-.31,.1-.32,3.22-.6,6.44-.84,9.67,0,.04-.08,.05-.07,0,.19-3.31,.42-6.61,.68-9.92Z"/>
        <path class="cls-14" d="M54.28,276.66c2.56-1.76,5.81-2.51,8.86-2.76,.07,0,.08,.1,0,.11-3.17,.47-5.84,1.62-8.76,2.86-.13,.05-.22-.14-.11-.21Z"/>
        <path class="cls-14" d="M52.49,316.27c2.02-1.21,4.33-1.9,6.65-2.27,.08-.01,.09,.11,0,.13-2.35,.43-4.44,1.26-6.58,2.31-.09,.04-.17-.11-.08-.16Z"/>
      </g>
      <g>
        <path class="cls-13" d="M.96,290.16c6.15,4.32,12.05,9.31,17.06,14.91,5.34,5.98,9.24,12.76,11.97,20.29,5.58,15.43,8.63,32.14,8.91,48.53,.16,9.19-.66,18.31-2.63,27.29-.07,.33-.56,.23-.51-.1,2.4-15.8,2.32-31.93-.27-47.71-2.53-15.48-6.51-32.32-16.35-44.9-5.36-6.85-12.04-12.24-18.64-17.81-.35-.29,.1-.77,.45-.52Z"/>
        <path class="cls-13" d="M36.73,362.75s-5.06-8.53-12.44-15.9c-7.37-7.37-13.58-12.61-14.54-17.49-.96-4.88,7.39-8.47,7.39-8.47,0,0-10.2,1.83-13-2.45-2.79-4.28-4.14-29.09-4.14-29.09,0,0,18.56,13.25,27.21,31.83,8.65,18.58,9.52,41.56,9.52,41.56Z"/>
        <path class="cls-14" d="M6.42,295.72c7.81,7.67,15.67,15.85,20.27,25.93,1.58,3.46,2.92,7.04,4.1,10.69,0,0,0,.01,0,.02,.24,.73,.48,1.46,.7,2.2,.02,.04,.03,.08,.04,.12,2.27,7.53,3.88,15.31,5.27,22.92,0,.05-.07,.08-.08,.02-.8-3.87-1.68-7.78-2.67-11.67-.04,0-.07,0-.11-.02-1.58-.66-3.17-1.08-4.87-1.24-.11-.01-.1-.2,.01-.2,1.65,.08,3.26,.37,4.82,.88-.9-3.51-1.88-7.02-2.98-10.47-3.58-.88-7.32-1.35-11.01-1.44-.04,0-.04-.06,0-.06,3.72-.17,7.21,.15,10.83,.92-.19-.59-.39-1.18-.59-1.77-2.42-.55-4.85-1.02-7.33-1.24-.04,0-.04-.08,0-.08,2.42,.07,4.81,.32,7.17,.87-1.01-2.99-2.1-5.94-3.31-8.81-1-2.37-2.19-4.63-3.5-6.81-1.98-.45-3.91-.88-5.94-1.06-.06,0-.05-.1,0-.1,1.85-.12,3.77,.02,5.56,.55-.98-1.58-2-3.12-3.1-4.62h0c-4.16-.92-8.38-1.78-12.64-.98-.07,.01-.1-.11-.03-.13,4.05-1.07,8.08-.45,12.11,.35-.44-.59-.89-1.16-1.35-1.74-2.56-.79-5.1-1.17-7.78-1.22-.05,0-.06-.08,0-.09,2.45-.23,4.89,0,7.25,.64-3.44-4.28-7.24-8.29-11-12.26-.17-.18-.04-.29,.15-.11Z"/>
        <path class="cls-14" d="M6.63,312.63c1.22-.13,2.46-.27,3.69-.13,.15,.02,.14,.26-.01,.26-1.22,.04-2.44-.06-3.67,.01-.09,0-.11-.14-.01-.15Z"/>
        <path class="cls-14" d="M19.99,336.69c1.95-.02,3.9,.5,5.72,1.15,.05,.02,.02,.09-.03,.08-1.89-.45-3.8-.63-5.71-.95-.16-.03-.15-.28,.01-.28Z"/>
        <path class="cls-14" d="M24,328.38c.79-.04,1.65,.1,2.43,.22,.08,.01,.08,.14,0,.14-.79,.01-1.66,.03-2.43-.11-.14-.03-.13-.24,.01-.25Z"/>
      </g>
      <g>
        <path class="cls-13" d="M91.15,316.48c-5.97,2.08-11.9,4.75-17.25,8.13-5.71,3.6-10.43,8.19-14.37,13.66-8.08,11.19-14.42,24.01-18.43,37.22-2.25,7.4-3.7,14.97-4.18,22.69-.02,.28,.4,.32,.43,.04,1.71-13.35,5.51-26.38,11.24-38.55,5.63-11.94,12.74-24.65,23.61-32.55,5.92-4.3,12.57-7.12,19.2-10.1,.35-.16,.1-.65-.25-.53Z"/>
        <path class="cls-13" d="M45.42,366.96s6.07-5.73,13.74-9.99c7.67-4.26,13.91-7.07,15.81-10.79,1.9-3.72-4.02-8.56-4.02-8.56,0,0,7.84,3.84,11.08,1.02,3.25-2.82,10.07-22.58,10.07-22.58,0,0-18.09,6.44-29.38,19.47-11.29,13.04-17.31,31.43-17.31,31.43Z"/>
        <path class="cls-14" d="M46.37,362.88c9.05-16.98,21.12-32.34,37.66-42.48,0,0,.01,0,0,.01-4.35,2.77-8.37,5.98-12.11,9.47,3.35-.09,6.76,.44,9.72,2.05,.07,.04,.02,.12-.05,.1-3.31-1.12-6.49-1.85-10.01-1.69-.05,0-.08-.02-.11-.04-.59,.56-1.17,1.12-1.74,1.69,1.74,.07,3.5,.32,5.2,.69,.05,0,.03,.08-.01,.07-1.84-.35-3.63-.48-5.49-.45-3.03,3.05-5.85,6.3-8.53,9.69,1.21-.18,2.48-.07,3.63,.26,.09,.02,.06,.15-.03,.14-1.32-.17-2.57-.15-3.88-.05-.5,.63-1,1.26-1.48,1.9,3.72-.22,7.36,.13,10.98,1.07,.05,.01,.04,.1-.02,.08-3.73-.73-7.49-.97-11.28-.73-.46,.61-.9,1.24-1.35,1.86,2.22-.07,4.37,.21,6.53,.75,.08,.02,.06,.15-.03,.13-2.23-.51-4.49-.64-6.76-.53-1.95,2.68-3.81,5.42-5.6,8.2,.95-.2,1.94-.09,2.87,.17,.05,.01,.04,.08-.02,.08-1.06-.12-2.06,.01-3.1,.15-1.61,2.51-3.17,5.04-4.66,7.59-.13,.21-.47,.05-.35-.17Z"/>
        <path class="cls-14" d="M60.44,348.8c1.77-.15,3.57,.13,5.26,.64,.05,.01,.04,.09-.01,.08-1.74-.32-3.46-.44-5.23-.54-.12,0-.14-.17-.01-.19Z"/>
        <path class="cls-14" d="M76.22,328.1c.8-.09,1.63,.01,2.42,.14,.09,.02,.06,.15-.03,.14-.8-.09-1.58-.06-2.38-.08-.13,0-.15-.19-.02-.21Z"/>
      </g>
      <g>
        <g>
          <polygon class="cls-6" points="22.09 423.11 62.92 423.11 57.1 380.46 55.61 369.53 29.4 369.53 27.92 380.46 22.09 423.11"/>
          <polygon class="cls-14" points="27.92 380.46 57.1 380.46 55.61 369.53 29.4 369.53 27.92 380.46"/>
        </g>
        <rect class="cls-6" x="25.66" y="365.74" width="33.71" height="9.26" transform="translate(85.02 740.73) rotate(180)"/>
      </g>
    </g>
  </g>
  <g id="Speech_Bubble" data-name="Speech Bubble">
    <g>
      <g>
        <path class="cls-3" d="M239.55,22.43c0,12.27-9.95,22.22-22.22,22.22-4.96,0-9.54-1.63-13.24-4.38l-10.88,2.78,4.53-10.14c-1.68-3.12-2.63-6.7-2.63-10.48,0-12.27,9.95-22.22,22.22-22.22s22.22,9.95,22.22,22.22Z"/>
        <path class="cls-14" d="M239.55,22.43c-.04,4.08-1.1,8.19-3.28,11.67-.49,.9-1.16,1.68-1.76,2.52-.7,.75-1.34,1.56-2.13,2.22-1.49,1.41-3.2,2.58-5.02,3.53-1.81,1-3.8,1.59-5.8,2.05-1.02,.16-2.03,.36-3.07,.38-1.03,.09-2.06,.08-3.09,0-4.13-.31-8.16-1.8-11.52-4.25l.3,.06-10.86,2.86-.88,.23,.37-.84,4.49-10.15,.02,.42c-3.35-6.04-3.52-13.63-.7-19.88,1.41-3.13,3.54-5.92,6.17-8.1,2.63-2.19,5.78-3.72,9.08-4.52,3.31-.79,6.79-.84,10.1-.11,3.31,.75,6.43,2.25,9.07,4.35,5.36,4.13,8.54,10.83,8.52,17.56Zm0,0c-.03-6.73-3.25-13.38-8.61-17.44-2.66-2.03-5.78-3.45-9.05-4.12-3.27-.66-6.68-.53-9.89,.3-3.21,.84-6.23,2.39-8.73,4.56-2.49,2.17-4.5,4.88-5.84,7.89-1.37,3.01-1.9,6.34-1.82,9.62,.14,3.29,1.02,6.54,2.56,9.44l.11,.21-.1,.21-4.57,10.12-.51-.6,10.91-2.7,.17-.04,.13,.1c3.2,2.44,7.1,3.97,11.13,4.35,1.01,.1,2.02,.12,3.03,.05,1.02,0,2.02-.18,3.02-.32,1.98-.41,3.96-.96,5.76-1.91,1.82-.9,3.55-2.02,5.03-3.42,.79-.65,1.43-1.45,2.13-2.19,.6-.82,1.28-1.6,1.77-2.49,2.2-3.45,3.29-7.54,3.36-11.62Z"/>
      </g>
      <path class="cls-13" d="M218.88,24.84v2.45c0,1.05-.79,1.84-1.85,1.84-.98,0-1.84-.79-1.84-1.84v-3.92s.04-.04,.04-.08t-.04-.08c0-.98,.87-1.85,1.84-1.85,2.37,0,4.29-1.88,4.29-4.22s-1.92-4.22-4.29-4.22c-1.54,0-2.9,.83-3.61,2.07-.53,.9-1.66,1.2-2.56,.68-.87-.53-1.17-1.62-.64-2.52,1.35-2.33,3.91-3.92,6.81-3.92,4.37,0,7.94,3.54,7.94,7.91,0,3.73-2.6,6.85-6.1,7.68Zm0,8.24v.68c0,1.05-.79,1.85-1.85,1.85-.98,0-1.84-.79-1.84-1.85v-.68c0-1.02,.87-1.84,1.84-1.84,1.05,0,1.85,.83,1.85,1.84Z"/>
    </g>
  </g>
</svg>