<svg id="Group_25621" data-name="Group 25621" xmlns="http://www.w3.org/2000/svg" xmlns:xlink="http://www.w3.org/1999/xlink" width="250" height="244.41" viewBox="0 0 250 244.41">
  <defs>
    <clipPath id="clip-path">
      <rect id="Rectangle_11743" data-name="Rectangle 11743" width="250" height="244.41" fill="none"/>
    </clipPath>
    <clipPath id="clip-path-3">
      <rect id="Rectangle_11709" data-name="Rectangle 11709" width="223.752" height="215.834" fill="none"/>
    </clipPath>
    <clipPath id="clip-path-11">
      <path id="Path_23191" data-name="Path 23191" d="M110.473,386s-8.34.178-8.34.51a10.153,10.153,0,0,1,.944,6.618c-.131.968-1.265,2.808-1.093,5.122s.641,2.315.641,2.315,8.553.048,14.477-.053a38.388,38.388,0,0,0,5.514-.279s.344-2.285-.392-3.419c-1.389-2.149-4.743-.594-4.938-.41h-.005c-.024-.006-.1-.018-.125-.024a5.87,5.87,0,0,1-4.606-5.989,4.331,4.331,0,0,1,.059-.671l.594-3.906Z" transform="translate(-101.967 -385.815)" fill="none"/>
    </clipPath>
    <clipPath id="clip-path-12">
      <rect id="Rectangle_11726" data-name="Rectangle 11726" width="20.731" height="14.761" fill="none"/>
    </clipPath>
    <clipPath id="clip-path-13">
      <rect id="Rectangle_11727" data-name="Rectangle 11727" width="15.136" height="14.761" fill="none"/>
    </clipPath>
    <clipPath id="clip-path-15">
      <path id="Path_23195" data-name="Path 23195" d="M93.08,282.093c1.87,7.681.231,9.153,0,15.925-.416,11.877-.475,9.6-.452,11.687.012.991-.95,2.44-.873,3.425s1.241,1.43,1.353,2.914-.617,2.339-.516,3.65a3.32,3.32,0,0,0,2.719,3.11,61.415,61.415,0,0,0,11.052-.671,3.226,3.226,0,0,0,2.1-2.131c.065-.131.13-.255.2-.362.451-.7-.243-1.122-.522-2.612s.374-1.537.3-2.511a1.353,1.353,0,0,0-.124-.475c-.606-1.419-.232-3.983-.012-7.7.516-8.725,1.157-18.555,1.122-25.571-.018-3.455-.605-18.8-1.115-31.649-.4-10.1-.76-18.644-.76-18.644l-22.407-1.341s7.265,50.186,7.943,52.958" transform="translate(-85.137 -229.135)" fill="none"/>
    </clipPath>
    <clipPath id="clip-path-16">
      <rect id="Rectangle_11729" data-name="Rectangle 11729" width="23.327" height="93.725" fill="none"/>
    </clipPath>
    <clipPath id="clip-path-18">
      <path id="Path_23207" data-name="Path 23207" d="M79.017,385.738s-8.4.176-8.427.508,1.186,2.178-.192,6.61c-.3.967-1.75,2.8-1.973,5.114s.243,2.31.243,2.31,19.023.106,20.046-.332c0,0,.735-2.278.2-3.409-1.069-2.25-4.993-.436-4.87-.41l-.123-.027c-2.927-.647-4.4-3.582-3.4-6.648l1.267-3.9Z" transform="translate(-68.363 -385.556)" fill="none"/>
    </clipPath>
    <clipPath id="clip-path-19">
      <rect id="Rectangle_11731" data-name="Rectangle 11731" width="20.743" height="14.734" fill="none"/>
    </clipPath>
    <clipPath id="clip-path-21">
      <path id="Path_23211" data-name="Path 23211" d="M75.407,282c.55,7.671-1.338,9.136-2.738,15.9-2.454,11.858-2.122,9.581-2.457,11.669-.159.991-1.367,2.432-1.462,3.42s.994,1.426.851,2.91-1.019,2.33-1.146,3.644a2.7,2.7,0,0,0,2.186,3.1,63.652,63.652,0,0,0,11.169-.668c1.7-.455,2.158-1.789,2.725-2.488s-.048-1.122-.077-2.608.638-1.536.732-2.509a1.385,1.385,0,0,0-.042-.475c-.366-1.416.453-3.976,1.311-7.691,2.013-8.709,4.347-18.524,5.513-25.528.581-3.488,2.676-19.125,4.384-32.034a22.935,22.935,0,0,0,2.472-7.762l-.084-10.412-22.176-1.34s-1.362,50.1-1.165,52.87" transform="translate(-68.441 -229.134)" fill="none"/>
    </clipPath>
    <clipPath id="clip-path-22">
      <rect id="Rectangle_11733" data-name="Rectangle 11733" width="23.035" height="8.115" fill="none"/>
    </clipPath>
    <clipPath id="clip-path-24">
      <path id="Path_23225" data-name="Path 23225" d="M78.953,150.037c1.436,2.628,5.345,7.856,4.881,12.1-.518,4.743-4.253,8.966-11.228,4.2.951,7.193,3.968,12.381,4.549,14.81,2.122,8.878.705,10.12-.287,18.906,10.079,5.15,22.3,2.59,27.652,1.025-1.632-8.906-.918-31.461-7.424-47.434l-2.433-.846c1.653,5.665.224,12.105-3.951,9.562s-5.828-9.865-7.078-13.071a5.081,5.081,0,0,0-1.283-.129,5.924,5.924,0,0,0-3.4.886" transform="translate(-72.607 -149.151)" fill="none"/>
    </clipPath>
    <clipPath id="clip-path-25">
      <rect id="Rectangle_11735" data-name="Rectangle 11735" width="18.808" height="3.256" fill="none"/>
    </clipPath>
    <clipPath id="clip-path-26">
      <rect id="Rectangle_11736" data-name="Rectangle 11736" width="12.385" height="11.231" fill="none"/>
    </clipPath>
  </defs>
  <g id="Group_25620" data-name="Group 25620" clip-path="url(#clip-path)">
    <g id="Group_25554" data-name="Group 25554">
      <g id="Group_25553" data-name="Group 25553" clip-path="url(#clip-path)">
        <g id="Group_25552" data-name="Group 25552" transform="translate(26.248 28.107)" opacity="0.7">
          <g id="Group_25551" data-name="Group 25551">
            <g id="Group_25550" data-name="Group 25550" clip-path="url(#clip-path-3)">
              <path id="Path_23160" data-name="Path 23160" d="M254.636,77.925c-13.48-20.463-39.1-32.614-63.865-30.29s-47.559,19.018-56.82,41.615c-4.73,11.542-6.234,24.493-13.311,34.822-7.256,10.589-19.343,16.907-31.2,22.182s-24.315,10.137-33.671,19.01-14.871,23.1-9.336,34.644c5.625,11.73,19.835,16.416,30.094,24.609s16.787,20.239,27.267,28.156c9.682,7.315,22.161,10.537,34.392,10.513s24.276-3.109,35.7-7.374c35.456-13.231,68.857-37.855,83-72.315,26.194-63.821-2.251-105.572-2.251-105.572" transform="translate(-44.22 -45.571)" fill="#ebebeb"/>
            </g>
          </g>
        </g>
      </g>
    </g>
    <g id="Group_25556" data-name="Group 25556">
      <g id="Group_25555" data-name="Group 25555" clip-path="url(#clip-path)">
        <path id="Path_23161" data-name="Path 23161" d="M303.052,321.279s8.606-.046,18.149-13.347c8.341-11.626-7.488-47.625-16.363-55.905s-26.15,36.942-24.143,48.4c2.858,16.322,15.16,20.434,22.358,20.851" transform="translate(-114.018 -102.023)" fill="#ffc727"/>
        <path id="Path_23162" data-name="Path 23162" d="M323.561,305.116l-13.248,13.171,1.336,33.56h-4.363c-.053-.231.113-23.351.255-50.317l-10.156-9.74c.772,0-.611-1.318-.748-1.448l10.928,7.6c.089-16.851.172-30.42.172-30.42l.991-1.241.552,18.021,9.367-6.743c-.137.131-1.52,1.448-.748,1.448l-8.524,8.476.8,25.963,14.459-10.405C324.434,303.229,322.451,305.116,323.561,305.116Z" transform="translate(-120.563 -108.227)" fill="none" stroke="#263238" stroke-miterlimit="10" stroke-width="1"/>
        <path id="Path_23163" data-name="Path 23163" d="M373.045,354.287a20.628,20.628,0,0,0,15.691-10.7c5.641-10.738-8.113-36.2-15.14-38.1-7.7-2.081-19.9,18.269-17.4,34.086,1.705,10.8,12.013,14.432,16.852,14.707" transform="translate(-144.634 -124.103)" fill="#ffc727"/>
        <path id="Path_23164" data-name="Path 23164" d="M385.2,341.5l-7.3,5.8c-.229-13.621-.414-24.5-.414-24.5l-.927-1.016-.334,13.906-.006.3-6.174-4.861s.994,1.009.484,1.014l5.637,6.134-.379,15.991-9.352-7.364s1.4,1.425.684,1.433l8.586,9.343-.044,1.845-.052,1.987-.3,12.615,3.031-.032c-.072-4.057-.138-8.308-.2-12.564-.06-3.619-.128-7.243-.179-10.733,0-.256-.009-.5-.014-.759l6.706-7.338C384.054,342.712,385.2,341.5,385.2,341.5Z" transform="translate(-148.931 -130.785)" fill="none" stroke="#263238" stroke-miterlimit="10" stroke-width="1"/>
        <path id="Path_23165" data-name="Path 23165" d="M327.165,393.171c-.974-.779-2.729-.766-4.263-.7.11-.982.521-1.95.64-2.932a2.749,2.749,0,0,0-1.074-2.719c-1.684-1.186-4.654-.728-6.978-.048.318-2.308-2.136-4.548-5.416-4.9s-6.93,1.246-7.9,3.492a6.972,6.972,0,0,0-6.193-1.172c-2.211.6-3.787,2.25-3.675,3.848-1.7-.115-3.591-.194-5,.54-2.068,1.079-1.924,3.262-3.516,4.674a2.9,2.9,0,0,0-2.791,1.024,9.7,9.7,0,0,0-.962,2.273c-.662,1.519-2.872,1.706-4.979,2.369l52.735.435c1.144-.363,2.123-1.15,2.076-2s-1.464-1.54-2.567-1.115c.386.009.99-2.168-.144-3.074" transform="translate(-111.795 -155.185)" fill="#e5b223"/>
        <path id="Path_23166" data-name="Path 23166" d="M380.91,400.075a4.189,4.189,0,0,0-2.612-.426c.068-.6.319-1.2.392-1.8a1.685,1.685,0,0,0-.658-1.667c-1.032-.726-2.853-.446-4.277-.029.2-1.414-1.309-2.787-3.319-3.006s-4.248.764-4.839,2.14a4.275,4.275,0,0,0-3.8-.719c-1.355.367-2.321,1.379-2.252,2.359a5.994,5.994,0,0,0-3.063.331c-1.268.661-1.179,2-2.156,2.865a1.779,1.779,0,0,0-1.71.627,5.925,5.925,0,0,0-.589,1.393c-.406.931-1.76,1.046-3.052,1.452l32.32.267c.7-.223,1.3-.7,1.273-1.223s-.9-.944-1.573-.683c.236.006.606-1.328-.088-1.884" transform="translate(-141.836 -159.777)" fill="#e5b223"/>
      </g>
    </g>
    <g id="Group_25558" data-name="Group 25558">
      <g id="Group_25557" data-name="Group 25557" clip-path="url(#clip-path)">
        <path id="Path_23167" data-name="Path 23167" d="M156.129,230.924a9.686,9.686,0,0,0-15.169,7.992v.059a3.4,3.4,0,0,0-5.063-.328,7.625,7.625,0,0,0-15.2.773,2.236,2.236,0,0,0-1.321-.42,2.3,2.3,0,0,0-2.269,1.922h53.936a6.806,6.806,0,0,0-11.235-5.17,9.731,9.731,0,0,0-1.383-2.613" transform="translate(-47.595 -93.163)" fill="none" stroke="#263238" stroke-linecap="round" stroke-linejoin="round" stroke-width="1"/>
        <path id="Path_23168" data-name="Path 23168" d="M324.729,112.033a11.762,11.762,0,0,1,15.652,11.1v.071a4.122,4.122,0,0,1,6.143-.4,9.252,9.252,0,0,1,18.448.938,2.714,2.714,0,0,1,1.6-.51,2.786,2.786,0,0,1,2.754,2.333H303.877a8.259,8.259,0,0,1,13.634-6.274,11.823,11.823,0,0,1,2.859-4.531" transform="translate(-123.505 -45.265)" fill="none" stroke="#263238" stroke-linecap="round" stroke-linejoin="round" stroke-width="1"/>
        <path id="Path_23169" data-name="Path 23169" d="M.587,79.742H66.04a8.259,8.259,0,0,0-13.634-6.274,11.756,11.756,0,0,0-22.87,3.84v.071a4.122,4.122,0,0,0-6.143-.4,9.252,9.252,0,0,0-18.448.938,2.714,2.714,0,0,0-1.6-.51A2.785,2.785,0,0,0,.587,79.742" transform="translate(-0.239 -26.639)" fill="#fff"/>
        <path id="Path_23170" data-name="Path 23170" d="M.587,79.742H66.04a8.259,8.259,0,0,0-13.634-6.274,11.756,11.756,0,0,0-22.87,3.84v.071a4.122,4.122,0,0,0-6.143-.4,9.252,9.252,0,0,0-18.448.938,2.714,2.714,0,0,0-1.6-.51A2.785,2.785,0,0,0,.587,79.742Z" transform="translate(-0.239 -26.639)" fill="none" stroke="#263238" stroke-miterlimit="10" stroke-width="1"/>
      </g>
    </g>
    <line id="Line_218" data-name="Line 218" x2="2.029" y2="12.685" transform="translate(87.579 76.244)" fill="none" stroke="#ffc727" stroke-miterlimit="10" stroke-width="1"/>
    <line id="Line_219" data-name="Line 219" x2="8.445" y2="10.231" transform="translate(79.907 80.732)" fill="none" stroke="#ffc727" stroke-miterlimit="10" stroke-width="1"/>
    <line id="Line_220" data-name="Line 220" x2="7.905" y2="3.092" transform="translate(78.57 89.417)" fill="none" stroke="#ffc727" stroke-miterlimit="10" stroke-width="1"/>
    <path id="Path_23171" data-name="Path 23171" d="M64.789,181.162v0Z" transform="translate(-26.332 -69.655)" fill="#fff"/>
    <line id="Line_221" data-name="Line 221" y1="9.781" transform="translate(38.457 101.726)" fill="none" stroke="#263238" stroke-linecap="round" stroke-linejoin="round" stroke-width="1"/>
    <rect id="Rectangle_11713" data-name="Rectangle 11713" width="23.02" height="7.209" transform="translate(15.437 104.298)" fill="#fff"/>
    <rect id="Rectangle_11714" data-name="Rectangle 11714" width="23.02" height="7.209" transform="translate(15.437 104.298)" fill="none" stroke="#263238" stroke-linecap="round" stroke-linejoin="round" stroke-width="1"/>
    <path id="Path_23172" data-name="Path 23172" d="M26.007,181.162v0Z" transform="translate(-10.57 -69.655)" fill="#fff"/>
    <line id="Line_222" data-name="Line 222" y1="9.781" transform="translate(15.437 101.726)" fill="none" stroke="#263238" stroke-linecap="round" stroke-linejoin="round" stroke-width="1"/>
    <rect id="Rectangle_11715" data-name="Rectangle 11715" width="46.521" height="81.012" transform="translate(96.435 162.756)" fill="#fff"/>
    <g id="Group_25560" data-name="Group 25560">
      <g id="Group_25559" data-name="Group 25559" clip-path="url(#clip-path)">
        <rect id="Rectangle_11716" data-name="Rectangle 11716" width="46.521" height="81.012" transform="translate(96.435 162.756)" fill="none" stroke="#263238" stroke-linecap="round" stroke-linejoin="round" stroke-width="1"/>
      </g>
    </g>
    <rect id="Rectangle_11718" data-name="Rectangle 11718" width="46.521" height="111.045" transform="translate(50.065 132.723)" fill="#fff"/>
    <g id="Group_25562" data-name="Group 25562">
      <g id="Group_25561" data-name="Group 25561" clip-path="url(#clip-path)">
        <rect id="Rectangle_11719" data-name="Rectangle 11719" width="46.521" height="111.045" transform="translate(50.065 132.723)" fill="none" stroke="#263238" stroke-linecap="round" stroke-linejoin="round" stroke-width="1"/>
      </g>
    </g>
    <rect id="Rectangle_11721" data-name="Rectangle 11721" width="46.521" height="132.459" transform="translate(3.319 111.309)" fill="#fff"/>
    <g id="Group_25564" data-name="Group 25564">
      <g id="Group_25563" data-name="Group 25563" clip-path="url(#clip-path)">
        <rect id="Rectangle_11722" data-name="Rectangle 11722" width="46.521" height="132.459" transform="translate(3.319 111.309)" fill="none" stroke="#263238" stroke-linecap="round" stroke-linejoin="round" stroke-width="1"/>
      </g>
    </g>
    <line id="Line_223" data-name="Line 223" y2="119.09" transform="translate(41.188 119.659)" fill="none" stroke="#ffc727" stroke-linecap="round" stroke-linejoin="round" stroke-width="1"/>
    <line id="Line_224" data-name="Line 224" y2="119.09" transform="translate(31.015 119.659)" fill="none" stroke="#ffc727" stroke-linecap="round" stroke-linejoin="round" stroke-width="1"/>
    <line id="Line_225" data-name="Line 225" y2="119.09" transform="translate(20.841 119.659)" fill="none" stroke="#ffc727" stroke-linecap="round" stroke-linejoin="round" stroke-width="1"/>
    <line id="Line_226" data-name="Line 226" y2="119.09" transform="translate(10.668 119.659)" fill="none" stroke="#ffc727" stroke-linecap="round" stroke-linejoin="round" stroke-width="1"/>
    <path id="Path_23173" data-name="Path 23173" d="M149.71,233.255v99.937" transform="translate(-60.847 -94.802)" fill="none" stroke="#ffc727" stroke-linecap="round" stroke-linejoin="round" stroke-width="1"/>
    <path id="Path_23174" data-name="Path 23174" d="M132.572,233.255v99.937" transform="translate(-53.882 -94.802)" fill="none" stroke="#ffc727" stroke-linecap="round" stroke-linejoin="round" stroke-width="1"/>
    <path id="Path_23175" data-name="Path 23175" d="M115.421,233.255v99.937" transform="translate(-46.911 -94.802)" fill="none" stroke="#92e3a9" stroke-linecap="round" stroke-linejoin="round" stroke-width="1"/>
    <path id="Path_23176" data-name="Path 23176" d="M98.282,233.255v99.937" transform="translate(-39.945 -94.802)" fill="none" stroke="#92e3a9" stroke-linecap="round" stroke-linejoin="round" stroke-width="1"/>
    <path id="Path_23177" data-name="Path 23177" d="M128.808,233.255H98.282" transform="translate(-39.945 -94.802)" fill="none" stroke="#ffc727" stroke-linecap="round" stroke-linejoin="round" stroke-width="1"/>
    <path id="Path_23178" data-name="Path 23178" d="M128.808,251.927H98.282" transform="translate(-39.945 -102.391)" fill="none" stroke="#ffc727" stroke-linecap="round" stroke-linejoin="round" stroke-width="1"/>
    <path id="Path_23179" data-name="Path 23179" d="M128.808,270.587H98.282" transform="translate(-39.945 -109.975)" fill="none" stroke="#ffc727" stroke-linecap="round" stroke-linejoin="round" stroke-width="1"/>
    <path id="Path_23180" data-name="Path 23180" d="M128.808,289.259H98.282" transform="translate(-39.945 -117.564)" fill="none" stroke="#ffc727" stroke-linecap="round" stroke-linejoin="round" stroke-width="1"/>
    <path id="Path_23181" data-name="Path 23181" d="M128.808,307.919H98.282" transform="translate(-39.945 -125.148)" fill="none" stroke="#ffc727" stroke-linecap="round" stroke-linejoin="round" stroke-width="1"/>
    <path id="Path_23182" data-name="Path 23182" d="M128.808,326.591H98.282" transform="translate(-39.945 -132.737)" fill="none" stroke="#ffc727" stroke-linecap="round" stroke-linejoin="round" stroke-width="1"/>
    <path id="Path_23183" data-name="Path 23183" d="M128.808,345.263H98.282" transform="translate(-39.945 -140.326)" fill="none" stroke="#ffc727" stroke-linecap="round" stroke-linejoin="round" stroke-width="1"/>
    <path id="Path_23184" data-name="Path 23184" d="M128.808,363.923H98.282" transform="translate(-39.945 -147.91)" fill="none" stroke="#ffc727" stroke-linecap="round" stroke-linejoin="round" stroke-width="1"/>
    <path id="Path_23185" data-name="Path 23185" d="M128.808,382.595H98.282" transform="translate(-39.945 -155.499)" fill="none" stroke="#ffc727" stroke-linecap="round" stroke-linejoin="round" stroke-width="1"/>
    <path id="Path_23186" data-name="Path 23186" d="M128.808,401.267H98.282" transform="translate(-39.945 -163.088)" fill="none" stroke="#ffc727" stroke-linecap="round" stroke-linejoin="round" stroke-width="1"/>
    <line id="Line_227" data-name="Line 227" x1="35.167" transform="translate(103.238 169.436)" fill="none" stroke="#ffc727" stroke-linecap="round" stroke-linejoin="round" stroke-width="1"/>
    <line id="Line_228" data-name="Line 228" x1="35.167" transform="translate(103.238 180.516)" fill="none" stroke="#ffc727" stroke-linecap="round" stroke-linejoin="round" stroke-width="1"/>
    <line id="Line_229" data-name="Line 229" x1="35.167" transform="translate(103.238 191.597)" fill="none" stroke="#ffc727" stroke-linecap="round" stroke-linejoin="round" stroke-width="1"/>
    <line id="Line_230" data-name="Line 230" x1="35.167" transform="translate(103.238 202.677)" fill="none" stroke="#ffc727" stroke-linecap="round" stroke-linejoin="round" stroke-width="1"/>
    <line id="Line_231" data-name="Line 231" x1="35.167" transform="translate(103.238 213.758)" fill="none" stroke="#ffc727" stroke-linecap="round" stroke-linejoin="round" stroke-width="1"/>
    <line id="Line_232" data-name="Line 232" x1="35.167" transform="translate(103.238 224.838)" fill="none" stroke="#ffc727" stroke-linecap="round" stroke-linejoin="round" stroke-width="1"/>
    <line id="Line_233" data-name="Line 233" x1="35.167" transform="translate(103.238 235.919)" fill="none" stroke="#ffc727" stroke-linecap="round" stroke-linejoin="round" stroke-width="1"/>
    <g id="Group_25566" data-name="Group 25566">
      <g id="Group_25565" data-name="Group 25565" clip-path="url(#clip-path)">
        <path id="Path_23187" data-name="Path 23187" d="M246.063,411.265H.587" transform="translate(-0.239 -167.151)" fill="none" stroke="#263238" stroke-linecap="round" stroke-linejoin="round" stroke-width="1"/>
      </g>
    </g>
    <g id="Group_25568" data-name="Group 25568">
      <g id="Group_25567" data-name="Group 25567" clip-path="url(#clip-path)">
        <path id="Path_23188" data-name="Path 23188" d="M122.617,400.233a38.4,38.4,0,0,1-5.514.279c-5.924.1-14.477.053-14.477.053s-.463,0-.641-2.315.962-4.155,1.092-5.122a10.15,10.15,0,0,0-.944-6.618c0-.332,8.34-.51,8.34-.51l2.73-.184-.594,3.906a4.331,4.331,0,0,0-.059.671,5.869,5.869,0,0,0,4.606,5.989c.03.006.1.018.125.024h.006c.2-.184,3.55-1.739,4.938.41.736,1.134.392,3.419.392,3.419" transform="translate(-41.443 -156.808)" fill="#263238"/>
      </g>
    </g>
    <g id="Group_25576" data-name="Group 25576" transform="translate(60.524 229.007)">
      <g id="Group_25575" data-name="Group 25575" clip-path="url(#clip-path-11)">
        <g id="Group_25571" data-name="Group 25571" transform="translate(0)" opacity="0.2">
          <g id="Group_25570" data-name="Group 25570">
            <g id="Group_25569" data-name="Group 25569" clip-path="url(#clip-path-12)">
              <path id="Path_23189" data-name="Path 23189" d="M122.617,400.233a38.4,38.4,0,0,1-5.514.279c-5.924.1-14.477.053-14.477.053s-.463,0-.641-2.315.962-4.155,1.092-5.122a10.15,10.15,0,0,0-.944-6.618c0-.332,8.34-.51,8.34-.51l2.73-.184-.594,3.906a4.331,4.331,0,0,0-.059.671,5.869,5.869,0,0,0,4.606,5.989c.03.006.1.018.125.024h.006c.2-.184,3.55-1.739,4.938.41.736,1.134.392,3.419.392,3.419" transform="translate(-101.967 -385.815)" fill="#fff"/>
            </g>
          </g>
        </g>
        <g id="Group_25574" data-name="Group 25574" transform="translate(0)" opacity="0.3">
          <g id="Group_25573" data-name="Group 25573">
            <g id="Group_25572" data-name="Group 25572" clip-path="url(#clip-path-13)">
              <path id="Path_23190" data-name="Path 23190" d="M117.1,400.512c-5.924.1-14.477.053-14.477.053s-.463,0-.641-2.315.962-4.155,1.092-5.122a10.15,10.15,0,0,0-.944-6.618c0-.332,8.34-.51,8.34-.51l2.73-.184-.594,3.906a4.331,4.331,0,0,0-.059.671c-1.882,1.555-3.377,2.808-3.377,2.808s7.6,2.529,7.93,7.313" transform="translate(-101.967 -385.815)"/>
            </g>
          </g>
        </g>
      </g>
    </g>
    <g id="Group_25578" data-name="Group 25578">
      <g id="Group_25577" data-name="Group 25577" clip-path="url(#clip-path)">
        <path id="Path_23192" data-name="Path 23192" d="M122.617,400.233a38.4,38.4,0,0,1-5.514.279c-5.924.1-14.477.053-14.477.053s-.463,0-.641-2.315.962-4.155,1.092-5.122a10.15,10.15,0,0,0-.944-6.618c0-.332,8.34-.51,8.34-.51l2.73-.184-.594,3.906a4.331,4.331,0,0,0-.059.671,5.869,5.869,0,0,0,4.606,5.989c.03.006.1.018.125.024h.006c.2-.184,3.55-1.739,4.938.41C122.962,397.948,122.617,400.233,122.617,400.233Z" transform="translate(-41.443 -156.808)" fill="none" stroke="#263238" stroke-linecap="round" stroke-linejoin="round" stroke-width="1"/>
        <path id="Path_23193" data-name="Path 23193" d="M108.138,317.03c.279,1.49.973,1.911.522,2.612-.065.107-.131.232-.2.362a3.224,3.224,0,0,1-2.1,2.131,61.418,61.418,0,0,1-11.052.671,3.32,3.32,0,0,1-2.719-3.11c-.1-1.312.629-2.161.516-3.65s-1.276-1.923-1.353-2.914.884-2.434.873-3.425c-.024-2.089.036.19.451-11.687.231-6.773,1.87-8.245,0-15.925-.677-2.772-7.942-52.958-7.942-52.958l22.407,1.341s.356,8.547.76,18.644c.51,12.845,1.1,28.194,1.116,31.649.036,7.016-.605,16.845-1.122,25.571-.22,3.722-.594,6.286.012,7.7a1.342,1.342,0,0,1,.125.475c.077.973-.582,1.021-.3,2.511" transform="translate(-34.602 -93.128)" fill="#455a64"/>
      </g>
    </g>
    <g id="Group_25583" data-name="Group 25583" transform="translate(50.535 136.007)">
      <g id="Group_25582" data-name="Group 25582" clip-path="url(#clip-path-15)">
        <g id="Group_25581" data-name="Group 25581" transform="translate(0 0)" opacity="0.3">
          <g id="Group_25580" data-name="Group 25580">
            <g id="Group_25579" data-name="Group 25579" clip-path="url(#clip-path-16)">
              <path id="Path_23194" data-name="Path 23194" d="M108.464,320a3.224,3.224,0,0,1-2.1,2.131,61.418,61.418,0,0,1-11.052.671,3.32,3.32,0,0,1-2.719-3.11c-.1-1.312.629-2.161.516-3.65s-1.276-1.923-1.353-2.914.884-2.434.873-3.425c-.024-2.089.036.19.451-11.687.231-6.773,1.87-8.245,0-15.925-.677-2.772-7.942-52.958-7.942-52.958l22.407,1.341s.356,8.547.76,18.644c-2.7,11.23-5.835,23.588-7.01,25.666l1.852,3.235s-4.428,10.275-4.428,11.515,1.514,12.845,2.012,15.261-2.012.695-2.012,2.725c0,1.864-.2,10.963,9.746,12.483" transform="translate(-85.137 -229.135)"/>
            </g>
          </g>
        </g>
      </g>
    </g>
    <g id="Group_25585" data-name="Group 25585">
      <g id="Group_25584" data-name="Group 25584" clip-path="url(#clip-path)">
        <path id="Path_23196" data-name="Path 23196" d="M108.138,317.03c.279,1.49.973,1.911.522,2.612-.065.107-.131.232-.2.362a3.224,3.224,0,0,1-2.1,2.131,61.418,61.418,0,0,1-11.052.671,3.32,3.32,0,0,1-2.719-3.11c-.1-1.312.629-2.161.516-3.65s-1.276-1.923-1.353-2.914.884-2.434.873-3.425c-.024-2.089.036.19.451-11.687.231-6.773,1.87-8.245,0-15.925-.677-2.772-7.942-52.958-7.942-52.958l22.407,1.341s.356,8.547.76,18.644c.51,12.845,1.1,28.194,1.116,31.649.036,7.016-.605,16.845-1.122,25.571-.22,3.722-.594,6.286.012,7.7a1.342,1.342,0,0,1,.125.475C108.512,315.493,107.853,315.541,108.138,317.03Z" transform="translate(-34.602 -93.128)" fill="none" stroke="#263238" stroke-linecap="round" stroke-linejoin="round" stroke-width="1"/>
        <path id="Path_23197" data-name="Path 23197" d="M117.51,258.725s-2.749,2.393-5.09,1.949" transform="translate(-45.691 -105.154)" fill="none" stroke="#263238" stroke-linecap="round" stroke-linejoin="round" stroke-width="1"/>
        <path id="Path_23198" data-name="Path 23198" d="M117,264.879s-4.629-1.114-5.158-2.053" transform="translate(-45.457 -106.821)" fill="none" stroke="#263238" stroke-linecap="round" stroke-linejoin="round" stroke-width="1"/>
        <path id="Path_23199" data-name="Path 23199" d="M110.534,301.91s2.5,6.544,5.28,8.11" transform="translate(-44.925 -122.706)" fill="none" stroke="#263238" stroke-linecap="round" stroke-linejoin="round" stroke-width="1"/>
        <path id="Path_23200" data-name="Path 23200" d="M113.382,374.922s-5.552,1.717-8.338.465,2.178,2.869,7.367,2.5" transform="translate(-42.368 -152.38)" fill="none" stroke="#263238" stroke-linecap="round" stroke-linejoin="round" stroke-width="1"/>
        <path id="Path_23201" data-name="Path 23201" d="M106.4,325.059s.045,17.357,4.575,20.813" transform="translate(-43.243 -132.115)" fill="none" stroke="#263238" stroke-linecap="round" stroke-linejoin="round" stroke-width="1"/>
        <path id="Path_23202" data-name="Path 23202" d="M114.233,390.161a10,10,0,0,1,3.36-.706" transform="translate(-46.428 -158.287)" fill="none" stroke="#263238" stroke-linecap="round" stroke-linejoin="round" stroke-width="1"/>
        <path id="Path_23203" data-name="Path 23203" d="M114.412,393.868s1.607-.57,2.767-.833" transform="translate(-46.501 -159.742)" fill="none" stroke="#263238" stroke-linecap="round" stroke-linejoin="round" stroke-width="1"/>
        <line id="Line_234" data-name="Line 234" y1="0.776" x2="2.594" transform="translate(68.212 235.504)" fill="none" stroke="#263238" stroke-linecap="round" stroke-linejoin="round" stroke-width="1"/>
        <line id="Line_235" data-name="Line 235" y1="0.839" x2="2.134" transform="translate(69.473 237.202)" fill="none" stroke="#263238" stroke-linecap="round" stroke-linejoin="round" stroke-width="1"/>
        <line id="Line_236" data-name="Line 236" y1="0.953" x2="1.242" transform="translate(71.889 238.602)" fill="none" stroke="#263238" stroke-linecap="round" stroke-linejoin="round" stroke-width="1"/>
        <path id="Path_23204" data-name="Path 23204" d="M115.132,387.037s-.208,5.956,1.67,7.89,3.862,1.99,3.691,2.741" transform="translate(-46.791 -157.304)" fill="none" stroke="#263238" stroke-linecap="round" stroke-linejoin="round" stroke-width="1"/>
        <path id="Path_23205" data-name="Path 23205" d="M79.016,385.738s-8.4.176-8.427.508,1.186,2.178-.192,6.61c-.3.967-1.75,2.8-1.974,5.114s.243,2.31.243,2.31,19.023.106,20.045-.332c0,0,.735-2.278.2-3.409-1.069-2.25-4.993-.436-4.87-.41l-.123-.027c-2.926-.647-4.4-3.582-3.4-6.648l1.266-3.9Z" transform="translate(-27.785 -156.702)" fill="#263238"/>
      </g>
    </g>
    <g id="Group_25590" data-name="Group 25590" transform="translate(40.578 228.854)">
      <g id="Group_25589" data-name="Group 25589" clip-path="url(#clip-path-18)">
        <g id="Group_25588" data-name="Group 25588" transform="translate(0 0)" opacity="0.25">
          <g id="Group_25587" data-name="Group 25587">
            <g id="Group_25586" data-name="Group 25586" clip-path="url(#clip-path-19)">
              <path id="Path_23206" data-name="Path 23206" d="M79.016,385.738s-8.4.176-8.427.508,1.186,2.178-.192,6.61c-.3.967-1.75,2.8-1.974,5.114s.243,2.31.243,2.31,19.023.106,20.045-.332c0,0,.735-2.278.2-3.409-1.069-2.25-4.993-.436-4.87-.41l-.123-.027c-2.926-.647-4.4-3.582-3.4-6.648l1.266-3.9Z" transform="translate(-68.363 -385.556)" fill="#fff"/>
            </g>
          </g>
        </g>
      </g>
    </g>
    <g id="Group_25592" data-name="Group 25592">
      <g id="Group_25591" data-name="Group 25591" clip-path="url(#clip-path)">
        <path id="Path_23208" data-name="Path 23208" d="M79.016,385.738s-8.4.176-8.427.508,1.186,2.178-.192,6.61c-.3.967-1.75,2.8-1.974,5.114s.243,2.31.243,2.31,19.023.106,20.045-.332c0,0,.735-2.278.2-3.409-1.069-2.25-4.993-.436-4.87-.41l-.123-.027c-2.926-.647-4.4-3.582-3.4-6.648l1.266-3.9Z" transform="translate(-27.785 -156.702)" fill="none" stroke="#263238" stroke-linecap="round" stroke-linejoin="round" stroke-width="1"/>
        <path id="Path_23209" data-name="Path 23209" d="M98.748,230.474l-22.176-1.34s-1.363,50.1-1.165,52.87c.549,7.671-1.339,9.137-2.738,15.9-2.453,11.858-2.121,9.581-2.457,11.668-.159.991-1.367,2.432-1.462,3.42s.995,1.426.852,2.91-1.019,2.33-1.146,3.644a2.7,2.7,0,0,0,2.187,3.1,63.585,63.585,0,0,0,11.169-.668c1.7-.455,2.158-1.788,2.726-2.488s-.049-1.122-.077-2.608.639-1.536.732-2.509a1.373,1.373,0,0,0-.042-.475c-.365-1.416.453-3.976,1.312-7.691,2.013-8.71,4.347-18.524,5.513-25.528.581-3.489,2.676-19.126,4.384-32.034a22.935,22.935,0,0,0,2.472-7.761" transform="translate(-27.817 -93.127)" fill="#455a64"/>
      </g>
    </g>
    <g id="Group_25597" data-name="Group 25597" transform="translate(40.624 136.007)">
      <g id="Group_25596" data-name="Group 25596" clip-path="url(#clip-path-21)">
        <g id="Group_25595" data-name="Group 25595" transform="translate(7.886 1.34)" opacity="0.3">
          <g id="Group_25594" data-name="Group 25594">
            <g id="Group_25593" data-name="Group 25593" clip-path="url(#clip-path-22)">
              <path id="Path_23210" data-name="Path 23210" d="M81.924,231.79s-.2,7.485-.2,7.485a69.714,69.714,0,0,0,11.253,0,25.255,25.255,0,0,0,11.782-3.9l-.614-3.984s-8.3,2.238-12.4,1.924-7.96-.805-9.822-1.524" transform="translate(-81.726 -231.391)"/>
            </g>
          </g>
        </g>
      </g>
    </g>
    <g id="Group_25599" data-name="Group 25599">
      <g id="Group_25598" data-name="Group 25598" clip-path="url(#clip-path)">
        <path id="Path_23212" data-name="Path 23212" d="M98.748,230.474l-22.176-1.34s-1.363,50.1-1.165,52.87c.549,7.671-1.339,9.137-2.738,15.9-2.453,11.858-2.121,9.581-2.457,11.668-.159.991-1.367,2.432-1.462,3.42s.995,1.426.852,2.91-1.019,2.33-1.146,3.644a2.7,2.7,0,0,0,2.187,3.1,63.585,63.585,0,0,0,11.169-.668c1.7-.455,2.158-1.788,2.726-2.488s-.049-1.122-.077-2.608.639-1.536.732-2.509a1.373,1.373,0,0,0-.042-.475c-.365-1.416.453-3.976,1.312-7.691,2.013-8.71,4.347-18.524,5.513-25.528.581-3.489,2.676-19.126,4.384-32.034a22.935,22.935,0,0,0,2.472-7.761" transform="translate(-27.817 -93.127)" fill="none" stroke="#263238" stroke-linecap="round" stroke-linejoin="round" stroke-width="1"/>
        <path id="Path_23213" data-name="Path 23213" d="M90.642,333.488s-7.664,13.059-15.235,17.326" transform="translate(-30.648 -135.54)" fill="none" stroke="#263238" stroke-linecap="round" stroke-linejoin="round" stroke-width="1"/>
        <path id="Path_23214" data-name="Path 23214" d="M75.189,374.922l8.23,1.042c.614.078,1.362.315,1.3.943-.054.546-.694.916-1.24,1.112a10.034,10.034,0,0,1-5.731.382" transform="translate(-30.559 -152.38)" fill="none" stroke="#263238" stroke-linecap="round" stroke-linejoin="round" stroke-width="1"/>
        <path id="Path_23215" data-name="Path 23215" d="M75.6,368.259a20.234,20.234,0,0,0,9.706,2.667" transform="translate(-30.725 -149.672)" fill="none" stroke="#263238" stroke-linecap="round" stroke-linejoin="round" stroke-width="1"/>
        <path id="Path_23216" data-name="Path 23216" d="M84.058,328.195s4.166.157,6.294-.033a8.515,8.515,0,0,1-6.638,3.243" transform="translate(-34.024 -133.376)" fill="none" stroke="#263238" stroke-linecap="round" stroke-linejoin="round" stroke-width="1"/>
        <path id="Path_23217" data-name="Path 23217" d="M83.988,239.558s-.611,21.333-.808,30.2-.592,19.22-.592,19.22a2.855,2.855,0,0,0-.372,2.156l.333,1.09-.183,3.084a2.459,2.459,0,0,0-.547,2.052c.284,1.123-2.02,8.938-2.02,8.938l-.4.521a3.638,3.638,0,0,0-.63,3.548l-.824,6.694-.01.01a2.4,2.4,0,0,0-.522,3.079l-.775,3.486a2.19,2.19,0,0,0-.47,2.768l.135.195" transform="translate(-30.832 -97.364)" fill="none" stroke="#263238" stroke-linecap="round" stroke-linejoin="round" stroke-width="1"/>
        <path id="Path_23218" data-name="Path 23218" d="M136.961,172.649c-.6,1.3-5.651,4.759-5.651,4.759a3.853,3.853,0,0,1,.355-1.652c.364-.554.62-1.091.826-1.421a3.452,3.452,0,0,0-.826-2.479c-.686-.76-1.231,1.149-1.528,2.421s-2.289,3.206-2.2,4.131a32.559,32.559,0,0,0,.67,3.231s-8.455,2.971-9.39,1.165a119.434,119.434,0,0,0-6.552-11.129c-1.991,2.777-.421,6.61.7,11.328s4.573,11.31,4.573,11.31c6.187-2.961,13.211-10.707,13.211-10.707s1.652-.735,3.693-1.438,1.743-1.3,2.074-3.3,2.041-4.743,1.942-5.784-1.3-1.727-1.9-.43" transform="translate(-45.403 -69.774)" fill="#fff"/>
        <path id="Path_23219" data-name="Path 23219" d="M136.961,172.649c-.6,1.3-5.651,4.759-5.651,4.759a3.853,3.853,0,0,1,.355-1.652c.364-.554.62-1.091.826-1.421a3.452,3.452,0,0,0-.826-2.479c-.686-.76-1.231,1.149-1.528,2.421s-2.289,3.206-2.2,4.131a32.559,32.559,0,0,0,.67,3.231s-8.455,2.971-9.39,1.165a119.434,119.434,0,0,0-6.552-11.129c-1.991,2.777-.421,6.61.7,11.328s4.573,11.31,4.573,11.31c6.187-2.961,13.211-10.707,13.211-10.707s1.652-.735,3.693-1.438,1.743-1.3,2.074-3.3,2.041-4.743,1.942-5.784S137.564,171.352,136.961,172.649Z" transform="translate(-45.403 -69.774)" fill="none" stroke="#263238" stroke-linecap="round" stroke-linejoin="round" stroke-width="1"/>
        <path id="Path_23220" data-name="Path 23220" d="M100.531,173.387a227.49,227.49,0,0,0,1.692,24.651L77.047,197.4v-.423c1.846-6.838.649-14.214-2.265-20.672-1.543-3.413-2.229-7.779-3.024-11.91-2.024-10.518,3.055-13.771,7.3-14.175,1.638-.077,1.78-1.178,3-1.1a5.075,5.075,0,0,0,2.422-.3c.528,2.155,3.455,8.482,4.458,9.206a3.1,3.1,0,0,0,3.472.249c1.009-.706,1.288-2.054,1.52-3.265a7.814,7.814,0,0,1,.558-1.905,11.4,11.4,0,0,1,6,5.081c2.351,7.639,1.068,2.742,2.9,13.949.279,1.715-2.843,1.246-2.843,1.246" transform="translate(-28.978 -60.487)" fill="#fff"/>
        <path id="Path_23221" data-name="Path 23221" d="M100.531,173.387a227.49,227.49,0,0,0,1.692,24.651L77.047,197.4v-.423c1.846-6.838.649-14.214-2.265-20.672-1.543-3.413-2.229-7.779-3.024-11.91-2.024-10.518,3.055-13.771,7.3-14.175,1.638-.077,1.78-1.178,3-1.1a5.075,5.075,0,0,0,2.422-.3c.528,2.155,3.455,8.482,4.458,9.206a3.1,3.1,0,0,0,3.472.249c1.009-.706,1.288-2.054,1.52-3.265a7.814,7.814,0,0,1,.558-1.905,11.4,11.4,0,0,1,6,5.081c2.351,7.639,1.068,2.742,2.9,13.949C103.653,173.856,100.531,173.387,100.531,173.387Z" transform="translate(-28.978 -60.487)" fill="none" stroke="#263238" stroke-linecap="round" stroke-linejoin="round" stroke-width="1"/>
        <path id="Path_23222" data-name="Path 23222" d="M97.1,153.634l-2.433-.846c1.653,5.666.224,12.105-3.951,9.564s-5.828-9.866-7.077-13.072a6.722,6.722,0,0,0-4.681.758c1.436,2.627,5.344,7.855,4.881,12.1-.518,4.743-4.253,8.966-11.228,4.2.952,7.193,3.968,12.381,4.549,14.81,2.122,8.878.705,10.12-.287,18.906,10.079,5.15,22.3,2.589,27.652,1.025-1.632-8.907-.919-31.461-7.424-47.434" transform="translate(-29.51 -60.62)" fill="#ffc727"/>
      </g>
    </g>
    <g id="Group_25607" data-name="Group 25607" transform="translate(43.097 88.531)">
      <g id="Group_25606" data-name="Group 25606" clip-path="url(#clip-path-24)">
        <g id="Group_25602" data-name="Group 25602" transform="translate(9.109 42.269)" opacity="0.3">
          <g id="Group_25601" data-name="Group 25601">
            <g id="Group_25600" data-name="Group 25600" clip-path="url(#clip-path-25)">
              <path id="Path_23223" data-name="Path 23223" d="M87.953,220.363s16.46,7.183,18.808.212a38.3,38.3,0,0,1-13.157.538Z" transform="translate(-87.953 -220.363)"/>
            </g>
          </g>
        </g>
        <g id="Group_25605" data-name="Group 25605" transform="translate(3.279 17.233)" opacity="0.3">
          <g id="Group_25604" data-name="Group 25604">
            <g id="Group_25603" data-name="Group 25603" clip-path="url(#clip-path-26)">
              <path id="Path_23224" data-name="Path 23224" d="M78.131,187.684l11.956-9.5A8.631,8.631,0,0,1,86.1,188.459a6.949,6.949,0,0,1-7.969-.776" transform="translate(-78.131 -178.184)"/>
            </g>
          </g>
        </g>
      </g>
    </g>
    <g id="Group_25609" data-name="Group 25609">
      <g id="Group_25608" data-name="Group 25608" clip-path="url(#clip-path)">
        <path id="Path_23226" data-name="Path 23226" d="M97.1,153.634l-2.433-.846c1.653,5.666.224,12.105-3.951,9.564s-5.828-9.866-7.077-13.072a6.722,6.722,0,0,0-4.681.758c1.436,2.627,5.344,7.855,4.881,12.1-.518,4.743-4.253,8.966-11.228,4.2.952,7.193,3.968,12.381,4.549,14.81,2.122,8.878.705,10.12-.287,18.906,10.079,5.15,22.3,2.589,27.652,1.025C102.888,192.162,103.6,169.608,97.1,153.634Z" transform="translate(-29.51 -60.62)" fill="none" stroke="#263238" stroke-linecap="round" stroke-linejoin="round" stroke-width="1"/>
        <path id="Path_23227" data-name="Path 23227" d="M118.5,220.322a3.019,3.019,0,0,1-1.67,2.054" transform="translate(-47.482 -89.546)" fill="none" stroke="#263238" stroke-linecap="round" stroke-linejoin="round" stroke-width="1"/>
        <path id="Path_23228" data-name="Path 23228" d="M102.439,222.88a25.991,25.991,0,0,1-14.486-2.894" transform="translate(-35.747 -89.409)" fill="none" stroke="#263238" stroke-linecap="round" stroke-linejoin="round" stroke-width="1"/>
        <path id="Path_23229" data-name="Path 23229" d="M147.625,156.389l-5.132,13.742a1.7,1.7,0,0,0,.148,1.5l.956,1.533a2.414,2.414,0,0,0,2.837.49,1.6,1.6,0,0,0,.567-.7l5.083-13.73a1.708,1.708,0,0,0-.367-1.873l-1.6-1.547a1.489,1.489,0,0,0-2.183.081,1.635,1.635,0,0,0-.3.509" transform="translate(-57.869 -63.144)" fill="#263238"/>
        <path id="Path_23230" data-name="Path 23230" d="M72.588,163.326a16.946,16.946,0,0,0,1.458,5.951c2.479,5.891,11.924,20.546,14,21.536s23.245-10.406,24.775-11.969a3.526,3.526,0,0,0,.675-3.635s-.026,1.46,1.219,1.191c.785-.17.135-2.592.135-2.592s1.436-1.014.07-2.893c0,0,1.934,0,1.8-1.457-.053-.583-5.751-.673-6.625.97-1.063,2-2.117,7.2-2.117,7.2s-13.8,3.561-16.654,4.09l-7.518-16.387" transform="translate(-29.502 -66.381)" fill="#fff"/>
        <path id="Path_23231" data-name="Path 23231" d="M72.588,163.326a16.946,16.946,0,0,0,1.458,5.951c2.479,5.891,11.924,20.546,14,21.536s23.245-10.406,24.775-11.969a3.526,3.526,0,0,0,.675-3.635s-.026,1.46,1.219,1.191c.785-.17.135-2.592.135-2.592s1.436-1.014.07-2.893c0,0,1.934,0,1.8-1.457-.053-.583-5.751-.673-6.625.97-1.063,2-2.117,7.2-2.117,7.2s-13.8,3.561-16.654,4.09l-7.518-16.387" transform="translate(-29.502 -66.381)" fill="none" stroke="#263238" stroke-linecap="round" stroke-linejoin="round" stroke-width="1"/>
        <path id="Path_23232" data-name="Path 23232" d="M140.734,185.789a5.843,5.843,0,0,1,2.132-2.677,16.986,16.986,0,0,1,3.869-.93s.952-4.02,1.468-3.912c1.575.33.347,4.024.347,4.024" transform="translate(-57.199 -72.454)" fill="#fff"/>
        <path id="Path_23233" data-name="Path 23233" d="M140.734,185.789a5.843,5.843,0,0,1,2.132-2.677,16.986,16.986,0,0,1,3.869-.93s.952-4.02,1.468-3.912c1.575.33.347,4.024.347,4.024" transform="translate(-57.199 -72.454)" fill="none" stroke="#263238" stroke-linecap="round" stroke-linejoin="round" stroke-width="1"/>
        <path id="Path_23234" data-name="Path 23234" d="M153.859,175.605a1.148,1.148,0,0,0-1.553-.066c-.76.694-1.925,2.66-3.164,3.71" transform="translate(-60.616 -71.235)" fill="none" stroke="#263238" stroke-linecap="round" stroke-linejoin="round" stroke-width="1"/>
        <path id="Path_23235" data-name="Path 23235" d="M138.555,182.15c.337-.749,2.743-2.016,3.221-.392" transform="translate(-56.313 -73.552)" fill="none" stroke="#263238" stroke-linecap="round" stroke-linejoin="round" stroke-width="1"/>
        <path id="Path_23236" data-name="Path 23236" d="M138.5,179.227s2.785-1.518,3.343.363" transform="translate(-56.29 -72.608)" fill="none" stroke="#263238" stroke-linecap="round" stroke-linejoin="round" stroke-width="1"/>
        <path id="Path_23237" data-name="Path 23237" d="M139.123,176.252s1.163-.224,1.413-.249c.925-.093,1.926-.209,2.423-.209" transform="translate(-56.544 -71.448)" fill="none" stroke="#263238" stroke-linecap="round" stroke-linejoin="round" stroke-width="1"/>
        <path id="Path_23238" data-name="Path 23238" d="M111.458,259.34s-3.706-3.272-5.866-3.9" transform="translate(-42.916 -103.82)" fill="#92e3a9"/>
        <path id="Path_23239" data-name="Path 23239" d="M111.458,259.34s-3.706-3.272-5.866-3.9" transform="translate(-42.916 -103.82)" fill="none" stroke="#263238" stroke-linecap="round" stroke-linejoin="round" stroke-width="1"/>
        <path id="Path_23240" data-name="Path 23240" d="M83.922,390.213a10.435,10.435,0,0,1,3.421-.718" transform="translate(-34.109 -158.303)" fill="none" stroke="#263238" stroke-linecap="round" stroke-linejoin="round" stroke-width="1"/>
        <path id="Path_23241" data-name="Path 23241" d="M83.773,393.982s1.657-.579,2.839-.848" transform="translate(-34.048 -159.782)" fill="none" stroke="#263238" stroke-linecap="round" stroke-linejoin="round" stroke-width="1"/>
        <line id="Line_237" data-name="Line 237" y1="0.789" x2="2.661" transform="translate(49.841 235.599)" fill="none" stroke="#263238" stroke-linecap="round" stroke-linejoin="round" stroke-width="1"/>
        <line id="Line_238" data-name="Line 238" y1="0.853" x2="2.207" transform="translate(50.95 237.326)" fill="none" stroke="#263238" stroke-linecap="round" stroke-linejoin="round" stroke-width="1"/>
        <line id="Line_239" data-name="Line 239" y1="0.968" x2="1.324" transform="translate(53.235 238.749)" fill="none" stroke="#263238" stroke-linecap="round" stroke-linejoin="round" stroke-width="1"/>
        <path id="Path_23242" data-name="Path 23242" d="M85.034,387.037s-.721,6.056.989,8.02,3.69,2.023,3.455,2.787" transform="translate(-34.499 -157.304)" fill="none" stroke="#263238" stroke-linecap="round" stroke-linejoin="round" stroke-width="1"/>
        <path id="Path_23243" data-name="Path 23243" d="M101.985,152.061s2.5,9.768-1.516,10.508c-5.476,1.008-9.283-13.775-9.283-13.775.839-.057.937-.4,1.666-.823,0,0,6.124,12.218,9.133,4.09" transform="translate(-37.061 -60.14)" fill="#dbdbdb"/>
        <path id="Path_23244" data-name="Path 23244" d="M77.373,151.512s-5.729,1.138-5.75,9.653a37.181,37.181,0,0,0,3.757,15.614s4.474-.365,7.3-2.433c5.924-4.337,4.972-6.77,4.972-6.77l-3.109-6.162s-1.019-3.944-5.459-10.234Z" transform="translate(-29.11 -61.444)" fill="#dbdbdb"/>
        <path id="Path_23245" data-name="Path 23245" d="M114.46,157.274a63.385,63.385,0,0,1,3.824,16.27s3.06-.614,3.526-1.27a76.421,76.421,0,0,0-3.087-11,6.727,6.727,0,0,0-4.264-4" transform="translate(-46.52 -63.921)" fill="#dbdbdb"/>
        <path id="Path_23246" data-name="Path 23246" d="M102.4,134.143s-.448,8.119-.416,8.771c.052,1.232.943,2.863.123,3.782a3.1,3.1,0,0,1-3.437.554,7.635,7.635,0,0,1-2.8-2.371,31.454,31.454,0,0,1-3.647-5.568,5.491,5.491,0,0,0,1.451-2.374s.155-.687.166-.721a18.586,18.586,0,0,0-.069-5.033,32.841,32.841,0,0,0-1.429-6.066Z" transform="translate(-37.48 -50.852)" fill="#fff"/>
        <path id="Path_23247" data-name="Path 23247" d="M102.4,134.143s-.448,8.119-.416,8.771c.052,1.232.943,2.863.123,3.782a3.1,3.1,0,0,1-3.437.554,7.635,7.635,0,0,1-2.8-2.371,31.454,31.454,0,0,1-3.647-5.568,5.491,5.491,0,0,0,1.451-2.374s.155-.687.166-.721a18.586,18.586,0,0,0-.069-5.033,32.841,32.841,0,0,0-1.429-6.066Z" transform="translate(-37.48 -50.852)" fill="none" stroke="#263238" stroke-linecap="round" stroke-linejoin="round" stroke-width="1"/>
        <path id="Path_23248" data-name="Path 23248" d="M95.15,153.384a25.538,25.538,0,0,1,4.068,1.734" transform="translate(-38.672 -62.34)" fill="#263238"/>
        <path id="Path_23249" data-name="Path 23249" d="M95.15,153.384a25.538,25.538,0,0,1,4.068,1.734" transform="translate(-38.672 -62.34)" fill="none" stroke="#263238" stroke-linecap="round" stroke-linejoin="round" stroke-width="1"/>
        <path id="Path_23250" data-name="Path 23250" d="M90.87,106.024s-5.056,2.891-2.435,10.437,8.448,15.972,13.738,14.843,6.663-11.637,3.863-18.642-9.916-10.89-15.166-6.637" transform="translate(-35.636 -42.372)" fill="#fff"/>
        <path id="Path_23251" data-name="Path 23251" d="M90.87,106.024s-5.056,2.891-2.435,10.437,8.448,15.972,13.738,14.843,6.663-11.637,3.863-18.642S96.119,101.771,90.87,106.024Z" transform="translate(-35.636 -42.372)" fill="none" stroke="#263238" stroke-linecap="round" stroke-linejoin="round" stroke-width="1"/>
        <path id="Path_23252" data-name="Path 23252" d="M117.635,129.949c.037.621-.206,1.144-.538,1.163s-.635-.47-.673-1.091.2-1.135.538-1.155.635.461.672,1.083" transform="translate(-47.317 -52.375)" fill="#263238"/>
        <path id="Path_23253" data-name="Path 23253" d="M108.949,129.537c.037.613-.2,1.135-.53,1.154s-.635-.47-.672-1.083.2-1.143.538-1.163.627.462.664,1.092" transform="translate(-43.791 -52.204)" fill="#263238"/>
        <path id="Path_23254" data-name="Path 23254" d="M102.858,107.3c-3.389-3.3-8-4.319-11.69-1.331,0,0-5.056,2.891-2.435,10.437a38.084,38.084,0,0,0,2.3,5.236l.1.083s-1.661-1.655,4.931-5.3c2.164-1.226,5.366-8.848,6.8-9.126" transform="translate(-35.758 -42.347)" fill="#263238"/>
        <path id="Path_23255" data-name="Path 23255" d="M102.858,107.3c-3.389-3.3-8-4.319-11.69-1.331,0,0-5.056,2.891-2.435,10.437a38.084,38.084,0,0,0,2.3,5.236l.1.083s-1.661-1.655,4.931-5.3C98.221,115.2,101.423,107.574,102.858,107.3Z" transform="translate(-35.758 -42.347)" fill="none" stroke="#263238" stroke-linecap="round" stroke-linejoin="round" stroke-width="1"/>
        <path id="Path_23256" data-name="Path 23256" d="M104.127,109.844s.465-5.257,4.12-5.435c1.9-.093,4.423,2.464,4.735,3.814a4.824,4.824,0,0,0,3.773,3.68s-1.06,3.569-3.12,3.821c-3.4.417-5.163-.379-7.357-3.378a17.993,17.993,0,0,0-2.069-2.424Z" transform="translate(-42.321 -42.434)" fill="#263238"/>
        <path id="Path_23257" data-name="Path 23257" d="M104.127,109.844s.465-5.257,4.12-5.435c1.9-.093,4.423,2.464,4.735,3.814a4.824,4.824,0,0,0,3.773,3.68s-1.06,3.569-3.12,3.821c-3.4.417-5.163-.379-7.357-3.378a17.993,17.993,0,0,0-2.069-2.424Z" transform="translate(-42.321 -42.434)" fill="none" stroke="#263238" stroke-linecap="round" stroke-linejoin="round" stroke-width="1"/>
        <path id="Path_23258" data-name="Path 23258" d="M92.244,129.412s-2-4.121-3.78.417c-1.108,2.824,3.329,5.082,4.85,4.337" transform="translate(-35.883 -51.901)" fill="#fff"/>
        <path id="Path_23259" data-name="Path 23259" d="M92.244,129.412s-2-4.121-3.78.417c-1.108,2.824,3.329,5.082,4.85,4.337" transform="translate(-35.883 -51.901)" fill="none" stroke="#263238" stroke-linecap="round" stroke-linejoin="round" stroke-width="1"/>
        <path id="Path_23260" data-name="Path 23260" d="M113.5,126.388a3.155,3.155,0,0,0-.744,2.786,8.3,8.3,0,0,0,1.07,3.054l-2.536.826" transform="translate(-45.232 -51.368)" fill="none" stroke="#263238" stroke-linecap="round" stroke-linejoin="round" stroke-width="1"/>
        <path id="Path_23261" data-name="Path 23261" d="M107.485,140.726a3,3,0,0,0,3.11.687" transform="translate(-43.685 -57.196)" fill="none" stroke="#263238" stroke-linecap="round" stroke-linejoin="round" stroke-width="1"/>
        <path id="Path_23262" data-name="Path 23262" d="M102.744,125.392s1.769-1.971,3.93-1.023" transform="translate(-41.758 -50.443)" fill="none" stroke="#263238" stroke-linecap="round" stroke-linejoin="round" stroke-width="1"/>
        <path id="Path_23263" data-name="Path 23263" d="M116.672,125.3s2.33-.724,2.035,1.33" transform="translate(-47.419 -50.874)" fill="none" stroke="#263238" stroke-linecap="round" stroke-linejoin="round" stroke-width="1"/>
        <path id="Path_23264" data-name="Path 23264" d="M93.315,132.7a.979.979,0,0,1-.952-.649c-.173-.376-.22-.8-.393-1.175a.978.978,0,0,0-.954-.646" transform="translate(-36.992 -52.925)" fill="#263238"/>
        <path id="Path_23265" data-name="Path 23265" d="M93.315,132.7a.979.979,0,0,1-.952-.649c-.173-.376-.22-.8-.393-1.175a.978.978,0,0,0-.954-.646" transform="translate(-36.992 -52.925)" fill="none" stroke="#263238" stroke-linecap="round" stroke-linejoin="round" stroke-width="1"/>
        <path id="Path_23266" data-name="Path 23266" d="M106.526,104.641a11.728,11.728,0,0,0-1.217-3.03c0,.021.967-.248,1.5-.361l-.283,3.39" transform="translate(-42.801 -41.152)" fill="#263238"/>
        <path id="Path_23267" data-name="Path 23267" d="M106.526,104.641a11.728,11.728,0,0,0-1.217-3.03c0,.021.967-.248,1.5-.361Z" transform="translate(-42.801 -41.152)" fill="none" stroke="#263238" stroke-linecap="round" stroke-linejoin="round" stroke-width="1"/>
        <path id="Path_23268" data-name="Path 23268" d="M105.007,146.915l.039,1.8a2.258,2.258,0,0,1-1.248.167c-2.279-.264-4.578-5.316-4.719-5.631,0-.005-.007,0-.008-.01a.325.325,0,0,1,.05.049c2.7,2.967,4.7,3.608,5.885,3.627" transform="translate(-40.266 -58.217)" fill="#263238"/>
      </g>
    </g>
    <line id="Line_240" data-name="Line 240" x2="14.999" transform="translate(141.741 105.783)" fill="none" stroke="#263238" stroke-linecap="round" stroke-linejoin="round" stroke-width="1"/>
    <line id="Line_241" data-name="Line 241" x2="15.233" transform="translate(124.534 105.783)" fill="none" stroke="#263238" stroke-linecap="round" stroke-linejoin="round" stroke-width="1"/>
    <line id="Line_242" data-name="Line 242" x2="4.682" transform="translate(116.423 105.783)" fill="none" stroke="#263238" stroke-linecap="round" stroke-linejoin="round" stroke-width="1"/>
    <line id="Line_243" data-name="Line 243" x2="27.942" transform="translate(128.739 113.928)" fill="none" stroke="#263238" stroke-linecap="round" stroke-linejoin="round" stroke-width="1"/>
    <line id="Line_244" data-name="Line 244" x2="3.429" transform="translate(121.105 113.928)" fill="none" stroke="#263238" stroke-linecap="round" stroke-linejoin="round" stroke-width="1"/>
    <line id="Line_245" data-name="Line 245" x2="15.376" transform="translate(141.245 122.073)" fill="none" stroke="#263238" stroke-linecap="round" stroke-linejoin="round" stroke-width="1"/>
    <line id="Line_246" data-name="Line 246" x2="13.181" transform="translate(125.787 122.073)" fill="none" stroke="#263238" stroke-linecap="round" stroke-linejoin="round" stroke-width="1"/>
    <line id="Line_247" data-name="Line 247" x2="17.425" transform="translate(139.137 130.219)" fill="none" stroke="#263238" stroke-linecap="round" stroke-linejoin="round" stroke-width="1"/>
    <line id="Line_248" data-name="Line 248" x2="6.195" transform="translate(130.469 130.219)" fill="none" stroke="#263238" stroke-linecap="round" stroke-linejoin="round" stroke-width="1"/>
    <path id="Path_23269" data-name="Path 23269" d="M290.841,202.739H247.17l2.19-25.039h43.672Z" transform="translate(-100.458 -72.223)" fill="#fff"/>
    <path id="Path_23270" data-name="Path 23270" d="M290.841,202.739H247.17l2.19-25.039h43.672Z" transform="translate(-100.458 -72.223)" fill="none" stroke="#263238" stroke-linecap="round" stroke-linejoin="round" stroke-width="1"/>
    <path id="Path_23271" data-name="Path 23271" d="M250.86,177.7h0Z" transform="translate(-101.958 -72.223)" fill="#fff"/>
    <line id="Line_249" data-name="Line 249" x1="43.671" transform="translate(148.903 105.477)" fill="none" stroke="#263238" stroke-linecap="round" stroke-linejoin="round" stroke-width="1"/>
    <path id="Path_23272" data-name="Path 23272" d="M290.84,210.093H247.166l14.928-14.174,7.586,6.467,8.878-6.59Z" transform="translate(-100.456 -79.578)" fill="#fff"/>
    <path id="Path_23273" data-name="Path 23273" d="M290.84,210.093H247.166l14.928-14.174,7.586,6.467,8.878-6.59Z" transform="translate(-100.456 -79.578)" fill="none" stroke="#263238" stroke-linecap="round" stroke-linejoin="round" stroke-width="1"/>
    <path id="Path_23274" data-name="Path 23274" d="M294.53,177.7l-14.472,10.741-8.878,6.59-7.586-6.467L250.857,177.7Z" transform="translate(-101.956 -72.223)" fill="#fff"/>
    <path id="Path_23275" data-name="Path 23275" d="M294.53,177.7l-14.472,10.741-8.878,6.59-7.586-6.467L250.857,177.7Z" transform="translate(-101.956 -72.223)" fill="none" stroke="#263238" stroke-linecap="round" stroke-linejoin="round" stroke-width="1"/>
    <line id="Line_250" data-name="Line 250" x1="10.963" transform="translate(101.278 105.783)" fill="none" stroke="#263238" stroke-linecap="round" stroke-linejoin="round" stroke-width="1"/>
    <g id="Group_25611" data-name="Group 25611">
      <g id="Group_25610" data-name="Group 25610" clip-path="url(#clip-path)">
        <path id="Path_23276" data-name="Path 23276" d="M239.566,106.9c-8.754,7.137-24.9,11.471-24.9,11.471l8.14-8.719v-.007a18.611,18.611,0,1,1,16.882-2.837" transform="translate(-85.315 -29.805)" fill="#fff"/>
        <path id="Path_23277" data-name="Path 23277" d="M239.566,106.9c-8.754,7.137-24.9,11.471-24.9,11.471l8.14-8.719v-.007a18.611,18.611,0,1,1,16.882-2.837" transform="translate(-85.315 -29.805)" fill="none" stroke="#263238" stroke-linecap="round" stroke-linejoin="round" stroke-width="1"/>
        <path id="Path_23278" data-name="Path 23278" d="M262.345,78.185a5.478,5.478,0,1,1-5.478-5.478,5.478,5.478,0,0,1,5.478,5.478" transform="translate(-102.173 -29.55)" fill="#ffc727"/>
        <path id="Path_23279" data-name="Path 23279" d="M262.345,78.185a5.478,5.478,0,1,1-5.478-5.478A5.478,5.478,0,0,1,262.345,78.185Z" transform="translate(-102.173 -29.55)" fill="none" stroke="#263238" stroke-linecap="round" stroke-linejoin="round" stroke-width="1"/>
        <path id="Path_23280" data-name="Path 23280" d="M255.268,76.288l3.176,3.572,7.222-8.547-.253-.268-6.969,5.994-1.846-2.01Z" transform="translate(-103.749 -28.875)" fill="#263238"/>
        <path id="Path_23281" data-name="Path 23281" d="M255.268,76.288l3.176,3.572,7.222-8.547-.253-.268-6.969,5.994-1.846-2.01Z" transform="translate(-103.749 -28.875)" fill="none" stroke="#263238" stroke-linecap="round" stroke-linejoin="round" stroke-width="1"/>
        <line id="Line_251" data-name="Line 251" x2="20.456" transform="translate(133.565 57.624)" fill="#fff"/>
        <line id="Line_252" data-name="Line 252" x2="20.456" transform="translate(133.565 57.624)" fill="none" stroke="#263238" stroke-linecap="round" stroke-linejoin="round" stroke-width="1"/>
        <line id="Line_253" data-name="Line 253" x2="20.456" transform="translate(133.102 62.907)" fill="#fff"/>
        <line id="Line_254" data-name="Line 254" x2="20.456" transform="translate(133.102 62.907)" fill="none" stroke="#263238" stroke-linecap="round" stroke-linejoin="round" stroke-width="1"/>
        <line id="Line_255" data-name="Line 255" x2="20.456" transform="translate(132.64 68.19)" fill="#fff"/>
        <line id="Line_256" data-name="Line 256" x2="20.456" transform="translate(132.64 68.19)" fill="none" stroke="#263238" stroke-linecap="round" stroke-linejoin="round" stroke-width="1"/>
      </g>
    </g>
    <path id="Path_23282" data-name="Path 23282" d="M332.016,11.437V20.8L357.64,1.049Z" transform="translate(-134.942 -0.426)" fill="#ffc727"/>
    <g id="Group_25613" data-name="Group 25613">
      <g id="Group_25612" data-name="Group 25612" clip-path="url(#clip-path)">
        <path id="Path_23283" data-name="Path 23283" d="M332.016,11.437V20.8L357.64,1.049Z" transform="translate(-134.942 -0.426)" fill="none" stroke="#263238" stroke-linecap="round" stroke-linejoin="round" stroke-width="1"/>
      </g>
    </g>
    <path id="Path_23284" data-name="Path 23284" d="M315.879,4.212l9.578,7L351.671.5Z" transform="translate(-128.384 -0.203)" fill="#ffc727"/>
    <g id="Group_25615" data-name="Group 25615">
      <g id="Group_25614" data-name="Group 25614" clip-path="url(#clip-path)">
        <path id="Path_23285" data-name="Path 23285" d="M325.457,11.214,351.672.5,315.88,4.212Z" transform="translate(-128.384 -0.203)" fill="none" stroke="#263238" stroke-linecap="round" stroke-linejoin="round" stroke-width="1"/>
      </g>
    </g>
    <path id="Path_23286" data-name="Path 23286" d="M337.208,13.152l12.342,9.131L360.34.5Z" transform="translate(-137.052 -0.203)" fill="#ffc727"/>
    <g id="Group_25617" data-name="Group 25617">
      <g id="Group_25616" data-name="Group 25616" clip-path="url(#clip-path)">
        <path id="Path_23287" data-name="Path 23287" d="M337.208,13.152l12.342,9.131L360.34.5Z" transform="translate(-137.052 -0.203)" fill="none" stroke="#263238" stroke-linecap="round" stroke-linejoin="round" stroke-width="1"/>
      </g>
    </g>
    <path id="Path_23288" data-name="Path 23288" d="M335.1,21.815l-3.082,7.426,6.565-4.849Z" transform="translate(-134.942 -8.866)" fill="#ffc727"/>
    <path id="Path_23289" data-name="Path 23289" d="M335.1,21.815l-3.082,7.426,6.565-4.849Z" transform="translate(-134.942 -8.866)" fill="none" stroke="#263238" stroke-linecap="round" stroke-linejoin="round" stroke-width="1"/>
    <g id="Group_25619" data-name="Group 25619">
      <g id="Group_25618" data-name="Group 25618" clip-path="url(#clip-path)">
        <path id="Path_23290" data-name="Path 23290" d="M166.587,153.68q.1-.28.2-.559" transform="translate(-67.706 -62.233)" fill="none" stroke="#263238" stroke-linecap="round" stroke-linejoin="round" stroke-width="1"/>
        <path id="Path_23291" data-name="Path 23291" d="M168.236,99.193c5.521-16.486,4.53-26.39,13.49-42.36,1.81-3.227,10.8-18.506,23.61-23.953,6.659-2.831,10.9,1.4,9.182,4.383-3.828,6.665-17.89-1.321-3.828-9.2,13.007-7.291,40.7,6.961,53.687,2.873" transform="translate(-68.377 -10.546)" fill="none" stroke="#263238" stroke-linecap="round" stroke-linejoin="round" stroke-width="1" stroke-dasharray="1.998 3.995"/>
        <path id="Path_23292" data-name="Path 23292" d="M332.081,33.483q.274-.118.538-.25" transform="translate(-134.968 -13.507)" fill="none" stroke="#263238" stroke-linecap="round" stroke-linejoin="round" stroke-width="1"/>
      </g>
    </g>
  </g>
</svg>
