<svg xmlns="http://www.w3.org/2000/svg" width="907.029" height="122.09" viewBox="0 0 907.029 122.09">
  <g id="Group_23434" data-name="Group 23434" transform="translate(-19.149 -21.905)">
    <g id="Group_23433" data-name="Group 23433" transform="translate(20.321 23.077)">
      <g id="Group_23404" data-name="Group 23404" transform="translate(802.789 23.633)">
        <path id="Path_7075" data-name="Path 7075" d="M1110.52,63.764a2.072,2.072,0,0,1-.563-.2,1.723,1.723,0,0,1-.453-.348,2.09,2.09,0,0,1-.346-.511,5.25,5.25,0,0,1-3.676,1.134,6.869,6.869,0,0,1-2.306-.348,2.571,2.571,0,0,1-1.352-1.037,2.131,2.131,0,0,1-.244-.594,2.585,2.585,0,0,1-.073-.6,2.687,2.687,0,0,1,.089-.7v0a3.93,3.93,0,0,1,.112-.382c.038-.109.074-.2.107-.274a1.794,1.794,0,0,1,.084-.174l.05-.086.862.541q-.045.08-.1.174a1.491,1.491,0,0,0-.109.219,1.783,1.783,0,0,0-.087.294,1.986,1.986,0,0,0-.035.4.951.951,0,0,0,.058.32,1.571,1.571,0,0,0,.148.306,1.028,1.028,0,0,0,.379.357,2.445,2.445,0,0,0,.619.241,5.386,5.386,0,0,0,.82.139c.3.03.632.044.983.044.319,0,.621-.011.907-.036a6.52,6.52,0,0,0,.8-.113,3.891,3.891,0,0,0,.666-.2,2.036,2.036,0,0,0,.515-.3,1.269,1.269,0,0,0,.318-.353,2.44,2.44,0,0,0,.2-.422,3.914,3.914,0,0,0,.134-.453q.053-.232.117-.447l1.026.277c-.039.161-.079.321-.122.481a1.726,1.726,0,0,0-.06.493v0a1.609,1.609,0,0,0,.084.446.848.848,0,0,0,.222.342,1,1,0,0,0,.382.216,1.843,1.843,0,0,0,.567.076.57.57,0,0,1,.226.045.6.6,0,0,1,.183.12.556.556,0,0,1,.123.181.6.6,0,0,1,0,.451.541.541,0,0,1-.123.181.6.6,0,0,1-.183.121.583.583,0,0,1-.226.045h-.036A3.413,3.413,0,0,1,1110.52,63.764Zm-4.761-4.467-.759.759-.768-.764.759-.763Zm1.688,0-.759.764-.768-.768.759-.759Z" transform="translate(-1101.507 -56.148)" fill="#040505"/>
        <path id="Path_7076" data-name="Path 7076" d="M1114.125,63.639a.556.556,0,0,1,.042-.214.572.572,0,0,1,.116-.178.631.631,0,0,1,.173-.125.579.579,0,0,1,.21-.058,1.036,1.036,0,0,0,.476-.106,1.2,1.2,0,0,0,.361-.286,1.887,1.887,0,0,0,.266-.407,3.949,3.949,0,0,0,.194-.469c.056-.161.1-.32.144-.476s.076-.3.109-.422l1.117.246c-.028.084-.062.19-.105.32s-.085.266-.127.41-.076.291-.1.438a1.6,1.6,0,0,0-.027.4.535.535,0,0,0,.1.286.317.317,0,0,0,.27.109.616.616,0,0,0,.363-.114,1.171,1.171,0,0,0,.288-.3,2.265,2.265,0,0,0,.224-.422,4.457,4.457,0,0,0,.164-.484q.07-.248.117-.485c.032-.158.056-.3.073-.424l1.046.2c-.009.092-.023.189-.043.291s-.04.206-.061.314-.038.222-.053.34a2.927,2.927,0,0,0-.023.364,1.284,1.284,0,0,0,.029.277.642.642,0,0,0,.1.23.5.5,0,0,0,.183.161.631.631,0,0,0,.279.065.809.809,0,0,0,.518-.161.593.593,0,0,0,.2-.492,2.3,2.3,0,0,0-.065-.522,5.593,5.593,0,0,0-.156-.552c-.061-.18-.125-.349-.194-.5s-.128-.286-.179-.391l.961-.536c.018.033.047.093.086.181s.086.194.136.318.1.267.159.426.1.323.15.495.081.351.111.534a3.326,3.326,0,0,1,.046.538,2.116,2.116,0,0,1-.128.751,1.524,1.524,0,0,1-.376.571,1.657,1.657,0,0,1-.609.364,2.422,2.422,0,0,1-.831.123,1.21,1.21,0,0,1-.734-.212,1.441,1.441,0,0,1-.259-.23,2.608,2.608,0,0,1-.2-.264,2.043,2.043,0,0,1-.223.277,1.332,1.332,0,0,1-.279.219,1.516,1.516,0,0,1-.358.15,1.8,1.8,0,0,1-.458.06,1.241,1.241,0,0,1-.4-.051,1.287,1.287,0,0,1-.323-.152,1.382,1.382,0,0,1-.263-.226,2.5,2.5,0,0,1-.217-.272,1.873,1.873,0,0,1-.2.244,1.1,1.1,0,0,1-.272.208,1.584,1.584,0,0,1-.386.145,2.3,2.3,0,0,1-.539.056h-.076a.531.531,0,0,1-.21-.051.564.564,0,0,1-.173-.125.589.589,0,0,1-.116-.178A.547.547,0,0,1,1114.125,63.639Z" transform="translate(-1104.866 -56.529)" fill="#040505"/>
        <path id="Path_7077" data-name="Path 7077" d="M1126.753,56.033a25.457,25.457,0,0,1,.233,3.166q.01,2.373-.067,3.775l-1.17.179q.133-2.064.081-3.458-.073-1.822-.224-3.287Z" transform="translate(-1107.922 -55.483)" fill="#040505"/>
        <path id="Path_7078" data-name="Path 7078" d="M1128.466,66.288a6.409,6.409,0,0,0,1.186-.346,4.877,4.877,0,0,0,.918-.484,2.988,2.988,0,0,0,.632-.572,1.671,1.671,0,0,0,.324-.608h-.233c-.081,0-.161,0-.241,0l-.233-.007c-.074,0-.14-.005-.2-.01a2.686,2.686,0,0,1-.893-.211,1.652,1.652,0,0,1-.638-.473,1.322,1.322,0,0,1-.244-.478,2.019,2.019,0,0,1-.074-.554,2.6,2.6,0,0,1,.042-.46,2.979,2.979,0,0,1,.121-.453,3.034,3.034,0,0,1,.181-.418,2.5,2.5,0,0,1,.224-.357,1.722,1.722,0,0,1,.536-.467,1.285,1.285,0,0,1,.616-.158,1.7,1.7,0,0,1,1.264.616,2.954,2.954,0,0,1,.338.469,3.583,3.583,0,0,1,.264.554,4.431,4.431,0,0,1,.181.614,4.265,4.265,0,0,1,.087.654h.21a.567.567,0,0,1,.226.045.571.571,0,0,1,.308.3.551.551,0,0,1,.046.227.518.518,0,0,1-.046.219.613.613,0,0,1-.125.181.561.561,0,0,1-.183.123.58.58,0,0,1-.226.045h-.3a3.52,3.52,0,0,1-.511,1.188,4.084,4.084,0,0,1-.865.927,4.7,4.7,0,0,1-1.128.649,5.848,5.848,0,0,1-1.3.362Zm2.028-4.913a.427.427,0,0,0-.25.1,1.117,1.117,0,0,0-.246.252,1.572,1.572,0,0,0-.186.342,1.011,1.011,0,0,0-.073.366.524.524,0,0,0,.087.31.671.671,0,0,0,.223.2,1.112,1.112,0,0,0,.308.114,2.979,2.979,0,0,0,.341.056l.205.01q.112,0,.23,0h.234c.078,0,.15,0,.219-.01a2.169,2.169,0,0,0-.094-.473,2.942,2.942,0,0,0-.167-.415,2.345,2.345,0,0,0-.21-.346c-.076-.1-.147-.192-.213-.266v0a1.569,1.569,0,0,0-.185-.163A.37.37,0,0,0,1130.494,61.375Z" transform="translate(-1108.684 -56.6)" fill="#040505"/>
        <path id="Path_7079" data-name="Path 7079" d="M1133.627,62.734a.569.569,0,0,1,.045-.226.539.539,0,0,1,.125-.181.606.606,0,0,1,.186-.12.564.564,0,0,1,.225-.045h.884a6.294,6.294,0,0,0,1.128-.1,10.429,10.429,0,0,0,1.14-.277q.568-.172,1.108-.395t1.023-.46a4.051,4.051,0,0,1-.715-.226q-.33-.141-.625-.274t-.567-.232a1.574,1.574,0,0,0-.54-.1.764.764,0,0,0-.294.056,1.229,1.229,0,0,0-.252.141,1.457,1.457,0,0,0-.208.187c-.061.069-.114.136-.161.2s-.083.121-.114.172-.051.086-.062.107l-.929-.6a3.594,3.594,0,0,1,.362-.52,2.994,2.994,0,0,1,.467-.451,2.258,2.258,0,0,1,.556-.316,1.7,1.7,0,0,1,.635-.119,2.608,2.608,0,0,1,.682.091,5.543,5.543,0,0,1,.672.23q.333.139.668.3t.677.3a5.938,5.938,0,0,0,.691.236,2.772,2.772,0,0,0,.714.1l-.094,1.153q-.625.3-1.3.635t-1.42.62a12.064,12.064,0,0,1-1.55.478,8,8,0,0,1-1.688.21h-.884a.577.577,0,0,1-.225-.045.588.588,0,0,1-.186-.123.561.561,0,0,1-.125-.18A.552.552,0,0,1,1133.627,62.734Zm4.083-5.3-.853.853-.858-.858.853-.853Z" transform="translate(-1110.058 -55.628)" fill="#040505"/>
        <path id="Path_7080" data-name="Path 7080" d="M1146.053,61.7q.152.429.268.862c.032.122.065.251.1.386s.062.271.087.409.046.272.061.405a3.354,3.354,0,0,1,.022.372,2.534,2.534,0,0,1-.123.784,3.481,3.481,0,0,1-.339.737,4.353,4.353,0,0,1-.514.677,6.6,6.6,0,0,1-.645.607,7.448,7.448,0,0,1-.737.531,8.678,8.678,0,0,1-.786.442l-.509-1.023c.211-.1.42-.22.626-.346s.4-.262.586-.4a5.382,5.382,0,0,0,.518-.453,3.384,3.384,0,0,0,.412-.492,2.409,2.409,0,0,0,.27-.518,1.558,1.558,0,0,0,.1-.543,2.639,2.639,0,0,0-.058-.536c-.039-.188-.084-.373-.139-.558s-.11-.361-.17-.53-.109-.317-.147-.448Z" transform="translate(-1112.536 -56.992)" fill="#040505"/>
        <path id="Path_7081" data-name="Path 7081" d="M1149.081,62.075a3.647,3.647,0,0,0,.409.219c.159.075.324.142.5.2a4.319,4.319,0,0,0,.5.148,2.059,2.059,0,0,0,.436.056c.075,0,.175,0,.3-.012a1.737,1.737,0,0,0,.373-.062.859.859,0,0,0,.318-.161.39.39,0,0,0,.138-.31.976.976,0,0,0-.1-.414,2.8,2.8,0,0,0-.277-.478,5.1,5.1,0,0,0-.4-.5q-.228-.25-.473-.48c-.164-.153-.328-.295-.494-.424a5.174,5.174,0,0,0-.462-.329l.666-.987a8.528,8.528,0,0,1,.811.634,7.193,7.193,0,0,1,.737.753,5.753,5.753,0,0,1,.586.833,3.352,3.352,0,0,1,.354.875,1.871,1.871,0,0,1,.005.916,1.627,1.627,0,0,1-.4.721,1.9,1.9,0,0,1-.738.462,2.555,2.555,0,0,1-1,.134,3.168,3.168,0,0,1-.6-.058,4.612,4.612,0,0,1-.6-.154,5.054,5.054,0,0,1-.563-.222,5.364,5.364,0,0,1-.5-.271Z" transform="translate(-1114.046 -56.153)" fill="#040505"/>
        <path id="Path_7082" data-name="Path 7082" d="M1168.4,63.764a2.07,2.07,0,0,1-.563-.2,1.724,1.724,0,0,1-.453-.348,2.086,2.086,0,0,1-.346-.511,5.251,5.251,0,0,1-3.676,1.134,6.87,6.87,0,0,1-2.306-.348,2.572,2.572,0,0,1-1.352-1.037,2.134,2.134,0,0,1-.244-.594,2.585,2.585,0,0,1-.073-.6,2.692,2.692,0,0,1,.089-.7v0a3.963,3.963,0,0,1,.112-.382c.038-.109.074-.2.107-.274a1.828,1.828,0,0,1,.084-.174l.05-.086.862.541q-.045.08-.1.174a1.468,1.468,0,0,0-.109.219,1.771,1.771,0,0,0-.087.294,1.986,1.986,0,0,0-.035.4.951.951,0,0,0,.058.32,1.578,1.578,0,0,0,.148.306,1.027,1.027,0,0,0,.379.357,2.445,2.445,0,0,0,.619.241,5.389,5.389,0,0,0,.82.139c.3.03.632.044.983.044.319,0,.621-.011.907-.036a6.527,6.527,0,0,0,.8-.113,3.893,3.893,0,0,0,.666-.2,2.033,2.033,0,0,0,.515-.3,1.27,1.27,0,0,0,.318-.353,2.448,2.448,0,0,0,.2-.422,3.914,3.914,0,0,0,.134-.453q.053-.232.117-.447l1.026.277q-.058.242-.123.481a1.731,1.731,0,0,0-.06.493v0a1.609,1.609,0,0,0,.084.446.847.847,0,0,0,.222.342,1,1,0,0,0,.382.216,1.844,1.844,0,0,0,.567.076.57.57,0,0,1,.226.045.594.594,0,0,1,.183.12.556.556,0,0,1,.123.181.6.6,0,0,1,0,.451.541.541,0,0,1-.123.181.6.6,0,0,1-.183.121.583.583,0,0,1-.226.045h-.036A3.412,3.412,0,0,1,1168.4,63.764Zm-4.761-4.467-.759.759-.768-.764.759-.763Zm1.688,0-.759.764-.768-.768.759-.759Z" transform="translate(-1116.914 -56.148)" fill="#040505"/>
        <path id="Path_7083" data-name="Path 7083" d="M1171.963,63.917a.547.547,0,0,1,.045-.223.591.591,0,0,1,.12-.181.525.525,0,0,1,.181-.123.568.568,0,0,1,.226-.045h.075a1.879,1.879,0,0,0,1.036-.234.787.787,0,0,0,.353-.7,1.476,1.476,0,0,0-.018-.234,2.33,2.33,0,0,0-.051-.233c-.022-.081-.049-.172-.08-.27s-.065-.213-.1-.344l1.1-.308q.08.317.15.664a3.684,3.684,0,0,1,.069.725,2.183,2.183,0,0,0,.024.318,1,1,0,0,0,.094.3.632.632,0,0,0,.188.227.5.5,0,0,0,.306.089.56.56,0,0,1,.222.045.575.575,0,0,1,.183.123.617.617,0,0,1,.125.181.536.536,0,0,1,.047.223.556.556,0,0,1-.047.225.569.569,0,0,1-.125.181.61.61,0,0,1-.181.121.55.55,0,0,1-.219.045,1.772,1.772,0,0,1-.735-.136,1.536,1.536,0,0,1-.507-.36,2.845,2.845,0,0,1-1.832.5h-.075a.581.581,0,0,1-.226-.045.554.554,0,0,1-.181-.121.547.547,0,0,1-.12-.181A.568.568,0,0,1,1171.963,63.917Zm3.163,2.05-.853.853-.858-.858.853-.853Z" transform="translate(-1120.264 -56.81)" fill="#040505"/>
        <path id="Path_7084" data-name="Path 7084" d="M1176.333,62.391a.569.569,0,0,1,.045-.226.543.543,0,0,1,.123-.181.6.6,0,0,1,.181-.12.552.552,0,0,1,.224-.045h.709q.22,0,.465-.015a3.4,3.4,0,0,0,.472-.063,1.934,1.934,0,0,0,.409-.13.628.628,0,0,0,.272-.212.472.472,0,0,0,.069-.263,1.5,1.5,0,0,0-.044-.362,3.959,3.959,0,0,0-.125-.413c-.052-.144-.108-.285-.168-.42s-.118-.263-.176-.385-.105-.222-.144-.306l1.04-.513a4.148,4.148,0,0,1,.239.515,6.481,6.481,0,0,1,.208.624c.059.214.109.426.145.634a3.177,3.177,0,0,1,.057.554,1.921,1.921,0,0,1-.148.773,1.679,1.679,0,0,1-.478.646,1.9,1.9,0,0,1-1.056.433c-.13.013-.262.024-.4.031s-.261.012-.382.014l-.279,0h-.688a.564.564,0,0,1-.224-.045.6.6,0,0,1-.181-.121.529.529,0,0,1-.123-.181A.568.568,0,0,1,1176.333,62.391Zm2.542-5.119-.759.759-.768-.764.759-.764Zm-.616-1.291.7-.7.7.7-.7.7Zm2.3,1.3-.76.764-.768-.768.76-.759Z" transform="translate(-1121.427 -55.284)" fill="#040505"/>
      </g>
      <g id="Group_23405" data-name="Group 23405" transform="translate(617.055 79.343)">
        <path id="Path_7085" data-name="Path 7085" d="M852.455,137.777a3.652,3.652,0,0,0,.409.219q.239.112.5.2a4.308,4.308,0,0,0,.5.147,2.012,2.012,0,0,0,.436.056c.075,0,.175,0,.3-.012a1.693,1.693,0,0,0,.373-.062.861.861,0,0,0,.318-.16.392.392,0,0,0,.138-.31.976.976,0,0,0-.1-.414,2.808,2.808,0,0,0-.277-.478,5.04,5.04,0,0,0-.4-.5q-.228-.25-.473-.48c-.164-.153-.328-.294-.494-.424a5.147,5.147,0,0,0-.462-.328l.666-.988a8.422,8.422,0,0,1,.811.634,7.2,7.2,0,0,1,.737.753,5.682,5.682,0,0,1,.586.833,3.336,3.336,0,0,1,.354.876,1.859,1.859,0,0,1,.005.916,1.625,1.625,0,0,1-.4.721,1.9,1.9,0,0,1-.737.462,2.569,2.569,0,0,1-1,.134,3.158,3.158,0,0,1-.6-.059,4.589,4.589,0,0,1-.6-.154,4.912,4.912,0,0,1-.564-.222,5.352,5.352,0,0,1-.5-.27Z" transform="translate(-851.982 -132.016)" fill="#040505"/>
        <path id="Path_7086" data-name="Path 7086" d="M860.386,131.735a25.446,25.446,0,0,1,.233,3.167q.009,2.372-.067,3.774l-1.17.179a34.541,34.541,0,0,0,.08-3.458q-.072-1.822-.223-3.287Z" transform="translate(-853.914 -131.347)" fill="#040505"/>
        <path id="Path_7087" data-name="Path 7087" d="M862.578,137.777a3.657,3.657,0,0,0,.409.219q.239.112.5.2a4.311,4.311,0,0,0,.5.147,2.012,2.012,0,0,0,.436.056c.075,0,.175,0,.3-.012a1.693,1.693,0,0,0,.373-.062.86.86,0,0,0,.318-.16.392.392,0,0,0,.138-.31.976.976,0,0,0-.1-.414,2.807,2.807,0,0,0-.277-.478,5.138,5.138,0,0,0-.4-.5q-.228-.25-.474-.48c-.164-.153-.328-.294-.494-.424a5.146,5.146,0,0,0-.462-.328l.666-.988a8.512,8.512,0,0,1,.81.634,7.192,7.192,0,0,1,.737.753,5.687,5.687,0,0,1,.586.833,3.34,3.34,0,0,1,.354.876,1.86,1.86,0,0,1,.005.916,1.624,1.624,0,0,1-.4.721,1.89,1.89,0,0,1-.737.462,2.569,2.569,0,0,1-1,.134,3.158,3.158,0,0,1-.6-.059,4.592,4.592,0,0,1-.6-.154,4.912,4.912,0,0,1-.564-.222,5.352,5.352,0,0,1-.5-.27Z" transform="translate(-854.677 -132.016)" fill="#040505"/>
        <path id="Path_7088" data-name="Path 7088" d="M870.774,137.4q.151.429.268.862c.032.122.065.251.1.386s.062.272.087.409.046.272.061.405a3.546,3.546,0,0,1,.022.373,2.512,2.512,0,0,1-.123.784,3.385,3.385,0,0,1-.339.737,4.309,4.309,0,0,1-.514.677,6.428,6.428,0,0,1-.646.607,7.141,7.141,0,0,1-.737.531,8.671,8.671,0,0,1-.786.442l-.509-1.023q.317-.156.625-.346a7.091,7.091,0,0,0,.587-.4,5.275,5.275,0,0,0,.518-.453,3.431,3.431,0,0,0,.412-.492,2.409,2.409,0,0,0,.27-.518,1.556,1.556,0,0,0,.1-.542,2.651,2.651,0,0,0-.059-.536c-.038-.188-.084-.374-.138-.558s-.11-.361-.17-.529-.109-.318-.148-.449Z" transform="translate(-856.155 -132.855)" fill="#040505"/>
        <path id="Path_7089" data-name="Path 7089" d="M874.872,131.735a25.462,25.462,0,0,1,.232,3.167q.01,2.372-.067,3.774l-1.17.179a34.554,34.554,0,0,0,.081-3.458q-.073-1.822-.224-3.287Z" transform="translate(-857.77 -131.347)" fill="#040505"/>
        <path id="Path_7090" data-name="Path 7090" d="M879.613,140.4l-.138,0a1.392,1.392,0,0,1-.186-.02,1.745,1.745,0,0,1-.217-.056,1,1,0,0,1-.228-.11,2.814,2.814,0,0,1-.341,1.079,4.574,4.574,0,0,1-.717.967,6.45,6.45,0,0,1-.971.826,8.57,8.57,0,0,1-1.106.657l-.5-1.032q.314-.16.628-.348a7.042,7.042,0,0,0,.6-.4,5.621,5.621,0,0,0,.534-.448,3.588,3.588,0,0,0,.429-.489,2.36,2.36,0,0,0,.285-.521,1.489,1.489,0,0,0,.106-.549c0-.025,0-.049,0-.074s0-.05-.007-.074v0a3.3,3.3,0,0,0-.1-.506c-.05-.172-.1-.338-.158-.5s-.113-.316-.17-.462-.1-.281-.143-.4l1.072-.446c.116.349.226.636.328.864a2.714,2.714,0,0,0,.311.54.927.927,0,0,0,.319.277.819.819,0,0,0,.359.078h.022a.545.545,0,0,1,.226.048.6.6,0,0,1,.183.125.588.588,0,0,1,.123.183.583.583,0,0,1,0,.444.584.584,0,0,1-.123.181.533.533,0,0,1-.186.121A.625.625,0,0,1,879.613,140.4Z" transform="translate(-858.165 -132.88)" fill="#040505"/>
        <path id="Path_7091" data-name="Path 7091" d="M880.365,138.151a.566.566,0,0,1,.045-.226.536.536,0,0,1,.125-.181.609.609,0,0,1,.186-.12.568.568,0,0,1,.226-.045c.285,0,.571-.011.855-.035s.55-.055.8-.093.462-.084.649-.132a1.952,1.952,0,0,0,.42-.15h-.456a2.933,2.933,0,0,1-.5-.043,2.4,2.4,0,0,1-.458-.125,1.88,1.88,0,0,1-.393-.205,1.321,1.321,0,0,1-.3-.283,1.593,1.593,0,0,1-.208-.375,1.52,1.52,0,0,1-.1-.577,2.246,2.246,0,0,1,.026-.352,2.961,2.961,0,0,1,.19-.663,2.193,2.193,0,0,1,.315-.534v0a1.558,1.558,0,0,1,.5-.437,1.2,1.2,0,0,1,.578-.147,1.341,1.341,0,0,1,.614.156,2.17,2.17,0,0,1,.556.411,2.784,2.784,0,0,1,.33.475,3.6,3.6,0,0,1,.252.567,4.035,4.035,0,0,1,.163.628,3.692,3.692,0,0,1,.058.652c0,.062,0,.125,0,.192s-.008.128-.014.187a2.007,2.007,0,0,1-.226.754,1.852,1.852,0,0,1-.448.542,2.354,2.354,0,0,1-.627.364,4.423,4.423,0,0,1-.762.222,6.7,6.7,0,0,1-.849.109c-.3.019-.592.031-.894.034h-.076a.56.56,0,0,1-.223-.045.583.583,0,0,1-.3-.3A.547.547,0,0,1,880.365,138.151Zm2.328-6.177-.76.759-.768-.763.759-.764Zm.169,2.608a.348.348,0,0,0-.179.05.825.825,0,0,0-.192.149,1.414,1.414,0,0,0-.174.222,1.077,1.077,0,0,0-.123.26.873.873,0,0,0-.04.277.518.518,0,0,0,.074.262.231.231,0,0,0,.118.087,1.456,1.456,0,0,0,.212.067,2.366,2.366,0,0,0,.25.047,2.3,2.3,0,0,0,.236.022c.119.007.245.008.378,0s.245-.007.338-.012q-.041-.162-.112-.4a2.918,2.918,0,0,0-.183-.464,1.687,1.687,0,0,0-.26-.391A.5.5,0,0,0,882.862,134.582Zm1.518-2.6-.759.764-.768-.768.759-.759Z" transform="translate(-859.538 -131.206)" fill="#040505"/>
        <path id="Path_7092" data-name="Path 7092" d="M893.087,139.476a2.3,2.3,0,0,1-1.051-.25,3.4,3.4,0,0,1-.927-.7l.656-.925a3.265,3.265,0,0,0,.76.542,1.552,1.552,0,0,0,.674.169c.051,0,.107,0,.17-.007s.126-.012.192-.022.128-.023.189-.038a1.406,1.406,0,0,0,.163-.049l.168-.067c.058-.023.113-.048.164-.074s.1-.05.142-.073a.881.881,0,0,0,.1-.067l-1.424-3.44,1.058-.442q.156.389.371.9c.122.3.27.654.445,1.076s.375.908.6,1.452l.071.174c.039.1.079.194.12.28a.777.777,0,0,0,.158.219.679.679,0,0,0,.246.143,1.215,1.215,0,0,0,.382.051.56.56,0,0,1,.222.046.6.6,0,0,1,.183.12.584.584,0,0,1,.125.181.565.565,0,0,1,0,.451.567.567,0,0,1-.125.181.605.605,0,0,1-.183.121.572.572,0,0,1-.222.045,2.753,2.753,0,0,1-.5-.043,2.043,2.043,0,0,1-.4-.116,1.489,1.489,0,0,1-.312-.174,1.754,1.754,0,0,1-.244-.217,2.215,2.215,0,0,1-.331.181q-.2.091-.393.168a2.694,2.694,0,0,1-.576.151A4.376,4.376,0,0,1,893.087,139.476Z" transform="translate(-862.398 -131.959)" fill="#040505"/>
        <path id="Path_7093" data-name="Path 7093" d="M897.653,139.346a.568.568,0,0,1,.571-.572h.34c.232,0,.455-.01.668-.031a2.043,2.043,0,0,0,.568-.131.976.976,0,0,0,.4-.286.819.819,0,0,0,.163-.489,1.571,1.571,0,0,0-.009-.236c-.009-.078-.023-.16-.043-.248s-.044-.183-.074-.288-.064-.225-.1-.362l1.094-.308c.039.144.07.273.094.391s.043.231.058.339.027.22.038.333.021.238.034.375c.008.1.022.208.04.32a1.162,1.162,0,0,0,.092.306.617.617,0,0,0,.178.227.478.478,0,0,0,.3.089.561.561,0,0,1,.225.045.581.581,0,0,1,.183.12.532.532,0,0,1,.123.181.568.568,0,0,1,.045.226.542.542,0,0,1-.048.225.555.555,0,0,1-.125.181.589.589,0,0,1-.181.121.545.545,0,0,1-.219.045,1.725,1.725,0,0,1-.739-.142,1.6,1.6,0,0,1-.507-.371,1.81,1.81,0,0,1-.444.241,3.55,3.55,0,0,1-.556.158,5.714,5.714,0,0,1-.622.087q-.321.026-.634.026h-.34a.574.574,0,0,1-.407-.166.556.556,0,0,1-.12-.181A.563.563,0,0,1,897.653,139.346Zm2.1,2.4-.759.759-.768-.764.759-.764Zm1.688,0-.759.764-.768-.768.759-.759Zm.205-2.408a.58.58,0,0,1,.045-.226.546.546,0,0,1,.123-.181.6.6,0,0,1,.181-.12.548.548,0,0,1,.223-.045h.71c.146,0,.3,0,.464-.015a3.388,3.388,0,0,0,.471-.063,1.921,1.921,0,0,0,.409-.13.632.632,0,0,0,.272-.212.464.464,0,0,0,.07-.263,1.5,1.5,0,0,0-.045-.362,3.9,3.9,0,0,0-.125-.414c-.053-.144-.109-.285-.168-.42s-.118-.263-.176-.384-.106-.222-.145-.306l1.04-.513a4.211,4.211,0,0,1,.239.515,6.528,6.528,0,0,1,.208.624q.089.321.145.634a3.17,3.17,0,0,1,.056.554,1.92,1.92,0,0,1-.147.773,1.681,1.681,0,0,1-.478.646,2.076,2.076,0,0,1-.732.377,2.045,2.045,0,0,1-.324.057c-.129.012-.261.023-.4.031s-.26.012-.382.013l-.279,0h-.688a.56.56,0,0,1-.223-.045.6.6,0,0,1-.181-.121.531.531,0,0,1-.123-.181A.577.577,0,0,1,901.65,139.346Zm2.309,1.934-.759.76-.768-.764.76-.764Zm1.688,0-.759.764-.768-.768.759-.759Z" transform="translate(-864.14 -132.4)" fill="#040505"/>
        <path id="Path_7094" data-name="Path 7094" d="M912.506,138.891a2.737,2.737,0,0,1-.889-.128,1.7,1.7,0,0,1-.639-.386,1.224,1.224,0,0,1-.248-.346,1.772,1.772,0,0,1-.127-.362,1.825,1.825,0,0,1-.047-.335c0-.106-.007-.2-.007-.275,0-.095.007-.253.011-.473s.007-.487.007-.8q0-.282,0-.6c0-.213,0-.43-.007-.65s-.008-.441-.016-.663-.017-.436-.031-.641-.03-.4-.049-.578-.043-.34-.069-.481l1.12-.335c.033.172.061.381.086.625s.043.5.058.779.026.557.035.844.013.561.013.82c0,.078,0,.159,0,.246s0,.172.005.257,0,.167,0,.248v.219c0,.113,0,.219,0,.318s0,.2-.005.288l0,.273c0,.089,0,.18,0,.272a2.782,2.782,0,0,0,.009.318.335.335,0,0,0,.089.222.945.945,0,0,0,.665.175h.04a.53.53,0,0,1,.221.047.6.6,0,0,1,.309.308.54.54,0,0,1,.046.221.553.553,0,0,1-.046.225.569.569,0,0,1-.125.181.6.6,0,0,1-.183.121A.566.566,0,0,1,912.506,138.891Z" transform="translate(-867.532 -131.375)" fill="#040505"/>
        <path id="Path_7095" data-name="Path 7095" d="M912.255,138.532a.568.568,0,0,1,.045-.226.553.553,0,0,1,.123-.181.588.588,0,0,1,.181-.12.546.546,0,0,1,.223-.045h.71c.147,0,.3,0,.465-.015a3.41,3.41,0,0,0,.471-.063,1.951,1.951,0,0,0,.409-.13.632.632,0,0,0,.272-.212.471.471,0,0,0,.069-.263,1.459,1.459,0,0,0-.044-.362,4.116,4.116,0,0,0-.125-.414c-.053-.144-.109-.285-.168-.42s-.118-.263-.176-.385-.106-.222-.145-.306l1.04-.513a4.1,4.1,0,0,1,.239.515q.118.3.208.624t.145.634a3.183,3.183,0,0,1,.057.554,1.908,1.908,0,0,1-.148.773,1.682,1.682,0,0,1-.478.646,2.058,2.058,0,0,1-.732.377,2.031,2.031,0,0,1-.324.057c-.129.012-.261.023-.4.031s-.261.012-.382.013l-.28,0h-.688a.558.558,0,0,1-.223-.045.59.59,0,0,1-.181-.121.538.538,0,0,1-.123-.181A.565.565,0,0,1,912.255,138.532Zm2.551-5.128-.759.759-.768-.764.76-.763Zm1.688,0-.759.764-.768-.768.759-.759Z" transform="translate(-868.028 -131.587)" fill="#040505"/>
      </g>
      <g id="Group_23406" data-name="Group 23406" transform="translate(403.871 25.979)">
        <path id="Path_7096" data-name="Path 7096" d="M573.432,68.008a2.066,2.066,0,0,1-.564-.2,1.736,1.736,0,0,1-.453-.349,2.078,2.078,0,0,1-.346-.511,5.25,5.25,0,0,1-3.676,1.135,6.868,6.868,0,0,1-2.306-.349,2.574,2.574,0,0,1-1.352-1.037,2.12,2.12,0,0,1-.244-.594,2.616,2.616,0,0,1-.073-.6,2.69,2.69,0,0,1,.089-.7v0a3.929,3.929,0,0,1,.112-.382c.039-.109.074-.2.107-.274a1.689,1.689,0,0,1,.085-.174c.023-.043.04-.07.049-.085l.862.54q-.045.08-.1.174a1.56,1.56,0,0,0-.109.219,1.707,1.707,0,0,0-.087.294,1.929,1.929,0,0,0-.036.4.945.945,0,0,0,.058.32,1.611,1.611,0,0,0,.147.306,1.024,1.024,0,0,0,.38.357,2.428,2.428,0,0,0,.618.241,5.38,5.38,0,0,0,.82.139c.3.03.631.044.982.044.319,0,.621-.011.907-.035a6.518,6.518,0,0,0,.8-.114,3.868,3.868,0,0,0,.666-.2,2.014,2.014,0,0,0,.515-.3,1.27,1.27,0,0,0,.318-.353,2.44,2.44,0,0,0,.2-.422,3.926,3.926,0,0,0,.134-.453c.036-.155.074-.3.117-.446l1.027.276q-.057.242-.123.481a1.734,1.734,0,0,0-.06.494v0a1.6,1.6,0,0,0,.084.446.855.855,0,0,0,.222.342.991.991,0,0,0,.382.216,1.847,1.847,0,0,0,.567.076.568.568,0,0,1,.226.046.578.578,0,0,1,.183.12.555.555,0,0,1,.123.181.6.6,0,0,1,0,.451.539.539,0,0,1-.123.181.58.58,0,0,1-.409.166h-.036A3.4,3.4,0,0,1,573.432,68.008Zm-4.762-4.467-.759.759-.768-.764.759-.763Zm1.688,0-.759.764-.768-.768.759-.759Z" transform="translate(-564.418 -59.624)" fill="#040505"/>
        <path id="Path_7097" data-name="Path 7097" d="M576.981,66.978a.567.567,0,0,1,.045-.226.537.537,0,0,1,.125-.181.628.628,0,0,1,.186-.12.57.57,0,0,1,.226-.046h.884a6.215,6.215,0,0,0,1.128-.1,10.46,10.46,0,0,0,1.141-.277q.567-.172,1.108-.395t1.022-.46a4.049,4.049,0,0,1-.715-.226c-.219-.094-.429-.186-.625-.274s-.386-.167-.568-.232a1.575,1.575,0,0,0-.54-.1.762.762,0,0,0-.293.056,1.18,1.18,0,0,0-.252.142,1.373,1.373,0,0,0-.208.186,2.5,2.5,0,0,0-.161.2c-.046.064-.084.121-.114.172s-.051.087-.062.107l-.93-.6a3.629,3.629,0,0,1,.362-.52,3.025,3.025,0,0,1,.467-.452,2.247,2.247,0,0,1,.556-.316,1.7,1.7,0,0,1,.634-.118,2.612,2.612,0,0,1,.683.091,5.634,5.634,0,0,1,.672.23q.333.139.668.3c.224.109.449.21.677.3a5.942,5.942,0,0,0,.69.237,2.814,2.814,0,0,0,.715.1l-.094,1.153q-.625.3-1.3.634t-1.421.62a12.1,12.1,0,0,1-1.55.478,8.006,8.006,0,0,1-1.688.21h-.884a.583.583,0,0,1-.226-.045.609.609,0,0,1-.186-.123.56.56,0,0,1-.125-.181A.548.548,0,0,1,576.981,66.978Zm4.082-5.3-.853.853-.858-.858.853-.853Z" transform="translate(-567.763 -59.103)" fill="#040505"/>
        <path id="Path_7098" data-name="Path 7098" d="M589.141,60.277a25.3,25.3,0,0,1,.232,3.167q.01,2.372-.066,3.774l-1.17.179a34.525,34.525,0,0,0,.08-3.458q-.072-1.822-.223-3.287Z" transform="translate(-570.694 -58.959)" fill="#040505"/>
        <path id="Path_7099" data-name="Path 7099" d="M591.333,66.319a3.641,3.641,0,0,0,.409.219q.239.112.5.2a4.3,4.3,0,0,0,.5.147,2.011,2.011,0,0,0,.436.056c.075,0,.175,0,.3-.012a1.691,1.691,0,0,0,.373-.062.876.876,0,0,0,.318-.16.392.392,0,0,0,.138-.31.976.976,0,0,0-.1-.414,2.909,2.909,0,0,0-.277-.478,5.157,5.157,0,0,0-.4-.5q-.228-.25-.473-.48c-.164-.153-.328-.294-.494-.424a5.25,5.25,0,0,0-.462-.328l.666-.988a8.512,8.512,0,0,1,.811.634,7.181,7.181,0,0,1,.737.753,5.743,5.743,0,0,1,.586.833,3.34,3.34,0,0,1,.354.876,1.869,1.869,0,0,1,.005.916,1.623,1.623,0,0,1-.4.721,1.894,1.894,0,0,1-.737.462,2.569,2.569,0,0,1-1,.134,3.171,3.171,0,0,1-.6-.059,4.615,4.615,0,0,1-.6-.154,4.859,4.859,0,0,1-.564-.222,5.36,5.36,0,0,1-.5-.27Z" transform="translate(-571.457 -59.628)" fill="#040505"/>
        <path id="Path_7100" data-name="Path 7100" d="M600.741,68.939l-.138,0a1.4,1.4,0,0,1-.186-.02,1.749,1.749,0,0,1-.216-.056.984.984,0,0,1-.228-.11,2.816,2.816,0,0,1-.341,1.079,4.581,4.581,0,0,1-.717.967,6.488,6.488,0,0,1-.972.826,8.583,8.583,0,0,1-1.106.657l-.5-1.032q.314-.16.628-.348a7.041,7.041,0,0,0,.6-.4,5.619,5.619,0,0,0,.534-.448,3.588,3.588,0,0,0,.429-.489,2.36,2.36,0,0,0,.285-.521,1.489,1.489,0,0,0,.106-.549c0-.025,0-.049,0-.074s0-.05-.007-.074v0a3.3,3.3,0,0,0-.1-.506c-.05-.172-.1-.338-.159-.5s-.114-.316-.17-.462-.1-.281-.143-.4l1.072-.446c.116.349.226.636.328.864a2.667,2.667,0,0,0,.311.54.928.928,0,0,0,.319.277.819.819,0,0,0,.36.078h.022a.545.545,0,0,1,.226.048.61.61,0,0,1,.183.125.585.585,0,0,1,.123.183.582.582,0,0,1,0,.444.58.58,0,0,1-.123.181.546.546,0,0,1-.186.121A.625.625,0,0,1,600.741,68.939Z" transform="translate(-572.915 -60.492)" fill="#040505"/>
        <path id="Path_7101" data-name="Path 7101" d="M601.512,67.887a.569.569,0,0,1,.045-.226.533.533,0,0,1,.123-.181.592.592,0,0,1,.18-.12.549.549,0,0,1,.223-.046h.71c.146,0,.3,0,.464-.015a3.4,3.4,0,0,0,.472-.063,1.927,1.927,0,0,0,.408-.13.628.628,0,0,0,.272-.212.464.464,0,0,0,.07-.263,1.5,1.5,0,0,0-.044-.362,3.947,3.947,0,0,0-.125-.414c-.053-.144-.108-.285-.168-.42s-.118-.263-.176-.385-.106-.222-.145-.306l1.041-.513a4.321,4.321,0,0,1,.238.515,6.531,6.531,0,0,1,.208.624q.089.321.145.634a3.176,3.176,0,0,1,.056.554,1.92,1.92,0,0,1-.148.773,1.68,1.68,0,0,1-.478.646,1.913,1.913,0,0,1-1.057.434c-.129.012-.261.023-.4.031s-.26.012-.382.013l-.279,0h-.688a.561.561,0,0,1-.223-.045.594.594,0,0,1-.18-.121.519.519,0,0,1-.123-.181A.565.565,0,0,1,601.512,67.887Zm1.385,2.8-.759-.764.768-.763.759.759Zm.853-.178.7.7-.7.7-.7-.7Zm.836.17-.76-.759.768-.768.76.764Z" transform="translate(-574.293 -60.013)" fill="#040505"/>
        <path id="Path_7102" data-name="Path 7102" d="M613.721,68.164l-.116,0a1.971,1.971,0,0,1-.23-.027c-.091-.015-.193-.037-.307-.067a1.817,1.817,0,0,1-.346-.13,1.627,1.627,0,0,1-.706-.584,1.564,1.564,0,0,1-.241-.872,2.832,2.832,0,0,1,.759-1.768c.087-.1.165-.189.234-.262s.135-.139.195-.2l-.116-.094c-.036-.03-.065-.056-.089-.08l-.081-.068.724-.884c.119.092.274.225.464.4s.422.406.693.7a3.674,3.674,0,0,1,1.12,2.256,1.594,1.594,0,0,1-.234.862,1.654,1.654,0,0,1-.641.59,2,2,0,0,1-.3.116c-.1.029-.2.054-.3.071a2.43,2.43,0,0,1-.269.036C613.848,68.161,613.778,68.164,613.721,68.164Zm.952-1.684a.831.831,0,0,0-.085-.317,2.939,2.939,0,0,0-.228-.411,4.848,4.848,0,0,0-.328-.442,4.978,4.978,0,0,0-.386-.415,3.01,3.01,0,0,0-.277.326,4.078,4.078,0,0,0-.275.418,3.143,3.143,0,0,0-.212.442,1.117,1.117,0,0,0-.085.4.342.342,0,0,0,.1.248.74.74,0,0,0,.238.164,1.332,1.332,0,0,0,.3.089,1.757,1.757,0,0,0,.288.027,2.538,2.538,0,0,0,.326-.023,1.124,1.124,0,0,0,.308-.083.631.631,0,0,0,.228-.162A.383.383,0,0,0,614.673,66.48Z" transform="translate(-577.025 -59.718)" fill="#040505"/>
        <path id="Path_7103" data-name="Path 7103" d="M620.449,67.433a2.74,2.74,0,0,1-.889-.128,1.7,1.7,0,0,1-.639-.386,1.237,1.237,0,0,1-.248-.346,1.813,1.813,0,0,1-.127-.362,1.841,1.841,0,0,1-.047-.335c0-.106-.007-.2-.007-.275,0-.095.007-.253.011-.473s.007-.487.007-.8q0-.282,0-.6c0-.213,0-.43-.007-.65s-.008-.441-.016-.663-.017-.436-.031-.641-.03-.4-.049-.578-.043-.34-.069-.481l1.121-.335c.033.172.061.381.085.625s.043.5.058.779.026.557.035.844.013.561.013.82c0,.078,0,.159,0,.246s0,.172.005.257,0,.167,0,.248v.219c0,.113,0,.219,0,.318s0,.2-.005.288l0,.273c0,.089,0,.18,0,.272a3,3,0,0,0,.008.318.335.335,0,0,0,.09.222.949.949,0,0,0,.666.175h.04a.528.528,0,0,1,.221.047.592.592,0,0,1,.183.125.607.607,0,0,1,.125.183.539.539,0,0,1,.046.221.552.552,0,0,1-.046.225.568.568,0,0,1-.125.181.582.582,0,0,1-.183.121A.563.563,0,0,1,620.449,67.433Z" transform="translate(-578.772 -58.987)" fill="#040505"/>
        <path id="Path_7104" data-name="Path 7104" d="M620.388,66.36a.591.591,0,0,1,.045-.227.52.52,0,0,1,.125-.183.582.582,0,0,1,.194-.12.681.681,0,0,1,.252-.045h.469q.254,0,.531-.006a4.04,4.04,0,0,0,.53-.047,1.9,1.9,0,0,0,.456-.13.688.688,0,0,0,.31-.255v.005a.96.96,0,0,0,.156-.546,1.232,1.232,0,0,0-.016-.2c-.01-.068-.024-.14-.042-.214v0a1.912,1.912,0,0,0-.222-.451,5.613,5.613,0,0,0-.435-.6q-.264-.319-.6-.657a8.783,8.783,0,0,0-.705-.636l.12-1.068,3.555-1.581.451,1.063L622.621,61.7c.131.113.269.238.414.373s.285.279.422.431a5.731,5.731,0,0,1,.522.67,4.3,4.3,0,0,1,.346.625,3.1,3.1,0,0,1,.192.57,2.316,2.316,0,0,1,.06.506,2,2,0,0,1-.082.59,2.637,2.637,0,0,1-.2.482,1.945,1.945,0,0,1-1.438.952V66.9a1.318,1.318,0,0,1-.205.029c-.069,0-.136.007-.205.007l-1.443,0a.683.683,0,0,1-.248-.045.629.629,0,0,1-.2-.121.514.514,0,0,1-.127-.178A.559.559,0,0,1,620.388,66.36Zm4.681-7.428-3.591,1.519.031-.572,3.35-1.4Z" transform="translate(-579.318 -58.481)" fill="#040505"/>
        <path id="Path_7105" data-name="Path 7105" d="M629.07,65.944q.151.429.268.862c.032.122.065.251.1.386s.062.271.087.409.046.272.061.405a3.562,3.562,0,0,1,.022.373,2.535,2.535,0,0,1-.123.784,3.419,3.419,0,0,1-.339.737,4.311,4.311,0,0,1-.514.677,6.512,6.512,0,0,1-.646.607,7.151,7.151,0,0,1-.737.531,8.674,8.674,0,0,1-.786.442l-.509-1.023q.317-.156.625-.346c.2-.127.4-.262.587-.4a5.271,5.271,0,0,0,.518-.453,3.426,3.426,0,0,0,.412-.492,2.41,2.41,0,0,0,.27-.518,1.557,1.557,0,0,0,.1-.542,2.644,2.644,0,0,0-.058-.536c-.038-.188-.084-.373-.138-.558s-.11-.361-.17-.529-.109-.318-.147-.449Z" transform="translate(-580.799 -60.468)" fill="#040505"/>
        <path id="Path_7106" data-name="Path 7106" d="M632.1,66.319a3.6,3.6,0,0,0,.409.219c.159.075.324.142.5.2a4.311,4.311,0,0,0,.5.147,2.006,2.006,0,0,0,.436.056c.074,0,.175,0,.3-.012a1.692,1.692,0,0,0,.373-.062.867.867,0,0,0,.317-.16.393.393,0,0,0,.139-.31.976.976,0,0,0-.1-.414,2.905,2.905,0,0,0-.277-.478,5.129,5.129,0,0,0-.4-.5c-.152-.167-.31-.327-.473-.48s-.329-.294-.494-.424a5.351,5.351,0,0,0-.462-.328l.666-.988a8.605,8.605,0,0,1,.811.634,7.113,7.113,0,0,1,.736.753,5.632,5.632,0,0,1,.586.833,3.319,3.319,0,0,1,.355.876,1.878,1.878,0,0,1,.005.916,1.631,1.631,0,0,1-.4.721,1.894,1.894,0,0,1-.737.462,2.571,2.571,0,0,1-1,.134,3.171,3.171,0,0,1-.6-.059,4.579,4.579,0,0,1-.6-.154,4.869,4.869,0,0,1-.564-.222,5.374,5.374,0,0,1-.5-.27Z" transform="translate(-582.309 -59.628)" fill="#040505"/>
        <path id="Path_7107" data-name="Path 7107" d="M643.756,65.891a2.3,2.3,0,0,0-.227.442,3.452,3.452,0,0,0-.161.556,3.77,3.77,0,0,0-.072.784,1.418,1.418,0,0,0,.081.492,1.373,1.373,0,0,0,.215.387,1.487,1.487,0,0,0,.306.29,1.935,1.935,0,0,0,.354.2,2.04,2.04,0,0,0,.36.123,1.837,1.837,0,0,0,.32.052.523.523,0,0,0,.065,0h.06a2.239,2.239,0,0,0,.652-.1,1.967,1.967,0,0,0,.635-.331,1.742,1.742,0,0,0,.67-1.44q0-.352-.014-.831c-.008-.318-.02-.657-.033-1.016s-.029-.729-.047-1.109-.036-.754-.054-1.117q-.063-1.272-.143-2.662l1.166-.219q.058,1.453.107,2.779c.012.378.025.765.037,1.162s.027.779.038,1.15.021.718.027,1.043.009.6.009.839a3.406,3.406,0,0,1-.137,1.005,2.783,2.783,0,0,1-.368.775,2.524,2.524,0,0,1-.539.566,3.16,3.16,0,0,1-.641.379,3.02,3.02,0,0,1-.681.212,3.514,3.514,0,0,1-.659.065H645a.712.712,0,0,1-.085,0,3.528,3.528,0,0,1-.589-.1,3.164,3.164,0,0,1-.6-.221,2.952,2.952,0,0,1-.56-.356,2.279,2.279,0,0,1-.464-.5,2.544,2.544,0,0,1-.318-.668,2.733,2.733,0,0,1-.114-.845,5.546,5.546,0,0,1,.087-1.013,4.709,4.709,0,0,1,.18-.688,2.475,2.475,0,0,1,.26-.522Z" transform="translate(-585.142 -58.99)" fill="#040505"/>
        <path id="Path_7108" data-name="Path 7108" d="M654.116,67.433a2.74,2.74,0,0,1-.889-.128,1.7,1.7,0,0,1-.639-.386,1.238,1.238,0,0,1-.248-.346,1.8,1.8,0,0,1-.127-.362,1.831,1.831,0,0,1-.047-.335c0-.106-.007-.2-.007-.275,0-.095.007-.253.011-.473s.007-.487.007-.8q0-.282,0-.6c0-.213,0-.43-.007-.65s-.008-.441-.016-.663-.017-.436-.031-.641-.03-.4-.049-.578-.043-.34-.069-.481l1.121-.335c.033.172.061.381.085.625s.043.5.058.779.026.557.035.844.013.561.013.82c0,.078,0,.159,0,.246s0,.172.005.257,0,.167,0,.248v.219c0,.113,0,.219,0,.318s0,.2-.005.288l0,.273c0,.089,0,.18,0,.272a2.983,2.983,0,0,0,.008.318.335.335,0,0,0,.089.222.949.949,0,0,0,.666.175h.04a.529.529,0,0,1,.221.047.592.592,0,0,1,.183.125.609.609,0,0,1,.126.183.54.54,0,0,1,.046.221.553.553,0,0,1-.046.225.569.569,0,0,1-.126.181.582.582,0,0,1-.183.121A.564.564,0,0,1,654.116,67.433Z" transform="translate(-587.735 -58.987)" fill="#040505"/>
        <path id="Path_7109" data-name="Path 7109" d="M654.085,67.9a.574.574,0,0,1,.168-.409.567.567,0,0,1,.181-.123.552.552,0,0,1,.224-.046h.04a1.819,1.819,0,0,0,.661-.094h0a.781.781,0,0,0,.169-.116,1.209,1.209,0,0,0,.148-.156,1.534,1.534,0,0,0,.232-.473c.059-.191.119-.413.178-.666v0a2.981,2.981,0,0,1,.094-.343c.039-.116.075-.23.107-.34l1.037.344c-.033.071-.06.138-.084.2s-.041.123-.058.185a1.519,1.519,0,0,0-.036.194c-.007.067-.01.144-.01.23a.846.846,0,0,0,.065.318c.043.107.086.208.127.3q.081-.152.192-.342c.075-.127.161-.26.259-.4s.208-.284.329-.431a5.518,5.518,0,0,1,.395-.431,4,4,0,0,1,.9-.645,3.557,3.557,0,0,1,.985-.346,2.788,2.788,0,0,1,.483-.045,2.243,2.243,0,0,1,.85.158,1.967,1.967,0,0,1,.694.48h0a1.811,1.811,0,0,1,.418.63,1.674,1.674,0,0,1,.109.706,2.076,2.076,0,0,1-.384,1.076h.745a.562.562,0,0,1,.226.046.577.577,0,0,1,.183.123.6.6,0,0,1,.125.183.54.54,0,0,1,.047.225.525.525,0,0,1-.047.223.6.6,0,0,1-.125.181.549.549,0,0,1-.183.121.6.6,0,0,1-.226.043l-1.125,0c-.319,0-.577-.009-.776-.026a1.861,1.861,0,0,1-.493-.1,5.516,5.516,0,0,1-.943.168c-.315.029-.613.042-.893.042-.223,0-.428-.007-.611-.02s-.335-.026-.447-.038a.346.346,0,0,1-.051,0,.355.355,0,0,0-.052,0,3.31,3.31,0,0,1-.382-.064,1.636,1.636,0,0,1-.337-.12l0,.005a1.615,1.615,0,0,1-.382-.227,1.9,1.9,0,0,1-.3-.3l0,.008s0,0-.011-.018a1.7,1.7,0,0,1-.3.273,2.153,2.153,0,0,1-.359.2h.005a2.753,2.753,0,0,1-1.184.224.59.59,0,0,1-.224-.043.539.539,0,0,1-.181-.121.571.571,0,0,1-.123-.181A.557.557,0,0,1,654.085,67.9Zm5.074-1.782q-.165.156-.308.317c-.095.108-.183.214-.263.318s-.152.2-.214.3-.116.188-.161.268a7.116,7.116,0,0,0,.737.057,7.587,7.587,0,0,0,.8-.021,6.031,6.031,0,0,0,.788-.112,3.257,3.257,0,0,0,.691-.221,1.684,1.684,0,0,0,.511-.349.881.881,0,0,0,.248-.493.73.73,0,0,0-.176-.366,1.182,1.182,0,0,0-.333-.264,1.346,1.346,0,0,0-.413-.14,1.083,1.083,0,0,0-.413,0,2.7,2.7,0,0,0-.391.087,3.3,3.3,0,0,0-.4.15,2.785,2.785,0,0,0-.379.208A2.225,2.225,0,0,0,659.159,66.121Z" transform="translate(-588.289 -60.024)" fill="#040505"/>
        <path id="Path_7110" data-name="Path 7110" d="M665.632,67.074a.567.567,0,0,1,.045-.226.543.543,0,0,1,.122-.181.589.589,0,0,1,.181-.12.546.546,0,0,1,.223-.046h.71c.147,0,.3,0,.465-.015a3.409,3.409,0,0,0,.471-.063,1.949,1.949,0,0,0,.409-.13.632.632,0,0,0,.272-.212.47.47,0,0,0,.069-.263,1.465,1.465,0,0,0-.044-.362,4.119,4.119,0,0,0-.125-.414c-.053-.144-.109-.285-.168-.42s-.118-.263-.176-.384-.107-.222-.145-.306l1.041-.513a4.214,4.214,0,0,1,.239.515q.118.3.208.624t.144.634a3.183,3.183,0,0,1,.057.554,1.906,1.906,0,0,1-.148.773,1.681,1.681,0,0,1-.478.646,2.057,2.057,0,0,1-.732.377,2.033,2.033,0,0,1-.324.057c-.129.012-.261.023-.4.031s-.261.012-.382.013l-.28,0H666.2a.558.558,0,0,1-.223-.045.591.591,0,0,1-.181-.121.529.529,0,0,1-.122-.181A.564.564,0,0,1,665.632,67.074Zm2.551-5.128-.76.759-.768-.764.759-.763Zm1.688,0-.76.764-.768-.768.759-.759Z" transform="translate(-591.363 -59.199)" fill="#040505"/>
        <path id="Path_7111" data-name="Path 7111" d="M673.372,60.277a25.427,25.427,0,0,1,.232,3.167q.01,2.372-.067,3.774l-1.17.179a34.57,34.57,0,0,0,.081-3.458q-.073-1.822-.224-3.287Z" transform="translate(-593.118 -58.959)" fill="#040505"/>
      </g>
      <g id="Group_23407" data-name="Group 23407" transform="translate(218.277 78.615)">
        <path id="Path_7112" data-name="Path 7112" d="M317.512,141.639a4.761,4.761,0,0,1-1.195-.192,2.441,2.441,0,0,1-.914-.509,2.575,2.575,0,0,1-.418-.473,2.978,2.978,0,0,1-.294-.55,2.924,2.924,0,0,1-.174-.605,3.67,3.67,0,0,1-.057-.646,4.9,4.9,0,0,1,.21-1.407,4.963,4.963,0,0,1,.621-1.322l.88.638a3.179,3.179,0,0,0-.2.33,4.341,4.341,0,0,0-.228.5,4.783,4.783,0,0,0-.186.616,3.006,3.006,0,0,0-.076.666,1.56,1.56,0,0,0,.167.723,1.768,1.768,0,0,0,.454.561,2.179,2.179,0,0,0,.663.366,2.583,2.583,0,0,0,.8.14,2.892,2.892,0,0,0,.949-.136,2.481,2.481,0,0,0,.779-.4,1.914,1.914,0,0,0,.518-.612,1.461,1.461,0,0,0,.17-.764,2.423,2.423,0,0,0-.07-.458c-.04-.169-.088-.339-.145-.512s-.117-.34-.181-.506-.124-.312-.181-.44-.1-.23-.144-.308a.816.816,0,0,0-.062-.116l1.05-.586a1.493,1.493,0,0,1,.072.148c.038.087.084.2.138.339s.112.3.174.483.122.371.177.572.1.4.143.61a4.208,4.208,0,0,1,.074.6,3.325,3.325,0,0,1-.059.815,3.073,3.073,0,0,1-.263.777,3.037,3.037,0,0,1-.471.686,2.778,2.778,0,0,1-.684.542,3.289,3.289,0,0,1-.9.342A4.187,4.187,0,0,1,317.512,141.639Zm1.116-6.069-.853.853-.858-.858.853-.853Z" transform="translate(-314.461 -131.411)" fill="#040505"/>
        <path id="Path_7113" data-name="Path 7113" d="M326.728,137.406a2.737,2.737,0,0,1-.889-.128,1.693,1.693,0,0,1-.639-.387,1.21,1.21,0,0,1-.248-.346,1.764,1.764,0,0,1-.127-.362,1.849,1.849,0,0,1-.048-.335c0-.106-.006-.2-.006-.275,0-.095.006-.253.01-.473s.007-.487.007-.8c0-.188,0-.387,0-.6s0-.43-.007-.65-.007-.441-.015-.663-.018-.436-.031-.641-.03-.4-.05-.578-.042-.34-.068-.481l1.12-.335c.033.173.061.382.085.626s.043.5.058.779.026.557.035.845.014.561.014.82c0,.077,0,.159,0,.246s0,.172.005.257,0,.167,0,.247v.219c0,.114,0,.219,0,.319s0,.2-.005.288l0,.273q0,.134,0,.273a2.8,2.8,0,0,0,.009.318.329.329,0,0,0,.09.222.949.949,0,0,0,.666.174h.04a.526.526,0,0,1,.22.048.581.581,0,0,1,.183.125.6.6,0,0,1,.125.183.537.537,0,0,1,.047.22.564.564,0,0,1-.172.407.6.6,0,0,1-.183.121A.56.56,0,0,1,326.728,137.406Z" transform="translate(-317.164 -130.251)" fill="#040505"/>
        <path id="Path_7114" data-name="Path 7114" d="M326.391,137.86a.564.564,0,0,1,.046-.225.532.532,0,0,1,.123-.18.58.58,0,0,1,.181-.12.549.549,0,0,1,.223-.045h.71q.219,0,.464-.015a3.42,3.42,0,0,0,.472-.063,1.929,1.929,0,0,0,.408-.13.634.634,0,0,0,.273-.212.471.471,0,0,0,.069-.263,1.506,1.506,0,0,0-.045-.362,3.967,3.967,0,0,0-.125-.413q-.078-.217-.167-.42t-.177-.384q-.087-.181-.145-.306l1.04-.513a4.256,4.256,0,0,1,.24.515,6.454,6.454,0,0,1,.207.624q.089.321.145.634a3.175,3.175,0,0,1,.056.554,1.915,1.915,0,0,1-.147.772,1.67,1.67,0,0,1-.478.646,1.9,1.9,0,0,1-1.057.434q-.194.02-.4.031c-.133.007-.26.012-.381.014l-.28,0h-.688a.561.561,0,0,1-.223-.045.609.609,0,0,1-.181-.121.518.518,0,0,1-.123-.181A.567.567,0,0,1,326.391,137.86Zm2.4,1.979-.759.759-.768-.764.759-.764Zm1.688,0-.759.764-.768-.768.759-.759Z" transform="translate(-317.637 -131.277)" fill="#040505"/>
        <path id="Path_7115" data-name="Path 7115" d="M336.3,138.912l-.139,0a1.271,1.271,0,0,1-.185-.021,1.631,1.631,0,0,1-.216-.056.982.982,0,0,1-.228-.109,2.816,2.816,0,0,1-.342,1.079,4.619,4.619,0,0,1-.716.967,6.461,6.461,0,0,1-.972.826,8.526,8.526,0,0,1-1.105.656l-.5-1.032c.208-.106.418-.223.627-.348a6.932,6.932,0,0,0,.6-.4,5.526,5.526,0,0,0,.534-.449,3.5,3.5,0,0,0,.429-.489,2.376,2.376,0,0,0,.285-.521,1.484,1.484,0,0,0,.106-.549c0-.024,0-.048,0-.073s0-.051-.007-.074v0a3.2,3.2,0,0,0-.1-.506c-.049-.172-.1-.338-.159-.5s-.113-.316-.169-.462-.1-.281-.143-.4l1.072-.446q.174.522.328.864a2.661,2.661,0,0,0,.311.541.943.943,0,0,0,.318.277.825.825,0,0,0,.36.078h.022a.542.542,0,0,1,.225.048.6.6,0,0,1,.183.124.592.592,0,0,1,.123.183.569.569,0,0,1,.045.221.56.56,0,0,1-.045.224.57.57,0,0,1-.123.18.543.543,0,0,1-.186.121A.62.62,0,0,1,336.3,138.912Z" transform="translate(-319.102 -131.757)" fill="#040505"/>
        <path id="Path_7116" data-name="Path 7116" d="M337.026,138.114a.563.563,0,0,1,.044-.225.572.572,0,0,1,.12-.181.582.582,0,0,1,.406-.166h.34c.232,0,.455-.01.668-.031a2.043,2.043,0,0,0,.568-.132.969.969,0,0,0,.4-.285.819.819,0,0,0,.163-.489,1.589,1.589,0,0,0-.009-.237c-.009-.077-.023-.159-.043-.247s-.044-.183-.074-.288-.064-.225-.1-.362l1.094-.308c.039.143.07.273.094.391s.043.231.058.339.027.22.038.333.021.238.034.375c.008.1.022.208.04.319a1.155,1.155,0,0,0,.092.306.619.619,0,0,0,.178.228.478.478,0,0,0,.3.089.558.558,0,0,1,.225.046.569.569,0,0,1,.183.12.532.532,0,0,1,.123.181.564.564,0,0,1,.046.225.545.545,0,0,1-.048.226.555.555,0,0,1-.125.181.6.6,0,0,1-.181.121.545.545,0,0,1-.219.045,1.725,1.725,0,0,1-.739-.143,1.6,1.6,0,0,1-.507-.371,1.812,1.812,0,0,1-.444.242,3.55,3.55,0,0,1-.556.158,5.533,5.533,0,0,1-.622.088q-.321.026-.634.026h-.34a.577.577,0,0,1-.225-.045.586.586,0,0,1-.181-.121.556.556,0,0,1-.12-.181A.567.567,0,0,1,337.026,138.114Zm2.1,2.136-.759.759-.768-.764.759-.764Zm1.688,0-.759.764-.768-.768.759-.76Z" transform="translate(-320.468 -131.531)" fill="#040505"/>
        <path id="Path_7117" data-name="Path 7117" d="M342.261,137.3a.574.574,0,0,1,.165-.406.544.544,0,0,1,.181-.12.561.561,0,0,1,.225-.045h.34c.233,0,.455-.01.668-.031a2.038,2.038,0,0,0,.567-.132.964.964,0,0,0,.4-.285.819.819,0,0,0,.164-.489,1.492,1.492,0,0,0-.01-.237,2.341,2.341,0,0,0-.043-.247c-.019-.088-.043-.183-.073-.288l-.1-.362,1.094-.308c.039.143.07.273.094.391s.043.231.058.339.027.22.038.333.021.238.034.375c.009.1.022.208.04.319a1.1,1.1,0,0,0,.092.306.6.6,0,0,0,.178.228.474.474,0,0,0,.3.089.564.564,0,0,1,.225.045.585.585,0,0,1,.183.12.542.542,0,0,1,.123.181.564.564,0,0,1,.045.225.545.545,0,0,1-.047.226.566.566,0,0,1-.125.181.623.623,0,0,1-.181.121.55.55,0,0,1-.219.045,1.726,1.726,0,0,1-.74-.143,1.592,1.592,0,0,1-.506-.371,1.8,1.8,0,0,1-.445.242,3.5,3.5,0,0,1-.556.158,5.5,5.5,0,0,1-.621.088q-.321.026-.635.026h-.34a.573.573,0,0,1-.406-.166.545.545,0,0,1-.12-.181A.567.567,0,0,1,342.261,137.3Zm2.51-4.422-.759.759-.768-.764.759-.764Zm1.688.005-.759.764-.768-.769.759-.759Z" transform="translate(-321.862 -130.719)" fill="#040505"/>
        <path id="Path_7118" data-name="Path 7118" d="M347.58,136.8a.508.508,0,0,1,.047-.214.544.544,0,0,1,.132-.178.7.7,0,0,1,.2-.123.785.785,0,0,1,.241-.056,1.27,1.27,0,0,0,.486-.091,1.073,1.073,0,0,0,.418-.331,2.5,2.5,0,0,0,.36-.655,7.477,7.477,0,0,0,.313-1.063l1.094.308q-.054.183-.1.335c-.034.1-.065.2-.092.3a2.66,2.66,0,0,0-.065.306,2.308,2.308,0,0,0-.025.36,1.075,1.075,0,0,0,.018.2.592.592,0,0,0,.058.174.318.318,0,0,0,.1.12.24.24,0,0,0,.154.041.529.529,0,0,0,.313-.121,1.376,1.376,0,0,0,.274-.3,2.644,2.644,0,0,0,.233-.414q.1-.23.187-.47c.056-.161.1-.318.141-.47s.069-.286.089-.4l1.054.214c-.038.179-.07.344-.093.5a3.839,3.839,0,0,0-.045.451,2.328,2.328,0,0,0,.009.349,1.147,1.147,0,0,0,.076.321.6.6,0,0,0,.164.234.4.4,0,0,0,.274.092.375.375,0,0,0,.313-.15,1.072,1.072,0,0,0,.179-.382,2.764,2.764,0,0,0,.082-.516c.014-.189.02-.373.02-.552v-.136c0-.034,0-.066,0-.1s0-.063,0-.1,0-.089,0-.154l1.13-.09c.008.1.016.194.024.288s.016.191.026.291.022.205.036.317.029.233.047.364a1.072,1.072,0,0,0,.134.407,1.091,1.091,0,0,0,.243.291,1.043,1.043,0,0,0,.3.174.844.844,0,0,0,.295.058h.054a.651.651,0,0,1,.246.045.592.592,0,0,1,.192.12.526.526,0,0,1,.125.181.564.564,0,0,1,.045.225.552.552,0,0,1-.045.224.529.529,0,0,1-.129.18.619.619,0,0,1-.208.123.831.831,0,0,1-.28.045,2.11,2.11,0,0,1-.431-.045,1.738,1.738,0,0,1-.406-.139,1.558,1.558,0,0,1-.359-.239,1.522,1.522,0,0,1-.291-.346,1.3,1.3,0,0,1-.094.138c-.033.042-.067.082-.1.12a1.608,1.608,0,0,1-.511.373,1.454,1.454,0,0,1-.623.136,1.479,1.479,0,0,1-.762-.2,1.523,1.523,0,0,1-.542-.536,2.541,2.541,0,0,1-.279.3,1.967,1.967,0,0,1-.322.237,1.632,1.632,0,0,1-.364.156,1.427,1.427,0,0,1-.4.056,1.451,1.451,0,0,1-.388-.051,1.347,1.347,0,0,1-.349-.15,1.361,1.361,0,0,1-.29-.238,1.33,1.33,0,0,1-.214-.316,1.537,1.537,0,0,1-.255.338,1.243,1.243,0,0,1-.324.23,1.6,1.6,0,0,1-.4.132,2.7,2.7,0,0,1-.5.043.7.7,0,0,1-.252-.045.613.613,0,0,1-.2-.123.544.544,0,0,1-.127-.18A.552.552,0,0,1,347.58,136.8Zm4.989-4.6-.759.759-.768-.764.759-.764Zm-.616-1.291.7-.7.7.7-.7.7Zm2.3,1.3-.76.763-.768-.768.76-.759Z" transform="translate(-323.278 -130.214)" fill="#040505"/>
        <path id="Path_7119" data-name="Path 7119" d="M359.024,137.96a.528.528,0,0,1,.045-.22.61.61,0,0,1,.12-.18.572.572,0,0,1,.179-.123.619.619,0,0,1,.223-.049,1.246,1.246,0,0,0,.568-.123,1.564,1.564,0,0,0,.426-.319,2.337,2.337,0,0,0,.326-.442c.094-.164.182-.327.266-.491s.158-.315.243-.47a3.239,3.239,0,0,1,.275-.42,1.665,1.665,0,0,1,.494-.4,1.241,1.241,0,0,1,.583-.142,1.5,1.5,0,0,1,.674.152,1.7,1.7,0,0,1,.55.438,1.985,1.985,0,0,1,.306.52,2.325,2.325,0,0,1,.154.628v-.01a2.419,2.419,0,0,1,.026.376,2.6,2.6,0,0,1-.037.444,2.142,2.142,0,0,1-.114.413,1.529,1.529,0,0,1-.384.572,1.4,1.4,0,0,1-.544.322,1.254,1.254,0,0,1-.2.037,1.714,1.714,0,0,1-.6-.035,3.082,3.082,0,0,1-.42-.127c-.062-.027-.132-.059-.21-.1s-.156-.079-.236-.123-.16-.092-.238-.14-.153-.1-.222-.146a3.19,3.19,0,0,1-.362.306,2.226,2.226,0,0,1-.395.23,2.106,2.106,0,0,1-.438.141,2.5,2.5,0,0,1-.494.047.56.56,0,0,1-.223-.045.574.574,0,0,1-.179-.123.586.586,0,0,1-.12-.18A.553.553,0,0,1,359.024,137.96Zm2.926-1.094a2.249,2.249,0,0,0,.332.2,3.718,3.718,0,0,0,.367.158,3.055,3.055,0,0,0,.335.1,1.077,1.077,0,0,0,.248.038.436.436,0,0,0,.112-.014.19.19,0,0,0,.092-.055.428.428,0,0,0,.082-.128.98.98,0,0,0,.058-.188.931.931,0,0,0,.014-.241.9.9,0,0,0-.034-.157,2.009,2.009,0,0,0-.081-.214,1.784,1.784,0,0,0-.128-.236,1.254,1.254,0,0,0-.172-.216.9.9,0,0,0-.214-.159.55.55,0,0,0-.258-.062q-.124,0-.247.2c-.082.131-.188.326-.319.586Z" transform="translate(-326.324 -131.377)" fill="#040505"/>
        <path id="Path_7120" data-name="Path 7120" d="M373.121,137.991a2.313,2.313,0,0,1-1.052-.25,3.437,3.437,0,0,1-.927-.7l.657-.925a3.236,3.236,0,0,0,.759.541,1.557,1.557,0,0,0,.674.17q.075,0,.169-.007c.062,0,.126-.012.192-.022s.128-.023.19-.038a1.38,1.38,0,0,0,.162-.05l.168-.066c.058-.024.113-.049.164-.074s.1-.05.142-.074a.889.889,0,0,0,.1-.066l-1.424-3.44,1.058-.442q.156.389.371.9c.123.295.27.654.445,1.076s.375.907.6,1.451l.072.175c.038.1.078.194.12.28a.769.769,0,0,0,.158.218.679.679,0,0,0,.246.144,1.215,1.215,0,0,0,.382.051.56.56,0,0,1,.222.045.579.579,0,0,1,.308.3.574.574,0,0,1,0,.451.568.568,0,0,1-.125.181.62.62,0,0,1-.183.121.572.572,0,0,1-.222.045,2.757,2.757,0,0,1-.5-.043,2.07,2.07,0,0,1-.4-.116,1.545,1.545,0,0,1-.313-.174,1.75,1.75,0,0,1-.244-.217,2.208,2.208,0,0,1-.33.181q-.2.091-.394.167a2.654,2.654,0,0,1-.576.151A4.366,4.366,0,0,1,373.121,137.991Z" transform="translate(-329.551 -130.836)" fill="#040505"/>
        <path id="Path_7121" data-name="Path 7121" d="M377.418,137.86a.564.564,0,0,1,.046-.225.542.542,0,0,1,.123-.18.58.58,0,0,1,.181-.12.552.552,0,0,1,.224-.045h.71q.22,0,.464-.015a3.4,3.4,0,0,0,.472-.063,1.929,1.929,0,0,0,.408-.13.637.637,0,0,0,.274-.212.477.477,0,0,0,.068-.263,1.506,1.506,0,0,0-.044-.362,3.98,3.98,0,0,0-.125-.413c-.051-.145-.108-.285-.167-.42s-.119-.263-.177-.384-.106-.222-.145-.306l1.041-.513a4.276,4.276,0,0,1,.239.515,6.471,6.471,0,0,1,.207.624c.059.214.109.426.145.634a3.186,3.186,0,0,1,.056.554,1.916,1.916,0,0,1-.148.772,1.671,1.671,0,0,1-.478.646,1.9,1.9,0,0,1-1.056.434c-.13.013-.262.023-.4.031s-.261.012-.382.014l-.28,0h-.688a.564.564,0,0,1-.224-.045.609.609,0,0,1-.181-.121.528.528,0,0,1-.123-.181A.568.568,0,0,1,377.418,137.86Zm2.4,1.979-.759.759-.768-.764.759-.764Zm1.689,0-.759.764-.768-.768.759-.759Z" transform="translate(-331.221 -131.277)" fill="#040505"/>
        <path id="Path_7122" data-name="Path 7122" d="M387.325,138.912l-.138,0a1.291,1.291,0,0,1-.186-.021,1.63,1.63,0,0,1-.216-.056.982.982,0,0,1-.228-.109,2.815,2.815,0,0,1-.341,1.079,4.6,4.6,0,0,1-.717.967,6.492,6.492,0,0,1-.972.826,8.491,8.491,0,0,1-1.106.656l-.5-1.032c.208-.106.418-.223.628-.348a7.052,7.052,0,0,0,.6-.4,5.621,5.621,0,0,0,.534-.449,3.545,3.545,0,0,0,.429-.489,2.341,2.341,0,0,0,.285-.521,1.484,1.484,0,0,0,.106-.549c0-.024,0-.048,0-.073s0-.051-.007-.074v0a3.293,3.293,0,0,0-.1-.506c-.05-.172-.1-.338-.159-.5s-.114-.316-.17-.462-.1-.281-.143-.4l1.072-.446c.116.348.226.636.328.864a2.661,2.661,0,0,0,.311.541.944.944,0,0,0,.319.277.819.819,0,0,0,.359.078h.022a.545.545,0,0,1,.226.048.623.623,0,0,1,.183.124.6.6,0,0,1,.122.183.568.568,0,0,1,.044.221.559.559,0,0,1-.044.224.581.581,0,0,1-.122.18.557.557,0,0,1-.186.121A.624.624,0,0,1,387.325,138.912Z" transform="translate(-332.686 -131.757)" fill="#040505"/>
        <path id="Path_7123" data-name="Path 7123" d="M388.077,136.951a.564.564,0,0,1,.045-.225.537.537,0,0,1,.125-.181.6.6,0,0,1,.186-.12.568.568,0,0,1,.226-.045h.884a6.223,6.223,0,0,0,1.128-.1,10.274,10.274,0,0,0,1.14-.277c.379-.115.748-.246,1.108-.4s.7-.3,1.023-.459a4.115,4.115,0,0,1-.715-.226q-.33-.141-.624-.274t-.568-.233a1.591,1.591,0,0,0-.54-.1.763.763,0,0,0-.293.056,1.207,1.207,0,0,0-.252.141,1.345,1.345,0,0,0-.208.187,2.469,2.469,0,0,0-.16.2q-.069.1-.114.172c-.029.051-.051.086-.062.107l-.929-.6a3.7,3.7,0,0,1,.362-.52,2.987,2.987,0,0,1,.467-.451,2.249,2.249,0,0,1,.556-.317,1.711,1.711,0,0,1,.634-.118,2.608,2.608,0,0,1,.682.091,5.546,5.546,0,0,1,.672.23c.222.092.445.192.668.3s.449.21.677.3a5.936,5.936,0,0,0,.69.236,2.777,2.777,0,0,0,.715.1l-.094,1.153q-.626.3-1.3.634t-1.42.621a12.064,12.064,0,0,1-1.551.478,8.047,8.047,0,0,1-1.688.21h-.884a.581.581,0,0,1-.226-.045.6.6,0,0,1-.186-.123.559.559,0,0,1-.125-.18A.552.552,0,0,1,388.077,136.951Zm4.082-5.3-.853.853-.858-.858.853-.853Z" transform="translate(-334.059 -130.368)" fill="#040505"/>
      </g>
      <g id="Group_23408" data-name="Group 23408" transform="translate(31.166 21.748)">
        <path id="Path_7124" data-name="Path 7124" d="M64.906,60.1a2.739,2.739,0,0,1-.889-.128,1.7,1.7,0,0,1-.639-.386,1.238,1.238,0,0,1-.248-.346,1.861,1.861,0,0,1-.174-.7c0-.106-.007-.2-.007-.275,0-.095.007-.253.011-.473s.007-.487.007-.8q0-.282,0-.6c0-.213,0-.43-.007-.649s-.008-.442-.015-.664-.018-.436-.031-.641-.03-.4-.05-.578-.042-.34-.069-.481l1.121-.335c.033.172.061.381.085.625s.043.5.058.779.026.557.035.844.013.561.013.82c0,.078,0,.159,0,.246s0,.172.005.257,0,.167,0,.248v.219c0,.113,0,.219,0,.318s0,.2-.005.288l0,.273c0,.089,0,.18,0,.272a3,3,0,0,0,.008.319.334.334,0,0,0,.09.221.948.948,0,0,0,.666.175h.04a.528.528,0,0,1,.221.047.593.593,0,0,1,.183.125.608.608,0,0,1,.125.183.539.539,0,0,1,.046.221.552.552,0,0,1-.046.225.568.568,0,0,1-.125.181.585.585,0,0,1-.183.122A.562.562,0,0,1,64.906,60.1Z" transform="translate(-62.793 -52.803)" fill="#040505"/>
        <path id="Path_7125" data-name="Path 7125" d="M70.941,60.074a.54.54,0,0,1,.4.17.57.57,0,0,1,0,.813.563.563,0,0,1-.4.17h0a1.286,1.286,0,0,1-1-.34l-.094-.1-.094.1a1.146,1.146,0,0,1-.839.327,1.974,1.974,0,0,1-.616-.117,4,4,0,0,1-.6-.249,5.511,5.511,0,0,1-.63-.366,1.621,1.621,0,0,1-.384.379,1.966,1.966,0,0,1-1.184.379.58.58,0,0,1-.572-.572.553.553,0,0,1,.17-.407.54.54,0,0,1,.4-.17,1.189,1.189,0,0,0,.925-.483,3.233,3.233,0,0,0,.318-.469q.1-.178.254-.5c.051-.1.088-.175.112-.224a2.672,2.672,0,0,1,.576-.8,1.266,1.266,0,0,1,.871-.321,1.582,1.582,0,0,1,1.076.407,1.854,1.854,0,0,1,.6,1.272v.04l0,.013v.009a.1.1,0,0,1,0,.032v.022a.1.1,0,0,0,.005.032c0,.033.006.067.009.1a2.278,2.278,0,0,0,.054.317.61.61,0,0,0,.621.541Zm-1.876.071q.326-.095.344-.55a1.278,1.278,0,0,0-.152-.692,1.133,1.133,0,0,0-.38-.412.657.657,0,0,0-.486-.1q-.147.031-.429.59L67.8,59.3c-.018.039-.034.074-.049.107a.223.223,0,0,0-.022.044l-.045.108a4.143,4.143,0,0,0,1.3.594A.287.287,0,0,0,69.065,60.145Z" transform="translate(-63.362 -53.932)" fill="#040505"/>
        <path id="Path_7126" data-name="Path 7126" d="M72.386,59.442a.55.55,0,0,1,.043-.214.566.566,0,0,1,.116-.179.626.626,0,0,1,.172-.125.589.589,0,0,1,.21-.059,1.03,1.03,0,0,0,.476-.106,1.217,1.217,0,0,0,.361-.286,1.846,1.846,0,0,0,.266-.406,3.809,3.809,0,0,0,.194-.47c.055-.161.1-.32.143-.475s.077-.3.11-.423l1.116.246c-.027.084-.062.19-.1.32s-.085.266-.127.41-.076.291-.1.438a1.6,1.6,0,0,0-.026.4.534.534,0,0,0,.1.286.317.317,0,0,0,.27.109.612.612,0,0,0,.362-.114,1.157,1.157,0,0,0,.288-.3,2.294,2.294,0,0,0,.224-.423,4.527,4.527,0,0,0,.164-.484c.047-.165.085-.327.116-.485s.057-.3.074-.424l1.046.2c-.01.092-.023.189-.043.291s-.04.206-.061.315-.039.222-.053.34a2.793,2.793,0,0,0-.023.364,1.239,1.239,0,0,0,.029.277.653.653,0,0,0,.1.23.508.508,0,0,0,.183.161.625.625,0,0,0,.279.065.807.807,0,0,0,.518-.161.592.592,0,0,0,.2-.492,2.294,2.294,0,0,0-.065-.522c-.043-.188-.1-.371-.156-.552s-.125-.348-.194-.5-.128-.287-.178-.392l.961-.536c.018.033.046.093.087.181s.086.194.136.319.1.266.158.425.1.323.15.5.082.351.112.533a3.32,3.32,0,0,1,.045.539,2.114,2.114,0,0,1-.127.751,1.535,1.535,0,0,1-.376.571,1.657,1.657,0,0,1-.609.364,2.406,2.406,0,0,1-.831.123,1.206,1.206,0,0,1-.735-.212,1.47,1.47,0,0,1-.26-.23,2.637,2.637,0,0,1-.2-.264,2.046,2.046,0,0,1-.224.277,1.27,1.27,0,0,1-.279.219,1.469,1.469,0,0,1-.357.15,1.808,1.808,0,0,1-.458.06,1.241,1.241,0,0,1-.4-.051,1.286,1.286,0,0,1-.324-.152,1.377,1.377,0,0,1-.263-.226,2.578,2.578,0,0,1-.217-.272,1.874,1.874,0,0,1-.2.244,1.132,1.132,0,0,1-.272.208,1.6,1.6,0,0,1-.387.145,2.252,2.252,0,0,1-.538.056h-.076a.538.538,0,0,1-.21-.051.573.573,0,0,1-.172-.125.607.607,0,0,1-.116-.178A.551.551,0,0,1,72.386,59.442ZM77.031,54.7l-.759.759L75.5,54.7l.759-.764Zm-.616-1.291.7-.7.7.7-.7.7Zm2.3,1.294-.759.765-.768-.768.759-.759Z" transform="translate(-65.347 -52.715)" fill="#040505"/>
        <path id="Path_7127" data-name="Path 7127" d="M89.924,60.1a2.736,2.736,0,0,1-.889-.128,1.7,1.7,0,0,1-.639-.386,1.223,1.223,0,0,1-.248-.346,1.764,1.764,0,0,1-.127-.362,1.823,1.823,0,0,1-.047-.335c0-.106-.007-.2-.007-.275,0-.095.007-.253.011-.473s.007-.487.007-.8q0-.282,0-.6c0-.213,0-.43-.007-.649s-.008-.442-.016-.664-.017-.436-.031-.641-.03-.4-.049-.578-.043-.34-.069-.481l1.12-.335c.033.172.061.381.086.625s.043.5.058.779.026.557.035.844.014.561.014.82c0,.078,0,.159,0,.246s0,.172.005.257,0,.167,0,.248v.219c0,.113,0,.219,0,.318s0,.2-.005.288l0,.273c0,.089,0,.18,0,.272a2.81,2.81,0,0,0,.009.319.334.334,0,0,0,.09.221.945.945,0,0,0,.666.175h.04a.531.531,0,0,1,.221.047.6.6,0,0,1,.309.308.539.539,0,0,1,.046.221.552.552,0,0,1-.046.225.569.569,0,0,1-.125.181.6.6,0,0,1-.183.122A.565.565,0,0,1,89.924,60.1Z" transform="translate(-69.453 -52.803)" fill="#040505"/>
        <path id="Path_7128" data-name="Path 7128" d="M89.856,60.55a.567.567,0,0,1,.044-.226.554.554,0,0,1,.123-.181.606.606,0,0,1,.181-.12.549.549,0,0,1,.223-.045h.662c.124,0,.248,0,.37-.015A1.664,1.664,0,0,0,91.8,59.9a.947.947,0,0,0,.284-.138.6.6,0,0,0,.19-.233.683.683,0,0,0,.048-.295,1.574,1.574,0,0,0-.046-.326q-.047-.21-.13-.464t-.192-.527c-.073-.182-.15-.352-.23-.509l1.032-.509c.075.17.149.35.224.541s.14.386.2.586a5.745,5.745,0,0,1,.141.606,3.46,3.46,0,0,1,.054.594,1.92,1.92,0,0,1-.147.773,1.681,1.681,0,0,1-.478.646,2.067,2.067,0,0,1-.733.377,2.39,2.39,0,0,1-.493.087c-.159.01-.308.015-.445.015h-.652a.56.56,0,0,1-.223-.044.61.61,0,0,1-.181-.122.539.539,0,0,1-.123-.181A.563.563,0,0,1,89.856,60.55Zm2.769,2.118-.853.853-.858-.858.853-.853Z" transform="translate(-69.998 -53.828)" fill="#040505"/>
        <path id="Path_7129" data-name="Path 7129" d="M101.271,60.148a2.974,2.974,0,0,1-1.028-.158,1.6,1.6,0,0,1-.678-.449,1.188,1.188,0,0,1-.206-.4,1.446,1.446,0,0,1-.062-.4,1.524,1.524,0,0,1,.029-.308,1.379,1.379,0,0,1,.07-.237,2.446,2.446,0,0,1,.448-.655,3.889,3.889,0,0,1,.561-.482,3.991,3.991,0,0,1,.571-.337c.188-.09.351-.161.487-.215-.015-.113-.026-.226-.033-.339s-.016-.227-.025-.34l1.13-.241c0,.027.009.086.018.177s.02.2.033.324.028.258.043.4.028.274.04.4.023.231.033.322.017.147.021.167q.067.572.123.933t.1.572c.028.14.051.24.07.3a.9.9,0,0,0,.04.116.65.65,0,0,0,.1.163.412.412,0,0,0,.134.1.659.659,0,0,0,.183.054,1.655,1.655,0,0,0,.238.015.56.56,0,0,1,.222.045.6.6,0,0,1,.183.12.586.586,0,0,1,.125.181.556.556,0,0,1,.046.226.537.537,0,0,1-.046.223.626.626,0,0,1-.125.181.6.6,0,0,1-.183.123.571.571,0,0,1-.222.044,3.57,3.57,0,0,1-.431-.032,1.675,1.675,0,0,1-.5-.147,1.4,1.4,0,0,1-.594-.518c-.167.023-.327.042-.478.053S101.41,60.148,101.271,60.148Zm.518-1.175c-.015-.08-.03-.175-.045-.286s-.029-.23-.044-.36-.031-.263-.047-.4-.034-.28-.051-.42c-.078.033-.164.075-.259.125s-.194.108-.295.172-.2.132-.3.2a2.1,2.1,0,0,0-.258.22,1.251,1.251,0,0,0-.181.23.436.436,0,0,0-.07.224.19.19,0,0,0,.1.162.825.825,0,0,0,.248.1,2.1,2.1,0,0,0,.326.053c.118.011.227.016.329.016s.19,0,.285-.011S101.711,58.986,101.789,58.974Z" transform="translate(-72.511 -53.48)" fill="#040505"/>
        <path id="Path_7130" data-name="Path 7130" d="M104.22,60.55a.568.568,0,0,1,.045-.226.532.532,0,0,1,.123-.181.594.594,0,0,1,.181-.12.551.551,0,0,1,.223-.045h.71c.146,0,.3,0,.464-.015a3.4,3.4,0,0,0,.472-.063,1.928,1.928,0,0,0,.408-.13.634.634,0,0,0,.273-.212.47.47,0,0,0,.069-.263,1.5,1.5,0,0,0-.044-.362,3.937,3.937,0,0,0-.125-.414c-.052-.144-.108-.285-.167-.42s-.119-.263-.177-.384-.106-.222-.145-.306l1.041-.513a4.444,4.444,0,0,1,.239.515,6.534,6.534,0,0,1,.207.624q.089.321.145.634a3.175,3.175,0,0,1,.056.554,1.92,1.92,0,0,1-.147.773,1.681,1.681,0,0,1-.478.646,1.913,1.913,0,0,1-1.057.434c-.129.012-.261.023-.4.031s-.26.012-.381.013l-.28,0h-.688a.563.563,0,0,1-.223-.044.6.6,0,0,1-.181-.122.518.518,0,0,1-.123-.181A.564.564,0,0,1,104.22,60.55Zm2.4,1.978-.759.759-.768-.764.759-.764Zm1.688.005-.759.763-.768-.768.759-.759Z" transform="translate(-73.822 -53.828)" fill="#040505"/>
        <path id="Path_7131" data-name="Path 7131" d="M111.1,63.2a6.46,6.46,0,0,0,1.186-.346,4.918,4.918,0,0,0,.918-.484,2.989,2.989,0,0,0,.633-.572,1.672,1.672,0,0,0,.324-.608h-.233c-.081,0-.161,0-.241,0l-.232-.007c-.075,0-.14,0-.2-.01a2.685,2.685,0,0,1-.893-.21,1.642,1.642,0,0,1-.638-.474,1.323,1.323,0,0,1-.244-.478,2.012,2.012,0,0,1-.074-.554,2.594,2.594,0,0,1,.043-.46,2.878,2.878,0,0,1,.121-.453,3.07,3.07,0,0,1,.181-.418,2.548,2.548,0,0,1,.223-.357,1.721,1.721,0,0,1,.536-.467,1.282,1.282,0,0,1,.616-.158,1.7,1.7,0,0,1,1.264.616,2.9,2.9,0,0,1,.339.469,3.6,3.6,0,0,1,.264.554,4.47,4.47,0,0,1,.181.614,4.271,4.271,0,0,1,.087.654h.21a.57.57,0,0,1,.226.045.6.6,0,0,1,.183.12.574.574,0,0,1,.125.183.553.553,0,0,1,.046.227.516.516,0,0,1-.046.219.626.626,0,0,1-.125.181.59.59,0,0,1-.183.123.583.583,0,0,1-.226.044h-.3a3.518,3.518,0,0,1-.511,1.188,4.071,4.071,0,0,1-.864.927,4.731,4.731,0,0,1-1.128.65,5.9,5.9,0,0,1-1.3.362Zm2.028-4.913a.427.427,0,0,0-.25.1,1.12,1.12,0,0,0-.246.252,1.5,1.5,0,0,0-.186.341,1.012,1.012,0,0,0-.074.366.519.519,0,0,0,.088.31.662.662,0,0,0,.223.2,1.112,1.112,0,0,0,.308.114,2.8,2.8,0,0,0,.341.056l.205.01c.075,0,.151,0,.23,0H114c.078,0,.15,0,.219-.01a2.265,2.265,0,0,0-.094-.473,2.928,2.928,0,0,0-.168-.416,2.224,2.224,0,0,0-.21-.346q-.113-.153-.212-.266v0a1.586,1.586,0,0,0-.186-.163A.366.366,0,0,0,113.127,58.283Z" transform="translate(-75.653 -53.892)" fill="#040505"/>
        <path id="Path_7132" data-name="Path 7132" d="M116.218,60.874a.517.517,0,0,1,.047-.214.527.527,0,0,1,.131-.178.7.7,0,0,1,.2-.123.786.786,0,0,1,.241-.057,1.271,1.271,0,0,0,.487-.091,1.071,1.071,0,0,0,.418-.331,2.51,2.51,0,0,0,.36-.654,7.308,7.308,0,0,0,.312-1.063l1.095.308c-.036.122-.07.234-.1.335s-.065.2-.092.3a2.929,2.929,0,0,0-.065.306,2.383,2.383,0,0,0-.025.36,1.2,1.2,0,0,0,.018.2.6.6,0,0,0,.059.175.337.337,0,0,0,.1.12.241.241,0,0,0,.154.04.524.524,0,0,0,.313-.121,1.378,1.378,0,0,0,.275-.3,2.687,2.687,0,0,0,.232-.413,5.036,5.036,0,0,0,.187-.471c.055-.161.1-.318.142-.47s.068-.285.089-.4l1.054.214c-.039.18-.07.344-.093.5a3.82,3.82,0,0,0-.045.451,2.322,2.322,0,0,0,.009.349,1.152,1.152,0,0,0,.076.322.616.616,0,0,0,.163.234.4.4,0,0,0,.275.092.375.375,0,0,0,.312-.15,1.056,1.056,0,0,0,.178-.382,2.7,2.7,0,0,0,.083-.516c.013-.189.021-.373.021-.552v-.136c0-.034,0-.066,0-.1s0-.063,0-.1,0-.089,0-.154l1.13-.09c.009.1.018.194.025.288s.016.19.027.29.022.205.036.318.029.233.046.364a1.064,1.064,0,0,0,.134.407,1.077,1.077,0,0,0,.244.29,1.007,1.007,0,0,0,.3.174.847.847,0,0,0,.295.058h.054a.651.651,0,0,1,.246.046.594.594,0,0,1,.192.12.529.529,0,0,1,.125.181.58.58,0,0,1,.045.226.561.561,0,0,1-.045.223.533.533,0,0,1-.13.181.612.612,0,0,1-.208.123.821.821,0,0,1-.279.044,2.121,2.121,0,0,1-.431-.044,1.77,1.77,0,0,1-.406-.139,1.571,1.571,0,0,1-.36-.238,1.509,1.509,0,0,1-.291-.346,1.2,1.2,0,0,1-.094.139c-.033.041-.067.081-.1.12a1.616,1.616,0,0,1-.511.373,1.453,1.453,0,0,1-.622.136,1.488,1.488,0,0,1-.762-.2,1.534,1.534,0,0,1-.543-.536,2.37,2.37,0,0,1-.279.3,1.905,1.905,0,0,1-.321.238,1.615,1.615,0,0,1-.364.156,1.431,1.431,0,0,1-.4.057,1.449,1.449,0,0,1-.388-.052,1.339,1.339,0,0,1-.638-.388,1.277,1.277,0,0,1-.215-.316,1.536,1.536,0,0,1-.255.338,1.235,1.235,0,0,1-.324.23,1.579,1.579,0,0,1-.4.131,2.637,2.637,0,0,1-.5.043.7.7,0,0,1-.252-.044.609.609,0,0,1-.2-.123.546.546,0,0,1-.128-.181A.561.561,0,0,1,116.218,60.874Z" transform="translate(-77.016 -54.152)" fill="#040505"/>
        <path id="Path_7133" data-name="Path 7133" d="M127.322,59.737a.567.567,0,0,1,.044-.226.554.554,0,0,1,.123-.181.606.606,0,0,1,.181-.12.549.549,0,0,1,.223-.045h.71c.146,0,.3,0,.465-.015a3.413,3.413,0,0,0,.47-.063,1.955,1.955,0,0,0,.409-.13.632.632,0,0,0,.272-.212.476.476,0,0,0,.069-.263,1.462,1.462,0,0,0-.045-.362,4.109,4.109,0,0,0-.125-.414c-.052-.144-.108-.285-.167-.42s-.118-.263-.177-.385-.106-.222-.145-.306l1.04-.513a4,4,0,0,1,.239.515,6.535,6.535,0,0,1,.208.624c.059.214.107.426.145.634a3.174,3.174,0,0,1,.056.554,1.907,1.907,0,0,1-.147.773,1.675,1.675,0,0,1-.478.646,2.057,2.057,0,0,1-.732.377,2.018,2.018,0,0,1-.324.057c-.129.012-.26.023-.395.031s-.262.012-.382.013l-.279,0h-.688a.56.56,0,0,1-.223-.044.61.61,0,0,1-.181-.122.538.538,0,0,1-.123-.181A.563.563,0,0,1,127.322,59.737Zm2.55-5.128-.759.759-.768-.764.759-.763Zm1.688,0-.759.764-.768-.768.759-.759Z" transform="translate(-79.972 -53.015)" fill="#040505"/>
      </g>
      <g id="Group_23400" data-name="Group 23400" transform="translate(35.441 39.601)">
        <g id="Group_23409" data-name="Group 23409">
          <path id="Path_6332" data-name="Path 6332" d="M90.751,116.838q0,1.769,2.576,2.108v-4.24a3.1,3.1,0,0,0-1.837.547A1.838,1.838,0,0,0,90.751,116.838Z" transform="translate(-74.51 -87.071)" fill="#0da8b0" fill-rule="evenodd"/>
          <path id="Path_6333" data-name="Path 6333" d="M96.591,124.947v4.844a3.031,3.031,0,0,0,1.988-.695,2.231,2.231,0,0,0,.8-1.782q0-1.846-2.788-2.36Z" transform="translate(-76.066 -89.798)" fill="#0da8b0" fill-rule="evenodd"/>
          <path id="Path_6334" data-name="Path 6334" d="M97.481,86.9a.773.773,0,0,1,.208.037,63.306,63.306,0,0,0,3.392-5.406c2.6-4.51-3.872-4.483-8.711-4.483s-11.118-.122-8.81,4.483A30.437,30.437,0,0,0,86.974,87a.813.813,0,0,1,.376-.106Z" transform="translate(-72.465 -77.046)" fill="#0da8b0" fill-rule="evenodd"/>
          <path id="Path_6335" data-name="Path 6335" d="M93.286,122.264a6.567,6.567,0,0,1-4.143,1.632v2.339H87.434V123.9a6.26,6.26,0,0,1-6.013-4.545l2.716-.635a3.508,3.508,0,0,0,3.294,2.87v-4.991a8.354,8.354,0,0,1-4.355-1.953,4.191,4.191,0,0,1-1-2.82q0-4.26,5.365-4.916v-1.818h1.709v1.818a5.41,5.41,0,0,1,4.961,3.878l-2.564.542a2.7,2.7,0,0,0-2.4-2.091v4.4a30.887,30.887,0,0,1,3.331,1.084,3.665,3.665,0,0,1,1.548,1.479,4.77,4.77,0,0,1,.688,2.579,4.651,4.651,0,0,1-1.425,3.483Zm1.558-27.737c-.185.849-.668,1.451-1.212,1.451H83.5c-.635,0-1.17-.787-1.283-1.822-7.49,4.541-13.6,16.173-13.6,25.336,0,11.643,8.908,14.866,19.893,14.866s19.894-3.229,19.894-14.866c0-8.924-6.57-20.188-13.56-24.967Z" transform="translate(-68.619 -81.601)" fill="#0da8b0" fill-rule="evenodd"/>
        </g>
      </g>
      <path id="Path_7134" data-name="Path 7134" d="M1156.795,102.21h-43.488V95.557a9.74,9.74,0,0,1,9.737-9.737h5.133c3.591,0,4.715,1.168,6.146,3.085l3.085,4.1c.683.9.771,1.035,2.049,1.035h6.146A11.725,11.725,0,0,1,1156.795,102.21Z" transform="translate(-301.859 -39.78)" fill="#5e4e9b" opacity="0.5"/>
      <path id="Path_7135" data-name="Path 7135" d="M1157.345,111.241a11.064,11.064,0,0,0-.55-3.084h-43.488v15.884a11.8,11.8,0,0,0,11.786,11.786h20.488a11.8,11.8,0,0,0,11.786-11.786V111.748A3.894,3.894,0,0,0,1157.345,111.241Zm-16.5,11.919h-3.723v3.855a1.652,1.652,0,0,1-3.3,0V123.16h-3.987a1.652,1.652,0,1,1,0-3.3h3.987V116a1.652,1.652,0,0,1,3.3,0v3.855h3.723a1.652,1.652,0,1,1,0,3.3Z" transform="translate(-301.859 -45.727)" fill="#5e4e9b"/>
      <g id="Group_23412" data-name="Group 23412" transform="translate(622.869 21.655)">
        <g id="Group_23411" data-name="Group 23411">
          <g id="Group_23410" data-name="Group 23410">
            <path id="Path_7136" data-name="Path 7136" d="M893.764,52.588H861.4a1.421,1.421,0,0,0-1.445,1.4v39.1a1.421,1.421,0,0,0,1.445,1.4h32.36a1.421,1.421,0,0,0,1.445-1.4v-39.1A1.421,1.421,0,0,0,893.764,52.588Zm-23.692,7.448H885.1a1.4,1.4,0,1,1,0,2.794H870.071a1.4,1.4,0,1,1,0-2.794ZM877.584,90.2a3.726,3.726,0,1,1,3.852-3.724A3.794,3.794,0,0,1,877.584,90.2Zm10.594-2.328H885.1a1.4,1.4,0,1,1,0-2.793h3.082a1.4,1.4,0,1,1,0,2.793Zm0-8.472H866.989a1.4,1.4,0,1,1,0-2.794h21.189a1.4,1.4,0,1,1,0,2.794Zm0-5.493H866.989a1.4,1.4,0,1,1,0-2.793h21.189a1.4,1.4,0,1,1,0,2.793Zm0-5.493H866.989a1.4,1.4,0,1,1,0-2.793h21.189a1.4,1.4,0,1,1,0,2.793Z" transform="translate(-859.959 -52.588)" fill="#537bbd"/>
          </g>
        </g>
      </g>
      <path id="Path_7137" data-name="Path 7137" d="M639.441,124.391a9.731,9.731,0,0,0-9.734,9.734,9.541,9.541,0,0,0,1.412,5.012,9.7,9.7,0,0,0,16.644,0,9.54,9.54,0,0,0,1.411-5.012A9.731,9.731,0,0,0,639.441,124.391Zm5.037,8.687-5.183,4.794a1.855,1.855,0,0,1-1.241.486,1.8,1.8,0,0,1-1.29-.536l-2.409-2.409a1.824,1.824,0,0,1,2.579-2.579L638.1,134,642,130.4a1.825,1.825,0,0,1,2.482,2.677Z" transform="translate(-177.734 -50.049)" fill="#ffc137" opacity="0.8"/>
      <path id="Path_7138" data-name="Path 7138" d="M635.264,96.016v1.095a2.441,2.441,0,0,1-2.433,2.433h-43.8a2.44,2.44,0,0,1-2.433-2.433V95.992a10.063,10.063,0,0,1,10.074-10.074h28.495A10.1,10.1,0,0,1,635.264,96.016Z" transform="translate(-166.444 -39.806)" fill="#ffc137" opacity="0.8"/>
      <path id="Path_7139" data-name="Path 7139" d="M586.6,111.886v12.07a10.063,10.063,0,0,0,10.074,10.074H611.9a2.48,2.48,0,0,0,2.507-2.6,13.421,13.421,0,0,1,4.161-10.975,12.355,12.355,0,0,1,4.866-2.944,13.616,13.616,0,0,1,8.59.024,2.434,2.434,0,0,0,3.237-2.287v-3.383a2.441,2.441,0,0,0-2.433-2.433h-43.8A2.477,2.477,0,0,0,586.6,111.886Zm14.6,13.992H596.33a1.825,1.825,0,0,1,0-3.651H601.2a1.825,1.825,0,0,1,0,3.651Z" transform="translate(-166.444 -46.065)" fill="#ffc137"/>
      <path id="Path_7140" data-name="Path 7140" d="M329.155,75.085c.019.177.039.355.059.536l.311,2.8a43.284,43.284,0,0,0,.738,5.035,6.773,6.773,0,0,0,6.319,5.655,43.112,43.112,0,0,0,5.085.178H354.93c1.357,0,2.554,0,3.554-.1a6.79,6.79,0,0,0,5.475-3.3c.558-.837,1.118-1.9,1.752-3.094l6.167-11.649a6.206,6.206,0,0,0-5.485-9.11H341.37a48.5,48.5,0,0,0-6.166.23,9.829,9.829,0,0,0-2.419.622l-.357-3.207a5.705,5.705,0,0,0-5.671-5.076h-1.239a2.477,2.477,0,1,0,0,4.954h1.239a.753.753,0,0,1,.748.668Z" transform="translate(-98.433 -31.471)" fill="#b6b4b4"/>
      <path id="Path_7141" data-name="Path 7141" d="M363.554,111.442a6.193,6.193,0,1,1,6.193,6.193A6.193,6.193,0,0,1,363.554,111.442Z" transform="translate(-109.005 -44.953)" fill="#b6b4b4" fill-rule="evenodd"/>
      <path id="Path_7142" data-name="Path 7142" d="M333.169,111.442a6.193,6.193,0,1,1,6.193,6.193A6.193,6.193,0,0,1,333.169,111.442Z" transform="translate(-101.154 -44.953)" fill="#b6b4b4" fill-rule="evenodd"/>
      <g id="Group_23417" data-name="Group 23417" transform="translate(717.113 51.405)">
        <g id="Group_23416" data-name="Group 23416">
          <g id="Group_23415" data-name="Group 23415">
            <g id="Group_23414" data-name="Group 23414">
              <line id="Line_210" data-name="Line 210" x1="56.655" transform="translate(0 9.88)" fill="none" stroke="#5e4e9b" stroke-miterlimit="10" stroke-width="2"/>
              <g id="Group_23413" data-name="Group 23413" transform="translate(16.617)">
                <path id="Path_7143" data-name="Path 7143" d="M1022.668,112.892v-5.965h8.146V99.1h-8.146V93.131l-15.275,9.879Z" transform="translate(-1007.393 -93.131)" fill="#5e4e9b"/>
              </g>
            </g>
          </g>
        </g>
      </g>
      <g id="Group_23422" data-name="Group 23422" transform="translate(522.34 47.91)">
        <g id="Group_23421" data-name="Group 23421">
          <g id="Group_23420" data-name="Group 23420">
            <g id="Group_23419" data-name="Group 23419">
              <line id="Line_211" data-name="Line 211" x1="56.655" transform="translate(0 9.88)" fill="none" stroke="#5c79bb" stroke-miterlimit="10" stroke-width="2"/>
              <g id="Group_23418" data-name="Group 23418" transform="translate(16.617)">
                <path id="Path_7144" data-name="Path 7144" d="M762.17,108.129v-5.964h8.146V94.333H762.17V88.368l-15.275,9.879Z" transform="translate(-746.895 -88.368)" fill="#537bbd"/>
              </g>
            </g>
          </g>
        </g>
      </g>
      <g id="Group_23427" data-name="Group 23427" transform="translate(326.862 48.563)">
        <g id="Group_23426" data-name="Group 23426">
          <g id="Group_23425" data-name="Group 23425" opacity="0.8">
            <g id="Group_23424" data-name="Group 23424">
              <line id="Line_212" data-name="Line 212" x1="56.655" transform="translate(0 9.88)" fill="#ffc137" stroke="#f3be43" stroke-miterlimit="10" stroke-width="2"/>
              <g id="Group_23423" data-name="Group 23423" transform="translate(16.617)">
                <path id="Path_7145" data-name="Path 7145" d="M498.736,109.02v-5.965h8.146V95.224h-8.146V89.259l-15.275,9.879Z" transform="translate(-483.461 -89.259)" fill="#ffc137"/>
              </g>
            </g>
          </g>
        </g>
      </g>
      <g id="Group_23432" data-name="Group 23432" transform="translate(132.215 46.275)">
        <g id="Group_23431" data-name="Group 23431">
          <g id="Group_23430" data-name="Group 23430">
            <g id="Group_23429" data-name="Group 23429">
              <line id="Line_213" data-name="Line 213" x1="56.655" transform="translate(0 9.88)" fill="none" stroke="#b2b1b1" stroke-miterlimit="10" stroke-width="2"/>
              <g id="Group_23428" data-name="Group 23428" transform="translate(16.617)">
                <path id="Path_7146" data-name="Path 7146" d="M238.423,105.9V99.936h8.146V92.1h-8.146V86.14l-15.275,9.879Z" transform="translate(-223.149 -86.14)" fill="#b6b4b4"/>
              </g>
            </g>
          </g>
        </g>
      </g>
      <g id="Group_23415-2" data-name="Group 23415">
        <g id="Group_23415-3" data-name="Group 23415">
          <g id="Group_23405-2" data-name="Group 23405" transform="translate(867.02 46.948)">
            <path id="Path_7075-2" data-name="Path 7075" d="M1219.734,89.29h5.387c.97,0,1.757,1.122,1.757,2.5V111.92c0,1.382-.787,2.5-1.757,2.5h-34.327c-.97,0-1.753-1.115-1.753-2.5V91.794c0-1.382.783-2.5,1.753-2.5h5.393" transform="translate(-1189.041 -87.652)" fill="none" stroke="#5e4e9b" stroke-miterlimit="10" stroke-width="2"/>
            <g id="Group_23404-2" data-name="Group 23404" transform="translate(6.064)">
              <ellipse id="Ellipse_120" data-name="Ellipse 120" cx="0.998" cy="1.423" rx="0.998" ry="1.423" transform="translate(23.712)" fill="#794f9a"/>
              <ellipse id="Ellipse_121" data-name="Ellipse 121" cx="0.998" cy="1.423" rx="0.998" ry="1.423" fill="#794f9a"/>
            </g>
          </g>
          <g id="Group_23407-2" data-name="Group 23407" transform="translate(674.057 46.144)">
            <path id="Path_7076-2" data-name="Path 7076" d="M961.1,88.341h5.65c1.018,0,1.843,1.195,1.843,2.668v21.436c0,1.473-.826,2.661-1.843,2.661h-36c-1.018,0-1.84-1.187-1.84-2.661V91.009c0-1.473.821-2.668,1.84-2.668h5.654" transform="translate(-928.911 -86.596)" fill="none" stroke="#5c79bb" stroke-miterlimit="10" stroke-width="2"/>
            <g id="Group_23406-2" data-name="Group 23406" transform="translate(6.361)">
              <ellipse id="Ellipse_122" data-name="Ellipse 122" cx="1.047" cy="1.515" rx="1.047" ry="1.515" transform="translate(24.867)" fill="#5c79bb"/>
              <ellipse id="Ellipse_123" data-name="Ellipse 123" cx="1.047" cy="1.515" rx="1.047" ry="1.515" fill="#5c79bb"/>
            </g>
          </g>
          <g id="Group_23409-2" data-name="Group 23409" transform="translate(481.052 45.346)">
            <path id="Path_7077-2" data-name="Path 7077" d="M700.941,87.253h5.649c1.018,0,1.844,1.195,1.844,2.668v21.436c0,1.473-.826,2.661-1.844,2.661h-36c-1.017,0-1.839-1.188-1.839-2.661V89.921c0-1.473.822-2.668,1.839-2.668h5.656" transform="translate(-668.751 -85.508)" fill="none" stroke="#f3be43" stroke-miterlimit="10" stroke-width="2"/>
            <g id="Group_23408-2" data-name="Group 23408" transform="translate(6.364)">
              <ellipse id="Ellipse_124" data-name="Ellipse 124" cx="1.047" cy="1.515" rx="1.047" ry="1.515" transform="translate(24.867)" fill="#e7b43e" stroke="#f3be43" stroke-width="1"/>
              <ellipse id="Ellipse_125" data-name="Ellipse 125" cx="1.047" cy="1.515" rx="1.047" ry="1.515" fill="#e7b43e" stroke="#f3be43" stroke-width="1"/>
            </g>
          </g>
          <g id="Group_23411-2" data-name="Group 23411" transform="translate(285.719 45.164)">
            <path id="Path_7078-2" data-name="Path 7078" d="M437.644,87h5.65c1.018,0,1.844,1.195,1.844,2.668v21.436c0,1.473-.826,2.661-1.844,2.661h-36c-1.018,0-1.839-1.187-1.839-2.661V89.672c0-1.473.821-2.668,1.839-2.668h5.655" transform="translate(-405.454 -85.259)" fill="none" stroke="#b2b1b1" stroke-miterlimit="10" stroke-width="2"/>
            <g id="Group_23410-2" data-name="Group 23410" transform="translate(6.362)">
              <ellipse id="Ellipse_126" data-name="Ellipse 126" cx="1.047" cy="1.515" rx="1.047" ry="1.515" transform="translate(24.867)" fill="#b2b1b1"/>
              <ellipse id="Ellipse_127" data-name="Ellipse 127" cx="1.047" cy="1.515" rx="1.047" ry="1.515" fill="#b2b1b1"/>
            </g>
          </g>
          <g id="Group_23413-2" data-name="Group 23413" transform="translate(90.167 46.041)">
            <path id="Path_7079-2" data-name="Path 7079" d="M175.388,88.2h5.65c1.018,0,1.844,1.2,1.844,2.668V112.3c0,1.473-.826,2.661-1.844,2.661h-36c-1.017,0-1.839-1.188-1.839-2.661V90.867c0-1.473.822-2.668,1.839-2.668H150.7" transform="translate(-143.201 -86.455)" fill="none" stroke="#54a3ac" stroke-miterlimit="10" stroke-width="2"/>
            <g id="Group_23412-2" data-name="Group 23412" transform="translate(6.36)">
              <ellipse id="Ellipse_128" data-name="Ellipse 128" cx="1.047" cy="1.515" rx="1.047" ry="1.515" transform="translate(24.866)" fill="#54a3ac"/>
              <ellipse id="Ellipse_129" data-name="Ellipse 129" cx="1.047" cy="1.515" rx="1.047" ry="1.515" fill="#54a3ac"/>
            </g>
          </g>
          <path id="Path_7080-2" data-name="Path 7080" d="M133.07,59.154a58.624,58.624,0,1,0,0,45.127" transform="translate(-20.321 -23.077)" fill="none" stroke="#54a3ac" stroke-miterlimit="10" stroke-width="2"/>
          <path id="Path_7081-2" data-name="Path 7081" d="M654.311,59.614a58.624,58.624,0,1,0,0,45.127" transform="translate(-154.475 -23.2)" fill="none" stroke="#f3be43" stroke-miterlimit="10" stroke-width="2"/>
          <path id="Path_7082-2" data-name="Path 7082" d="M917.839,60.1a58.624,58.624,0,1,0,0,45.127" transform="translate(-222.299 -23.329)" fill="none" stroke="#5c79bb" stroke-miterlimit="10" stroke-width="2"/>
          <path id="Path_7083-2" data-name="Path 7083" d="M1174.628,61.06a58.623,58.623,0,1,0,0,45.128" transform="translate(-288.169 -23.585)" fill="none" stroke="#5e4e9b" stroke-miterlimit="10" stroke-width="2"/>
          <path id="Path_7084-2" data-name="Path 7084" d="M392.738,62.516a58.624,58.624,0,1,0,0,45.127" transform="translate(-87.153 -23.972)" fill="none" stroke="#b2b1b1" stroke-miterlimit="10" stroke-width="2"/>
          <g id="Group_23414-2" data-name="Group 23414" transform="translate(881.735 53.755)">
            <path id="Path_7085-2" data-name="Path 7085" d="M1210.232,106.271a2.754,2.754,0,0,1-.982-1.366,2.521,2.521,0,0,1-.036-1.636,2.583,2.583,0,0,1,.988-1.33,2.681,2.681,0,0,1,1.587-.533h.042a2.7,2.7,0,0,1,1.573.587,2.654,2.654,0,0,1,.961,1.373,2.453,2.453,0,0,1-.043,1.586,2.641,2.641,0,0,1-1,1.274,2.727,2.727,0,0,1-1.614.526A2.42,2.42,0,0,1,1210.232,106.271Zm.961-2.967a.982.982,0,0,0-.378.484.933.933,0,0,0,.036.605,1.171,1.171,0,0,0,.384.519.766.766,0,0,0,.534.142,1.146,1.146,0,0,0,.587-.213,1,1,0,0,0,.367-.456.859.859,0,0,0,.021-.548,1.161,1.161,0,0,0-.96-.747,1.065,1.065,0,0,0-.591.214Z" transform="translate(-1209.095 -97.684)" fill="none" stroke="#5e4e9b" stroke-miterlimit="10" stroke-width="1"/>
            <path id="Path_7086-2" data-name="Path 7086" d="M1220.635,107.747a.986.986,0,0,1-.734-.327,1.044,1.044,0,0,1-.293-.754,28.742,28.742,0,0,0-.271-4.6,12.166,12.166,0,0,0-1.145-4.148,1.058,1.058,0,0,1,.391-1.437,1.043,1.043,0,0,1,1.427.374h0l.01.017a13.977,13.977,0,0,1,1.415,4.966,31.2,31.2,0,0,1,.285,4.888,1.057,1.057,0,0,1-1.06,1.027Z" transform="translate(-1211.48 -96.335)" fill="none" stroke="#5e4e9b" stroke-miterlimit="10" stroke-width="1"/>
          </g>
          <g id="_02" data-name=" 02" transform="translate(686.282 54.358)">
            <g id="Group_23416-2" data-name="Group 23416">
              <path id="Path_7087-2" data-name="Path 7087" d="M946.826,107.554a2.757,2.757,0,0,1-.982-1.366,2.521,2.521,0,0,1-.036-1.636,2.581,2.581,0,0,1,.988-1.33,2.687,2.687,0,0,1,1.587-.533h.043a2.694,2.694,0,0,1,1.572.587,2.654,2.654,0,0,1,.961,1.374,2.454,2.454,0,0,1-.043,1.586,2.638,2.638,0,0,1-1,1.274,2.733,2.733,0,0,1-1.614.526A2.439,2.439,0,0,1,946.826,107.554Zm.961-2.967a.983.983,0,0,0-.377.484.932.932,0,0,0,.035.6,1.179,1.179,0,0,0,.385.52.778.778,0,0,0,.534.141,1.144,1.144,0,0,0,.587-.214.992.992,0,0,0,.371-.455.865.865,0,0,0,.022-.548,1.165,1.165,0,0,0-.961-.747A1.067,1.067,0,0,0,947.787,104.588Z" transform="translate(-945.689 -98.629)" fill="none" stroke="#5c79bb" stroke-miterlimit="10" stroke-width="1"/>
              <path id="Path_7088-2" data-name="Path 7088" d="M956.857,108.878a1.026,1.026,0,0,1-.734-.342,1.013,1.013,0,0,1-.27-.76,19.871,19.871,0,0,0-1.493-8.805.989.989,0,0,1-.015-.8,1.016,1.016,0,0,1,.555-.583,1.045,1.045,0,0,1,.812-.015.988.988,0,0,1,.576.555l.121.285.12.277a4.889,4.889,0,0,0,.9,1.607,2.61,2.61,0,0,0,.22.171,1.7,1.7,0,0,0,.313.17.935.935,0,0,0,.79-.021,1.217,1.217,0,0,0,.569-.807,2.966,2.966,0,0,0,.1-.762,7.04,7.04,0,0,0-.043-.725,1.055,1.055,0,1,1,2.1-.214,7.622,7.622,0,0,1,.05,1.06,5.312,5.312,0,0,1-.171,1.21,3.194,3.194,0,0,1-1.65,2.113,2.924,2.924,0,0,1-2.063.242l.035.193a23.946,23.946,0,0,1,.277,4.952,1.059,1.059,0,0,1-1.053,1Z" transform="translate(-947.972 -97.157)" fill="none" stroke="#5c79bb" stroke-miterlimit="10" stroke-width="1"/>
            </g>
          </g>
          <g id="_03" data-name=" 03" transform="translate(496.459 53.558)">
            <g id="Group_23417-2" data-name="Group 23417">
              <path id="Path_7089-2" data-name="Path 7089" d="M690.851,106.464a2.748,2.748,0,0,1-.982-1.366,2.514,2.514,0,0,1-.035-1.636,2.566,2.566,0,0,1,.989-1.331,2.677,2.677,0,0,1,1.586-.533h.043a2.687,2.687,0,0,1,1.573.587,2.657,2.657,0,0,1,.96,1.373,2.448,2.448,0,0,1-.043,1.586,2.639,2.639,0,0,1-1,1.274,2.728,2.728,0,0,1-1.614.527A2.428,2.428,0,0,1,690.851,106.464Zm.96-2.967a.97.97,0,0,0-.376.484.925.925,0,0,0,.035.6,1.163,1.163,0,0,0,.384.52.777.777,0,0,0,.534.142,1.163,1.163,0,0,0,.591-.213,1.012,1.012,0,0,0,.367-.456.87.87,0,0,0,.021-.548,1.164,1.164,0,0,0-.96-.747,1.071,1.071,0,0,0-.6.211Z" transform="translate(-689.714 -97.539)" fill="none" stroke="#f3be43" stroke-miterlimit="10" stroke-width="1"/>
              <path id="Path_7090-2" data-name="Path 7090" d="M700.325,107.476a1.014,1.014,0,0,1-.306-.747l.007-1.153q-.008-.641-.022-1.159-.036-1.294-.164-2.3a13.445,13.445,0,0,0-.9-3.06l-.178-.42-.17-.419-.129-.321-.014-.042a1.057,1.057,0,0,1,1.952-.81l.005.012.013.043c.043.1.088.22.136.342l.129.313.073.178.073.164a5.067,5.067,0,0,0,.683,1.239.834.834,0,0,0,.747.319.34.34,0,0,0,.242-.128,1.836,1.836,0,0,0,.284-.847,5.187,5.187,0,0,0,.051-.989c-.01-.081-.017-.156-.021-.227l-.007-.093a1.048,1.048,0,0,1,.263-.747,1.062,1.062,0,0,1,1.843.576v.05a.239.239,0,0,1,.007.065c.005.066.01.135.015.205.019.181.045.358.078.533a5.645,5.645,0,0,0,.171.677q.049.15.1.277a2.438,2.438,0,0,0,.147.294c.128.214.261.33.4.349a.25.25,0,0,0,.086-.078.573.573,0,0,0,.078-.171,1.5,1.5,0,0,0,.021-.683,8.8,8.8,0,0,0-.305-1.267,1.015,1.015,0,0,1,.063-.807,1.055,1.055,0,0,1,1.942.147,10.161,10.161,0,0,1,.384,1.6,3.63,3.63,0,0,1-.077,1.6,2.607,2.607,0,0,1-.52.954,2.066,2.066,0,0,1-1.614.812,2.466,2.466,0,0,1-1.834-.807,2.407,2.407,0,0,1-1.559.8,2.89,2.89,0,0,1-.569.015l.007.073a22.938,22.938,0,0,1,.186,2.468q.02.548.021,1.224v1.21a1.033,1.033,0,0,1-.312.74,1.018,1.018,0,0,1-.748.307A1,1,0,0,1,700.325,107.476Z" transform="translate(-692.018 -96.066)" fill="none" stroke="#f3be43" stroke-miterlimit="10" stroke-width="1"/>
            </g>
          </g>
          <g id="_04" data-name=" 04" transform="translate(303.129 53.281)">
            <g id="Group_23418-2" data-name="Group 23418">
              <path id="Path_7091-2" data-name="Path 7091" d="M430.186,106.215a2.741,2.741,0,0,1-.982-1.366,2.514,2.514,0,0,1-.035-1.636,2.571,2.571,0,0,1,.988-1.331,2.688,2.688,0,0,1,1.586-.533h.043a2.7,2.7,0,0,1,1.573.587,2.656,2.656,0,0,1,.961,1.373,2.458,2.458,0,0,1-.043,1.586,2.637,2.637,0,0,1-1,1.274,2.725,2.725,0,0,1-1.614.527A2.426,2.426,0,0,1,430.186,106.215Zm.961-2.967a.981.981,0,0,0-.377.484.929.929,0,0,0,.036.6,1.162,1.162,0,0,0,.385.52.768.768,0,0,0,.533.142,1.154,1.154,0,0,0,.591-.213,1,1,0,0,0,.367-.456.86.86,0,0,0,.021-.548,1.161,1.161,0,0,0-.961-.747,1.074,1.074,0,0,0-.594.211Z" transform="translate(-429.049 -97.196)" fill="none" stroke="#b2b1b1" stroke-miterlimit="10" stroke-width="1"/>
              <path id="Path_7092-2" data-name="Path 7092" d="M440.234,107.57a.994.994,0,0,1-.74-.327,1.032,1.032,0,0,1-.293-.755,26.715,26.715,0,0,0-1.159-8.365,8.65,8.65,0,0,1-.264-.826,1.056,1.056,0,0,1,2.021-.612c.09.266.176.531.256.8l.073.206.073.22a2.272,2.272,0,0,0,.157.4,2.976,2.976,0,0,1,.925-1.842,2.85,2.85,0,0,1,1.981-.776,3.016,3.016,0,0,1,1.167.227,3.06,3.06,0,0,1,1.238.961l.015.007a1.052,1.052,0,0,1-.939,1.708,1.042,1.042,0,0,1-.712-.384l-.022-.029a.976.976,0,0,0-.27-.256.925.925,0,0,0-1.067.107.61.61,0,0,0-.278.42,1.03,1.03,0,0,0,.107.587.735.735,0,0,0,.127.17l.128.12a1.871,1.871,0,0,0,1.4.349c.161-.023.329-.055.5-.092a1.039,1.039,0,0,1,.776.147,1.05,1.05,0,0,1-.307,1.908,4.47,4.47,0,0,1-.768.136,6.453,6.453,0,0,1-3.4-.342,28.548,28.548,0,0,1,.349,5.1,1.008,1.008,0,0,1-.313.734,1.035,1.035,0,0,1-.74.3Z" transform="translate(-431.363 -95.689)" fill="none" stroke="#b2b1b1" stroke-miterlimit="10" stroke-width="1"/>
            </g>
          </g>
          <g id="_05" data-name=" 05" transform="translate(104.883 53.838)">
            <g id="Group_23419-2" data-name="Group 23419">
              <path id="Path_7093-2" data-name="Path 7093" d="M164.393,107.412a2.756,2.756,0,0,1-.982-1.366,2.516,2.516,0,0,1-.035-1.636,2.573,2.573,0,0,1,.988-1.33,2.688,2.688,0,0,1,1.586-.533h.043a2.7,2.7,0,0,1,1.572.587,2.656,2.656,0,0,1,.96,1.373,2.456,2.456,0,0,1-.043,1.587,2.64,2.64,0,0,1-1,1.274,2.727,2.727,0,0,1-1.614.526A2.426,2.426,0,0,1,164.393,107.412Zm.961-2.967a.976.976,0,0,0-.377.484.925.925,0,0,0,.035.6,1.168,1.168,0,0,0,.385.52.777.777,0,0,0,.533.142,1.152,1.152,0,0,0,.591-.213,1,1,0,0,0,.367-.455.863.863,0,0,0,.021-.549,1.167,1.167,0,0,0-.961-.747,1.068,1.068,0,0,0-.6.217Z" transform="translate(-163.256 -98.071)" fill="none" stroke="#54a3ac" stroke-miterlimit="10" stroke-width="1"/>
              <path id="Path_7094-2" data-name="Path 7094" d="M179.566,100.389a7.859,7.859,0,0,1,1.5,4.39,3.818,3.818,0,0,1-.575,2.077,2.568,2.568,0,0,1-2.3,1.3,2.675,2.675,0,0,1-1.665-.541,2.507,2.507,0,0,1-1.537.5,2.768,2.768,0,0,1-1.992-.8,3,3,0,0,1-.655-.969,4.23,4.23,0,0,1-.327-1.707q0-2.461,2.5-5.634a1.046,1.046,0,0,1,.477-.342q-.2-.156-.4-.3a1,1,0,0,1-.426-.682.985.985,0,0,1,.178-.783,1.028,1.028,0,0,1,.683-.434,1.01,1.01,0,0,1,.782.186A14.592,14.592,0,0,1,179.566,100.389Zm-.861,5.343a1.722,1.722,0,0,0,.256-.954,5.84,5.84,0,0,0-1.145-3.215,11.334,11.334,0,0,0-1.431-1.708,1.107,1.107,0,0,1-.206.456q-2.049,2.6-2.049,4.326a1.671,1.671,0,0,0,.307,1.125.685.685,0,0,0,.285.192.723.723,0,0,0,.27.05.467.467,0,0,0,.235-.057.653.653,0,0,0,.236-.263,3.483,3.483,0,0,1-.007-.861,1.043,1.043,0,0,1,.4-.705,1.018,1.018,0,0,1,.776-.22,1.032,1.032,0,0,1,.7.4,1.018,1.018,0,0,1,.22.776.958.958,0,0,0,.178.79.622.622,0,0,0,.974-.128Z" transform="translate(-165.588 -96.448)" fill="none" stroke="#54a3ac" stroke-miterlimit="10" stroke-width="1"/>
            </g>
          </g>
        </g>
      </g>
    </g>
  </g>
</svg>
