<svg xmlns="http://www.w3.org/2000/svg" xmlns:xlink="http://www.w3.org/1999/xlink" width="608.412" height="160.986" viewBox="0 0 608.412 160.986">
  <defs>
    <linearGradient id="linear-gradient" x1="0.5" x2="0.5" y2="1" gradientUnits="objectBoundingBox">
      <stop offset="0" stop-color="#2aafc0" stop-opacity="0.271"/>
      <stop offset="1" stop-color="#155860" stop-opacity="0"/>
    </linearGradient>
  </defs>
  <g id="Component_135_2" data-name="Component 135 – 2" transform="translate(1.399 0.984)">
    <path id="Path_251" data-name="Path 251" d="M3195.455-22300.15s20.942-21.129,41.887-21.129,16.293,21.129,41.893,21.129,30.642-5.854,60.508-21.129,24.826-41.371,58.958-40.008c34.131,1.4,41.891,50.572,77.574,45.58s39.178-52.506,65.163-65.578c25.99-13.053,15.517,15.551,38.789,13.32,23.273-2.2,25.208-28.9,54.3-22.217s34.909,41.676,62.06,48.9c27.152,7.242,8.937-19.406,40.127-19.006,37.46.379,22.54-22.828,64.7-21" transform="translate(-3195.44 22391.252)" fill="none" stroke="#2aafc0" stroke-linecap="round" stroke-width="2"/>
    <path id="Path_252" data-name="Path 252" d="M3195.46-22300.15s20.941-21.129,41.884-21.129,16.292,21.129,41.891,21.129,30.64-5.854,60.5-21.129,24.825-41.371,58.954-40.008c34.129,1.4,41.888,50.572,77.569,45.58s39.175-52.506,65.159-65.578c25.988-13.053,15.516,15.551,38.786,13.32,23.271-2.2,25.207-28.9,54.3-22.217s34.908,41.676,62.056,48.9c27.15,7.242,8.936-19.406,40.124-19.006,37.458.379,22.54-22.828,64.694-21,.121,23.643,0,136.275,0,136.275s.759,5.527-5.367,8.967-19.14,4.793-19.14,4.793H3220.511s-13.287-1.328-19.55-4.256-5.5-7.465-5.5-7.465Z" transform="translate(-3195.431 22391.252)" fill="url(#linear-gradient)"/>
  </g>
</svg>
