<svg xmlns="http://www.w3.org/2000/svg" xmlns:xlink="http://www.w3.org/1999/xlink" width="530" height="438.314" viewBox="0 0 598 516.314">
  <defs>
    <clipPath id="clip-path">
      <rect id="Rectangle_10056" data-name="Rectangle 10056" width="598" height="516.314" fill="none"/>
    </clipPath>
  </defs>
  <g id="Group_23170" data-name="Group 23170" clip-path="url(#clip-path)">
    <path id="Path_6020" data-name="Path 6020" d="M520.039,511.642c-49.782,8.191-101.068,4.778-205.862-3.793-58.844-4.813-177.159,3.162-236.216,3.793C34.906,512.1,0,469.852,0,418.3V96.812C0,20.849,34.979.439,77.961,3.471c39.916,2.816,98.628,13.964,159.83,7.138C310.583,2.491,448.746-4.408,520.039,3.471,562.913,8.21,598,16.561,598,96.812V418.3c0,65.638-35.305,86.322-77.961,93.341" transform="translate(0 0)" fill="#2aafc0" opacity="0.1"/>
    <path id="Path_6021" data-name="Path 6021" d="M617.329,762.2c0,23.528-122.487,42.6-273.583,42.6S70.163,785.731,70.163,762.2s122.488-42.6,273.583-42.6,273.583,19.073,273.583,42.6" transform="translate(-38.34 -326.896)" fill="#cbbadd"/>
    <path id="Path_6022" data-name="Path 6022" d="M880.255,255.96a3.169,3.169,0,0,1-2.888-3.044l-.543-4.879a2.845,2.845,0,0,0-1.674-2.414c-.242-.09-.483-.187-.721-.288a2.025,2.025,0,0,0-.8-.165,2.274,2.274,0,0,0-1.788.946l-2.956,3.859a2.726,2.726,0,0,1-2.146,1.131,2.658,2.658,0,0,1-1.976-.929l-3.457-3.832a3.821,3.821,0,0,1-.937-2.439,3.922,3.922,0,0,1,.771-2.522l2.538-3.31a3.4,3.4,0,0,0,.344-3.394l-.016-.034a2.4,2.4,0,0,0-2.134-1.529,2.062,2.062,0,0,0-.327.027l-3.483.565a2.467,2.467,0,0,1-.394.032,3.169,3.169,0,0,1-2.888-3.042l-.627-5.605a4.026,4.026,0,0,1,.572-2.6,2.842,2.842,0,0,1,1.932-1.35l3.486-.562a2.663,2.663,0,0,0,2.041-2.219l.009-.044a3.211,3.211,0,0,0-1.075-3.164l-3.176-2.389a3.955,3.955,0,0,1-.927-4.837l2.492-4.795a2.832,2.832,0,0,1,2.476-1.65,2.558,2.558,0,0,1,1.544.535l3.7,2.783a2.118,2.118,0,0,0,2.664-.067q.311-.261.633-.508a3.187,3.187,0,0,0,1.087-2.861l-.545-4.878a4.025,4.025,0,0,1,.572-2.6,2.843,2.843,0,0,1,1.93-1.349l4.654-.754a2.442,2.442,0,0,1,.393-.032A3.168,3.168,0,0,1,881.5,194.8l.4,3.627a2.74,2.74,0,0,0,2.039,2.5,16.479,16.479,0,0,1,2.6.748,2.208,2.208,0,0,0,2.534-.8l2.622-3.417a2.726,2.726,0,0,1,2.144-1.129,2.66,2.66,0,0,1,1.977.93l3.454,3.833a3.823,3.823,0,0,1,.937,2.438,3.925,3.925,0,0,1-.771,2.521l-1.852,2.416a3.373,3.373,0,0,0-.306,3.471q.174.352.336.713a2.374,2.374,0,0,0,2.119,1.5,2.044,2.044,0,0,0,.326-.026l2.46-.4a2.471,2.471,0,0,1,.39-.031,3.168,3.168,0,0,1,2.887,3.042l.627,5.6a4.022,4.022,0,0,1-.572,2.6,2.843,2.843,0,0,1-1.931,1.35l-2.458.4a2.643,2.643,0,0,0-2.038,2.2q-.077.4-.167.8a3.2,3.2,0,0,0,1.058,3.247l2.317,1.742a3.537,3.537,0,0,1,1.3,2.188,4.1,4.1,0,0,1-.369,2.649l-2.49,4.792a2.831,2.831,0,0,1-2.476,1.65,2.56,2.56,0,0,1-1.543-.533l-3.276-2.463a2.133,2.133,0,0,0-2.622.036,18.3,18.3,0,0,1-2.344,1.549,3.082,3.082,0,0,0-1.416,3.06l.4,3.629a3.455,3.455,0,0,1-2.5,3.946l-4.657.753a2.485,2.485,0,0,1-.391.032m-6.624-11.372a2.426,2.426,0,0,1,.958.2q.348.148.7.28a3.412,3.412,0,0,1,2.012,2.893l.544,4.879a2.642,2.642,0,0,0,2.408,2.539,2.068,2.068,0,0,0,.327-.026l4.657-.753a2.881,2.881,0,0,0,2.088-3.291l-.4-3.629a3.693,3.693,0,0,1,1.694-3.667,17.952,17.952,0,0,0,2.283-1.51,2.556,2.556,0,0,1,3.141-.04l3.277,2.463a2.135,2.135,0,0,0,1.286.445,2.363,2.363,0,0,0,2.066-1.376l2.49-4.791a3.417,3.417,0,0,0,.308-2.211,2.95,2.95,0,0,0-1.082-1.824l-2.317-1.742a3.836,3.836,0,0,1-1.268-3.894q.087-.386.164-.778a3.175,3.175,0,0,1,2.445-2.644l2.458-.4a2.37,2.37,0,0,0,1.61-1.126,3.351,3.351,0,0,0,.477-2.166l-.627-5.6a2.642,2.642,0,0,0-2.408-2.538,2.042,2.042,0,0,0-.326.026l-2.46.4a2.537,2.537,0,0,1-.391.032,2.852,2.852,0,0,1-2.544-1.8q-.158-.35-.328-.694a4.043,4.043,0,0,1,.368-4.162l1.852-2.416a3.274,3.274,0,0,0,.643-2.1,3.188,3.188,0,0,0-.782-2.034l-3.454-3.833a2.217,2.217,0,0,0-1.649-.776,2.274,2.274,0,0,0-1.788.942l-2.622,3.417a2.722,2.722,0,0,1-2.143,1.125,2.509,2.509,0,0,1-.891-.165,16.118,16.118,0,0,0-2.537-.729,3.282,3.282,0,0,1-2.44-3l-.405-3.627a2.643,2.643,0,0,0-2.408-2.538,2.064,2.064,0,0,0-.327.027l-4.654.754a2.372,2.372,0,0,0-1.61,1.126,3.352,3.352,0,0,0-.477,2.165l.545,4.878a3.823,3.823,0,0,1-1.307,3.43q-.312.241-.617.495a2.544,2.544,0,0,1-1.645.618,2.577,2.577,0,0,1-1.552-.536l-3.7-2.783a2.132,2.132,0,0,0-1.288-.446,2.362,2.362,0,0,0-2.065,1.376l-2.492,4.795a3.415,3.415,0,0,0-.308,2.21,2.947,2.947,0,0,0,1.081,1.824l3.176,2.39a3.851,3.851,0,0,1,1.289,3.792l-.244-.024.235.067a3.2,3.2,0,0,1-2.448,2.663l-3.486.562a2.37,2.37,0,0,0-1.611,1.125,3.356,3.356,0,0,0-.477,2.166l.627,5.606a2.642,2.642,0,0,0,2.408,2.537,2.084,2.084,0,0,0,.329-.027l3.483-.565a2.472,2.472,0,0,1,.392-.032,2.875,2.875,0,0,1,2.554,1.822l.02.044a4.076,4.076,0,0,1-.413,4.069l-2.539,3.31a3.275,3.275,0,0,0-.643,2.1,3.187,3.187,0,0,0,.782,2.034l3.457,3.832a2.219,2.219,0,0,0,1.648.775,2.275,2.275,0,0,0,1.79-.944l2.956-3.858a2.725,2.725,0,0,1,2.143-1.134" transform="translate(-466.731 -87.111)" fill="#341b3f"/>
    <path id="Path_6023" data-name="Path 6023" d="M899.242,252.364c-5.255,0-11.108-6.224-11.816-12.565a12.61,12.61,0,0,1,2.616-9.032,11.821,11.821,0,0,1,7.3-4.668,6.308,6.308,0,0,1,1.007-.081c5.244,0,9.491,6.488,10.168,12.548a14.644,14.644,0,0,1-1.765,9.013,9.3,9.3,0,0,1-6.49,4.705,6.355,6.355,0,0,1-1.02.081m-.893-25.764a5.882,5.882,0,0,0-.943.076,11.352,11.352,0,0,0-7.007,4.483,11.958,11.958,0,0,0-2.494,8.562c.68,6.086,6.295,12.06,11.336,12.06a6.075,6.075,0,0,0,.955-.075,8.825,8.825,0,0,0,6.16-4.465,13.969,13.969,0,0,0,1.68-8.6c-.649-5.816-4.7-12.043-9.688-12.043" transform="translate(-484.885 -102.674)" fill="#341b3f"/>
    <path id="Path_6024" data-name="Path 6024" d="M419.324,260.417,432.4,252.71c5-2.946,7.07-10.21,4.624-16.226l-7.779-19.136c-2.448-6.021-8.488-8.513-13.491-5.566l-9.251,5.449c-3.991,2.35-8.79,1.281-11.812-2.638q-.865-1.121-1.766-2.209a13.919,13.919,0,0,1-1.971-13.455l3.844-10.253c2.29-6.11.029-13.3-5.05-16.049l-16.144-8.752c-5.074-2.75-11.041-.035-13.331,6.068L356.422,180.2c-1.7,4.538-5.542,7.42-9.673,7.124q-1.266-.09-2.531-.126c-4.447-.125-8.3-3.744-9.477-8.9l-2.732-11.944c-1.477-6.461-7.029-10.256-12.4-8.478l-17.077,5.656c-5.368,1.779-8.522,8.454-7.047,14.914l3.863,16.9a13.761,13.761,0,0,1-3.21,12.473,79.4,79.4,0,0,0-7.085,8.423c-2.949,4.036-7.71,5.347-11.781,3.138l-10.45-5.67c-5.078-2.755-11.05-.034-13.338,6.076l-7.271,19.419c-2.287,6.108-.027,13.291,5.049,16.044l14.057,7.624c3.568,1.935,5.938,6.165,5.98,10.875q.016,1.707.087,3.405c.2,4.82-2.039,9.309-5.643,11.429l-14.765,8.685c-5,2.943-7.077,10.21-4.63,16.23l7.785,19.15c2.447,6.02,8.486,8.512,13.489,5.568l12.683-7.466c3.892-2.291,8.557-1.323,11.606,2.381l.1.12a13.973,13.973,0,0,1,2.016,13.507l-5.452,14.54c-2.291,6.11-.03,13.3,5.049,16.051l16.155,8.757c5.079,2.753,11.05.029,13.337-6.081l5.438-14.535c1.711-4.574,5.586-7.425,9.747-7.129l.157.011c4.328.3,8.02,3.863,9.17,8.892l3.742,16.37c1.478,6.465,7.032,10.261,12.4,8.478l17.081-5.67c5.367-1.781,8.519-8.461,7.039-14.92l-4.369-19.068a13.584,13.584,0,0,1,3.382-12.656q1.1-1.058,2.175-2.173a8.761,8.761,0,0,1,10.729-1.808l14.057,7.632c5.077,2.756,11.049.038,13.339-6.072l7.281-19.428c2.29-6.108.03-13.293-5.047-16.047l-10.456-5.672c-4.069-2.207-6.4-7.364-5.847-12.691a102.056,102.056,0,0,0,.543-11.953c-.062-4.73,2.112-9.088,5.643-11.169m-40.282,33.055c-8.452,22.558-38.828,34.155-57.576,23.984-18.725-10.159-24.671-41.488-16.211-64.027,8.436-22.549,35.468-27.795,54.216-17.625,18.742,10.151,28.023,35.109,19.571,57.667" transform="translate(-134.053 -71.52)" fill="#cbbadd"/>
    <path id="Path_6025" data-name="Path 6025" d="M373.811,412.841c-4.657,0-8.772-3.777-10.009-9.186l-3.742-16.37c-1.113-4.871-4.688-8.337-8.894-8.624l-.158-.012c-4.046-.287-7.8,2.493-9.453,6.915L336.117,400.1c-1.675,4.477-5.4,7.37-9.477,7.37a8.856,8.856,0,0,1-4.26-1.106l-16.155-8.757a11.765,11.765,0,0,1-5.448-6.969,14.757,14.757,0,0,1,.246-9.564l5.452-14.539a13.625,13.625,0,0,0-1.955-13.1l-.1-.121a9.008,9.008,0,0,0-6.972-3.5A8.352,8.352,0,0,0,293.164,351l-12.684,7.465a8.887,8.887,0,0,1-4.556,1.274c-4,0-7.58-2.685-9.337-7.008l-7.784-19.15a14.733,14.733,0,0,1-.494-9.548,11.962,11.962,0,0,1,5.262-7.171l14.765-8.684c3.521-2.071,5.669-6.421,5.473-11.082-.048-1.135-.077-2.286-.087-3.421-.04-4.517-2.318-8.657-5.8-10.546l-14.057-7.624c-5.22-2.831-7.554-10.245-5.2-16.526l7.271-19.419c1.675-4.474,5.4-7.366,9.475-7.366a8.858,8.858,0,0,1,4.263,1.108l10.45,5.669a8.273,8.273,0,0,0,3.987,1.033,9.309,9.309,0,0,0,7.442-4.08,80.142,80.142,0,0,1,7.116-8.458,13.424,13.424,0,0,0,3.115-12.1l-3.863-16.9c-1.518-6.642,1.739-13.533,7.258-15.362l17.077-5.656a8.772,8.772,0,0,1,2.763-.451c4.656,0,8.772,3.776,10.009,9.183l2.731,11.945c1.154,5.043,4.848,8.513,9.192,8.636.845.023,1.7.066,2.542.127,3.99.283,7.72-2.492,9.379-6.91l3.852-10.261c1.677-4.468,5.4-7.356,9.472-7.356a8.861,8.861,0,0,1,4.261,1.106l16.144,8.752a11.77,11.77,0,0,1,5.447,6.969,14.753,14.753,0,0,1-.246,9.562L403.955,219a13.555,13.555,0,0,0,1.909,13.048c.6.724,1.2,1.471,1.773,2.218a9.125,9.125,0,0,0,7.162,3.757,8.488,8.488,0,0,0,4.3-1.2l9.251-5.449A8.89,8.89,0,0,1,432.9,230.1c4,0,7.58,2.686,9.338,7.009l7.779,19.136c2.515,6.187.379,13.685-4.762,16.714l-13.078,7.706c-3.385,1.994-5.534,6.247-5.473,10.836a102.894,102.894,0,0,1-.545,12c-.547,5.229,1.732,10.177,5.67,12.313l10.457,5.673a11.767,11.767,0,0,1,5.445,6.969,14.75,14.75,0,0,1-.246,9.56l-7.281,19.428c-1.676,4.472-5.395,7.363-9.473,7.363h0a8.863,8.863,0,0,1-4.266-1.109l-14.057-7.631a8.482,8.482,0,0,0-4.085-1.059,8.759,8.759,0,0,0-6.321,2.81c-.712.741-1.446,1.475-2.184,2.182a13.148,13.148,0,0,0-3.278,12.274l4.369,19.068c1.522,6.642-1.731,13.536-7.251,15.368l-17.081,5.669a8.774,8.774,0,0,1-2.768.454M350.436,377.9q.3,0,.608.022l.157.011c4.467.3,8.262,3.986,9.444,9.158l3.742,16.37c1.165,5.093,5.04,8.65,9.425,8.65a8.266,8.266,0,0,0,2.607-.427l17.081-5.67c5.2-1.724,8.26-8.216,6.828-14.471l-4.369-19.068a13.963,13.963,0,0,1,3.485-13.038c.731-.7,1.46-1.429,2.165-2.164a9.309,9.309,0,0,1,6.718-2.988,9,9,0,0,1,4.334,1.124l14.057,7.632a8.342,8.342,0,0,0,4.017,1.045c3.841,0,7.343-2.721,8.922-6.934l7.281-19.428a13.89,13.89,0,0,0,.231-9,11.083,11.083,0,0,0-5.127-6.563l-10.457-5.672c-4.183-2.27-6.6-7.521-6.022-13.069a102.074,102.074,0,0,0,.541-11.9c-.064-4.869,2.217-9.384,5.812-11.5l13.079-7.707c4.841-2.852,6.853-9.913,4.484-15.738L441.7,237.433c-1.655-4.071-5.024-6.6-8.793-6.6a8.369,8.369,0,0,0-4.292,1.2l-9.252,5.449a9.017,9.017,0,0,1-4.562,1.273,9.688,9.688,0,0,1-7.606-3.99c-.572-.741-1.164-1.482-1.758-2.2A14.4,14.4,0,0,1,403.4,218.7l3.843-10.253a13.893,13.893,0,0,0,.231-9,11.08,11.08,0,0,0-5.129-6.562L386.2,184.132a8.341,8.341,0,0,0-4.012-1.042c-3.839,0-7.34,2.719-8.919,6.927l-3.852,10.261c-1.761,4.693-5.723,7.642-9.967,7.338-.834-.06-1.682-.1-2.52-.126-4.614-.13-8.537-3.816-9.762-9.171l-2.732-11.945c-1.165-5.092-5.04-8.648-9.424-8.648a8.264,8.264,0,0,0-2.6.425l-17.077,5.656c-5.2,1.722-8.264,8.211-6.835,14.466l3.862,16.9a14.251,14.251,0,0,1-3.3,12.846,79.45,79.45,0,0,0-7.055,8.386,9.877,9.877,0,0,1-7.9,4.328,8.8,8.8,0,0,1-4.236-1.1l-10.45-5.669a8.347,8.347,0,0,0-4.014-1.043c-3.843,0-7.345,2.723-8.923,6.936l-7.271,19.419c-2.215,5.915-.018,12.9,4.9,15.562l14.057,7.624c3.7,2.006,6.115,6.4,6.159,11.2.01,1.125.039,2.266.087,3.391.209,4.953-2.073,9.575-5.812,11.774l-14.765,8.685a11.261,11.261,0,0,0-4.955,6.752,13.874,13.874,0,0,0,.465,8.99l7.785,19.149c1.655,4.071,5.025,6.6,8.793,6.6a8.362,8.362,0,0,0,4.29-1.2l12.684-7.466a9,9,0,0,1,4.551-1.269,9.566,9.566,0,0,1,7.4,3.721l.1.119a14.472,14.472,0,0,1,2.078,13.916l-5.452,14.539a13.893,13.893,0,0,0-.232,9.005,11.083,11.083,0,0,0,5.129,6.563l16.156,8.757a8.344,8.344,0,0,0,4.011,1.041c3.844,0,7.347-2.724,8.924-6.941L341,385.265c1.674-4.474,5.377-7.365,9.433-7.365" transform="translate(-140.839 -80.405)" fill="#341b3f"/>
    <path id="Path_6026" data-name="Path 6026" d="M207.888,215.713c-3.4,4.023-5.469,3.92-6.779,2.319s-1.363-4.1,2.034-8.119c6.187-7.328,11.55-7.969,11.55-7.969s-.527,6.335-6.8,13.769" transform="translate(-109.44 -91.738)" fill="#341b3f"/>
    <path id="Path_6027" data-name="Path 6027" d="M224.36,280.263c-2.132,5.129-4.12,5.839-5.791,4.833s-2.391-3.346-.259-8.475c3.883-9.343,8.785-12.037,8.785-12.037s1.2,6.2-2.735,15.678" transform="translate(-118.572 -120.194)" fill="#341b3f"/>
    <path id="Path_6028" data-name="Path 6028" d="M189.1,369.228l-.891.172c-.022-.164-2.329-16.777-11.866-39.246a204.246,204.246,0,0,0-56.421-76.5l.514-.891A205.293,205.293,0,0,1,177.165,329.7c9.592,22.611,11.913,39.357,11.935,39.524" transform="translate(-65.53 -114.824)" fill="#341b3f"/>
    <path id="Path_6029" data-name="Path 6029" d="M180.877,253.712l-.856-.344c10.4-37.376-8.1-73.329-8.293-73.688l.763-.579c.19.363,18.92,36.738,8.386,74.611" transform="translate(-93.839 -81.361)" fill="#341b3f"/>
    <path id="Path_6030" data-name="Path 6030" d="M134.727,289.632a26.843,26.843,0,0,1-16.809-.665l.306-1.021c.1.043,10.137,4.279,20.207-.968l.358,1a23.548,23.548,0,0,1-4.063,1.657" transform="translate(-64.435 -130.367)" fill="#341b3f"/>
    <path id="Path_6031" data-name="Path 6031" d="M95.53,238.81c5.679,3.62,6.659,6.308,5.784,8.293s-3.272,2.519-8.952-1.1c-10.345-6.6-13.761-13.38-13.761-13.38s6.433-.5,16.929,6.188" transform="translate(-42.951 -105.67)" fill="#341b3f"/>
    <path id="Path_6032" data-name="Path 6032" d="M100.206,282.182c6.322,1.392,7.93,3.6,7.594,5.809s-2.489,3.589-8.812,2.2c-11.516-2.536-16.473-7.765-16.473-7.765s6.007-2.815,17.691-.242" transform="translate(-45.089 -127.696)" fill="#341b3f"/>
    <path id="Path_6033" data-name="Path 6033" d="M156.067,246.249c2.187,5.1,1.492,7.446-.167,8.478s-3.656.352-5.843-4.743c-3.984-9.281-2.9-15.634-2.9-15.634s4.872,2.483,8.914,11.9" transform="translate(-80.337 -106.459)" fill="#341b3f"/>
    <path id="Path_6034" data-name="Path 6034" d="M162.2,156.422c2.979,6.853,2.522,9.735.867,10.776s-3.883-.152-6.862-7c-5.426-12.483-5.05-20.4-5.05-20.4s5.54,3.965,11.045,16.63" transform="translate(-82.591 -63.504)" fill="#341b3f"/>
    <path id="Path_6035" data-name="Path 6035" d="M82.838,416.082l188.443,8.9c6.817.322,12.663,5.956,14.412,13.89l35.666,161.751-217.752,3.819-36.4-164.855c-2.7-12.166,5.17-24,15.627-23.5" transform="translate(-36.435 -189.008)" fill="#00b5be"/>
    <path id="Path_6036" data-name="Path 6036" d="M439.224,764.533H154.134c-2.08,0-4.592-.684-5.048-2.3-.351-1.249-.815-3.86-1.156-5.115-.643-2.366,1.594-4.529,4.618-4.515l132.086-.445,155.936,1.752c3.063.015,5.249,2.329,4.369,4.625l-1.319,3.443a4.593,4.593,0,0,1-4.4,2.56" transform="translate(-80.774 -341.684)" fill="#00b5be"/>
    <path id="Path_6037" data-name="Path 6037" d="M604.667,764.533H449.182a2.7,2.7,0,0,1-2.753-2.3c-.192-1.249-.445-3.86-.63-5.115-.35-2.366-.059-4.974,1.591-4.96L605.4,753.906c1.67.015,2.862,2.329,2.383,4.625l-.719,3.443c-.317,1.519-1.292,2.56-2.4,2.56" transform="translate(-243.53 -341.684)" fill="#00939e"/>
    <path id="Path_6038" data-name="Path 6038" d="M331.77,610.33l-47.421.172-53.3.2-4.666.018-53.073.192-16.326.057-27.122.1-2.522-12.346-30.555-149.6c-.909-4.449,1.969-8.712,5.773-8.558l65.206,2.647,13.023.529h0l3.65.15,17.279.7,2.147.09,9.076.368,54.336,2.208,14.974.607a12.84,12.84,0,0,1,6.9,2.395c.279.193.555.4.823.618a17.811,17.811,0,0,1,5.886,9.737l9.162,38.2Z" transform="translate(-52.793 -200.133)" fill="#ede6f4"/>
    <path id="Path_6039" data-name="Path 6039" d="M321.728,433.916a1.863,1.863,0,0,1-1.671,2.491,2.7,2.7,0,0,1-2.079-2.491c0-2.045,1.382-2.492,2.079-2.492s1.311,1.186,1.671,2.492" transform="translate(-173.756 -195.985)" fill="#250b33"/>
    <path id="Path_6040" data-name="Path 6040" d="M1018.178,574.871l-14,.024-93.928-8.257c-5.257-.4-9.379-5.712-9.465-12.195l-2.8-211.863c-.088-6.691,4.146-12.266,9.576-12.606l94.276-6.824,14.353.016c5.722-.359,10.537,5.211,10.6,12.263l2.1,226.9c.067,7.217-4.861,12.984-10.714,12.538" transform="translate(-490.693 -146.799)" fill="#f99e26"/>
    <path id="Path_6041" data-name="Path 6041" d="M983.944,574.871l-107.927-8.233c-5.256-.4-9.379-5.712-9.465-12.195l-2.8-211.863c-.088-6.691,4.146-12.266,9.576-12.606l108.63-6.807c5.721-.359,10.537,5.211,10.6,12.263l2.1,226.9c.067,7.217-4.861,12.984-10.714,12.538" transform="translate(-471.986 -146.799)" fill="#ffcd4e"/>
    <path id="Path_6042" data-name="Path 6042" d="M996.415,558.181c.018,1.751-110.884-6.206-110.9-7.783l-.042-3.109v0l-.048-3.5-.442-32.508,0-.275-.012-.915-.763-56.135V453.9l-.012-.951v0l-.466-34.255-.829-61.042a2.842,2.842,0,0,1,2.388-3.062l61.229-3.738h0l6.032-.368.49-.032,11.141-.679,2.014-.121,7.309-.446,18.3-1.119a2.767,2.767,0,0,1,2.646,2.98l.107,11.12.05,5.407.05,5.349.235,24.761.353,37.1.6,62.861v0l.285,30.071v0l.029,3.23.05,5.4.06,6.283.107,11.185Z" transform="translate(-482.448 -158.122)" fill="#ede6f4"/>
    <path id="Path_6043" data-name="Path 6043" d="M661,167.42c0-22.217,8.782-45.89,37.136-45.89,18.465,0,34.275,18.955,36.133,41.059,2.258,26.87-11.291,43.173-37.984,46.494C677.916,211.369,661,195.2,661,167.42" transform="translate(-361.195 -55.208)" fill="#ffcd4e"/>
    <path id="Path_6044" data-name="Path 6044" d="M698.95,208.4A24.727,24.727,0,0,1,680.584,200c-6.24-6.771-9.676-16.863-9.676-28.417,0-7.662,1.209-18.627,6.966-27.349,5.643-8.549,14.263-12.885,25.619-12.885,15.826,0,30.058,16.152,31.727,36,1.97,23.442-9.82,37.953-33.2,40.862a24.875,24.875,0,0,1-3.072.192m4.543-74.643c-9.194,0-30.578,3.685-30.578,37.818,0,10.861,3.2,20.316,9.013,26.624a22.741,22.741,0,0,0,19.887,7.607c11.086-1.38,19.421-5.385,24.773-11.907,5.324-6.488,7.556-15.34,6.634-26.309-1.568-18.655-14.9-33.832-29.729-33.832" transform="translate(-366.61 -59.667)" fill="#fff"/>
    <path id="Path_6045" data-name="Path 6045" d="M725.543,204.726l-.352-2.762a1.757,1.757,0,0,0-1.712-1.673,13.444,13.444,0,0,1-5.571-.862,2.045,2.045,0,0,1-1.083-2.23l.1-.666a1.651,1.651,0,0,1,2.1-1.524,11.669,11.669,0,0,0,6.15.575c3.717-.686,5.028-4,4.557-7.7-.454-3.564-1.914-5.193-6.036-6.422-5.67-1.606-11.333-3.615-12.052-9.252-.626-4.913,1.254-10.34,7.393-11.711.733-.164,1.081-1.224.968-2.109l-.386-3.026A1.958,1.958,0,0,1,721,153.114a1.712,1.712,0,0,1,1.872,1.654l.322,2.522a1.752,1.752,0,0,0,1.669,1.674,11.621,11.621,0,0,1,4.206.551,2.025,2.025,0,0,1,1.162,2.3l-.108.64a1.649,1.649,0,0,1-2.037,1.5,10.494,10.494,0,0,0-5.208-.306,5.671,5.671,0,0,0-4.839,6.6c.43,3.369,3.293,3.172,8.145,4.664,5.739,1.726,9.634,4.932,10.81,10.592,1.255,6.038-1.192,10.869-7.593,13.29a1.967,1.967,0,0,0-.97,2.111l.411,3.22a1.958,1.958,0,0,1-1.374,2.253l-.053.01a1.713,1.713,0,0,1-1.872-1.654" transform="translate(-388.811 -69.545)" fill="#fff"/>
    <path id="Path_6046" data-name="Path 6046" d="M740.134,332.727c4.218-12.97,13.838-24.377,30.392-16.585,10.779,5.075,16.411,20.485,13.3,33.9-3.783,16.307-14.788,22.1-31,16.7-11.156-3.714-17.963-17.8-12.69-34.02" transform="translate(-403.446 -142.459)" fill="#ffcd4e"/>
    <path id="Path_6047" data-name="Path 6047" d="M766.952,368.275a30.029,30.029,0,0,1-9.415-1.7,18.24,18.24,0,0,1-10.956-10.688c-2.357-5.667-2.448-12.5-.255-19.249,1.454-4.473,4.242-10.542,9.259-14.052,4.917-3.44,10.773-3.6,17.4-.481,9.239,4.349,14.482,17.69,11.688,29.738-2.507,10.811-8.675,16.428-17.723,16.428M747.5,337.194c-2.062,6.34-1.988,12.74.208,18.02a16.914,16.914,0,0,0,10.166,9.906c6.734,2.242,12.36,2.193,16.723-.143,4.34-2.324,7.323-6.878,8.867-13.536,2.626-11.322-2.279-23.846-10.933-27.921-5.368-2.527-18.551-6.252-25.031,13.675Z" transform="translate(-406.958 -145.315)" fill="#fff"/>
    <path id="Path_6048" data-name="Path 6048" d="M775.644,365.672l.318-1.71a1.3,1.3,0,0,0-.682-1.447,9.633,9.633,0,0,1-3.088-2.035,1.416,1.416,0,0,1-.209-1.6l.186-.361a.931.931,0,0,1,1.518-.312,8.214,8.214,0,0,0,3.481,2.026c2.3.621,3.7-.956,4.122-3.241.411-2.206-.131-3.558-2.3-5.408-3.005-2.5-5.93-5.225-5.279-8.713.567-3.041,2.7-5.692,6.539-4.805.458.105.863-.417.965-.966l.349-1.872a1.042,1.042,0,0,1,1.23-.937,1.261,1.261,0,0,1,.779,1.479l-.291,1.561a1.292,1.292,0,0,0,.657,1.436,8.293,8.293,0,0,1,2.351,1.478,1.406,1.406,0,0,1,.243,1.66l-.185.344a.926.926,0,0,1-1.474.315,7.328,7.328,0,0,0-2.982-1.61,3.041,3.041,0,0,0-4.077,2.521c-.389,2.085,1.32,2.757,3.87,4.961,3.023,2.585,4.688,5.527,4.3,9.154-.414,3.87-2.759,6.018-6.956,5.672-.467-.038-.865.417-.967.965l-.371,1.993a1.043,1.043,0,0,1-1.23.938l-.032-.009a1.26,1.26,0,0,1-.779-1.479" transform="translate(-421.756 -151.847)" fill="#fff"/>
    <path id="Path_6049" data-name="Path 6049" d="M711.105,820.016v-5.751l69.931-.521-.1,6.272Z" transform="translate(-388.576 -369.663)" fill="#f99e26"/>
    <path id="Path_6050" data-name="Path 6050" d="M713.846,806.582c6.363-6.371,20.879-11.974,45.854-8.146,16.265,2.492,24.762,10.062,20.067,16.651-5.707,8.009-22.311,10.855-46.774,8.2-16.833-1.824-27.1-8.745-19.147-16.71" transform="translate(-388.576 -362.141)" fill="#f99e26"/>
    <path id="Path_6051" data-name="Path 6051" d="M713.846,796.433c6.363-6.371,20.879-11.974,45.854-8.146,16.265,2.492,24.762,10.062,20.067,16.651-5.707,8.009-22.311,10.855-46.774,8.2-16.833-1.824-27.1-8.745-19.147-16.709" transform="translate(-388.576 -357.53)" fill="#ffcd4e"/>
    <path id="Path_6052" data-name="Path 6052" d="M754.786,813.933a130.576,130.576,0,0,1-13.994-.823c-10.547-1.143-17.805-4.582-18.943-8.975-.378-1.456-.274-3.747,2.362-6.386,3.415-3.419,14.092-10.954,39.41-7.073,9.851,1.51,16.883,5.3,18.35,9.878a5.872,5.872,0,0,1-.942,5.353c-2.5,3.5-7.289,5.9-14.241,7.109a70.541,70.541,0,0,1-12,.917m-4.332-23.026a55.21,55.21,0,0,0-12.234,1.267c-7.219,1.645-11.226,4.484-13.316,6.577-1.747,1.749-2.426,3.43-2.021,5,.989,3.821,8.057,6.986,18.006,8.064,20.657,2.238,34.62-.16,39.318-6.753a4.385,4.385,0,0,0,.754-4.036c-1.3-4.073-8.164-7.627-17.476-9.054a86.409,86.409,0,0,0-13.03-1.061" transform="translate(-394.359 -358.692)" fill="#fff"/>
    <path id="Path_6053" data-name="Path 6053" d="M767.422,812.613l.481-.84c.175-.306-.274-.609-1.03-.711a27.433,27.433,0,0,1-4.66-1c-.591-.194-.723-.529-.316-.786l.281-.177a3.276,3.276,0,0,1,2.29-.153,25.411,25.411,0,0,0,5.252,1c3.471.305,5.576-.469,6.219-1.592.62-1.083-.2-1.747-3.477-2.656-4.535-1.226-8.947-2.566-7.966-4.28.856-1.493,4.066-2.8,9.866-2.36a1.685,1.685,0,0,0,1.457-.474l.527-.919c.188-.328,1.019-.535,1.856-.46s1.363.4,1.175.726l-.439.767c-.171.3.252.6.991.706a24.4,24.4,0,0,1,3.547.726c.651.191.807.548.366.815l-.279.169a3.281,3.281,0,0,1-2.223.154,23.609,23.609,0,0,0-4.5-.791c-3.763-.331-5.7.451-6.152,1.239-.586,1.024,1.992,1.353,5.839,2.436,4.56,1.27,7.073,2.715,6.488,4.5-.625,1.9-4.163,2.955-10.495,2.785a1.78,1.78,0,0,0-1.459.474l-.561.979c-.188.328-1.019.534-1.855.46l-.048,0c-.837-.074-1.363-.4-1.176-.727" transform="translate(-416.203 -362.141)" fill="#fff"/>
    <path id="Path_6054" data-name="Path 6054" d="M411.406,814.041v-3.773l45.87-.342-.065,4.115Z" transform="translate(-224.808 -367.929)" fill="#f99e26"/>
    <path id="Path_6055" data-name="Path 6055" d="M413.2,805.229c4.174-4.178,13.7-7.854,30.077-5.344,10.669,1.635,16.242,6.6,13.162,10.922-3.743,5.254-14.635,7.121-30.681,5.382-11.042-1.2-17.777-5.736-12.559-10.96" transform="translate(-224.808 -362.995)" fill="#f99e26"/>
    <path id="Path_6056" data-name="Path 6056" d="M413.2,798.571c4.174-4.179,13.7-7.854,30.077-5.344,10.669,1.635,16.242,6.6,13.162,10.922-3.743,5.254-14.635,7.121-30.681,5.382-11.042-1.2-17.777-5.736-12.559-10.961" transform="translate(-224.808 -359.97)" fill="#ffcd4e"/>
    <path id="Path_6057" data-name="Path 6057" d="M439.957,810.041a84.821,84.821,0,0,1-9.078-.532c-6.918-.75-11.679-3.005-12.425-5.886-.247-.955-.18-2.458,1.549-4.189,2.241-2.243,9.244-7.183,25.851-4.639,6.461.99,11.074,3.473,12.036,6.479a3.85,3.85,0,0,1-.618,3.511c-2.464,3.458-8.491,5.256-17.315,5.256M420.23,799.762l.228.329c-1.146,1.147-1.592,2.25-1.326,3.277.649,2.506,5.285,4.583,11.811,5.289,13.55,1.468,22.709-.105,25.79-4.429a2.874,2.874,0,0,0,.495-2.647c-.855-2.671-5.355-5-11.463-5.939a44.894,44.894,0,0,0-16.572.134c-4.735,1.079-7.364,2.942-8.735,4.314Z" transform="translate(-228.602 -360.732)" fill="#fff"/>
    <path id="Path_6058" data-name="Path 6058" d="M448.345,809.185l.316-.551c.115-.2-.179-.4-.675-.466a18.018,18.018,0,0,1-3.057-.655c-.388-.127-.474-.347-.207-.516l.185-.116a2.145,2.145,0,0,1,1.5-.1,16.669,16.669,0,0,0,3.445.653c2.276.2,3.657-.308,4.079-1.045.407-.71-.13-1.146-2.28-1.742-2.975-.8-5.869-1.683-5.225-2.807.561-.98,2.668-1.834,6.472-1.548a1.108,1.108,0,0,0,.955-.311l.346-.6c.123-.215.668-.351,1.217-.3s.895.262.771.477l-.288.5c-.112.2.166.4.65.462a16.082,16.082,0,0,1,2.327.476c.427.125.529.359.24.535l-.183.111a2.151,2.151,0,0,1-1.458.1,15.534,15.534,0,0,0-2.952-.518c-2.469-.216-3.739.3-4.034.813-.386.672,1.306.888,3.829,1.6,2.992.833,4.64,1.78,4.256,2.949-.41,1.247-2.731,1.939-6.884,1.827a1.168,1.168,0,0,0-.957.311l-.368.643c-.123.215-.668.35-1.217.3l-.032,0c-.549-.048-.894-.261-.771-.476" transform="translate(-242.929 -362.995)" fill="#fff"/>
    <path id="Path_6059" data-name="Path 6059" d="M694.409,445.161c-.581-7.778,1.876-16.4,11.8-17.469,6.464-.7,12.494,5.341,13.722,13.01,1.492,9.322-2.827,15.541-12.085,17.713-6.371,1.494-12.716-3.529-13.441-13.253" transform="translate(-379.409 -194.265)" fill="#ffcd4e"/>
    <path id="Path_6060" data-name="Path 6060" d="M707.748,458.337a8.487,8.487,0,0,1-5.746-2.3c-2.361-2.135-3.828-5.538-4.129-9.583a18.178,18.178,0,0,1,1.725-9.838,10.513,10.513,0,0,1,8.633-5.479c5.539-.6,10.945,4.519,12.047,11.406,1.3,8.133-2.447,13.659-10.556,15.56a8.632,8.632,0,0,1-1.974.232m-9.173-11.958c.284,3.8,1.651,6.992,3.85,8.98a7.784,7.784,0,0,0,7.162,1.912c7.774-1.824,11.231-6.861,10-14.566-1.036-6.472-6.1-11.284-11.291-10.721-3.218.347-10.609,2.445-9.718,14.4" transform="translate(-381.307 -195.833)" fill="#fff"/>
    <path id="Path_6061" data-name="Path 6061" d="M717.328,457.011l-.195-.954a.593.593,0,0,0-.643-.521,4.686,4.686,0,0,1-1.973-.091.694.694,0,0,1-.438-.74l.019-.237a.6.6,0,0,1,.7-.613,4.083,4.083,0,0,0,2.168-.031c1.284-.38,1.656-1.592,1.395-2.867-.252-1.23-.805-1.746-2.28-2.02-2.027-.348-4.062-.838-4.461-2.784a3.574,3.574,0,0,1,2.283-4.38c.252-.084.346-.469.283-.775l-.214-1.044a.714.714,0,0,1,.422-.841.58.58,0,0,1,.7.508l.178.871a.591.591,0,0,0,.628.523,4.068,4.068,0,0,1,1.487.034.687.687,0,0,1,.467.76l-.021.229a.6.6,0,0,1-.674.6,3.685,3.685,0,0,0-1.831.09,2.067,2.067,0,0,0-1.522,2.492c.239,1.164,1.236.986,2.973,1.325,2.055.388,3.5,1.363,4.062,3.3a3.932,3.932,0,0,1-2.311,4.94.714.714,0,0,0-.285.776l.228,1.112a.713.713,0,0,1-.422.84l-.018.005a.58.58,0,0,1-.7-.508" transform="translate(-388.801 -199.469)" fill="#fff"/>
    <path id="Path_6062" data-name="Path 6062" d="M593.867,502.56c-25.905-15.972-61.941-42.005-86.5-75.323-5.69-7.72-7.77-10.8-10.548-16.072-2.235-4.24-10.676-2.292-16.445,4.2-5.414,6.1-8.563,17.981-7.622,20.513,1.6,4.309,5.5,9.9,11.729,18.671C506.116,485.034,540.9,513.6,585,538.617Z" transform="translate(-258.239 -185.76)" fill="#ffa0a3"/>
    <path id="Path_6063" data-name="Path 6063" d="M385.09,618.158s-.11,3.442-.624,10.237c-.476,6.8-1.393,16.944-2.97,30.358q-.164,1.391-.33,2.913c-.221,1.632-.4,3.352-.624,5.118a.165.165,0,0,0-.037.088l-.036.308c-.807,6.619-1.8,13.944-3.008,21.93l-111.118.485,1.39-16.218,1.323-11.271.587-5.781.183-1.721,3.191-32.078,59.52-9s-.147,4.28-.807,12.664Z" transform="translate(-145.541 -278.709)" fill="#ffcd4e"/>
    <path id="Path_6064" data-name="Path 6064" d="M263.73,685.994c-.2,5.385,26.688,9.8,60.17,11.372s60.5-1.733,60.7-7.118-26.5-10.812-59.981-12.382-60.693,2.743-60.892,8.127" transform="translate(-144.112 -307.789)" fill="#250b33"/>
    <path id="Path_6065" data-name="Path 6065" d="M280.848,395.019S288.4,367.346,332,370.743c62.881,4.9,53,73.9,52.655,180,0,0-61.3-15.768-120.827-5.579,0,0,.854-108.256,17.016-150.149" transform="translate(-144.168 -168.288)" fill="#341b3f"/>
    <path id="Path_6066" data-name="Path 6066" d="M266.4,389.488l27.362,21.358s61.936,12.079,78.675,10.2a27.286,27.286,0,0,0,22.133-16.119s-16.343-23.43-45.957-31.82a77.152,77.152,0,0,0-8.69-1.939,71.915,71.915,0,0,0-15.164-.918c-38.267,1.94-58.359,19.24-58.359,19.24" transform="translate(-145.569 -168.157)" fill="#341b3f"/>
    <path id="Path_6067" data-name="Path 6067" d="M391.388,327l4.036-12.5,1.174-3.638,6.908-21.395-.529,21.818-.319,13.1-.1,4.145c-.069,2.814,1.318,3.524,2.906,6.108.643,1.047,4.778,7.417-.47,9.692-6.538,2.836-18.094-3.271-22.211-10.339.036-.006,7.3-2.949,8.6-6.988" transform="translate(-209.168 -131.498)" fill="#ffa0a3"/>
    <path id="Path_6068" data-name="Path 6068" d="M382.192,700.776s-35.451-15.874-111.448-4.621l-1.335,12.928,109.627,13.962Z" transform="translate(-147.216 -314.414)" fill="#ffcd4e"/>
    <path id="Path_6069" data-name="Path 6069" d="M432.7,693.217s-16-1.83-23.11,13.452c0,0,4.381-15.484-2.374-15.808-2.794-.135,2.914-1.928,2.914-1.928Z" transform="translate(-222.1 -312.965)" fill="#250b33"/>
    <path id="Path_6070" data-name="Path 6070" d="M263.768,405.283c-3.064,4.526,1.35,15.124,9.86,23.672s17.891,11.809,20.955,7.283-1.35-15.125-9.86-23.672-17.891-11.808-20.955-7.283" transform="translate(-143.601 -183.183)" fill="#250b33"/>
    <path id="Path_6071" data-name="Path 6071" d="M238.556,442.319c-.321.55-.627,1.086-.924,1.611-2.89,5.107-4.832,9.4-9.005,19.315a409.039,409.039,0,0,0-17.228,51.2c-7.963,29.367-13.561,59.627-17.4,85.32l-27.122.1-2.522-12.346c8.114-61.064,20.062-109.112,36.5-146.637,1.441-3.284,2.738-6.239,3.926-8.877,2.144-4.767,3.929-8.5,5.53-11.288a30.479,30.479,0,0,1,2.222-3.4c.7-.9,2.739-1.44,5.34-1.415a22.181,22.181,0,0,1,7.932,1.611,18.054,18.054,0,0,1,5.031,3.02,27.094,27.094,0,0,1,7.354,11.121c.205.579.389,1.158.546,1.729.989,3.555,1.031,6.861-.175,8.93" transform="translate(-89.808 -188.936)" fill="#ffa0a3"/>
    <path id="Path_6072" data-name="Path 6072" d="M453.178,276.662a34.5,34.5,0,0,1-.7,11.931c-1.536,6.541-6.194-10.249-6.194-10.249Z" transform="translate(-243.869 -125.68)" fill="#00939e"/>
    <path id="Path_6073" data-name="Path 6073" d="M422.168,283.57c-.651-12.952-8.416-22.925-17.343-22.275s-15.636,11.676-14.985,24.628,8.416,22.925,17.343,22.275,15.636-11.676,14.985-24.628" transform="translate(-213 -118.686)" fill="#ffa0a3"/>
    <path id="Path_6074" data-name="Path 6074" d="M375.566,268.583l7.876-.315a5.472,5.472,0,0,0,4.4-2.721c1.778-2.882,3.8-4.269,11.071-3.322,9.212,1.2,15.7-4.912,17.034-10.642,1.365-5.849-3.127-10.272-7.931-7.834s-2.408-4.333-6.826-5.446c-8.256-2.081-10.269,5.519-17.079,4.69-8.93-1.086-25.437,5.741-18.941,25.338Z" transform="translate(-198.738 -108.09)" fill="#341b3f"/>
    <path id="Path_6075" data-name="Path 6075" d="M422.622,301.934a.4.4,0,0,0,.17-.288.391.391,0,0,0-.274-.45c-.105-.02-2.514-.751-3.925,2.266a.445.445,0,0,0,.116.541c.156.111.326.02.45-.14a5.222,5.222,0,0,1,3.259-1.886.279.279,0,0,0,.2-.042" transform="translate(-228.712 -136.784)" fill="#341b3f"/>
    <path id="Path_6076" data-name="Path 6076" d="M423.7,310.058c.152.924.728,1.566,1.286,1.432s.886-.991.733-1.915-.729-1.566-1.286-1.432-.886.99-.733,1.915" transform="translate(-231.508 -139.973)" fill="#341b3f"/>
    <path id="Path_6077" data-name="Path 6077" d="M450.334,301.079a.25.25,0,0,0,.187-.181.542.542,0,0,0-.1-.544,2.055,2.055,0,0,0-3.365.174.547.547,0,0,0-.039.55.221.221,0,0,0,.358.089,2.92,2.92,0,0,1,2.795-.149.2.2,0,0,0,.159.06" transform="translate(-244.24 -136.074)" fill="#341b3f"/>
    <path id="Path_6078" data-name="Path 6078" d="M447.243,308.085c-.151.924.178,1.781.736,1.914s1.132-.51,1.284-1.435-.178-1.782-.736-1.914-1.132.51-1.284,1.435" transform="translate(-244.371 -139.296)" fill="#341b3f"/>
    <path id="Path_6079" data-name="Path 6079" d="M366.952,292.135s4.581,14.476,12.178,16.153c0,0-5.568-11.209,7.862-16.617,0,0-11.849-3.281-20.04.465" transform="translate(-200.517 -131.894)" fill="#341b3f"/>
    <path id="Path_6080" data-name="Path 6080" d="M387.92,303.651a2.982,2.982,0,0,0,4.705-.525,4.564,4.564,0,0,0-.961-5.566,2.981,2.981,0,0,0-4.7.526,4.564,4.564,0,0,0,.961,5.566" transform="translate(-211.142 -134.761)" fill="#ffa0a3"/>
    <path id="Path_6081" data-name="Path 6081" d="M403.708,292.776s-1.732,11.678.128,14.07,14.947,4.46,21.246,2.127c-.339,7.564-5.155,13.861-11.422,14.59a15.562,15.562,0,0,1-6.273-.556c-4.241-1.266-8.29-3.756-9.781-8.7-.453-1.5,1.637-10.342,1.637-10.342s.9-5.215-1.489-8.169c0,0,3.124-2.929,5.953-3.023" transform="translate(-217.233 -133)" fill="#341b3f"/>
    <path id="Path_6082" data-name="Path 6082" d="M437.814,329.731a27.713,27.713,0,0,1-10.6.108s.449,6.2,6.088,5.447c3.279-.436,4.508-5.555,4.508-5.555" transform="translate(-233.449 -149.788)" fill="#fff"/>
    <path id="Path_6083" data-name="Path 6083" d="M456.478,244.432a2.792,2.792,0,0,1-2.629-2.774l.441-.011-.221.005.221-.007a2.267,2.267,0,0,0,2.2,2.255Z" transform="translate(-248.001 -109.774)" fill="#250b33"/>
    <path id="Path_6084" data-name="Path 6084" d="M447.462,265.835l-.047-.26c.1-.026,10.133-2.7,10.895-8.753.216-1.712.043-2.875-.527-3.555-.914-1.091-2.717-.743-4.307-.437-.244.047-.484.094-.713.133l-.031-.263c.228-.039.466-.085.709-.132,1.642-.317,3.5-.677,4.5.509.624.745.817,1.983.591,3.785-.326,2.587-2.348,4.961-5.848,6.863a26.136,26.136,0,0,1-5.219,2.11" transform="translate(-244.485 -114.594)" fill="#fff"/>
    <path id="Path_6085" data-name="Path 6085" d="M404.289,247.8a17.782,17.782,0,0,1-4.322-.553l.045-.26a15.272,15.272,0,0,0,10.878-.993,12.132,12.132,0,0,0,3.672-2.793l.159.183a13.907,13.907,0,0,1-10.432,4.416" transform="translate(-218.558 -110.479)" fill="#fff"/>
    <path id="Path_6086" data-name="Path 6086" d="M211.426,590.6a3.082,3.082,0,0,1-.847-.119c-2.717-.778-4.188-5.154-3.278-9.755s3.861-7.709,6.578-6.933,4.188,5.154,3.279,9.755c-.816,4.125-3.273,7.053-5.731,7.053m-2.823-9.5c-.726,3.674.321,7.252,2.286,7.815s4.239-2.065,4.966-5.739-.32-7.252-2.286-7.815-4.239,2.066-4.966,5.739" transform="translate(-113.13 -260.605)" fill="#f76969"/>
    <path id="Path_6087" data-name="Path 6087" d="M747.393,589.552a11.418,11.418,0,0,0-2.254-2.018c6.677-2.495,6.468-6.341-4.545-8.6-5.4-1.109-14.854-5.219-21.834-4.659a46.4,46.4,0,0,0-8.452,1.452c-2.648-.379-19.374,29.784-18.953,30.229,15.5,13.487,41.258,21.56,45.559,19.667,4.327-1.9,1.831-6.357,5.2-8.408,3.588-2.184.844-6.985,3.377-9.017s1.953-5.256,1.319-8.825,3.848-5.83.58-9.817" transform="translate(-377.779 -260.853)" fill="#ffa0a3"/>
    <path id="Path_6088" data-name="Path 6088" d="M919.32,424.83c-.508,1.333-.954,2.555-1.373,3.795-1.259,3.727-2.278,7.569-4.054,14.784a91.118,91.118,0,0,0-2.21,14.09c-.02.225-.038.45-.056.676q-.018.236-.036.471c-1.416,18.868,1.22,40.538,2.361,60.106q.147,2.466.253,4.885c.015.282.027.568.035.85,0,.032,0,.061.006.093.4,9.569.27,18.492-1.063,26.143-.255,1.458-.552,2.866-.9,4.227q-.49,1.936-1.119,3.727c-.847,2.416-6.282,10.756-8.311,12.361-.027.021-.144,5.422-1.337,5.783-.018.007-4.047,4.364-4.644,4.354-11.74-.186-15.848,0-16.37-4,0,0-4.966-26.883-5.67-37.882,0-.036,0-.072-.006-.108-.021-.3-.039-.6-.057-.9q-.035-.524-.062-1.043c-.547-9-.867-17.775-.953-26.272-.1-9.438.078-18.532.543-27.223a.2.2,0,0,1,0-.046c.018-.322.033-.643.054-.965a285.3,285.3,0,0,1,4.359-37.275c2.664-13.948,6.4-26.008,11.236-35.713a.059.059,0,0,1,.012-.017,1.244,1.244,0,0,1,.309-.368s0,0,0,0c1.972-1.687,10.959-3.159,17-1.827a11.535,11.535,0,0,1,3.175,1.147c6.089,3.466,10.519,11.846,8.875,16.149" transform="translate(-477.437 -184.898)" fill="#00b5be"/>
    <path id="Path_6089" data-name="Path 6089" d="M979.233,674.578l-4.312-.322-24.79-1.84h-.024l-16.469-1.226-7.7-.572-5.364-.4h-.03q-.214-2.374-.41-4.663c-.059-.693-.118-1.38-.175-2.062q-.208-2.53-.4-4.953-.178-2.268-.342-4.446-.112-1.512-.217-2.976l-.006-.071,0-.047-.006-.079c0-.033,0-.061-.006-.094v0q-.187-2.589-.344-5.043c-.065-.976-.128-1.94-.187-2.883-.493-7.9-.81-14.644-1.013-20.215,0-.135-.006-.267-.012-.4-.012-.311-.021-.618-.032-.922-.413-12.16-.258-18.335-.258-18.335l20.525,4.767,6.837,1.586.422.1.357.082.508.118,21.612,5.021,3.626.84,5.643,1.311,1,22.4.172,3.9.178,3.991.526,11.86.544,12.178Z" transform="translate(-501.143 -273.939)" fill="#341b3f"/>
    <path id="Path_6090" data-name="Path 6090" d="M1075.039,673.146l-.106-11.185-.06-6.282-.05-5.4-.029-3.23v0l-.285-30.071v0l-40.419-5.3-7.234-.951s.11,2.516.511,7.479q.2,2.557.526,5.982c.452,4.824,1.093,10.931,1.993,18.3.154,1.283.321,2.6.493,3.967q.231,1.822.484,3.737.744,5.662,1.672,12.111.864,5.96,1.9,12.586c.149.947.3,1.908.454,2.877l4.313.321,33.2,2.466a2.768,2.768,0,0,0,2.673-3.045Z" transform="translate(-561.114 -277.432)" fill="#341b3f"/>
    <path id="Path_6091" data-name="Path 6091" d="M1010.691,676.611l.051,5.4.06,6.282a351.808,351.808,0,0,1-36.424.536q-2.008-.059-4.056-.136l-1.919-.076q-3.422-.15-6.733-.35l-1.333-.085h0a255.474,255.474,0,0,1-32.788-4.02,76.126,76.126,0,0,1-12.59-3.459h0c-.045-.014-.087-.032-.131-.05v0c-3.1-1.25-4.957-2.562-5.278-3.87a1.764,1.764,0,0,1-.05-.443c0-.036,0-.072.006-.107a1.859,1.859,0,0,1,.3-.847c.62-.975,2.162-1.865,4.488-2.659,4.033-1.368,10.419-2.44,18.44-3.133a305.6,305.6,0,0,1,33.023-.786q2.464.065,4.987.157,1.39.054,2.762.118c14.217.658,37.19,7.53,37.19,7.53" transform="translate(-496.982 -303.767)" fill="#250b33"/>
    <path id="Path_6092" data-name="Path 6092" d="M1010.662,532.306v0l-.284-30.071v0l-.6-62.861-.353-37.1-.235-24.761-.05-5.35a59.242,59.242,0,0,0-16.822-10.341h0a52.125,52.125,0,0,0-5.23-1.758,52.744,52.744,0,0,0-13.863-1.919q-2.713-.016-5.254.133-1.893.112-3.691.322h0A56.9,56.9,0,0,0,956.5,360h0c-13.983,3.587-23.314,12.267-29.679,25.325a92.087,92.087,0,0,0-5.969,16.381c-2.768,10.21-4.607,22.045-5.937,35.335a.009.009,0,0,0,0,.011c-.042.393-.08.785-.119,1.183v0q-.441,4.514-.808,9.241v0c-.023.3-.048.593-.071.893-.006.068-.009.136-.015.207-1.423,18.525-2.174,39.476-3.207,62.45-.015.314-.03.629-.042.944-.008.139-.014.279-.02.421q-.432,9.547-.956,19.554v.011c-.056,1.061-.113,2.122-.172,3.191,0,.036,0,.071-.006.107l.369-.06c.671-.108,2.251-.354,4.615-.669,3.864-.511,9.828-1.208,17.35-1.79,9.394-.726,21.217-1.269,34.419-1.047,2.432.042,4.909.107,7.428.207a300.553,300.553,0,0,1,37.017,3.63Z" transform="translate(-496.983 -162.692)" fill="#00b5be"/>
    <path id="Path_6093" data-name="Path 6093" d="M1009.426,402.127c-5.079.533-22.931,2.355-40.745,3.459a1.5,1.5,0,0,0-.178.01l-1.462.086c-.394.025-.79.047-1.185.071-4.048.232-8.054.422-11.873.544h0c-6.21.207-11.921.232-16.486-.018a49.01,49.01,0,0,1-6.62-.726,28.377,28.377,0,0,1-21.38-18.15.066.066,0,0,1,.012-.017c.036-.039.139-.168.309-.369,0,0,0,0,0,0,2.519-2.955,19.557-21.919,47.038-27.619.291-.061.585-.122.88-.179q3.274-.644,6.733-1.019c.71-.074,1.429-.139,2.15-.2.434-.035.867-.064,1.3-.082,1.854-.1,3.7-.114,5.548-.061h0c2.851.068,5.687.282,8.5.511q2.6.215,5.025.579H987c2.07.3,4.051.69,5.946,1.143a56.237,56.237,0,0,1,16.141,6.518l.051,5.407.05,5.35Z" transform="translate(-496.983 -162.552)" fill="#00b5be"/>
    <path id="Path_6094" data-name="Path 6094" d="M1017.335,705.718l-35.987,1.529-4.615.2L952.4,708.48h-.024L935.9,707.255l-7.238-.54-.16-.011-.3-.021-4.645-.347a2.952,2.952,0,0,1,1.743-2.055c.071-.026-3.018-4.742-3.018-4.742l-.407-4.939-.362-4.413-.25-3.005-.006-.071,0-.047-.006-.079.125-.042h0a87.8,87.8,0,0,1,15.753-3.16c2.681-.343,5.7-.65,9.07-.886h.014a219.232,219.232,0,0,1,25.682-.207c.051,0,.1,0,.155,0l1.1.053q3.444.178,7.122.461a333.241,333.241,0,0,1,36.89,5.042l.06,6.283Z" transform="translate(-503.409 -310.004)" fill="#341b3f"/>
    <path id="Path_6095" data-name="Path 6095" d="M976.265,681.307s16.246-.483,22.524,15.543c0,0-3.508-16,3.327-15.748,2.826.1-2.827-2.193-2.827-2.193Z" transform="translate(-533.47 -308.411)" fill="#250b33"/>
    <path id="Path_6096" data-name="Path 6096" d="M1008.294,259.622a34.9,34.9,0,0,0,0,12.1c1.164,6.73,6.853-9.813,6.853-9.813Z" transform="translate(-550.689 -117.94)" fill="#00939e"/>
    <path id="Path_6097" data-name="Path 6097" d="M1053.413,321.571c-4.574,6.777-12.786,5.823-19.212,2.408-5.165-2.747-4.424-2.694-3.712-3.692,1.749-2.47,3.194-3.068,3.291-5.912l.127-3.728.015-.463.163-4.86.288-8.383.75-22.053,5.714,22.169.971,3.773,3.335,12.957c1.075,4.182,8.234,7.777,8.272,7.785" transform="translate(-562.824 -124.874)" fill="#ffa0a3"/>
    <path id="Path_6098" data-name="Path 6098" d="M1047.42,328.8s-2.95,5.315-8.79,6.34l.015-.463.163-4.86c3.157-.366,8.612-1.017,8.612-1.017" transform="translate(-567.548 -149.363)" fill="#250b33"/>
    <path id="Path_6099" data-name="Path 6099" d="M1007.181,267.751c1.419-13.012,9.841-22.412,18.81-21s15.089,13.114,13.669,26.126-9.842,22.412-18.81,21-15.089-13.114-13.668-26.126" transform="translate(-550.251 -112.03)" fill="#ffa0a3"/>
    <path id="Path_6100" data-name="Path 6100" d="M1035.711,287.521a.358.358,0,0,1-.224-.234.432.432,0,0,1,.178-.522c.1-.05,2.319-1.468,4.311,1.084a.463.463,0,0,1-.005.566c-.131.153-.316.114-.47-.007a4.87,4.87,0,0,0-3.58-.9.278.278,0,0,1-.21.017" transform="translate(-565.817 -130.072)" fill="#341b3f"/>
    <path id="Path_6101" data-name="Path 6101" d="M1016.284,286.928a.247.247,0,0,1-.2-.167.557.557,0,0,1,.066-.556,2.087,2.087,0,0,1,3.406-.107.55.55,0,0,1,.071.552.227.227,0,0,1-.356.121,2.96,2.96,0,0,0-2.829.085.2.2,0,0,1-.156.074" transform="translate(-555.203 -129.578)" fill="#341b3f"/>
    <path id="Path_6102" data-name="Path 6102" d="M1020.039,308.3a28.2,28.2,0,0,0,10.684,1.013s-.818,6.215-6.463,4.977c-3.283-.719-4.221-5.989-4.221-5.989" transform="translate(-557.39 -140.053)" fill="#fff"/>
    <path id="Path_6103" data-name="Path 6103" d="M1036.8,365.591s-7.763-2.889-9.828-.647-.545,12.5,3.029,13.415,10.334-10.294,6.8-12.769" transform="translate(-560.67 -165.397)" fill="#341b3f"/>
    <path id="Path_6104" data-name="Path 6104" d="M1038.93,354.34s10.135-4.311,12.111-8.621,12.47,5.648,12.288,8.621-19.082,19.47-20.317,17.389-6.558-14.565-4.082-17.389" transform="translate(-567.358 -156.567)" fill="#00939e"/>
    <path id="Path_6105" data-name="Path 6105" d="M1024.062,354.912s-1.513-4.525-.785-6.982c0,0,.481-2.158-1.063-2.01s-9.944,7.208-10.685,9.363-.865,12.262,1.853,13.005,9.268-10.114,10.038-11.188a3.413,3.413,0,0,0,.641-2.188" transform="translate(-552.49 -157.139)" fill="#00939e"/>
    <path id="Path_6106" data-name="Path 6106" d="M999.847,382.965s-26.712,83.306-24.931,118.219c0,0,1.884,20.375,13.886,31.373,0,0,16.2-12.782,18.379-31.373,1.788-15.279-6.13-103.8-1.559-116.027Z" transform="translate(-532.686 -173.971)" fill="#341b3f"/>
    <path id="Path_6107" data-name="Path 6107" d="M1030.386,385.7h-.063c-2.356-.047-3.637-5.591-3.692-5.827l.358-.117c.012.055,1.26,5.457,3.339,5.5h.056c2.116,0,4.01-2.362,4.029-2.386l.268.308c-.083.1-2.025,2.525-4.3,2.525" transform="translate(-560.992 -172.512)" fill="#250b33"/>
    <path id="Path_6108" data-name="Path 6108" d="M1024.523,247.659s-3.947,7.477-12.594,7.96c0,0-1.026-.456.46-1.591s3.6-4.243,3.035-5.21-6.948,9.508-13.606,8.966c0,0-9.251-.381-3.878-7.015,3.336-4.118,0-20.362,22.1-21.848,3.23-.217,10.2.287,12.8,6.294,0,0,8.775-.329,10.561,12.444,2.687,19.212-11.92,26.254-11.92,26.254s3.621-16.307-.37-14.193c-5.126,2.715-7.844-.785-5.62-4.325s2.767-10.553-.963-7.737" transform="translate(-544.396 -103.975)" fill="#341b3f"/>
    <path id="Path_6109" data-name="Path 6109" d="M1072.732,291.819a3.044,3.044,0,0,1-4.716-.931,4.558,4.558,0,0,1,1.3-5.535,3.043,3.043,0,0,1,4.716.932,4.557,4.557,0,0,1-1.3,5.534" transform="translate(-583.358 -129.295)" fill="#ffa0a3"/>
    <path id="Path_6110" data-name="Path 6110" d="M1083.959,239.5a.34.34,0,0,1-.262-.13,6.02,6.02,0,0,0-6.13-1.779.369.369,0,0,1-.452-.319.46.46,0,0,1,.264-.544,6.6,6.6,0,0,1,6.842,2.011.512.512,0,0,1,0,.631.341.341,0,0,1-.261.13" transform="translate(-588.571 -107.423)" fill="#250b33"/>
    <path id="Path_6111" data-name="Path 6111" d="M1071.213,229.976a.294.294,0,0,1-.053,0,.439.439,0,0,1-.315-.5c.01-.1.2-2.343-2.684-3.532a.473.473,0,0,1-.23-.566.359.359,0,0,1,.471-.277c3.492,1.44,3.192,4.372,3.177,4.5a.4.4,0,0,1-.366.384" transform="translate(-583.548 -102.244)" fill="#250b33"/>
    <path id="Path_6112" data-name="Path 6112" d="M921.4,482.884a.306.306,0,0,1-.09-.013.458.458,0,0,1-.27-.541,164.91,164.91,0,0,1,7.479-26.076.346.346,0,0,1,.493-.215.489.489,0,0,1,.178.593,163.911,163.911,0,0,0-7.431,25.914.391.391,0,0,1-.36.338" transform="translate(-503.286 -207.147)" fill="#250b33"/>
    <path id="Path_6113" data-name="Path 6113" d="M908.381,672.329a.4.4,0,0,1-.369-.408c0-.048-.339-4.831-.553-12.588a.419.419,0,0,1,.359-.46h.012a.411.411,0,0,1,.37.432c.214,7.734.547,12.494.55,12.541a.43.43,0,0,1-.337.483h-.032" transform="translate(-495.871 -299.309)" fill="#250b33"/>
    <path id="Path_6114" data-name="Path 6114" d="M1017.987,295.266c.089.846.575,1.468,1.085,1.39s.851-.827.762-1.673-.575-1.468-1.086-1.39-.852.827-.761,1.673" transform="translate(-556.26 -133.369)" fill="#341b3f"/>
    <path id="Path_6115" data-name="Path 6115" d="M1036.575,295.8c.089.846.575,1.468,1.085,1.39s.852-.827.762-1.673-.575-1.469-1.085-1.391-.851.827-.762,1.673" transform="translate(-566.418 -133.613)" fill="#341b3f"/>
    <path id="Path_6116" data-name="Path 6116" d="M968.856,454.933c-.345.468-.7.933-1.049,1.4-2.78,3.671-5.806,7.319-9.037,10.921,0,.007-.006.01-.009.01a223.952,223.952,0,0,1-28,26.058c-5.085,4.006-10.357,7.83-15.744,11.424-.015.011-.033.021-.048.032-4.847,3.234-9.792,6.279-14.781,9.1-.1.057-.2.111-.294.164q-3.5,1.979-7.033,3.8-1.336.692-2.679,1.358c-.021.011-.042.017-.06.028A184.107,184.107,0,0,1,872.353,527q-1.327.5-2.649.965c-3.745,1.326-7.457,2.48-11.113,3.445q-2.589.685-5.138,1.24c-.95.207-1.9.4-2.839.582l0-.008-.3-.843-1.7-4.856-.131-.365-.062-.175-2.082-5.939a.03.03,0,0,1-.006-.018l-3.671-10.445-.009-.022-.7-2.008v0l-5.506-15.68-.029-.082-.122-.35-.155-.436-1.535-4.374c.627-.325,1.268-.657,1.922-1.012a.01.01,0,0,1,.009,0c4.841-2.572,10.389-5.793,16.385-9.505l.089-.053h.006q2.357-1.463,4.8-3.023c4.868-3.106,9.967-6.49,15.176-10.088,5.675-3.913,11.485-8.079,17.261-12.41q4.036-3.018,8.04-6.139c3.7-2.887,7.356-5.8,10.926-8.705h0c2.809-2.279,5.559-4.552,8.238-6.793,3.519-2.938,6.911-5.825,10.122-8.594.059-.054.119-.1.175-.151,15.655-13.529,27.048-24.414,28.583-26.547,1.738-2.412,6.623-2.716,11.931-1.534l.235,24.761Z" transform="translate(-456.059 -178.258)" fill="#00b5be"/>
    <path id="Path_6117" data-name="Path 6117" d="M846.306,611.539c-5.326,2.4-12.964-6.04-17.06-18.841s-3.1-25.119,2.225-27.514,12.964,6.04,17.06,18.841,3.1,25.118-2.225,27.514" transform="translate(-451.753 -256.564)" fill="#250b33"/>
    <path id="Path_6118" data-name="Path 6118" d="M842.956,612.359c-4.1,1.845-9.986-4.653-13.142-14.513s-2.388-19.349,1.714-21.194,9.986,4.653,13.141,14.513,2.388,19.348-1.714,21.194" transform="translate(-452.381 -261.817)" fill="#ffa0a3"/>
    <path id="Path_6119" data-name="Path 6119" d="M770.36,600.271l.071-.08-1.069-2.588a52.5,52.5,0,0,0-5.354-15.55,5.1,5.1,0,0,0,2.043-2.5l.578-1.453c1.08-2.714-2.938-10.008-5.194-11.307,0,0-11.2-3.84-18.919-8.644-15.586-9.7-22.609-1.06-12.913,5.548.638.435,5.923,4.026,9.262,6.254a1.627,1.627,0,0,1-.257,2.755c-11.666,4.064-49.323,18.655-45.931,29.406,2.035,6.447,26.756-8.559,26.63-7.683s-21.853,9.618-16.037,16.259c3.91,4.466,24.156-5.406,23.858-4.512s-17.373,7.646-15.889,11.7c2.492,6.8,18.463-2.286,18.562-2.122s-10.945,7.75-7.777,10.846,42.215-10.924,48.664-25.938Z" transform="translate(-378.388 -251.577)" fill="#ffa0a3"/>
    <path id="Path_6120" data-name="Path 6120" d="M774.514,567.731a.258.258,0,0,1-.145-.045c-2.347-1.586-5.488-3.716-5.877-3.982-3.666-2.5-5.344-5.645-4.276-8.018,1.539-3.419,8.185-3.935,17.472,1.842,7.606,4.733,18.752,8.58,18.864,8.618a.372.372,0,0,1,.2.442.293.293,0,0,1-.367.246c-.112-.039-11.316-3.905-18.974-8.671-9.5-5.915-15.474-4.81-16.676-2.137-.9,2,.688,4.769,4.046,7.057.389.265,3.529,2.395,5.874,3.979a.4.4,0,0,1,.114.486.292.292,0,0,1-.259.183" transform="translate(-417.425 -251.277)" fill="#f76969"/>
    <path id="Path_6121" data-name="Path 6121" d="M770.514,622.85a.22.22,0,0,0-.054-.047.192.192,0,0,0-.077-.029.262.262,0,0,0-.273.1.515.515,0,0,0-.051.086q-.209.488-.463.973a20.354,20.354,0,0,1-2.925,4.1c-.273.307-.555.607-.85.907-.08.082-.163.165-.244.25s-.166.164-.249.243a49.173,49.173,0,0,1-6.9,5.525c-.05.036-.1.068-.151.1-.03.018-.059.039-.089.057-.086.061-.175.118-.264.178-1.889,1.254-3.79,2.387-5.56,3.374q-1.3.724-2.67,1.433c-.065.032-.131.063-.2.1l-.276.139c-.089.047-.182.093-.274.143-2.468,1.248-5.057,2.441-7.638,3.523l-.155.065-.134.053c-.095.043-.19.083-.285.119-2.31.954-4.606,1.812-6.792,2.536-.1.036-.2.068-.3.1l-.3.1c-1.538.5-3.015.932-4.4,1.279-5.646,1.415-6.863.765-7.1.529a1.442,1.442,0,0,1-.461-1.155c.11-2.655,5.6-7,7.4-8.433.894-.708.912-.719.942-.912a.448.448,0,0,0-.054-.278c-.127-.211-.148-.243-.8.071-.122.061-.268.129-.439.215-6.962,3.391-15.61,6.475-17.285,1.9a1.223,1.223,0,0,1,.012-.833c.517-1.558,3.145-3.426,6.091-5.142,2.109-1.233,4.384-2.383,6.16-3.28,2.881-1.458,3.511-1.8,3.629-2.162a.451.451,0,0,0-.063-.414c-.214-.275-.454-.211-3.727,1.036-2.45.936-6.053,2.308-9.569,3.305-4.583,1.3-9.017,1.965-10.57.193a3.116,3.116,0,0,1-.864-2.608,5.765,5.765,0,0,1,1.362-2.712c2.822-3.459,9.225-6.865,12.676-8.7,2.625-1.393,2.9-1.573,2.949-1.923a.46.46,0,0,0-.116-.368c-.228-.218-.38-.178-4.051,1.683-3.852,1.955-10.451,5.3-15.539,6.8h0a15.869,15.869,0,0,1-4.244.765,3.964,3.964,0,0,1-1.806-.354,1.68,1.68,0,0,1-.884-1.033,5.111,5.111,0,0,1,.558-4.006c1.987-3.809,8.36-9.191,24.229-16.495a.386.386,0,0,0,.173-.461.285.285,0,0,0-.384-.207c-13.763,6.336-21.965,11.95-24.511,16.76a5.91,5.91,0,0,0-.624,4.66,2.36,2.36,0,0,0,1.209,1.44c1.467.754,4.06.371,7.062-.568a79.7,79.7,0,0,0,10.16-4.235,28.412,28.412,0,0,0-7.41,5.914,6.324,6.324,0,0,0-1.393,2.913,3.922,3.922,0,0,0,1.04,3.248c1.845,2.1,6.92,1.254,12-.264,3.175-.951,6.35-2.158,8.735-3.07l.558-.215c-.267.136-.537.276-.81.412-2.026,1.025-4.506,2.279-6.733,3.613-2.852,1.708-5.29,3.548-5.836,5.2a2.067,2.067,0,0,0-.009,1.39c1.426,3.888,6.982,3.616,16.525-.8-3.128,2.58-6.234,5.578-6.332,7.915a2.212,2.212,0,0,0,.68,1.748,2.992,2.992,0,0,0,2.017.508,25.478,25.478,0,0,0,5.581-.9c1.366-.343,2.917-.8,4.6-1.347.1-.036.2-.068.3-.1s.2-.068.3-.1c2.1-.708,4.393-1.565,6.772-2.548.086-.036.175-.072.265-.111a.048.048,0,0,1,.024-.007c.095-.043.19-.083.287-.125,2.486-1.04,5.055-2.219,7.6-3.509l.276-.144.276-.139c.044-.025.09-.046.131-.068a87.706,87.706,0,0,0,8.61-5.043c.06-.039.119-.082.178-.121a50.667,50.667,0,0,0,6.817-5.417c.086-.082.172-.164.255-.247l.253-.25c.428-.433.834-.865,1.221-1.3a19.518,19.518,0,0,0,3.35-5.06c0-.011.008-.018.012-.028a.406.406,0,0,0-.074-.436" transform="translate(-378.024 -274.045)" fill="#f76969"/>
    <path id="Path_6122" data-name="Path 6122" d="M868.631,586.418a.4.4,0,0,1-.365-.37.446.446,0,0,1,.3-.515c.184-.038,18.664-3.931,42.231-15.213a216.414,216.414,0,0,0,38.212-23.294,178.314,178.314,0,0,0,36.657-37.539.33.33,0,0,1,.523-.047.51.51,0,0,1,.038.628A179.1,179.1,0,0,1,949.4,547.784a217.184,217.184,0,0,1-38.344,23.373c-23.635,11.313-42.178,15.217-42.362,15.255a.31.31,0,0,1-.063.006" transform="translate(-474.452 -231.376)" fill="#250b33"/>
    <path id="Path_6123" data-name="Path 6123" d="M874.6,490.028a.37.37,0,0,1-.332-.246.492.492,0,0,1,.164-.6c.655-.4,65.628-40.01,82.8-68.065a.331.331,0,0,1,.518-.094.507.507,0,0,1,.078.624c-9.035,14.763-31.146,32.56-48.1,44.891-18.354,13.346-34.793,23.342-34.957,23.441a.316.316,0,0,1-.166.048" transform="translate(-477.711 -191.221)" fill="#250b33"/>
    <path id="Path_6124" data-name="Path 6124" d="M797.66,666.01c-2.6-3.722-6.893-16.832-2.757-19.18s10.948,12.728,10.7,15.508-6.3,6.025-7.947,3.672" transform="translate(-433.426 -293.726)" fill="#ffa0a3"/>
    <path id="Path_6125" data-name="Path 6125" d="M781.582,672.513c-2.214-3.164-5.858-14.3-2.343-16.3s9.3,10.817,9.1,13.18-5.354,5.121-6.755,3.12" transform="translate(-425.008 -298.005)" fill="#ffa0a3"/>
    <path id="Path_6126" data-name="Path 6126" d="M816.413,659.045c-2.763-4.232-7.311-19.138-2.925-21.807s11.612,14.471,11.354,17.632-6.682,6.851-8.429,4.175" transform="translate(-443.525 -289.353)" fill="#ffa0a3"/>
    <path id="Path_6127" data-name="Path 6127" d="M832.825,644.631c-2.539-3.889-6.719-17.587-2.688-20.04s10.671,13.3,10.434,16.2-6.141,6.3-7.746,3.836" transform="translate(-452.703 -283.618)" fill="#ffa0a3"/>
    <path id="Path_6128" data-name="Path 6128" d="M797.3,666.069a.278.278,0,0,1-.227-.127,33.575,33.575,0,0,1-3.966-10.244c-1.1-5.018-.63-8.388,1.309-9.489,2.478-1.408,5.468,2.765,7.03,5.378a.406.406,0,0,1-.067.5.268.268,0,0,1-.415-.081c-2.474-4.139-4.768-6.016-6.294-5.149-2.229,1.265-1.576,5.969-.989,8.661a32.349,32.349,0,0,0,3.846,9.965.409.409,0,0,1-.035.5.269.269,0,0,1-.191.084" transform="translate(-433.07 -293.428)" fill="#f76969"/>
    <path id="Path_6129" data-name="Path 6129" d="M781.224,672.574a.28.28,0,0,1-.227-.127c-1.771-2.53-4.507-10.147-3.745-14.341a3.391,3.391,0,0,1,1.5-2.513c1.3-.74,2.971.214,4.828,2.758a.41.41,0,0,1-.027.5.264.264,0,0,1-.419-.033c-1.16-1.589-2.817-3.327-4.128-2.582a2.726,2.726,0,0,0-1.176,2.018c-.713,3.925,1.959,11.354,3.619,13.728a.408.408,0,0,1-.036.5.265.265,0,0,1-.191.084" transform="translate(-424.649 -297.709)" fill="#f76969"/>
    <path id="Path_6130" data-name="Path 6130" d="M816.056,659.106a.282.282,0,0,1-.234-.136,35.325,35.325,0,0,1-3.531-8.832c-.67-2.462-1.7-7.083-1.1-10.367A4.4,4.4,0,0,1,813,636.622c1.569-.955,3.587.252,5.834,3.493a.408.408,0,0,1-.038.5.264.264,0,0,1-.418-.045c-1.428-2.06-3.474-4.308-5.109-3.312a3.722,3.722,0,0,0-1.493,2.665c-.971,5.263,2.4,15.353,4.517,18.6a.408.408,0,0,1-.05.5.267.267,0,0,1-.183.076" transform="translate(-443.167 -289.057)" fill="#f76969"/>
    <path id="Path_6131" data-name="Path 6131" d="M832.469,644.691a.283.283,0,0,1-.234-.136,20.119,20.119,0,0,1-1.611-3.25,41.108,41.108,0,0,1-2.653-9.875c-.481-3.919.1-6.5,1.675-7.457a2.125,2.125,0,0,1,2.088-.048c3.035,1.386,6.519,8.443,8.023,13.011a11.714,11.714,0,0,1,.753,3.6.317.317,0,0,1-.324.321.346.346,0,0,1-.267-.391,10.776,10.776,0,0,0-.714-3.262c-1.422-4.318-4.847-11.312-7.682-12.605a1.622,1.622,0,0,0-1.609.017c-2.97,1.808-1.014,10.843,1.242,16.38a19.433,19.433,0,0,0,1.545,3.122.408.408,0,0,1-.05.5.267.267,0,0,1-.183.076" transform="translate(-452.346 -283.32)" fill="#f76969"/>
    <path id="Path_6132" data-name="Path 6132" d="M767.565,591.276c-11.208,0-26.24-3.012-27.173-3.2a.357.357,0,0,1-.244-.412.309.309,0,0,1,.342-.293c.338.068,33.761,6.767,38.241.578a2.548,2.548,0,0,0,.332-2.262c-.991-3.794-16.7-7.889-30.274-11.031-4.18-.969-10.878.888-10.945.907a.3.3,0,0,1-.357-.266.365.365,0,0,1,.221-.429c.28-.078,6.888-1.91,11.193-.914,20.955,4.852,29.858,8.189,30.729,11.519a3.359,3.359,0,0,1-.452,2.946c-1.545,2.134-6.121,2.859-11.615,2.859" transform="translate(-402.989 -260.598)" fill="#f76969"/>
    <path id="Path_6133" data-name="Path 6133" d="M531.165,800.84v-6.1l74.141-.552-.105,6.65Z" transform="translate(-290.25 -360.78)" fill="#f99e26"/>
    <path id="Path_6134" data-name="Path 6134" d="M534.071,786.6c6.747-6.754,22.137-12.694,48.615-8.636,17.244,2.642,26.252,10.667,21.275,17.654-6.05,8.491-23.655,11.509-49.589,8.7-17.846-1.934-28.734-9.272-20.3-17.716" transform="translate(-290.25 -352.806)" fill="#f99e26"/>
    <path id="Path_6135" data-name="Path 6135" d="M534.071,775.836c6.747-6.754,22.137-12.694,48.615-8.636,17.244,2.643,26.252,10.668,21.275,17.654-6.05,8.492-23.655,11.509-49.589,8.7-17.846-1.934-28.734-9.272-20.3-17.716" transform="translate(-290.25 -347.917)" fill="#ffcd4e"/>
    <path id="Path_6136" data-name="Path 6136" d="M577.472,794.39a138.574,138.574,0,0,1-14.836-.873c-11.182-1.212-18.877-4.857-20.083-9.514-.725-2.8.962-5.227,2.5-6.771,3.621-3.625,14.941-11.613,41.783-7.5,10.444,1.6,17.9,5.613,19.455,10.473a6.221,6.221,0,0,1-1,5.675c-2.647,3.716-7.727,6.252-15.1,7.537a74.74,74.74,0,0,1-12.725.972m-31.681-16.1c-1.851,1.854-2.572,3.636-2.142,5.3,1.049,4.05,8.542,7.406,19.09,8.549,21.9,2.372,36.7-.17,41.685-7.159a4.652,4.652,0,0,0,.8-4.279c-1.382-4.318-8.655-8.085-18.528-9.6-10.245-1.57-19.257-1.5-26.786.218-7.653,1.743-11.9,4.754-14.118,6.973" transform="translate(-296.377 -349.148)" fill="#ffa0a3"/>
    <path id="Path_6137" data-name="Path 6137" d="M531.165,788.528v-6.1l74.141-.553-.105,6.65Z" transform="translate(-290.25 -355.187)" fill="#f99e26"/>
    <path id="Path_6138" data-name="Path 6138" d="M534.071,774.286c6.747-6.754,22.137-12.694,48.615-8.637,17.244,2.642,26.252,10.668,21.275,17.654-6.05,8.491-23.655,11.509-49.589,8.7-17.846-1.933-28.734-9.272-20.3-17.715" transform="translate(-290.25 -347.213)" fill="#f99e26"/>
    <path id="Path_6139" data-name="Path 6139" d="M534.071,763.525c6.747-6.754,22.137-12.694,48.615-8.637,17.244,2.643,26.252,10.668,21.275,17.653-6.05,8.492-23.655,11.509-49.589,8.7-17.846-1.934-28.734-9.271-20.3-17.715" transform="translate(-290.25 -342.324)" fill="#ffcd4e"/>
    <path id="Path_6140" data-name="Path 6140" d="M577.471,782.078a138.483,138.483,0,0,1-14.836-.874c-11.182-1.211-18.877-4.857-20.083-9.514-.725-2.8.961-5.227,2.5-6.77,3.621-3.626,14.94-11.614,41.783-7.5,10.444,1.6,17.9,5.613,19.454,10.472a6.222,6.222,0,0,1-1,5.675c-2.648,3.716-7.727,6.252-15.1,7.537a74.729,74.729,0,0,1-12.726.972m-4.591-24.412a58.514,58.514,0,0,0-12.971,1.343c-7.653,1.743-11.9,4.754-14.119,6.973-1.851,1.853-2.572,3.636-2.142,5.3,1.049,4.051,8.542,7.407,19.09,8.55,21.9,2.372,36.7-.17,41.685-7.159a4.65,4.65,0,0,0,.8-4.28c-1.382-4.318-8.655-8.086-18.528-9.6a91.589,91.589,0,0,0-13.814-1.125" transform="translate(-296.377 -343.555)" fill="#fff"/>
    <path id="Path_6141" data-name="Path 6141" d="M531.165,771.477v-6.1l74.141-.552-.105,6.65Z" transform="translate(-290.25 -347.441)" fill="#f99e26"/>
    <path id="Path_6142" data-name="Path 6142" d="M534.071,757.233c6.747-6.755,22.137-12.694,48.615-8.637,17.244,2.643,26.252,10.668,21.275,17.654-6.05,8.492-23.655,11.509-49.589,8.7-17.846-1.934-28.734-9.272-20.3-17.716" transform="translate(-290.25 -339.466)" fill="#f99e26"/>
    <path id="Path_6143" data-name="Path 6143" d="M534.071,746.472c6.747-6.754,22.137-12.694,48.615-8.636,17.244,2.643,26.252,10.667,21.275,17.653-6.05,8.491-23.655,11.509-49.589,8.7-17.846-1.934-28.734-9.272-20.3-17.715" transform="translate(-290.25 -334.578)" fill="#ffcd4e"/>
    <path id="Path_6144" data-name="Path 6144" d="M577.472,765.027a138.609,138.609,0,0,1-14.836-.874c-11.182-1.212-18.878-4.858-20.084-9.514-.725-2.8.962-5.226,2.5-6.77,3.621-3.625,14.94-11.614,41.783-7.5,10.445,1.6,17.9,5.614,19.455,10.474a6.218,6.218,0,0,1-1,5.674c-2.647,3.717-7.727,6.253-15.1,7.538a74.784,74.784,0,0,1-12.725.973m-4.592-24.413a58.537,58.537,0,0,0-12.971,1.343c-7.653,1.743-11.9,4.754-14.118,6.973-1.851,1.854-2.572,3.636-2.142,5.3,1.049,4.051,8.542,7.407,19.09,8.55,21.9,2.374,36.7-.17,41.685-7.159a4.651,4.651,0,0,0,.8-4.279c-1.383-4.318-8.655-8.086-18.528-9.6a91.5,91.5,0,0,0-13.815-1.125" transform="translate(-296.377 -335.809)" fill="#fff"/>
    <path id="Path_6145" data-name="Path 6145" d="M533.1,750.562v-6.1l74.141-.552-.106,6.65Z" transform="translate(-291.307 -337.94)" fill="#f99e26"/>
    <path id="Path_6146" data-name="Path 6146" d="M536,736.319c6.747-6.754,22.136-12.694,48.615-8.636,17.244,2.643,26.253,10.667,21.275,17.653-6.051,8.492-23.655,11.509-49.59,8.7-17.846-1.934-28.734-9.272-20.3-17.716" transform="translate(-291.306 -329.966)" fill="#f99e26"/>
    <path id="Path_6147" data-name="Path 6147" d="M536,725.557c6.747-6.755,22.136-12.695,48.615-8.637,17.244,2.642,26.253,10.668,21.275,17.654-6.051,8.492-23.655,11.509-49.59,8.7C538.458,741.339,527.57,734,536,725.557" transform="translate(-291.306 -325.076)" fill="#ffcd4e"/>
    <path id="Path_6148" data-name="Path 6148" d="M579.406,744.112a138.634,138.634,0,0,1-14.836-.873c-11.182-1.212-18.877-4.857-20.084-9.514-.725-2.8.962-5.227,2.5-6.771,3.621-3.625,14.941-11.613,41.783-7.5,10.444,1.6,17.9,5.613,19.454,10.473a6.22,6.22,0,0,1-1,5.675c-2.648,3.716-7.727,6.252-15.1,7.538a74.736,74.736,0,0,1-12.725.972m-31.681-16.1c-1.852,1.854-2.573,3.636-2.142,5.3,1.049,4.05,8.543,7.406,19.09,8.55,21.9,2.373,36.7-.17,41.685-7.159a4.65,4.65,0,0,0,.8-4.28c-1.382-4.318-8.655-8.085-18.528-9.6-10.245-1.57-19.257-1.5-26.785.218-7.654,1.744-11.9,4.754-14.118,6.973" transform="translate(-297.434 -326.308)" fill="#fff"/>
    <path id="Path_6149" data-name="Path 6149" d="M592.807,742.714l.51-.89c.185-.324-.291-.646-1.091-.754a29.09,29.09,0,0,1-4.94-1.059c-.627-.2-.766-.561-.335-.833l.3-.188a3.47,3.47,0,0,1,2.428-.162,26.968,26.968,0,0,0,5.568,1.055c3.68.323,5.911-.5,6.593-1.688.658-1.148-.21-1.853-3.687-2.816-4.807-1.3-9.486-2.721-8.445-4.538.907-1.583,4.311-2.964,10.459-2.5a1.789,1.789,0,0,0,1.545-.5l.558-.975c.2-.348,1.08-.566,1.967-.488s1.445.423,1.246.77l-.466.813c-.182.318.267.641,1.051.748a25.974,25.974,0,0,1,3.761.77c.691.2.856.581.388.864l-.3.179a3.478,3.478,0,0,1-2.357.164,25,25,0,0,0-4.771-.838c-3.99-.35-6.044.478-6.522,1.313-.622,1.086,2.111,1.436,6.19,2.583,4.836,1.346,7.5,2.878,6.879,4.767-.662,2.015-4.414,3.133-11.127,2.954a1.884,1.884,0,0,0-1.547.5L596.071,743c-.2.347-1.08.566-1.967.488l-.052,0c-.888-.078-1.445-.423-1.246-.771" transform="translate(-320.596 -329.966)" fill="#ffa0a3"/>
    <path id="Path_6150" data-name="Path 6150" d="M534.882,731.2v-6.1l74.141-.553-.106,6.65Z" transform="translate(-292.281 -329.144)" fill="#f99e26"/>
    <path id="Path_6151" data-name="Path 6151" d="M537.788,716.956c6.746-6.755,22.137-12.694,48.615-8.636,17.244,2.642,26.252,10.667,21.275,17.653-6.05,8.492-23.655,11.509-49.59,8.7-17.846-1.934-28.734-9.272-20.3-17.716" transform="translate(-292.281 -321.17)" fill="#f99e26"/>
    <path id="Path_6152" data-name="Path 6152" d="M537.788,706.195c6.746-6.754,22.137-12.694,48.615-8.636,17.244,2.642,26.252,10.667,21.275,17.653-6.05,8.492-23.655,11.509-49.59,8.7-17.846-1.934-28.734-9.272-20.3-17.716" transform="translate(-292.281 -316.281)" fill="#ffcd4e"/>
    <path id="Path_6153" data-name="Path 6153" d="M581.189,724.749a138.738,138.738,0,0,1-14.836-.874c-11.182-1.212-18.878-4.858-20.083-9.515-.725-2.8.961-5.227,2.5-6.771,3.621-3.625,14.941-11.613,41.783-7.5,10.444,1.6,17.9,5.614,19.455,10.473a6.221,6.221,0,0,1-1,5.675c-2.648,3.716-7.728,6.252-15.1,7.537a74.735,74.735,0,0,1-12.726.973M576.6,700.337a58.487,58.487,0,0,0-12.97,1.343c-7.654,1.743-11.9,4.754-14.119,6.973-1.851,1.854-2.572,3.636-2.142,5.3,1.049,4.051,8.542,7.407,19.09,8.55,21.9,2.372,36.705-.17,41.685-7.159a4.648,4.648,0,0,0,.8-4.279c-1.382-4.318-8.655-8.085-18.528-9.6a91.523,91.523,0,0,0-13.815-1.125" transform="translate(-298.409 -317.512)" fill="#fff"/>
    <path id="Path_6154" data-name="Path 6154" d="M594.589,723.35l.51-.89c.185-.324-.29-.646-1.091-.753a29.12,29.12,0,0,1-4.94-1.06c-.626-.205-.766-.561-.334-.832l.3-.188a3.466,3.466,0,0,1,2.428-.162,27.018,27.018,0,0,0,5.568,1.055c3.68.323,5.911-.5,6.593-1.688.658-1.149-.21-1.853-3.686-2.815-4.807-1.3-9.486-2.722-8.445-4.538.907-1.583,4.311-2.964,10.459-2.5a1.789,1.789,0,0,0,1.545-.5l.558-.975c.2-.348,1.08-.566,1.967-.489s1.446.423,1.246.771l-.465.813c-.182.318.267.641,1.051.748a25.773,25.773,0,0,1,3.76.77c.691.2.856.581.388.864l-.3.179a3.484,3.484,0,0,1-2.357.164,25.051,25.051,0,0,0-4.772-.838c-3.99-.35-6.044.477-6.522,1.313-.622,1.086,2.112,1.435,6.19,2.583,4.835,1.346,7.5,2.878,6.879,4.767-.662,2.015-4.414,3.134-11.127,2.953a1.885,1.885,0,0,0-1.547.5l-.594,1.037c-.2.347-1.08.567-1.967.488l-.052,0c-.888-.078-1.446-.423-1.246-.77" transform="translate(-321.571 -321.169)" fill="#fff"/>
    <path id="Path_6155" data-name="Path 6155" d="M572.774,706.878v-6.1l74.141-.553-.106,6.65Z" transform="translate(-312.986 -318.096)" fill="#f99e26"/>
    <path id="Path_6156" data-name="Path 6156" d="M575.679,692.636c6.746-6.754,22.137-12.694,48.615-8.637,17.243,2.642,26.251,10.668,21.275,17.654-6.05,8.492-23.655,11.509-49.59,8.7-17.846-1.934-28.734-9.271-20.3-17.715" transform="translate(-312.986 -310.121)" fill="#f99e26"/>
    <path id="Path_6157" data-name="Path 6157" d="M575.679,681.874c6.746-6.755,22.137-12.694,48.615-8.637,17.243,2.643,26.251,10.668,21.275,17.654-6.05,8.491-23.655,11.509-49.59,8.7-17.846-1.934-28.734-9.272-20.3-17.715" transform="translate(-312.986 -305.232)" fill="#ffcd4e"/>
    <path id="Path_6158" data-name="Path 6158" d="M619.08,700.428a138.524,138.524,0,0,1-14.835-.874c-11.182-1.212-18.878-4.857-20.083-9.514-.725-2.8.961-5.226,2.5-6.77,3.62-3.626,14.94-11.614,41.783-7.5,10.445,1.6,17.9,5.614,19.455,10.473a6.22,6.22,0,0,1-1,5.674c-2.648,3.716-7.727,6.252-15.1,7.537a74.711,74.711,0,0,1-12.726.973m-4.591-24.412a58.534,58.534,0,0,0-12.971,1.343c-7.653,1.743-11.9,4.754-14.118,6.973-1.851,1.853-2.573,3.635-2.142,5.3,1.049,4.051,8.542,7.407,19.09,8.55,21.9,2.372,36.7-.17,41.684-7.159a4.65,4.65,0,0,0,.8-4.279c-1.382-4.318-8.655-8.086-18.528-9.6a91.51,91.51,0,0,0-13.815-1.125" transform="translate(-319.114 -306.463)" fill="#fff"/>
    <path id="Path_6159" data-name="Path 6159" d="M547.361,690.836v-6.1l74.141-.552-.106,6.65Z" transform="translate(-299.099 -310.808)" fill="#f99e26"/>
    <path id="Path_6160" data-name="Path 6160" d="M550.267,676.592c6.746-6.754,22.136-12.694,48.615-8.636,17.243,2.642,26.252,10.667,21.275,17.653-6.051,8.492-23.655,11.509-49.59,8.7-17.846-1.934-28.734-9.271-20.3-17.716" transform="translate(-299.1 -302.833)" fill="#f99e26"/>
    <path id="Path_6161" data-name="Path 6161" d="M550.267,665.831c6.746-6.755,22.136-12.695,48.615-8.637,17.243,2.643,26.252,10.668,21.275,17.654-6.051,8.491-23.655,11.509-49.59,8.7-17.846-1.934-28.734-9.272-20.3-17.715" transform="translate(-299.1 -297.944)" fill="#ffcd4e"/>
    <path id="Path_6162" data-name="Path 6162" d="M593.669,684.385a138.493,138.493,0,0,1-14.837-.874c-11.182-1.211-18.877-4.857-20.083-9.514-.725-2.8.961-5.226,2.5-6.771,3.621-3.625,14.941-11.613,41.783-7.5,10.445,1.6,17.9,5.613,19.455,10.473a6.221,6.221,0,0,1-1,5.674c-2.648,3.717-7.728,6.252-15.1,7.538a74.731,74.731,0,0,1-12.725.972m-31.681-16.1c-1.851,1.855-2.573,3.636-2.142,5.3,1.049,4.051,8.542,7.407,19.089,8.549,21.9,2.373,36.705-.169,41.685-7.159a4.649,4.649,0,0,0,.8-4.279c-1.383-4.318-8.655-8.086-18.528-9.6-10.245-1.57-19.257-1.5-26.785.218-7.654,1.743-11.9,4.753-14.118,6.972" transform="translate(-305.228 -299.175)" fill="#fff"/>
    <path id="Path_6163" data-name="Path 6163" d="M607.068,682.987l.509-.89c.186-.324-.289-.646-1.091-.754a29.2,29.2,0,0,1-4.941-1.059c-.626-.205-.766-.561-.335-.833l.3-.188a3.467,3.467,0,0,1,2.428-.162,26.988,26.988,0,0,0,5.569,1.055c3.679.323,5.911-.5,6.592-1.688.658-1.148-.21-1.853-3.686-2.816-4.808-1.3-9.486-2.721-8.445-4.537.907-1.584,4.312-2.965,10.46-2.5a1.785,1.785,0,0,0,1.544-.5l.559-.975c.2-.348,1.08-.566,1.967-.488s1.446.423,1.246.77l-.465.813c-.182.318.267.641,1.051.748a26.062,26.062,0,0,1,3.761.769c.691.2.855.581.388.864l-.3.18a3.481,3.481,0,0,1-2.357.164,25.046,25.046,0,0,0-4.771-.838c-3.99-.35-6.043.478-6.522,1.313-.622,1.086,2.112,1.435,6.19,2.584,4.835,1.345,7.5,2.878,6.879,4.767-.662,2.015-4.414,3.133-11.127,2.954a1.886,1.886,0,0,0-1.547.5l-.595,1.038c-.2.348-1.08.566-1.967.488l-.052,0c-.887-.078-1.446-.423-1.246-.77" transform="translate(-328.389 -302.833)" fill="#fff"/>
  </g>
</svg>
