<svg width="96" height="96" viewBox="0 0 96 96" fill="none" xmlns="http://www.w3.org/2000/svg">
<circle cx="48" cy="48" r="48" fill="#40BAD5" fill-opacity="0.1"/>
<path fill-rule="evenodd" clip-rule="evenodd" d="M52.6667 67.8333V29.9166C52.6667 28.2172 52.663 27.1187 52.5542 26.3094C52.4521 25.5503 52.2873 25.3124 52.1541 25.1792C52.0209 25.046 51.783 24.8812 51.024 24.7792C50.2146 24.6703 49.1161 24.6666 47.4167 24.6666C45.7173 24.6666 44.6188 24.6703 43.8094 24.7792C43.0504 24.8812 42.8125 25.046 42.6792 25.1792C42.546 25.3124 42.3813 25.5503 42.2792 26.3094C42.1704 27.1187 42.1667 28.2172 42.1667 29.9166V67.8333H52.6667Z" fill="#40BAD5"/>
<path opacity="0.7" d="M38.6667 40.4166C38.6667 39.4501 37.8832 38.6666 36.9167 38.6666H29.9167C28.9502 38.6666 28.1667 39.4501 28.1667 40.4166V67.8333H38.6667V40.4166Z" fill="#40BAD5"/>
<path opacity="0.7" d="M66.6667 52.0834C66.6667 51.1169 65.8832 50.3334 64.9167 50.3334H57.9167C56.9502 50.3334 56.1667 51.1169 56.1667 52.0834V67.8334H66.6667V52.0834Z" fill="#40BAD5"/>
<path opacity="0.5" d="M24.0833 67.8334C23.1168 67.8334 22.3333 68.6169 22.3333 69.5834C22.3333 70.5499 23.1168 71.3334 24.0833 71.3334H70.75C71.7165 71.3334 72.5 70.5499 72.5 69.5834C72.5 68.6169 71.7165 67.8334 70.75 67.8334H70.1666H66.6666H56.1666H52.6666H42.1666H38.6666H28.1666H24.6666H24.0833Z" fill="#40BAD5"/>
</svg>
