<svg width="56" height="56" viewBox="0 0 56 56" fill="none" xmlns="http://www.w3.org/2000/svg">
<circle opacity="0.5" cx="27.9998" cy="28" r="23.3333" fill="#40BAD5"/>
<path d="M20.0087 22.0439C19.5718 17.1807 15.8214 12.6491 14.0008 10.9912L12.9951 10.1311C17.0518 6.72084 22.2864 4.66666 28.0008 4.66666C33.1654 4.66666 37.9381 6.34456 41.8035 9.18498C42.3496 10.8429 41.3094 14.307 40.217 15.9649C39.8214 16.5654 38.9241 17.311 37.9405 18.0177C35.7227 19.6111 32.9239 20.3993 31.5008 23.3333C31.094 24.172 31.1114 24.9919 31.3071 25.7046C31.4478 26.217 31.5377 26.7739 31.5391 27.3186C31.5436 29.0801 29.7622 30.3525 28.0008 30.3333C23.4175 30.2833 20.4171 26.5896 20.0087 22.0439Z" fill="#40BAD5"/>
<path d="M31.3519 42.6441C33.6575 38.2993 41.3427 38.2993 41.3427 38.2993C49.3507 38.2158 50.4324 33.3537 51.1556 30.8961C49.8613 41.3526 41.6488 49.6648 31.24 51.1106C30.4873 49.5264 29.5956 45.9539 31.3519 42.6441Z" fill="#40BAD5"/>
</svg>
