<?xml version="1.0" encoding="UTF-8"?>
<svg xmlns="http://www.w3.org/2000/svg" viewBox="0 0 340.52 508.33">
  <defs>
    <style>
      .cls-1 {
        fill: #f9cc48;
      }

      .cls-2 {
        fill: #e8e5e3;
      }

      .cls-3 {
        stroke-width: .5px;
      }

      .cls-3, .cls-4, .cls-5 {
        stroke-miterlimit: 10;
      }

      .cls-3, .cls-5 {
        fill: none;
        stroke: #fff;
      }

      .cls-6, .cls-7 {
        fill: #6aaae6;
      }

      .cls-8 {
        fill: #a6a6a6;
      }

      .cls-9 {
        isolation: isolate;
      }

      .cls-10 {
        fill: #232f51;
      }

      .cls-11 {
        fill: #18203c;
      }

      .cls-12 {
        fill: #f0826c;
      }

      .cls-4 {
        stroke: #1c254f;
        stroke-width: 0px;
      }

      .cls-4, .cls-13 {
        fill: #000f30;
      }

      .cls-14 {
        opacity: .84;
      }

      .cls-15 {
        opacity: .66;
      }

      .cls-16 {
        fill: #c75842;
      }

      .cls-7 {
        mix-blend-mode: multiply;
      }

      .cls-5 {
        stroke-width: .62px;
      }
    </style>
  </defs>
  <g class="cls-9">
    <g id="OBJECTS">
      <g>
        <g class="cls-14">
          <path class="cls-2" d="M164,140.33c-20.23-2.31-40.42,8.25-53.73,23.66s-20.64,35.11-25.52,54.88c-3.74,15.15-6.2,31.03-3.03,46.31,3.17,15.28,12.88,29.93,27.47,35.47,7.04,2.67,14.88,3.17,21.5,6.75,18.41,9.96,17.67,35.81,22.15,56.26,3.55,16.21,11.97,31.32,23.9,42.85,11.92,11.53,29.78,19.6,45.06,13.15,11.72-4.94,18.73-17,23.33-28.85,21.46-55.23,7.72-117.46-10.17-173.96-7.52-23.77-39.48-72.24-64.24-75.19"/>
          <path class="cls-2" d="M110.42,330.94c.5,5.67,5.51,9.85,11.17,9.35s9.85-5.51,9.35-11.17c-.5-5.67-5.51-9.85-11.17-9.35-5.67,.5-9.85,5.51-9.35,11.17Z"/>
          <path class="cls-2" d="M223.69,442c.22,2.43,2.36,4.22,4.79,4.01,2.43-.22,4.22-2.36,4.01-4.79-.22-2.43-2.36-4.22-4.79-4.01-2.43,.22-4.22,2.36-4.01,4.79Z"/>
          <path class="cls-2" d="M91.28,162.76c-.2-2.3,1.49-4.33,3.79-4.53,2.3-.2,4.33,1.49,4.53,3.79,.2,2.3-1.49,4.33-3.79,4.53-2.3,.2-4.33-1.49-4.53-3.79Z"/>
          <path class="cls-2" d="M121.45,141.65c-.5-5.63-5.47-9.79-11.1-9.29-5.63,.5-9.79,5.47-9.29,11.1,.5,5.63,5.47,9.79,11.1,9.29,5.63-.5,9.79-5.47,9.29-11.1Z"/>
        </g>
        <g>
          <g>
            <path class="cls-12" d="M161.39,106.37c.02-.64-11.66,2.14-19.7,8.49,0,0-50.42,23.78-50.59,31.73-.17,7.95,55.47,66.16,65.29,50.31,0,0,4.98-3.17,2.19-7.89-2.79-4.72-4.17-16.11-32.01-44.05,0,0,19.37-16.83,21.58-18.73,0,0,13.6-.24,12.02-1.81-1.57-1.57-7.48-1.72-7.48-1.72,0,0,14.07-8.53,13.9-10.48-.17-1.95-5.21-5.84-5.21-5.84Z"/>
            <path class="cls-16" d="M136.1,156.4c15.75,18.23,20.27,28.84,22.49,32.6,2.79,4.72-2.19,7.89-2.19,7.89-6.58,10.63-33.76-12.03-50.91-30.52,10.37-2.78,20.59-6.06,30.61-9.97Z"/>
            <path class="cls-6" d="M159.5,175.38s14.42,22.1,1.42,32.01c-13,9.92-35.1-16.35-50.93-32.93l27.21-22.48,22.29,23.39Z"/>
          </g>
          <g>
            <path class="cls-2" d="M132.82,474.51c0-2.48,34.99-4.5,78.14-4.5s78.14,2.01,78.14,4.5-34.99,4.5-78.14,4.5-78.14-2.01-78.14-4.5Z"/>
            <g>
              <polygon class="cls-12" points="144.99 461.47 145.27 446.59 159.6 447.69 159.24 461.99 152.54 473.61 140.48 464.31 144.99 461.47"/>
              <path class="cls-16" d="M146.37,446.86l11.02,23.42s-2.13-3.67,2.2-7.55v-15.87s-13.23,0-13.23,0Z"/>
              <path class="cls-6" d="M142.73,460.45s3.77,4.26,8.65,7.96c2.9,2.2,7.22-7.18,8.56-8.35,.27-.24,.64-.02,.69,.4l1.69,15.35h-42.44c-.49,0-1.02-.53-.89-1.16,2.25-11.4,23.74-14.19,23.74-14.19Z"/>
              <g>
                <path class="cls-5" d="M137.56,473.16s-1.65-7.85-7.23-9.3c0,0-8.78,2.89-10.85,9.51h42.37"/>
                <line class="cls-5" x1="160.91" y1="463.65" x2="152.13" y2="473.26"/>
              </g>
            </g>
            <g>
              <polygon class="cls-12" points="213.06 463.4 208.65 449.07 224.08 448.52 227.39 463.67 221.68 473.61 209.62 464.31 213.06 463.4"/>
              <path class="cls-16" d="M211.96,449.07l12.68,17.64s-.2,.57,4.13-3.31l-4.96-14.88-11.85,.55Z"/>
              <path class="cls-6" d="M211.03,462.33s3.77,4.26,8.65,7.96c2.9,2.2,7.22-7.18,8.56-8.35,.27-.24,.64-.02,.69,.4l1.69,15.35h-42.44c-.49,0-1.02-.53-.89-1.16,2.25-11.4,23.74-14.19,23.74-14.19Z"/>
              <g>
                <path class="cls-5" d="M205.86,475.04s-1.65-7.85-7.23-9.3c0,0-8.78,2.89-10.85,9.51h42.37"/>
                <line class="cls-5" x1="229.22" y1="465.53" x2="220.43" y2="475.14"/>
              </g>
            </g>
            <g>
              <path class="cls-11" d="M144.91,276.17s-5.46,65.28-5.97,83.32c-.51,18.04,4.12,88.47,4.12,88.47l18.24-.06s19.31-124.46,41.36-167.97l-57.75-3.77Z"/>
              <polyline class="cls-3" points="152.44 436.8 155.33 354.13 168.14 305.77"/>
              <polygon class="cls-1" points="163.6 448.38 142.51 447.96 141.27 435.98 165.66 435.98 163.6 448.38"/>
            </g>
            <g>
              <path class="cls-10" d="M144.87,276.17s12.62,54.42,25.44,92.92c10.36,31.11,37.8,80.25,37.8,80.25l18.34-.8-19.49-78.52c-1.18-4.64-1.92-9.39-2.22-14.18-1.14-18.08,2.58-54.61,4.13-78.02l-64-1.65Z"/>
              <path class="cls-3" d="M216.51,437.22c.41-1.24-25.22-75.65-25.22-85.15s.41-42.16,.41-42.16"/>
              <polygon class="cls-1" points="228.49 448.38 208.1 449.34 201.21 438.04 226.84 436.8 228.49 448.38"/>
            </g>
            <g>
              <path class="cls-6" d="M194.2,162.7s28.51,2.91,30.3,26.52c1.79,23.61-10.07,121.51-10.07,121.51l-78.37-5.4,7.99-110.53c.29-6.02,2.14-11.85,5.37-16.89,2.98-4.65,.14-7.99,2.12-8.24l38.3-10.16,4.36,3.18Z"/>
              <path class="cls-7" d="M202.61,169.29c19.01,2.89,20.83,8.94,21.73,20.74,1.79,23.61-10.07,120.68-10.07,120.68l-72.16-4.9"/>
            </g>
            <g>
              <path class="cls-12" d="M183.81,136.76l9.37,25.72s-7.41,9.27-12.32,9.92c-10.05,1.34-11.77-7.52-11.77-7.52l.11-14.12,13.33-12.07,1.27-1.94Z"/>
              <path class="cls-16" d="M182.54,138.69l-13.33,12.07,.11,5.07s10.61,2.36,14.75-15.41"/>
            </g>
            <g>
              <g>
                <path class="cls-11" d="M160.47,255.01l-26.14-47.35c-1.39-2.54-3.78-4.35-6.54-4.96l-39.09-2.47c-1.03-.22-1.81,.9-1.29,1.84l25.1,44.88c1.35,2.42,3.61,4.16,6.22,4.81l40.4,5.06c1.03,.26,1.85-.87,1.33-1.82Z"/>
                <path class="cls-1" d="M157.04,255.46l-23.58-45.31c-1.39-2.54-5.33-4.95-8.09-5.55l-36.67-1.98c-1.03-.22-1.81,.9-1.29,1.84l25.1,44.88c1.35,2.42,3.6,4.16,6.22,4.81l36.98,3.13c1.03,.26,1.85-.87,1.33-1.82Z"/>
                <polygon class="cls-4" points="143.03 222.76 130.99 226.96 147.02 230.09 143.03 222.76"/>
              </g>
              <path class="cls-12" d="M143.51,241.21c2.03,1.21,25.45,21.44,44.31,30.74,5.2,2.56,12-3.4,13.87-8.81l17.5-45.99-28.47-14.37c-.12,.31-5.14,28.94-9.22,38.82-1.46,3.54-.57,3.03-3.86,1.8l-25.71-13.1s-2.13-1.96-2.92-3.35c-1.51-2.65-6.77-5.58-6.77-5.58l3.13,5.64c.55,.95-.1,1.15-2.01,.33l-12.77-5.37s-2.88-.62-1.37,.55c1.51,1.17,6.58,4.34,6.76,4.44,3.25,1.73-8.38-3.75-8.34-2.66,.03,1.09,6.75,4.9,6.63,5.03-.12,.13-7.28-3.18-7.3-2.16-.01,1.03,6.36,4.17,6.57,4.19,.42,.05-5.12-2.85-5.15-2.3-.03,.55,13.98,11.45,15.14,12.14Z"/>
              <path class="cls-16" d="M186.75,222.49c2.2-9.97,3.89-19.53,3.96-19.71l28.47,14.37-11.11,29.2c-6.95-8.1-13.99-16.12-21.33-23.87Z"/>
              <path class="cls-16" d="M189.97,264.84c2.59-1.69,8.92-3.74,11.23-.51-2.36,5.05-8.55,10-13.38,7.62-.73-.36-1.47-.74-2.21-1.13,.63-2.34,1.97-4.42,4.36-5.98Z"/>
              <path class="cls-6" d="M193.47,182.06s2.68-19.53,18.41-15.48c21.31,5.49,10.24,68.29,4.31,78.09l-33.35-17,10.64-45.61Z"/>
            </g>
            <g>
              <path class="cls-11" d="M155.55,122.02c.58,4.33,3.85,1.96,3.85,1.96,10.23,4.1,23.78,12.05,23.78,12.05,0,0,4.09-1.58,3.91-2.65-.83-4.98-2.23-13.47-3.2-19.33-.61-3.66-3.86-6.29-7.57-6.1-8.58,.42-22.71,1.16-23.81,1.57-2.13,.79-3.45,5.81,2.85,5.89,0,0-4.49,1.41-3.92,3.71,.57,2.3,4.11,2.89,4.11,2.89Z"/>
              <path class="cls-16" d="M175.96,131.06c-.15,.25-.31,.47-.48,.68,4.48,2.41,7.7,4.3,7.7,4.3,0,0,4.09-1.58,3.91-2.65-.3-1.82-.66-3.72-1.02-5.57-3.87-.25-8.1-.12-10.11,3.24Z"/>
              <path class="cls-12" d="M182.78,132.96c.24,.39,.78,.41,1.03,.04,.86-1.25,2.71-3.09,4.27,.93,2.12,5.46-3.97,5.62-4.29,6.47-.66,1.73-2.72,7.51-6.9,10.4-2.54,1.76-7.14,4.11-9.92,2.64-.58-.31-4.91-.79-9.63-32.21,0,0,1.2,2.4,4.08,1.22,2-.82,3.29-2.87,5.45-3.95,1.75-.87,6.59-3.13,10.02,2.89,1.58,2.76,4.49,9.3,5.89,11.57Z"/>
              <g>
                <path class="cls-16" d="M187.12,133.67l-2.67,2.95s.07-5.91,2.67-2.95Z"/>
                <path class="cls-13" d="M164.46,136.22c.13,.68,.51,1.18,.84,1.12,.33-.06,.5-.67,.37-1.35-.13-.68-.51-1.18-.84-1.12-.33,.06-.5,.67-.37,1.35Z"/>
                <path class="cls-13" d="M160.43,137.31c.13,.68,.51,1.18,.84,1.12,.33-.06,.5-.67,.37-1.35s-.51-1.18-.84-1.12c-.33,.06-.5,.67-.37,1.35Z"/>
                <path class="cls-13" d="M167.88,128.56c1.01,.45-.93-2.1-2.2-2.18-1.27-.08-2.35,.76-2.41,1.89,0,0,2.18-.79,4.61,.29Z"/>
                <path class="cls-13" d="M159.33,133.04c1.25-.41,2.21-.36,2.21-.36-.36-.98-1.44-1.51-2.56-1.33"/>
                <path class="cls-16" d="M162.63,136.65l-.83,5.58c-.01,.09,.06,.17,.14,.16l2.2-.25c.08,0,.13-.09,.1-.17l-1.37-5.32c-.04-.14-.23-.14-.25,0Z"/>
              </g>
            </g>
          </g>
        </g>
        <g class="cls-15">
          <path class="cls-8" d="M182.92,77.44c4.45-5.15,10.18-8.21,16.54-8.21,8.46,0,15.14,4.45,15.14,13.04s-10.12,10.31-10.12,14.13v3.5h-11.77l-.06-5.09c0-5.85,10.12-9.16,10.12-12.66,0-2.42-2.48-2.99-4.71-2.99-2.74,0-6.11,2.67-8.27,5.22l-6.87-6.94Zm15.33,25.04c4.52,0,7.57,3.12,7.57,6.75s-2.93,6.55-7.57,6.55c-4.14,0-7.25-3.25-7.25-6.55s2.67-6.75,7.25-6.75Z"/>
          <path class="cls-8" d="M156.51,90.39c.6-3.81,2.44-7,5.5-8.9,4.07-2.53,8.62-2.39,11.19,1.74,2.48,3.98-1.78,7.99-.64,9.82l1.05,1.68-5.66,3.53-1.55-2.43c-1.75-2.82,2.12-7.44,1.07-9.12-.72-1.16-2.09-.7-3.16-.03-1.32,.82-2.14,3.11-2.42,4.99l-5.38-1.28Zm14.87,7.45c2.17-1.35,4.58-.77,5.66,.98,1.07,1.71,.55,4.03-1.68,5.42-1.99,1.24-4.46,.61-5.45-.98-.95-1.53-.73-4.04,1.47-5.42Z"/>
        </g>
      </g>
    </g>
  </g>
</svg>