<svg width="56" height="56" viewBox="0 0 56 56" fill="none" xmlns="http://www.w3.org/2000/svg">
<path opacity="0.5" d="M14.6067 49.9062H14.0002C11.8003 49.9062 10.7003 49.9062 10.0169 49.2228C9.3335 48.5394 9.3335 47.4395 9.3335 45.2396V42.645C9.3335 41.4352 9.3335 40.8302 9.64425 40.29C9.955 39.7498 10.4238 39.4771 11.3614 38.9318C17.5342 35.3417 26.3004 33.3207 32.1513 36.8104C32.5444 37.0449 32.898 37.3279 33.2001 37.6673C34.5023 39.13 34.4074 41.3376 32.9066 42.6475C32.5897 42.9241 32.2519 43.1339 31.9117 43.2068C32.1912 43.1744 32.4592 43.1372 32.7148 43.0965C34.8414 42.7573 36.6266 41.6209 38.2608 40.3863L42.4776 37.2009C43.9642 36.078 46.1705 36.0778 47.6574 37.2004C48.9959 38.2111 49.4052 39.8753 48.559 41.2317C47.5721 42.8136 46.1817 44.8373 44.8467 46.0738C43.5097 47.3121 41.5192 48.4176 39.8943 49.2019C38.0943 50.0707 36.1057 50.5713 34.083 50.8988C29.9808 51.5628 25.7055 51.4614 21.6449 50.6249C19.3494 50.152 16.9653 49.9062 14.6067 49.9062Z" fill="#40BAD5"/>
<path d="M25.3428 7.84781C26.525 5.72704 27.1161 4.66666 27.9998 4.66666C28.8836 4.66666 29.4747 5.72704 30.6569 7.84781L30.9627 8.39647C31.2987 8.99913 31.4667 9.30046 31.7286 9.49928C31.9905 9.6981 32.3166 9.7719 32.969 9.9195L33.5629 10.0539C35.8586 10.5733 37.0065 10.833 37.2796 11.7112C37.5527 12.5894 36.7701 13.5045 35.2051 15.3346L34.8002 15.8081C34.3554 16.3281 34.1331 16.5882 34.033 16.9099C33.933 17.2316 33.9666 17.5785 34.0338 18.2724L34.0951 18.9041C34.3317 21.3459 34.45 22.5668 33.735 23.1095C33.0201 23.6523 31.9453 23.1574 29.7959 22.1677L29.2398 21.9117C28.629 21.6305 28.3236 21.4898 27.9998 21.4898C27.6761 21.4898 27.3707 21.6305 26.7599 21.9117L26.2038 22.1677C24.0543 23.1574 22.9796 23.6523 22.2646 23.1095C21.5497 22.5668 21.668 21.3459 21.9046 18.9041L21.9658 18.2724C22.0331 17.5785 22.0667 17.2316 21.9666 16.9099C21.8666 16.5882 21.6442 16.3281 21.1995 15.8081L20.7946 15.3346C19.2295 13.5045 18.447 12.5894 18.7201 11.7112C18.9932 10.833 20.141 10.5733 22.4367 10.0539L23.0307 9.9195C23.683 9.7719 24.0092 9.6981 24.2711 9.49928C24.533 9.30046 24.701 8.99913 25.0369 8.39647L25.3428 7.84781Z" fill="#40BAD5"/>
<path d="M45.338 17.9239C45.9291 16.8635 46.2246 16.3333 46.6665 16.3333C47.1084 16.3333 47.4039 16.8635 47.995 17.9239L48.148 18.1982C48.3159 18.4996 48.3999 18.6502 48.5309 18.7496C48.6618 18.849 48.8249 18.8859 49.1511 18.9597L49.4481 19.0269C50.5959 19.2866 51.1698 19.4165 51.3064 19.8556C51.4429 20.2947 51.0517 20.7522 50.2691 21.6673L50.0667 21.904C49.8443 22.1641 49.7331 22.2941 49.6831 22.4549C49.6331 22.6158 49.6499 22.7892 49.6835 23.1362L49.7141 23.452C49.8324 24.6729 49.8916 25.2834 49.5341 25.5548C49.1766 25.8261 48.6393 25.5787 47.5645 25.0839L47.2865 24.9558C46.9811 24.8152 46.8284 24.7449 46.6665 24.7449C46.5046 24.7449 46.3519 24.8152 46.0465 24.9558L45.7685 25.0839C44.6938 25.5787 44.1564 25.8261 43.7989 25.5548C43.4414 25.2834 43.5006 24.6729 43.6189 23.452L43.6495 23.1362C43.6831 22.7892 43.6999 22.6158 43.6499 22.4549C43.5999 22.2941 43.4887 22.1641 43.2663 21.904L43.0639 21.6673C42.2814 20.7522 41.8901 20.2947 42.0266 19.8556C42.1632 19.4165 42.7371 19.2866 43.885 19.0269L44.1819 18.9597C44.5081 18.8859 44.6712 18.849 44.8021 18.7496C44.9331 18.6502 45.0171 18.4996 45.1851 18.1982L45.338 17.9239Z" fill="#40BAD5"/>
<path d="M8.00465 17.9239C8.59575 16.8635 8.8913 16.3333 9.33317 16.3333C9.77504 16.3333 10.0706 16.8635 10.6617 17.9239L10.8146 18.1982C10.9826 18.4996 11.0666 18.6502 11.1975 18.7496C11.3285 18.849 11.4916 18.8859 11.8178 18.9597L12.1147 19.0269C13.2626 19.2866 13.8365 19.4165 13.973 19.8556C14.1096 20.2947 13.7183 20.7522 12.9358 21.6673L12.7333 21.904C12.511 22.1641 12.3998 22.2941 12.3498 22.4549C12.2997 22.6158 12.3166 22.7892 12.3502 23.1362L12.3808 23.452C12.4991 24.6729 12.5582 25.2834 12.2008 25.5548C11.8433 25.8261 11.3059 25.5787 10.2312 25.0839L9.95314 24.9558C9.64774 24.8152 9.49504 24.7449 9.33317 24.7449C9.17131 24.7449 9.0186 24.8152 8.7132 24.9558L8.43515 25.0839C7.36042 25.5787 6.82305 25.8261 6.46557 25.5548C6.10809 25.2834 6.16725 24.6729 6.28556 23.452L6.31616 23.1362C6.34978 22.7892 6.36659 22.6158 6.31657 22.4549C6.26655 22.2941 6.15537 22.1641 5.933 21.904L5.73055 21.6673C4.94802 20.7522 4.55676 20.2947 4.6933 19.8556C4.82985 19.4165 5.40377 19.2866 6.55162 19.0269L6.84858 18.9597C7.17477 18.8859 7.33786 18.849 7.46881 18.7496C7.59976 18.6502 7.68375 18.4996 7.85172 18.1982L8.00465 17.9239Z" fill="#40BAD5"/>
</svg>
