<svg width="96" height="96" viewBox="0 0 96 96" fill="none" xmlns="http://www.w3.org/2000/svg">
<circle cx="48" cy="48" r="48" fill="#40BAD5" fill-opacity="0.1"/>
<path opacity="0.5" d="M29.3333 44.5V26.4166H66.6667V44.5C66.6667 51.6496 66.6667 55.2244 64.3235 57.4455C61.9804 59.6666 58.2092 59.6666 50.6667 59.6666H49.75H46.25H45.3333C37.7909 59.6666 34.0196 59.6666 31.6765 57.4455C29.3333 55.2244 29.3333 51.6496 29.3333 44.5Z" fill="#40BAD5"/>
<path d="M56.2374 41.0708C56.9209 40.3874 56.9209 39.2794 56.2374 38.5959C55.554 37.9125 54.446 37.9125 53.7626 38.5959L50.7458 41.6127C50.5823 41.7762 50.4498 41.9086 50.3333 42.0214C50.2169 41.9086 50.0843 41.7762 49.9209 41.6127L48.4971 40.1889C48.1588 39.8504 47.7931 39.4843 47.4427 39.217C47.0322 38.9038 46.4448 38.5666 45.6667 38.5666C44.8886 38.5666 44.3012 38.9038 43.8906 39.217C43.5402 39.4844 43.1744 39.8504 42.8361 40.189L39.7626 43.2626C39.0791 43.946 39.0791 45.0541 39.7626 45.7375C40.446 46.4209 41.554 46.4209 42.2374 45.7375L45.2542 42.7207C45.4177 42.5573 45.5502 42.4248 45.6667 42.3121C45.7831 42.4248 45.9157 42.5573 46.0791 42.7207L47.5028 44.1444C47.8411 44.483 48.2069 44.8491 48.5573 45.1164C48.9678 45.4296 49.5552 45.7668 50.3333 45.7668C51.1114 45.7668 51.6988 45.4296 52.1094 45.1164C52.4598 44.8491 52.8256 44.483 53.1639 44.1444L56.2374 41.0708Z" fill="#40BAD5"/>
<path d="M24.6667 22.9166C23.7002 22.9166 22.9167 23.7001 22.9167 24.6666C22.9167 25.6331 23.7002 26.4166 24.6667 26.4166H29.3333H66.6667H71.3333C72.2998 26.4166 73.0833 25.6331 73.0833 24.6666C73.0833 23.7001 72.2998 22.9166 71.3333 22.9166H24.6667Z" fill="#40BAD5"/>
<path d="M46.2504 59.6666V67.9184L42.5511 69.768C41.6866 70.2003 41.3362 71.2515 41.7685 72.1159C42.2007 72.9804 43.2519 73.3308 44.1164 72.8985L48.0004 70.9565L51.8844 72.8985C52.7489 73.3308 53.8001 72.9804 54.2323 72.1159C54.6645 71.2515 54.3141 70.2003 53.4497 69.768L49.7504 67.9184V59.6666H46.2504Z" fill="#40BAD5"/>
</svg>
