<svg xmlns="http://www.w3.org/2000/svg" xmlns:xlink="http://www.w3.org/1999/xlink" width="182.907" height="55.98" viewBox="0 0 182.907 55.98">
  <defs>
    <clipPath id="clip-path">
      <rect id="Rectangle_10057" data-name="Rectangle 10057" width="182.907" height="55.98" fill="#ffc700"/>
    </clipPath>
  </defs>
  <g id="Group_23172" data-name="Group 23172" clip-path="url(#clip-path)">
    <path id="Path_6164" data-name="Path 6164" d="M126.616,44.841c1.265.249,2.508.582,3.736.756,4.508.636,8.982,1.472,13.438,2.457a21.79,21.79,0,0,0,4.247.383c2.055.041,3.8,1.149,5.745,1.483.981.169.4,1.906,1.433,2.466-2.038.892-3.824-.3-5.7-.048,1,1.44,2.362.407,3.449.974.954.5,2.325.25,2.389,2.065-4.211,1.082-8.37.5-12.554-.128-3.845-.58-7.723-.873-11.584-1.31-4.45-.5-8.945-.406-13.37-.931-6.242-.741-12.5-.855-18.743-1.269-1.487-.1-2.971-.343-4.478-.308-5.981.143-11.95-.608-17.918-.511-2.2.035-4.437-.131-6.644-.07-3.371.092-6.8.494-10.21-.147-1.537-.289-3.227.182-4.789.184-3.464.006-6.935.481-10.427-.151-2.18-.4-4.47.05-6.708.026-5.583-.059-11.175.248-16.724-.9-1.665-.343-3.4-.247-5.026-1.357.662-1.209,1.893-.815,2.732-1.666-.081-.547-.913-.524-.89-1.169.019-.734.761-.744,1.06-1.2-1.13-1.088-1.13-1.088-.663-2.359C12.8,41.43,7.055,42.7,1.156,41.427a2.581,2.581,0,0,1,2.2-1.513,6.864,6.864,0,0,0,2.172-.748c-1.128-.255-2.279-.008-2.947-1.156.236-1.014,1.188-.361,1.626-.923-.052-1.069-1.133-.128-1.33-.907,1.2-2.107,3.291-1.731,5.043-2.385-2.069-.052-3.879-.978-5.8-1.882,1.278-2.219,3.375-1.224,5.4-1.994-1.986-.822-3.658-.168-5.351-.566a2.335,2.335,0,0,1,1.891-2.516c1.024-.325,2.306.236,3.145-1.051-1.791-.174-3.661.406-5.156-1.1.415-.665.406-.749,1.994-.98.937-.135,1.071-1.576,2.139-1.391a7.889,7.889,0,0,1-2.893-1.64c-.275-.926.942-.644.738-1.509a5.225,5.225,0,0,1-2.847-.64C1.6,16.951,3.228,17.8,4,16.626c-.912,0-1.738.023-2.563-.007C.777,16.6,0,16.458,0,15.545c0-.774.778-.823,1.345-.993,2.045-.618,4.281-.069,6.227-1.452a3.2,3.2,0,0,0-2.438-1.093,1.94,1.94,0,0,1,1.555-.858c-.44-.484-1.088-.624-.893-1.335.17-.62.684-.683,1.188-.645,1.613.124,3.142-.7,4.773-.548-2.565-.77-5.488.649-7.83-1.633C4.9,5.371,6.449,5.644,7.6,5.559c4.266-.314,8.442-1.326,12.682-1.815C25.873,3.1,31.488,2.7,37.058,1.755a44.416,44.416,0,0,1,6.059-.37c5.41-.167,10.831-.391,16.227-.669,3.727-.192,7.516.367,11.219-.634a3.978,3.978,0,0,1,2.1.174C74.346.739,76.015.042,77.7.039c8.244-.017,16.464.738,24.7.986,4.378.132,8.746.544,13.11.816,6.141.382,12.285,1.141,18.42,1.8,4.012.43,7.976,1.315,12.029,1.468,3.521.134,7.011,1.3,10.533,1.464,4.288.2,8.462,1.188,12.681,1.828,3.091.469,6.409.416,9.181,3.286-2.378.364-.711,3.522-2.864,4.233l1.279.535c-.987,2.231-2.591,1.924-4.331,1.383,1.268,2.041,3.808,1.827,4.973,4.6-1.625-.88-2.7.316-4.248-.113,1.021,1.019,2.33.777,2.8,2.094-.509,2.15-2.154,1.128-3.6,1.477a9.006,9.006,0,0,1,3.025,2.807c-2.522,1.783-4.924-1.047-7.4.209,2.11.252,4.167.5,5.1,3.109-.194.535-1.044.441-.971,1.316.175.473.641.13.9.322.64.466,1.928.078,1.851,1.447-.065,1.145-1.188.826-1.837,1.175.836.724,2.279.453,2.641,2.242-4.826.545-9.6-1.168-14,.609,1.46,1.127,3.722,1.667,5.667,3.452-1.345.91-2.377,1.265-3.6.8a4.406,4.406,0,0,0-1.585-.211c-2.824.014-5.771-.576-8.029,2.255.7.684,2.426-.042,2.559,1.732a1.16,1.16,0,0,1-1.429,1.32c.5-.9.289-1.565-.646-1.563a73.559,73.559,0,0,1-9.106-.831c-4.482-.55-8.978-.978-13.47-1.415a12.153,12.153,0,0,0-5.413.17m-103.9-.091a3.186,3.186,0,0,0,3.45.716,3.494,3.494,0,0,1,1.761-.209,40.082,40.082,0,0,0,8.786.347A106,106,0,0,1,48.926,45.3c5.1.188,10.2.551,15.288.27a51.947,51.947,0,0,1,7.793.227c4.654.443,9.305.031,13.956.534,4.667.5,9.387.348,14.077.638.7.043,1.476.08,2.183.153a66.448,66.448,0,0,0,7.124.1A454.46,454.46,0,0,0,22.712,44.75M93.084,33.644c.016-.192.032-.385.046-.577a160.491,160.491,0,0,0-26.4-.583l26.354,1.16M143.875,44.09c-8.1-2.291-16.345-2.826-24.595-3.331l24.595,3.331M76.323,6.9c-7.384-.226-14.794-.63-22.188.338,7.387-.36,14.777-.088,22.188-.338M17.564,36.726c-1.186-1.1-4.347-.874-6.221.448a11.868,11.868,0,0,0,6.221-.448M153.571,11.376,141.019,9.684a39.732,39.732,0,0,0,12.552,1.692M57.4,39.943c-.013-.134-.025-.269-.038-.4H47.953c0,.134,0,.269,0,.4Zm-15.583-.834c-1.647.339-3.365-.49-4.981.391,1.648-.334,3.409,1.2,4.981-.391" transform="translate(0 0)" fill="#ffc700"/>
    <path id="Path_6165" data-name="Path 6165" d="M181.9,10.917a5.152,5.152,0,0,1,3.038,2.608c-1.877.539-3.2-.594-3.038-2.608" transform="translate(-2.028 1.489)" fill="#ffc700"/>
    <path id="Path_6166" data-name="Path 6166" d="M158.828,47.029c.7-1.33.84-2.963,2.609-2.177-.269,1.555-1.067,2.069-2.609,2.177" transform="translate(-1.771 6.089)" fill="#ffc700"/>
    <path id="Path_6167" data-name="Path 6167" d="M174.988,34.884c.186,1.685-1.179,1.536-1.893,2.181-.177-.434-.714-.745-.218-1.334.572-.681,1.123-1.393,2.11-.847" transform="translate(-1.926 4.731)" fill="#ffc700"/>
  </g>
</svg>
