<svg xmlns="http://www.w3.org/2000/svg" xmlns:xlink="http://www.w3.org/1999/xlink" width="70" height="70" viewBox="0 0 48 75.181">
  <defs>
    <clipPath id="clip-path">
      <rect id="Rectangle_10068" data-name="Rectangle 10068" width="48" height="75.181" fill="none"/>
    </clipPath>
  </defs>
  <g id="Group_23182" data-name="Group 23182" transform="translate(0 0)">
    <g id="Mask_Group_23181" data-name="Mask Group 23181" transform="translate(0 0)" clip-path="url(#clip-path)">
      <path id="Path_6223" data-name="Path 6223" d="M0,7.375V67.81a7.381,7.381,0,0,0,7.375,7.373H40.625A7.381,7.381,0,0,0,48,67.81V7.375A7.383,7.383,0,0,0,40.625,0H7.375A7.383,7.383,0,0,0,0,7.375M7.375,2.944H40.625a4.437,4.437,0,0,1,4.432,4.431V67.81a4.435,4.435,0,0,1-4.432,4.429H7.375A4.435,4.435,0,0,1,2.944,67.81V7.375A4.436,4.436,0,0,1,7.375,2.944" transform="translate(0 -0.001)" fill="#1d3b53"/>
      <path id="Path_6224" data-name="Path 6224" d="M9.091,55.716H32.524a5.493,5.493,0,0,0,5.487-5.485V8.861a5.493,5.493,0,0,0-5.487-5.487H9.091A5.493,5.493,0,0,0,3.6,8.861v41.37a5.493,5.493,0,0,0,5.487,5.485M5.96,8.861A3.134,3.134,0,0,1,9.091,5.73H32.524a3.134,3.134,0,0,1,3.131,3.131v41.37a3.134,3.134,0,0,1-3.131,3.131H9.091A3.134,3.134,0,0,1,5.96,50.231Z" transform="translate(3.194 2.989)" fill="#1d3b53"/>
      <path id="Path_6225" data-name="Path 6225" d="M15.088,32.12a5.03,5.03,0,1,0,5.03,5.032,5.037,5.037,0,0,0-5.03-5.032m0,8.3a3.264,3.264,0,1,1,3.263-3.263,3.268,3.268,0,0,1-3.263,3.263" transform="translate(8.913 28.462)" fill="#1d3b53"/>
    </g>
  </g>
</svg>
