<svg xmlns="http://www.w3.org/2000/svg" xmlns:xlink="http://www.w3.org/1999/xlink" width="70" height="70" viewBox="0 0 45.78 53.097">
  <defs>
    <clipPath id="clip-path">
      <rect id="Rectangle_10069" data-name="Rectangle 10069" width="45.78" height="53.097" fill="none"/>
    </clipPath>
  </defs>
  <g id="Group_23183" data-name="Group 23183" clip-path="url(#clip-path)">
    <path id="Path_6226" data-name="Path 6226" d="M44.986,21.524H31.131V1.322c0-.73-.357-1.322-.8-1.322H15.455c-.439,0-.795.592-.795,1.322v8.77H.8c-.44,0-.8.594-.8,1.323V51.776c0,.73.356,1.322.8,1.322h44.19c.44,0,.795-.592.795-1.322V22.847c0-.731-.355-1.323-.795-1.323M36.332,39.472h2.649v11.51H36.332Zm7.859,10.98H39.934V38.678c0-.436-.213-.793-.477-.793h-3.6c-.263,0-.476.357-.476.793V50.452H31.12V24.169H44.191ZM1.589,12.736H14.66V50.452H10.4V38.678c0-.436-.213-.793-.477-.793h-3.6c-.263,0-.477.357-.477.793V50.452H1.589ZM6.8,39.472H9.449v11.51H6.8ZM29.531,22.847V50.452H24.963V38.678c0-.436-.213-.793-.477-.793h-3.6c-.263,0-.477.357-.477.793V50.452H16.249V2.645H29.541V22.687c0,.054-.01.1-.01.161M21.36,39.472h2.65v11.51H21.36Z" transform="translate(0 0)" fill="#6f42c1"/>
    <path id="Path_6227" data-name="Path 6227" d="M22.491,4.723H18.932c-.264,0-.477.357-.477.795v5.921c0,.439.213.793.477.793h3.559c.263,0,.477-.354.477-.793V5.518c0-.438-.213-.795-.477-.795m-.477,5.922H19.408V6.311h2.606Z" transform="translate(-0.464 2.936)" fill="#6f42c1"/>
    <path id="Path_6228" data-name="Path 6228" d="M28.035,4.723h-3.56c-.263,0-.477.357-.477.795v5.921c0,.439.214.793.477.793h3.56c.263,0,.477-.354.477-.793V5.518c0-.438-.213-.795-.477-.795m-.477,5.922H24.952V6.311h2.606Z" transform="translate(-0.603 2.936)" fill="#6f42c1"/>
    <path id="Path_6229" data-name="Path 6229" d="M22.491,10.7H18.932c-.264,0-.477.355-.477.793v5.921c0,.438.213.793.477.793h3.559c.263,0,.477-.355.477-.793V11.5c0-.438-.213-.793-.477-.793m-.477,5.919H19.408V12.289h2.606Z" transform="translate(-0.464 6.653)" fill="#6f42c1"/>
    <path id="Path_6230" data-name="Path 6230" d="M28.035,10.7h-3.56c-.263,0-.477.355-.477.793v5.921c0,.438.214.793.477.793h3.56c.263,0,.477-.355.477-.793V11.5c0-.438-.213-.793-.477-.793m-.477,5.919H24.952V12.289h2.606Z" transform="translate(-0.603 6.653)" fill="#6f42c1"/>
    <path id="Path_6231" data-name="Path 6231" d="M22.491,16.681H18.932c-.264,0-.477.355-.477.793v5.921c0,.439.213.793.477.793h3.559c.263,0,.477-.354.477-.793V17.474c0-.438-.213-.793-.477-.793M22.014,22.6H19.408V18.267h2.606Z" transform="translate(-0.464 10.369)" fill="#6f42c1"/>
    <path id="Path_6232" data-name="Path 6232" d="M28.035,16.681h-3.56c-.263,0-.477.355-.477.793v5.921c0,.439.214.793.477.793h3.56c.263,0,.477-.354.477-.793V17.474c0-.438-.213-.793-.477-.793M27.558,22.6H24.952V18.267h2.606Z" transform="translate(-0.603 10.369)" fill="#6f42c1"/>
    <path id="Path_6233" data-name="Path 6233" d="M3.725,18.21H7.284c.263,0,.477-.355.477-.793V11.5c0-.438-.213-.793-.477-.793H3.725c-.264,0-.477.355-.477.793v5.921c0,.438.213.793.477.793M4.2,12.289h2.6v4.333H4.2Z" transform="translate(-0.082 6.653)" fill="#6f42c1"/>
    <path id="Path_6234" data-name="Path 6234" d="M9.268,18.21h3.559c.264,0,.478-.355.478-.793V11.5c0-.438-.213-.793-.478-.793H9.268c-.263,0-.477.355-.477.793v5.921c0,.438.213.793.477.793m.478-5.921h2.606v4.333H9.745Z" transform="translate(-0.221 6.653)" fill="#6f42c1"/>
    <path id="Path_6235" data-name="Path 6235" d="M7.284,24.188c.263,0,.477-.354.477-.793V17.474c0-.438-.213-.793-.477-.793H3.725c-.264,0-.477.355-.477.793v5.921c0,.439.213.793.477.793ZM4.2,18.267h2.6V22.6H4.2Z" transform="translate(-0.082 10.369)" fill="#6f42c1"/>
    <path id="Path_6236" data-name="Path 6236" d="M9.268,24.188h3.559c.264,0,.478-.354.478-.793V17.474c0-.438-.213-.793-.478-.793H9.268c-.263,0-.477.355-.477.793v5.921c0,.439.213.793.477.793m.478-5.921h2.606V22.6H9.745Z" transform="translate(-0.221 10.369)" fill="#6f42c1"/>
    <path id="Path_6237" data-name="Path 6237" d="M34.016,24.188h3.56c.263,0,.477-.354.477-.793V17.474c0-.438-.213-.793-.477-.793h-3.56c-.262,0-.476.355-.476.793v5.921c0,.439.213.793.476.793m.478-5.921H37.1V22.6H34.493Z" transform="translate(-0.843 10.369)" fill="#6f42c1"/>
    <path id="Path_6238" data-name="Path 6238" d="M39.56,24.188h3.56c.263,0,.477-.354.477-.793V17.474c0-.438-.214-.793-.477-.793H39.56c-.263,0-.477.355-.477.793v5.921c0,.439.214.793.477.793m.478-5.921h2.606V22.6H40.037Z" transform="translate(-0.982 10.369)" fill="#6f42c1"/>
  </g>
</svg>
