<svg xmlns="http://www.w3.org/2000/svg" xmlns:xlink="http://www.w3.org/1999/xlink" width="70" height="70" viewBox="0 0 64 60.885">
  <defs>
    <clipPath id="clip-path">
      <rect id="Rectangle_10070" data-name="Rectangle 10070" width="64" height="60.885" fill="none"/>
    </clipPath>
  </defs>
  <g id="Group_23186" data-name="Group 23186" transform="translate(0 0)">
    <g id="Group_23185" data-name="Group 23185" transform="translate(0 0)" clip-path="url(#clip-path)">
      <path id="Path_6239" data-name="Path 6239" d="M15.876,16.193a.975.975,0,0,0,1.559.553l2.573-2.035V27.277H16.782a.975.975,0,0,0-.976.976V31.41a.978.978,0,0,0,.976.978H30.018a.951.951,0,0,0,.688-.285A.962.962,0,0,0,31,31.41V28.253a.978.978,0,0,0-.978-.976H26.81V8.292a.972.972,0,0,0-.976-.976H21.677a.976.976,0,0,0-.556.172l-5.673,3.927a.973.973,0,0,0-.4,1.013ZM21.71,8.4h4.014V28.363H29.91V31.3H16.892V28.363h4.2v-15.9l-4.2,3.319-.773-3.521Z" transform="translate(10 4.87)" fill="#f7c433"/>
      <path id="Path_6240" data-name="Path 6240" d="M.05,50.073a.938.938,0,0,0,.811.635l8.281.671L9.4,59.065a.938.938,0,0,0,1.566.665l15.411-13.9.739,2.027a2.134,2.134,0,0,0,1.957,1.577,2.314,2.314,0,0,0,1.765-.946l2.738-3.349a1.175,1.175,0,0,1,.906-.438,1.156,1.156,0,0,1,.791.311l3.2,2.91a2.429,2.429,0,0,0,1.614.695,1.857,1.857,0,0,0,1.149-.4L52.386,60.574a.937.937,0,0,0,1.627-.52l.879-7.517,8.254-.764a.94.94,0,0,0,.611-1.564l-13.7-15.193a.775.775,0,0,1,.047-.1,1.156,1.156,0,0,1,.753-.548l4.209-.981a2.051,2.051,0,0,0,1.076-3.623l-3-3.12a1.185,1.185,0,0,1-.333-.869,1.156,1.156,0,0,1,.413-.831L56.5,22.117a2.221,2.221,0,0,0,.863-2.1,2.218,2.218,0,0,0-1.6-1.611l-4.1-1.371a1.17,1.17,0,0,1-.7-.615,1.156,1.156,0,0,1-.018-.929l1.581-4.024a2.254,2.254,0,0,0-.122-2.139,2.136,2.136,0,0,0-2.248-.8l-4.269.69a1.158,1.158,0,0,1-1.354-1.031l-.47-4.3A2.057,2.057,0,0,0,42.092,1.84a2.5,2.5,0,0,0-1.491.551l-3.458,2.6A1.183,1.183,0,0,1,35.463,4.7L33.051,1.114A2.25,2.25,0,0,0,31.207,0a2.163,2.163,0,0,0-1.922,1.4L27.428,5.3a1.177,1.177,0,0,1-1.617.528l-3.8-2.057a2.138,2.138,0,0,0-2.617.22,2.341,2.341,0,0,0-.59,1.779l.173,4.322a1.157,1.157,0,0,1-1.188,1.219l-4.369-.053a2.2,2.2,0,0,0-2,1.006,2.227,2.227,0,0,0,.132,2.253l2.16,3.747A1.155,1.155,0,0,1,13.23,19.9L9.377,21.86A2.047,2.047,0,0,0,9.2,25.631l3.656,2.315a1.165,1.165,0,0,1,.53.761,1.151,1.151,0,0,1-.2.908l-2.5,3.529a2.052,2.052,0,0,0,1.6,3.423l1.74.142L.31,49.075a.936.936,0,0,0-.26,1m50.291-7.44a1.673,1.673,0,0,0,.165-.195,1.787,1.787,0,0,0,.423-.393,2.3,2.3,0,0,0,.268-2.054l-.388-1.339,10.3,11.424-7.147.663a.938.938,0,0,0-.846.824l-.726,6.216L42.135,46.41l.8-3.9a1.2,1.2,0,0,1,.158-.386,1.15,1.15,0,0,1,.829-.095l4.187,1.086a2.229,2.229,0,0,0,2.233-.486m-37.911-7.9a.709.709,0,0,1-.418-.125.153.153,0,0,1,0-.04.86.86,0,0,1,.17-.366l2.5-3.528a3.267,3.267,0,0,0,.3-.54,2.992,2.992,0,0,0-1.154-3.744L10.182,24.08a1.187,1.187,0,0,1-.243-.2l0,0a.272.272,0,0,1-.063-.1c0-.027.078-.15.338-.28l1.98-1.009,1.872-.954a2.985,2.985,0,0,0,1.294-4.086c-.018-.033-.033-.068-.052-.1L13.145,13.6a.889.889,0,0,1-.137-.378l0-.037a.172.172,0,0,1,.042-.025.884.884,0,0,1,.386-.065l1.114.013,3.249.04a2.994,2.994,0,0,0,2.816-1.934c.015-.035.018-.075.03-.11a3.036,3.036,0,0,0,.16-1.086L20.636,5.7c-.012-.291.058-.416.115-.435a.84.84,0,0,1,.38.123l3.126,1.689.681.368c.047.025.093.043.14.065a3.015,3.015,0,0,0,1.3.3A2.962,2.962,0,0,0,28.423,7a3.052,3.052,0,0,0,.665-.906l1.857-3.907a1.3,1.3,0,0,1,.1-.182.7.7,0,0,1,.135-.152l.025-.015a.311.311,0,0,1,.07.037.367.367,0,0,1,.057.043,1.039,1.039,0,0,1,.193.223l1.636,2.433.778,1.156a3.018,3.018,0,0,0,.678.716,2.986,2.986,0,0,0,1.812.623,3.178,3.178,0,0,0,.576-.062,3.029,3.029,0,0,0,1.237-.548l1.414-1.063L41.7,3.861a.808.808,0,0,1,.366-.182l.03,0a.7.7,0,0,1,.14.416l.468,4.3a2.966,2.966,0,0,0,1.214,2.1,2.981,2.981,0,0,0,2.258.543l4.272-.691a.938.938,0,0,1,.433.018.119.119,0,0,1,.008.035.829.829,0,0,1-.075.4l-1.582,4.024a3.038,3.038,0,0,0-.1.293v0c-.007.023-.01.045-.017.067a2.972,2.972,0,0,0,.047,1.667,3.062,3.062,0,0,0,.135.348,2.863,2.863,0,0,0,.237.4,2.993,2.993,0,0,0,1.542,1.183L54.142,19.8l1.041.348a.9.9,0,0,1,.333.175.344.344,0,0,1,.045.045.444.444,0,0,1-.1.182,1.365,1.365,0,0,1-.165.172L53.244,22.5l-1.219,1.054a3,3,0,0,0-.2,4.362l3,3.12a.73.73,0,0,1,.23.37v0l-.02.02-.007.01h0a.844.844,0,0,1-.37.158l-4.21.986a2.983,2.983,0,0,0-1.919,1.406,2.864,2.864,0,0,0-.228.493l-.007.018a2.817,2.817,0,0,0-.133.521v0a2.03,2.03,0,0,0-.39,1.732l1.2,4.152-4.124-1.069a2.991,2.991,0,0,0-.513-.082c-.088-.008-.173-.018-.26-.018a2.852,2.852,0,0,0-.465.042c-.033,0-.067.008-.1.013a3.05,3.05,0,0,0-.39.1c-.053.018-.1.037-.157.058-.08.033-.158.07-.235.107-.1.053-.2.11-.291.172-.032.022-.063.042-.095.065a3.114,3.114,0,0,0-.406.348l0,0a3,3,0,0,0-1.261,1.89l-.746,3.643a.92.92,0,0,0,.067.571,1.011,1.011,0,0,1-.1-.058l-.023-.013a1.433,1.433,0,0,1-.147-.117l-3.2-2.908a3.02,3.02,0,0,0-.789-.51,2.915,2.915,0,0,0-2.7.107,3.154,3.154,0,0,0-.43.293,3.075,3.075,0,0,0-.436.435l-2.74,3.349a1.184,1.184,0,0,1-.1.113,1.143,1.143,0,0,1-.108.093l-.01.008-.01,0a.294.294,0,0,1-.107.052l-.033-.025,0,0a.914.914,0,0,1-.2-.343l-1-2.731a.937.937,0,0,0,.217-.978l-.07-.19a3.011,3.011,0,0,0-1.636-1.745,2.948,2.948,0,0,0-.8-.22,3.085,3.085,0,0,0-.48-.13l-.012,0a2.914,2.914,0,0,0-.515-.047,3.063,3.063,0,0,0-.6.06l0,0a3.2,3.2,0,0,0-.583.183l0,0L19.53,43.059a.931.931,0,0,1,.008-.113l.576-4.287v0a2.987,2.987,0,0,0-2.588-3.389h0a2.816,2.816,0,0,0-.318-.1,2.846,2.846,0,0,0-.466-.087l-1.457-.117Zm3.8,2.51.951-.117a1.123,1.123,0,0,1,.238.215,1.158,1.158,0,0,1,.242.9l-.571,4.285a2.342,2.342,0,0,0,.476,1.892,1.843,1.843,0,0,0,1.133.6A2.348,2.348,0,0,0,20.713,45l3.979-1.692a1.194,1.194,0,0,1,.461-.1,1.161,1.161,0,0,1,.48.585l.048.133L11.208,56.985l-.218-6.5a.936.936,0,0,0-.861-.9l-6.947-.566Z" transform="translate(0 0.001)" fill="#f7c32e"/>
    </g>
  </g>
</svg>
