<svg xmlns="http://www.w3.org/2000/svg" xmlns:xlink="http://www.w3.org/1999/xlink" width="70" height="70" viewBox="0 0 80 61.573">
  <defs>
    <clipPath id="clip-path">
      <rect id="Rectangle_10067" data-name="Rectangle 10067" width="80" height="61.573" fill="none"/>
    </clipPath>
  </defs>
  <g id="Group_23180" data-name="Group 23180" transform="translate(0 0)">
    <g id="Group_23179" data-name="Group 23179" transform="translate(0 0)" clip-path="url(#clip-path)">
      <path id="Path_6219" data-name="Path 6219" d="M5.89,11.709H39a.983.983,0,0,0,0-1.966H5.89a.983.983,0,1,0,0,1.966" transform="translate(4.722 9.375)" fill="#2aafc0"/>
      <path id="Path_6220" data-name="Path 6220" d="M39,23.554H5.89a.983.983,0,1,0,0,1.966H39a.983.983,0,1,0,0-1.966" transform="translate(4.722 22.664)" fill="#2aafc0"/>
      <path id="Path_6221" data-name="Path 6221" d="M78.207,2.253l-.061-.067a5.847,5.847,0,0,0-4.2-1.917,6.355,6.355,0,0,0-4.132,1.766L57.034,14.813a.985.985,0,0,0-.288.695.972.972,0,0,0,.037.251l-.759.761-.347-.347-1.344,1.344V0H0V61.573H54.332V34.363L64.1,24.6l-.347-.349.761-.759a1.1,1.1,0,0,0,.251.037.989.989,0,0,0,.7-.288L78.052,10.643A6.685,6.685,0,0,0,80,6.338a5.65,5.65,0,0,0-1.793-4.085M52.366,36.329V59.607H1.966V1.964h50.4V19.481L41.393,30.454l.789.787-.267,1.536h-31.3a.983.983,0,1,0,0,1.966H41.576l-.83,4.813,8.312-1.438.759.757,2.549-2.547.983-.983ZM43.3,38.583l-1.823.343-.128.024.341-1.976.426.428.916-5.31,5.174,5.174-5.308.916ZM49.817,36.1l-5.643-5.643,11.5-11.5L61.32,24.6ZM62.709,23.9l-6.338-6.34.651-.651,6.338,6.34ZM76.68,9.236,64.763,21.151,59.12,15.507,71.2,3.424l.006-.006a4.4,4.4,0,0,1,2.747-1.183,3.937,3.937,0,0,1,2.779,1.321.677.677,0,0,0,.049.053,3.769,3.769,0,0,1,1.252,2.684A4.739,4.739,0,0,1,76.68,9.236" transform="translate(0 0)" fill="#2aafc0"/>
      <path id="Path_6222" data-name="Path 6222" d="M29.176,11.437a.862.862,0,0,0,1.221,0L39.46,2.373a.86.86,0,0,0,0-1.219l-.014-.014a.862.862,0,0,0-1.221,0L29.164,10.2a.862.862,0,0,0,0,1.221Z" transform="translate(27.819 0.855)" fill="#2aafc0"/>
    </g>
  </g>
</svg>
