<svg width="96" height="96" viewBox="0 0 96 96" fill="none" xmlns="http://www.w3.org/2000/svg">
<circle cx="48" cy="48" r="48" fill="#40BAD5" fill-opacity="0.1"/>
<path fill-rule="evenodd" clip-rule="evenodd" d="M56.5584 36.3334C56.5584 35.3669 57.3419 34.5834 58.3084 34.5834H71.3334C72.2999 34.5834 73.0834 35.3669 73.0834 36.3334V49.2737C73.0834 50.2402 72.2999 51.0237 71.3334 51.0237C70.3669 51.0237 69.5834 50.2402 69.5834 49.2737V38.0834H58.3084C57.3419 38.0834 56.5584 37.2999 56.5584 36.3334Z" fill="#40BAD5"/>
<path opacity="0.5" d="M67.1038 38.0834L52.8805 52.2064C51.6816 53.398 50.9043 54.1653 50.2571 54.6563C49.6504 55.1166 49.3667 55.168 49.1788 55.168C48.9909 55.168 48.7072 55.1165 48.1006 54.656C47.4535 54.1649 46.6764 53.3974 45.4777 52.2055L44.8378 51.5692C43.7428 50.4803 42.7991 49.5418 41.9421 48.8914C41.0234 48.1942 40.0026 47.6668 38.7459 47.6672C37.4892 47.6677 36.4687 48.1958 35.5506 48.8937C34.694 49.5447 33.7509 50.4839 32.6568 51.5736L23.4318 60.76C22.747 61.442 22.7447 62.55 23.4266 63.2349C24.1086 63.9197 25.2167 63.9221 25.9015 63.2401L35.0451 54.1348C36.2439 52.941 37.0212 52.1722 37.6685 51.6802C38.2753 51.2189 38.5592 51.1673 38.7472 51.1672C38.9351 51.1672 39.219 51.2186 39.8262 51.6794C40.4739 52.1709 41.2517 52.9391 42.4514 54.1321L43.0913 54.7683C44.1853 55.8563 45.1282 56.794 45.9846 57.444C46.9025 58.1407 47.9226 58.6678 49.1784 58.668C50.4342 58.6681 51.4543 58.1412 52.3725 57.4447C53.229 56.7949 54.1722 55.8574 55.2664 54.7697L69.5836 40.5534V38.0834H67.1038Z" fill="#40BAD5"/>
</svg>
