<svg id="Group_23213" data-name="Group 23213" xmlns="http://www.w3.org/2000/svg" xmlns:xlink="http://www.w3.org/1999/xlink" width="106.913" height="123.481" viewBox="0 0 127.261 107.165">
  <defs>
    <clipPath id="clip-path">
      <rect id="Rectangle_10259" data-name="Rectangle 10259" width="127.261" height="107.165" transform="translate(0 0)" fill="none"/>
    </clipPath>
  </defs>
  <path id="Path_6265" data-name="Path 6265" d="M42.921,84.984V76.14H1.648V90.2H46.256Z" fill="#2aafc0"/>
  <rect id="Rectangle_10208" data-name="Rectangle 10208" width="21.178" height="14.057" transform="translate(104.437 76.14)" fill="#2aafc0"/>
  <g id="Group_23212" data-name="Group 23212">
    <g id="Group_23211" data-name="Group 23211" clip-path="url(#clip-path)">
      <path id="Path_6266" data-name="Path 6266" d="M104.437,63.985h9.3V38.549H88.3v10.94A6.739,6.739,0,0,1,93.9,56.115v1.361a5.809,5.809,0,0,1,4.442-2.163c3.357,0,6.09,3.025,6.09,6.741Z" fill="#dadde0"/>
      <path id="Path_6267" data-name="Path 6267" d="M0,91.844H47.31l9.559,14.942,1.388-.888L44.567,84.5V49.873c5.831.574,7.419,7.242,7.419,11.252h1.647c0-6.441-3.057-12.938-9.889-12.938H42.92V74.494H1.648V1.646H125.615V74.494H104.437V65.632h10.945V36.9H86.652V49.425a6.7,6.7,0,0,0-4.586,2.326v-.385A6.713,6.713,0,0,0,70.228,47V31.648a6.743,6.743,0,0,0-13.486,0V84.743h1.644V31.648a5.1,5.1,0,0,1,10.2,0V70.39h1.646V51.366a5.1,5.1,0,1,1,10.192,0V70.39h1.646V56.116a5.1,5.1,0,1,1,10.191,0V70.39H93.9V62.054c0-2.809,1.991-5.094,4.441-5.094s4.445,2.285,4.445,5.094v44.288h1.646v-14.5H127.26V0H0ZM98.346,55.313A5.808,5.808,0,0,0,93.9,57.476v-1.36A6.741,6.741,0,0,0,88.3,49.489V38.55h25.435V63.985h-9.3V62.054c0-3.716-2.734-6.741-6.091-6.741M125.615,90.2H104.437V76.14h21.178ZM1.648,76.14H42.92v8.844L46.256,90.2H1.648Z"/>
      <rect id="Rectangle_10209" data-name="Rectangle 10209" width="1.646" height="1.402" transform="translate(10.867 55.658)"/>
      <rect id="Rectangle_10210" data-name="Rectangle 10210" width="1.646" height="1.402" transform="translate(10.868 52.571)"/>
      <rect id="Rectangle_10211" data-name="Rectangle 10211" width="1.646" height="1.402" transform="translate(10.868 49.488)"/>
      <rect id="Rectangle_10212" data-name="Rectangle 10212" width="1.646" height="1.402" transform="translate(10.868 46.403)"/>
      <rect id="Rectangle_10213" data-name="Rectangle 10213" width="1.646" height="1.402" transform="translate(10.868 43.317)"/>
      <rect id="Rectangle_10214" data-name="Rectangle 10214" width="1.646" height="1.401" transform="translate(10.868 40.234)"/>
      <rect id="Rectangle_10215" data-name="Rectangle 10215" width="1.402" height="1.646" transform="translate(14.198 36.903)"/>
      <rect id="Rectangle_10216" data-name="Rectangle 10216" width="1.402" height="1.646" transform="translate(17.283 36.903)"/>
      <rect id="Rectangle_10217" data-name="Rectangle 10217" width="1.402" height="1.646" transform="translate(20.368 36.903)"/>
      <rect id="Rectangle_10218" data-name="Rectangle 10218" width="1.402" height="1.646" transform="translate(23.452 36.903)"/>
      <rect id="Rectangle_10219" data-name="Rectangle 10219" width="1.402" height="1.646" transform="translate(26.537 36.903)"/>
      <rect id="Rectangle_10220" data-name="Rectangle 10220" width="1.402" height="1.646" transform="translate(29.623 36.903)"/>
      <rect id="Rectangle_10221" data-name="Rectangle 10221" width="1.647" height="1.401" transform="translate(32.708 40.234)"/>
      <rect id="Rectangle_10222" data-name="Rectangle 10222" width="1.647" height="1.402" transform="translate(32.708 43.317)"/>
      <rect id="Rectangle_10223" data-name="Rectangle 10223" width="1.647" height="1.402" transform="translate(32.708 46.403)"/>
      <rect id="Rectangle_10224" data-name="Rectangle 10224" width="1.647" height="1.402" transform="translate(32.708 49.488)"/>
      <rect id="Rectangle_10225" data-name="Rectangle 10225" width="1.647" height="1.402" transform="translate(32.708 52.571)"/>
      <rect id="Rectangle_10226" data-name="Rectangle 10226" width="1.647" height="1.402" transform="translate(32.707 55.658)"/>
      <rect id="Rectangle_10227" data-name="Rectangle 10227" width="1.402" height="1.647" transform="translate(29.622 58.742)"/>
      <rect id="Rectangle_10228" data-name="Rectangle 10228" width="1.402" height="1.647" transform="translate(26.536 58.742)"/>
      <rect id="Rectangle_10229" data-name="Rectangle 10229" width="1.402" height="1.647" transform="translate(23.451 58.742)"/>
      <rect id="Rectangle_10230" data-name="Rectangle 10230" width="1.402" height="1.647" transform="translate(20.367 58.742)"/>
      <rect id="Rectangle_10231" data-name="Rectangle 10231" width="1.402" height="1.647" transform="translate(17.282 58.742)"/>
      <rect id="Rectangle_10232" data-name="Rectangle 10232" width="1.402" height="1.647" transform="translate(14.197 58.742)"/>
      <rect id="Rectangle_10233" data-name="Rectangle 10233" width="35.16" height="1.646" transform="translate(11.691 26.504)"/>
      <rect id="Rectangle_10234" data-name="Rectangle 10234" width="1.475" height="1.646" transform="translate(78.434 26.504)"/>
      <rect id="Rectangle_10235" data-name="Rectangle 10235" width="1.474" height="1.646" transform="translate(81.676 26.504)"/>
      <rect id="Rectangle_10236" data-name="Rectangle 10236" width="1.474" height="1.646" transform="translate(84.916 26.504)"/>
      <rect id="Rectangle_10237" data-name="Rectangle 10237" width="1.474" height="1.646" transform="translate(88.157 26.504)"/>
      <rect id="Rectangle_10238" data-name="Rectangle 10238" width="1.474" height="1.646" transform="translate(91.398 26.504)"/>
      <rect id="Rectangle_10239" data-name="Rectangle 10239" width="1.473" height="1.646" transform="translate(94.639 26.504)"/>
      <rect id="Rectangle_10240" data-name="Rectangle 10240" width="1.473" height="1.646" transform="translate(97.88 26.504)"/>
      <rect id="Rectangle_10241" data-name="Rectangle 10241" width="1.475" height="1.646" transform="translate(101.12 26.504)"/>
      <rect id="Rectangle_10242" data-name="Rectangle 10242" width="1.475" height="1.646" transform="translate(104.361 26.504)"/>
      <rect id="Rectangle_10243" data-name="Rectangle 10243" width="1.473" height="1.646" transform="translate(107.601 26.504)"/>
      <rect id="Rectangle_10244" data-name="Rectangle 10244" width="1.474" height="1.646" transform="translate(110.842 26.504)"/>
      <rect id="Rectangle_10245" data-name="Rectangle 10245" width="102.867" height="1.647" transform="translate(11.691 15.911)"/>
      <rect id="Rectangle_10246" data-name="Rectangle 10246" width="1.543" height="1.646" transform="translate(100.215 105.519)"/>
      <rect id="Rectangle_10247" data-name="Rectangle 10247" width="1.545" height="1.646" transform="translate(96.814 105.519)"/>
      <rect id="Rectangle_10248" data-name="Rectangle 10248" width="1.545" height="1.646" transform="translate(93.414 105.519)"/>
      <rect id="Rectangle_10249" data-name="Rectangle 10249" width="1.546" height="1.646" transform="translate(90.014 105.519)"/>
      <rect id="Rectangle_10250" data-name="Rectangle 10250" width="1.546" height="1.646" transform="translate(86.614 105.519)"/>
      <rect id="Rectangle_10251" data-name="Rectangle 10251" width="1.545" height="1.646" transform="translate(83.215 105.519)"/>
      <rect id="Rectangle_10252" data-name="Rectangle 10252" width="1.545" height="1.646" transform="translate(79.816 105.519)"/>
      <rect id="Rectangle_10253" data-name="Rectangle 10253" width="1.545" height="1.646" transform="translate(76.416 105.519)"/>
      <rect id="Rectangle_10254" data-name="Rectangle 10254" width="1.543" height="1.646" transform="translate(73.017 105.519)"/>
      <rect id="Rectangle_10255" data-name="Rectangle 10255" width="1.543" height="1.646" transform="translate(69.617 105.519)"/>
      <rect id="Rectangle_10256" data-name="Rectangle 10256" width="1.545" height="1.646" transform="translate(66.216 105.519)"/>
      <rect id="Rectangle_10257" data-name="Rectangle 10257" width="1.545" height="1.646" transform="translate(62.816 105.519)"/>
      <rect id="Rectangle_10258" data-name="Rectangle 10258" width="1.547" height="1.646" transform="translate(59.416 105.519)"/>
    </g>
  </g>
</svg>
