<svg id="Group_23209" data-name="Group 23209" xmlns="http://www.w3.org/2000/svg" xmlns:xlink="http://www.w3.org/1999/xlink" width="106.913" height="123.481" viewBox="0 0 123.855 110.347">
  <defs>
    <clipPath id="clip-path">
      <rect id="Rectangle_10207" data-name="Rectangle 10207" width="123.855" height="110.347" fill="none"/>
    </clipPath>
  </defs>
  <g id="Group_23208" data-name="Group 23208" clip-path="url(#clip-path)">
    <path id="Path_6259" data-name="Path 6259" d="M79.317,82.373A20.492,20.492,0,1,1,96,73.726L110.8,88.533h9.018V1.646H1.645V88.533h99.4l-9.928-9.928a20.277,20.277,0,0,1-11.8,3.768m8.374-48.695H86.2V32.03h1.488Zm3.277,0H89.48V32.03h1.488Zm3.278,0H92.757V32.03h1.489Zm3.277,0H96.032V32.03h1.491Zm1.787-1.647H100.8v1.647H99.31Zm1.9,42.738H99.612V73.121h1.593Zm3.506,0h-1.594V73.121h1.594Zm-2.124-42.738h1.489v1.647h-1.489Zm5.63,42.738h-1.594V73.121h1.594Zm-2.354-42.738h1.489v1.647h-1.489Zm5.858,42.738h-1.592V73.121h1.592ZM109.14,32.031h1.488v1.647H109.14Zm8,41.09h1.593v1.648H117.14Zm-3.506,0h1.593v1.648h-1.593ZM84.143,11.358h28.273v1.648H84.143Zm0,10.337h28.273v1.646H84.143ZM82.926,32.031h1.491v1.647H82.926Zm-3.276,0h1.489v1.647H79.65ZM61.48,33.678H59.989V32.03H61.48Zm3.275,0H63.267V32.03h1.488Zm3.276,0H66.543V32.03h1.488Zm3.279,0H69.821V32.03H71.31Zm3.277,0H73.1V32.03h1.491Zm3.274,0H76.373V32.03h1.488Zm-30.7-22.32H77.086V23.434H47.165Zm-.282,20.673h1.489v1.647H46.883ZM9.052,63.042H47.989v1.647H9.052ZM17.9,74.769H16.343V73.121H17.9Zm-3.415,0H12.929V73.121H14.48Zm-3.413,0H9.513V73.121h1.554Zm-.175-22.063h1.533v1.647H10.892Zm3.372,0H15.8v1.647H14.264Zm3.373,0H19.17v1.647H17.637Zm3.373,0h1.531v1.647H21.01Zm3.371,0h1.533v1.647H24.381Zm3.373,0h1.534v1.647H27.754Zm3.373,0h1.532v1.647H31.127Zm3.372,0h1.532v1.647H34.5Zm3.371,0H39.4v1.647H37.87Zm3.373,0h1.534v1.647H41.243Zm3.374,0h1.531v1.647H44.617ZM9.052,42.37H47.989v1.646H9.052ZM43.606,32.031h1.488v1.647H43.606Zm-3.276,0h1.488v1.647H40.33Zm-1.786,1.647H37.053V32.03h1.491ZM36.5,14.887h1.648v1.569H36.5Zm0,3.45h1.648v1.569H36.5ZM35.266,33.678H33.778V32.03h1.488Zm-2.291-22.32H34.58v1.648H32.975Zm0,10.43H34.58v1.645H32.975Zm-.987,11.89H30.5V32.03h1.488Zm-2.542-22.32h1.6v1.648h-1.6Zm0,10.43h1.6v1.645h-1.6Zm-.734,11.89H27.223V32.03h1.489Zm-2.8-22.32h1.6v1.648h-1.6Zm0,10.43h1.6v1.645h-1.6Zm-.48,11.89H23.947V32.03h1.489Zm-3.048-22.32h1.6v1.648h-1.6Zm0,10.43h1.6v1.645h-1.6ZM20.67,32.031h1.489v1.647H20.67ZM18.86,11.358h1.6v1.648h-1.6Zm0,10.43h1.6v1.645h-1.6ZM17.394,32.031h1.488v1.647H17.394ZM15.33,11.358h1.6v1.648h-1.6Zm0,10.43h1.6v1.645h-1.6ZM14.116,32.031H15.6v1.647H14.116ZM11.8,11.358h1.6v1.648H11.8Zm0,10.43h1.6v1.645H11.8Zm-.962,10.243h1.491v1.647H10.838ZM8.228,14.887H9.875v1.569H8.228Zm0,3.45H9.875v1.569H8.228ZM4.235,74.769H2.684V73.121H4.235Zm3.417,0H6.1V73.121H7.652Zm5.454,11.66a4.88,4.88,0,1,1,4.88-4.879,4.885,4.885,0,0,1-4.88,4.879m8.2-11.66H19.759V73.121H21.31Zm3.416,0H23.172V73.121h1.554Zm3.413,0H26.587V73.121h1.552Zm3.416,0H30V73.121h1.554Zm3.414,0H33.416V73.121h1.553Zm3.415,0H36.83V73.121h1.554Zm3.414,0H40.246V73.121H41.8Zm3.415,0H43.66V73.121h1.553Zm3.413,0H47.075V73.121h1.551Zm1.533-42.738h1.488v1.647H50.159Zm1.884,42.738H50.489V73.121h1.554Zm1.393-42.738h1.488v1.647H53.436Zm2.02,42.738H53.9V73.121h1.552Zm1.258-42.738H58.2v1.647H56.714Zm2.158,42.738H57.319V73.121h1.553Z" fill="#bed5da"/>
    <rect id="Rectangle_10110" data-name="Rectangle 10110" width="66.26" height="4.561" transform="translate(27.603 104.14)" fill="#2aafc0"/>
    <rect id="Rectangle_10111" data-name="Rectangle 10111" width="3.606" height="19.343" transform="translate(105.299 90.46) rotate(-45.002)" fill="#dadde0"/>
    <path id="Path_6260" data-name="Path 6260" d="M68.958,51.565a14.654,14.654,0,0,0,0,20.724l1.165-1.164a13.007,13.007,0,0,1,0-18.4Z"/>
    <path id="Path_6261" data-name="Path 6261" d="M121.467,90.18V0H0V90.18H102.69l16.287,16.285,4.878-4.879L112.45,90.18ZM1.645,88.532V1.645H119.821V88.532H110.8L96,73.726A20.49,20.49,0,1,0,91.117,78.6l9.928,9.928ZM92.61,75.219a18.8,18.8,0,1,1,5.508-13.292A18.672,18.672,0,0,1,92.61,75.219m-.174,2.38c.458-.387.909-.786,1.339-1.216s.827-.878,1.212-1.335l11.7,11.7-2.55,2.55Zm29.09,23.987-2.549,2.551L105.3,90.459l2.55-2.55Z"/>
    <rect id="Rectangle_10112" data-name="Rectangle 10112" width="1.593" height="1.648" transform="translate(99.612 73.121)"/>
    <rect id="Rectangle_10113" data-name="Rectangle 10113" width="1.594" height="1.648" transform="translate(103.117 73.121)"/>
    <rect id="Rectangle_10114" data-name="Rectangle 10114" width="1.594" height="1.648" transform="translate(106.623 73.121)"/>
    <rect id="Rectangle_10115" data-name="Rectangle 10115" width="1.592" height="1.648" transform="translate(110.129 73.121)"/>
    <rect id="Rectangle_10116" data-name="Rectangle 10116" width="1.593" height="1.648" transform="translate(113.634 73.121)"/>
    <rect id="Rectangle_10117" data-name="Rectangle 10117" width="1.593" height="1.648" transform="translate(117.139 73.121)"/>
    <rect id="Rectangle_10118" data-name="Rectangle 10118" width="1.551" height="1.648" transform="translate(2.685 73.121)"/>
    <rect id="Rectangle_10119" data-name="Rectangle 10119" width="1.553" height="1.648" transform="translate(6.1 73.121)"/>
    <rect id="Rectangle_10120" data-name="Rectangle 10120" width="1.554" height="1.648" transform="translate(9.513 73.121)"/>
    <rect id="Rectangle_10121" data-name="Rectangle 10121" width="1.551" height="1.648" transform="translate(12.929 73.121)"/>
    <rect id="Rectangle_10122" data-name="Rectangle 10122" width="1.552" height="1.648" transform="translate(16.343 73.121)"/>
    <rect id="Rectangle_10123" data-name="Rectangle 10123" width="1.551" height="1.648" transform="translate(19.759 73.121)"/>
    <rect id="Rectangle_10124" data-name="Rectangle 10124" width="1.554" height="1.648" transform="translate(23.172 73.121)"/>
    <rect id="Rectangle_10125" data-name="Rectangle 10125" width="1.552" height="1.648" transform="translate(26.587 73.121)"/>
    <rect id="Rectangle_10126" data-name="Rectangle 10126" width="1.554" height="1.648" transform="translate(30.001 73.121)"/>
    <rect id="Rectangle_10127" data-name="Rectangle 10127" width="1.553" height="1.648" transform="translate(33.416 73.121)"/>
    <rect id="Rectangle_10128" data-name="Rectangle 10128" width="1.554" height="1.648" transform="translate(36.83 73.121)"/>
    <rect id="Rectangle_10129" data-name="Rectangle 10129" width="1.552" height="1.648" transform="translate(40.246 73.121)"/>
    <rect id="Rectangle_10130" data-name="Rectangle 10130" width="1.553" height="1.648" transform="translate(43.66 73.121)"/>
    <rect id="Rectangle_10131" data-name="Rectangle 10131" width="1.551" height="1.648" transform="translate(47.075 73.121)"/>
    <rect id="Rectangle_10132" data-name="Rectangle 10132" width="1.554" height="1.648" transform="translate(50.489 73.121)"/>
    <rect id="Rectangle_10133" data-name="Rectangle 10133" width="1.552" height="1.648" transform="translate(53.904 73.121)"/>
    <rect id="Rectangle_10134" data-name="Rectangle 10134" width="1.553" height="1.648" transform="translate(57.319 73.121)"/>
    <rect id="Rectangle_10135" data-name="Rectangle 10135" width="1.647" height="1.569" transform="translate(8.228 18.337)"/>
    <rect id="Rectangle_10136" data-name="Rectangle 10136" width="1.647" height="1.569" transform="translate(8.228 14.887)"/>
    <rect id="Rectangle_10137" data-name="Rectangle 10137" width="1.605" height="1.648" transform="translate(11.8 11.358)"/>
    <rect id="Rectangle_10138" data-name="Rectangle 10138" width="1.604" height="1.648" transform="translate(15.33 11.358)"/>
    <rect id="Rectangle_10139" data-name="Rectangle 10139" width="1.602" height="1.648" transform="translate(18.86 11.358)"/>
    <rect id="Rectangle_10140" data-name="Rectangle 10140" width="1.604" height="1.648" transform="translate(22.388 11.358)"/>
    <rect id="Rectangle_10141" data-name="Rectangle 10141" width="1.604" height="1.648" transform="translate(25.916 11.358)"/>
    <rect id="Rectangle_10142" data-name="Rectangle 10142" width="1.604" height="1.648" transform="translate(29.446 11.358)"/>
    <rect id="Rectangle_10143" data-name="Rectangle 10143" width="1.604" height="1.648" transform="translate(32.975 11.358)"/>
    <rect id="Rectangle_10144" data-name="Rectangle 10144" width="1.647" height="1.569" transform="translate(36.504 14.887)"/>
    <rect id="Rectangle_10145" data-name="Rectangle 10145" width="1.647" height="1.569" transform="translate(36.504 18.337)"/>
    <rect id="Rectangle_10146" data-name="Rectangle 10146" width="1.604" height="1.645" transform="translate(32.975 21.788)"/>
    <rect id="Rectangle_10147" data-name="Rectangle 10147" width="1.604" height="1.645" transform="translate(29.446 21.788)"/>
    <rect id="Rectangle_10148" data-name="Rectangle 10148" width="1.604" height="1.645" transform="translate(25.916 21.788)"/>
    <rect id="Rectangle_10149" data-name="Rectangle 10149" width="1.604" height="1.645" transform="translate(22.388 21.788)"/>
    <rect id="Rectangle_10150" data-name="Rectangle 10150" width="1.602" height="1.645" transform="translate(18.86 21.788)"/>
    <rect id="Rectangle_10151" data-name="Rectangle 10151" width="1.604" height="1.645" transform="translate(15.33 21.788)"/>
    <rect id="Rectangle_10152" data-name="Rectangle 10152" width="1.605" height="1.645" transform="translate(11.8 21.788)"/>
    <path id="Path_6262" data-name="Path 6262" d="M77.086,11.358H47.165V23.434H77.086ZM75.44,21.788H48.811V13.005H75.44Z"/>
    <rect id="Rectangle_10153" data-name="Rectangle 10153" width="28.273" height="1.648" transform="translate(84.143 11.358)"/>
    <rect id="Rectangle_10154" data-name="Rectangle 10154" width="28.273" height="1.646" transform="translate(84.143 21.695)"/>
    <rect id="Rectangle_10155" data-name="Rectangle 10155" width="38.936" height="1.646" transform="translate(9.052 42.37)"/>
    <rect id="Rectangle_10156" data-name="Rectangle 10156" width="1.533" height="1.647" transform="translate(10.892 52.707)"/>
    <rect id="Rectangle_10157" data-name="Rectangle 10157" width="1.533" height="1.647" transform="translate(14.264 52.707)"/>
    <rect id="Rectangle_10158" data-name="Rectangle 10158" width="1.533" height="1.647" transform="translate(17.637 52.707)"/>
    <rect id="Rectangle_10159" data-name="Rectangle 10159" width="1.531" height="1.647" transform="translate(21.01 52.707)"/>
    <rect id="Rectangle_10160" data-name="Rectangle 10160" width="1.533" height="1.647" transform="translate(24.381 52.707)"/>
    <rect id="Rectangle_10161" data-name="Rectangle 10161" width="1.534" height="1.647" transform="translate(27.754 52.707)"/>
    <rect id="Rectangle_10162" data-name="Rectangle 10162" width="1.532" height="1.647" transform="translate(31.127 52.707)"/>
    <rect id="Rectangle_10163" data-name="Rectangle 10163" width="1.532" height="1.647" transform="translate(34.499 52.707)"/>
    <rect id="Rectangle_10164" data-name="Rectangle 10164" width="1.533" height="1.647" transform="translate(37.87 52.707)"/>
    <rect id="Rectangle_10165" data-name="Rectangle 10165" width="1.534" height="1.647" transform="translate(41.243 52.707)"/>
    <rect id="Rectangle_10166" data-name="Rectangle 10166" width="1.531" height="1.647" transform="translate(44.617 52.707)"/>
    <rect id="Rectangle_10167" data-name="Rectangle 10167" width="38.936" height="1.647" transform="translate(9.052 63.042)"/>
    <rect id="Rectangle_10168" data-name="Rectangle 10168" width="1.491" height="1.647" transform="translate(10.838 32.031)"/>
    <rect id="Rectangle_10169" data-name="Rectangle 10169" width="1.488" height="1.647" transform="translate(14.116 32.031)"/>
    <rect id="Rectangle_10170" data-name="Rectangle 10170" width="1.488" height="1.647" transform="translate(17.394 32.031)"/>
    <rect id="Rectangle_10171" data-name="Rectangle 10171" width="1.489" height="1.647" transform="translate(20.67 32.031)"/>
    <rect id="Rectangle_10172" data-name="Rectangle 10172" width="1.489" height="1.648" transform="translate(23.946 32.03)"/>
    <rect id="Rectangle_10173" data-name="Rectangle 10173" width="1.489" height="1.648" transform="translate(27.223 32.03)"/>
    <rect id="Rectangle_10174" data-name="Rectangle 10174" width="1.488" height="1.648" transform="translate(30.5 32.03)"/>
    <rect id="Rectangle_10175" data-name="Rectangle 10175" width="1.488" height="1.648" transform="translate(33.777 32.03)"/>
    <rect id="Rectangle_10176" data-name="Rectangle 10176" width="1.491" height="1.648" transform="translate(37.053 32.03)"/>
    <rect id="Rectangle_10177" data-name="Rectangle 10177" width="1.488" height="1.647" transform="translate(40.33 32.031)"/>
    <rect id="Rectangle_10178" data-name="Rectangle 10178" width="1.488" height="1.647" transform="translate(43.607 32.031)"/>
    <rect id="Rectangle_10179" data-name="Rectangle 10179" width="1.489" height="1.647" transform="translate(46.883 32.031)"/>
    <rect id="Rectangle_10180" data-name="Rectangle 10180" width="1.488" height="1.647" transform="translate(50.159 32.031)"/>
    <rect id="Rectangle_10181" data-name="Rectangle 10181" width="1.488" height="1.647" transform="translate(53.437 32.031)"/>
    <rect id="Rectangle_10182" data-name="Rectangle 10182" width="1.489" height="1.647" transform="translate(56.714 32.031)"/>
    <rect id="Rectangle_10183" data-name="Rectangle 10183" width="1.491" height="1.648" transform="translate(59.989 32.03)"/>
    <rect id="Rectangle_10184" data-name="Rectangle 10184" width="1.488" height="1.648" transform="translate(63.267 32.03)"/>
    <rect id="Rectangle_10185" data-name="Rectangle 10185" width="1.488" height="1.648" transform="translate(66.543 32.03)"/>
    <rect id="Rectangle_10186" data-name="Rectangle 10186" width="1.489" height="1.648" transform="translate(69.82 32.03)"/>
    <rect id="Rectangle_10187" data-name="Rectangle 10187" width="1.491" height="1.648" transform="translate(73.096 32.03)"/>
    <rect id="Rectangle_10188" data-name="Rectangle 10188" width="1.488" height="1.648" transform="translate(76.373 32.03)"/>
    <rect id="Rectangle_10189" data-name="Rectangle 10189" width="1.489" height="1.647" transform="translate(79.651 32.031)"/>
    <rect id="Rectangle_10190" data-name="Rectangle 10190" width="1.491" height="1.647" transform="translate(82.926 32.031)"/>
    <rect id="Rectangle_10191" data-name="Rectangle 10191" width="1.488" height="1.648" transform="translate(86.203 32.03)"/>
    <rect id="Rectangle_10192" data-name="Rectangle 10192" width="1.488" height="1.648" transform="translate(89.479 32.03)"/>
    <rect id="Rectangle_10193" data-name="Rectangle 10193" width="1.489" height="1.648" transform="translate(92.757 32.03)"/>
    <rect id="Rectangle_10194" data-name="Rectangle 10194" width="1.491" height="1.648" transform="translate(96.032 32.03)"/>
    <rect id="Rectangle_10195" data-name="Rectangle 10195" width="1.489" height="1.647" transform="translate(99.31 32.031)"/>
    <rect id="Rectangle_10196" data-name="Rectangle 10196" width="1.489" height="1.647" transform="translate(102.587 32.031)"/>
    <rect id="Rectangle_10197" data-name="Rectangle 10197" width="1.489" height="1.647" transform="translate(105.864 32.031)"/>
    <rect id="Rectangle_10198" data-name="Rectangle 10198" width="1.488" height="1.647" transform="translate(109.14 32.031)"/>
    <path id="Path_6263" data-name="Path 6263" d="M13.106,76.67a4.88,4.88,0,1,0,4.88,4.881,4.886,4.886,0,0,0-4.88-4.881m0,8.113a3.233,3.233,0,1,1,3.233-3.232,3.234,3.234,0,0,1-3.233,3.232"/>
    <path id="Path_6264" data-name="Path 6264" d="M25.958,110.347H95.51v-7.854H25.958ZM27.6,104.14h66.26V108.7H27.6Z"/>
    <rect id="Rectangle_10199" data-name="Rectangle 10199" width="1.646" height="1.369" transform="translate(43.576 100.304)"/>
    <rect id="Rectangle_10200" data-name="Rectangle 10200" width="1.646" height="1.371" transform="translate(43.576 97.29)"/>
    <rect id="Rectangle_10201" data-name="Rectangle 10201" width="1.646" height="1.366" transform="translate(43.576 94.281)"/>
    <rect id="Rectangle_10202" data-name="Rectangle 10202" width="1.646" height="1.37" transform="translate(43.577 91.266)"/>
    <rect id="Rectangle_10203" data-name="Rectangle 10203" width="1.646" height="1.369" transform="translate(74.168 100.304)"/>
    <rect id="Rectangle_10204" data-name="Rectangle 10204" width="1.646" height="1.371" transform="translate(74.168 97.29)"/>
    <rect id="Rectangle_10205" data-name="Rectangle 10205" width="1.646" height="1.366" transform="translate(74.168 94.281)"/>
    <rect id="Rectangle_10206" data-name="Rectangle 10206" width="1.646" height="1.37" transform="translate(74.168 91.266)"/>
  </g>
</svg>
