<svg id="Group_23216" data-name="Group 23216" xmlns="http://www.w3.org/2000/svg" xmlns:xlink="http://www.w3.org/1999/xlink" width="106.913" height="123.481" viewBox="0 0 126.876 126.883">
  <defs>
    <clipPath id="clip-path">
      <rect id="Rectangle_10262" data-name="Rectangle 10262" width="126.876" height="126.883" transform="translate(0 0)" fill="none"/>
    </clipPath>
  </defs>
  <g id="Group_23215" data-name="Group 23215" clip-path="url(#clip-path)">
    <path id="Path_6268" data-name="Path 6268" d="M2.023,124.856C11.5,125.925,37.418,128.1,47.73,95.9l-2.492-2.492c-3.848,10.972-11.5,16.528-22.815,16.528a39.067,39.067,0,0,1-4.491-.268l-.649-.074-.074-.65c-1.581-13.8,3.906-22.964,16.267-27.3l-2.5-2.5C-1.217,89.456.957,115.382,2.023,124.856" fill="#2aafc0"/>
    <path id="Path_6269" data-name="Path 6269" d="M87.608,50.048a10.778,10.778,0,1,0-7.622-3.157,10.71,10.71,0,0,0,7.622,3.157" fill="#dadde0"/>
    <path id="Path_6270" data-name="Path 6270" d="M30.5,45.026,4.627,70.9l23.14,3.351A305.781,305.781,0,0,1,45.488,48.354Z" fill="#2aafc0"/>
    <path id="Path_6271" data-name="Path 6271" d="M52.634,99.113l3.35,23.141L81.856,96.379,78.523,81.392A307.1,307.1,0,0,1,52.634,99.113" fill="#2aafc0"/>
    <path id="Path_6272" data-name="Path 6272" d="M.461,125.694l.075.65.649.073a68.044,68.044,0,0,0,7.789.466c20.029,0,33.466-9.978,40.049-29.689l1.952,1.953,3.85,26.594L83.659,96.9l-3.695-16.62a217.571,217.571,0,0,0,20.824-17.9c19.195-19.2,28.915-42.571,25.368-61.008L126.05.83l-.549-.1A41.641,41.641,0,0,0,117.649,0c-17.2,0-36.575,9.509-53.156,26.091A217.5,217.5,0,0,0,46.6,46.913L29.974,43.222,1.139,72.054l26.6,3.85,1.955,1.955C7.527,85.259-2.325,101.331.461,125.694m81.4-29.316L55.984,122.253l-3.35-23.141a307.131,307.131,0,0,0,25.889-17.72ZM4.627,70.895,30.5,45.025l14.989,3.328A305.831,305.831,0,0,0,27.767,74.246ZM29.2,75.044C35.86,63.91,51.291,41.624,65.656,27.255,81.932,10.981,100.884,1.646,117.649,1.646a40.324,40.324,0,0,1,6.99.594c3.148,17.823-6.395,40.361-25.015,58.981-14.367,14.366-36.655,29.8-47.791,36.455ZM43.945,92.116c-5.7,17.457-19.689,16.59-25.175,15.991-.6-5.489-1.454-19.473,15.993-25.173ZM30.979,79.149l2.5,2.5c-12.361,4.335-17.848,13.5-16.268,27.3l.075.65.649.074a39.067,39.067,0,0,0,4.491.268c11.315,0,18.967-5.556,22.815-16.528L47.73,95.9C37.417,128.1,11.5,125.925,2.023,124.856c-1.066-9.474-3.24-35.4,28.956-45.707"/>
    <path id="Path_6273" data-name="Path 6273" d="M87.608,51.694a12.424,12.424,0,1,0-8.787-3.638,12.356,12.356,0,0,0,8.787,3.638M79.986,31.649a10.778,10.778,0,1,1,0,15.242,10.709,10.709,0,0,1,0-15.242"/>
    <rect id="Rectangle_10260" data-name="Rectangle 10260" width="38.123" height="1.646" transform="translate(45.466 80.248) rotate(-45)"/>
    <rect id="Rectangle_10261" data-name="Rectangle 10261" width="15.323" height="1.646" transform="translate(102.05 23.67) rotate(-45.025)"/>
  </g>
</svg>
