<svg width="96" height="96" viewBox="0 0 96 96" fill="none" xmlns="http://www.w3.org/2000/svg">
<circle cx="48" cy="48" r="48" fill="#40BAD5" fill-opacity="0.1"/>
<path opacity="0.5" d="M34.5182 30.7357C35.5555 30.0426 36.6447 29.4415 37.7732 28.9361C40.9743 27.5025 42.5748 26.7858 44.7041 28.1652C46.8333 29.5447 46.8333 31.8076 46.8333 36.3333V39.8333C46.8333 44.2331 46.8333 46.433 48.2002 47.7998C49.567 49.1666 51.7669 49.1666 56.1667 49.1666H59.6667C64.1924 49.1666 66.4553 49.1666 67.8347 51.2959C69.2142 53.4252 68.4974 55.0257 67.0639 58.2267C66.5585 59.3553 65.9574 60.4445 65.2642 61.4818C62.8285 65.1271 59.3666 67.9682 55.3162 69.646C51.2657 71.3237 46.8087 71.7627 42.5088 70.9074C38.2089 70.0521 34.2592 67.9409 31.1591 64.8408C28.0591 61.7408 25.9479 57.7911 25.0926 53.4911C24.2373 49.1912 24.6763 44.7343 26.354 40.6838C28.0317 36.6334 30.8729 33.1714 34.5182 30.7357Z" fill="#40BAD5"/>
<path d="M70.0408 36.4943C68.1465 31.686 64.314 27.8534 59.5057 25.9592C55.9088 24.5422 52.6667 27.8006 52.6667 31.6666V41C52.6667 42.2886 53.7113 43.3333 55 43.3333H64.3333C68.1993 43.3333 71.4578 40.0912 70.0408 36.4943Z" fill="#40BAD5"/>
</svg>
