<svg width="56" height="56" viewBox="0 0 56 56" fill="none" xmlns="http://www.w3.org/2000/svg">
<path opacity="0.5" d="M4.6665 28C4.6665 15.1133 15.1132 4.66666 27.9998 4.66666C40.8865 4.66666 51.3332 15.1133 51.3332 28C51.3332 40.8866 40.8865 51.3333 27.9998 51.3333C15.1132 51.3333 4.6665 40.8866 4.6665 28Z" fill="#40BAD5"/>
<path d="M23.2211 14.5834C22.2181 14.5832 21.2804 14.5831 20.5143 14.6975C19.6489 14.8268 18.7598 15.1324 18.0492 15.922C17.3622 16.6853 17.1197 17.5948 17.0146 18.4636C16.9164 19.2756 16.9164 20.2823 16.9165 21.419L16.9165 22.75C16.9165 23.7165 17.7 24.5 18.6665 24.5C19.633 24.5 20.4165 23.7165 20.4165 22.75V21.5186C20.4165 20.2518 20.4195 19.4603 20.4893 18.884C20.522 18.6136 20.5629 18.4578 20.5959 18.3685C20.6238 18.2932 20.6438 18.2711 20.6504 18.2638L20.6523 18.2616C20.6555 18.2577 20.6578 18.2549 20.6788 18.2453C20.7176 18.2276 20.8171 18.1911 21.0314 18.1591C21.5077 18.0879 22.1784 18.0834 23.3332 18.0834H26.2498V37.9167H22.1665C21.2 37.9167 20.4165 38.7002 20.4165 39.6667C20.4165 40.6332 21.2 41.4167 22.1665 41.4167H34.9998C35.9663 41.4167 36.7498 40.6332 36.7498 39.6667C36.7498 38.7002 35.9663 37.9167 34.9998 37.9167H29.7498V18.0834H32.6665C33.8213 18.0834 34.492 18.0879 34.9683 18.1591C35.1826 18.1911 35.2821 18.2276 35.3209 18.2453C35.3419 18.2549 35.3442 18.2577 35.3474 18.2616L35.349 18.2634C35.3556 18.2707 35.3759 18.2932 35.4038 18.3685C35.4368 18.4578 35.4777 18.6136 35.5104 18.884C35.5802 19.4603 35.5832 20.2518 35.5832 21.5186V22.75C35.5832 23.7165 36.3667 24.5 37.3332 24.5C38.2997 24.5 39.0832 23.7165 39.0832 22.75L39.0832 21.4189V21.4189C39.0833 20.2822 39.0833 19.2756 38.9851 18.4636C38.88 17.5948 38.6374 16.6853 37.9505 15.922C37.2399 15.1324 36.3508 14.8268 35.4854 14.6975C34.7193 14.5831 33.7816 14.5832 32.7786 14.5834H23.2211Z" fill="#40BAD5"/>
</svg>
