<svg id="Avatar" xmlns="http://www.w3.org/2000/svg" xmlns:xlink="http://www.w3.org/1999/xlink" width="129.525" height="129.526" viewBox="0 0 129.525 129.526">
  <defs>
    <clipPath id="clip-path">
      <rect id="Rectangle_9991" data-name="Rectangle 9991" width="129.526" height="129.526" fill="none"/>
    </clipPath>
  </defs>
  <g id="Group_22428" data-name="Group 22428" clip-path="url(#clip-path)">
    <path id="Path_5484" data-name="Path 5484" d="M129.527,64.763A64.763,64.763,0,1,1,64.764,0a64.763,64.763,0,0,1,64.763,64.763" fill="#b9c4e1"/>
    <path id="Path_5485" data-name="Path 5485" d="M89.957,56.481c0,19.271-11.279,34.894-25.193,34.894S39.57,75.752,39.57,56.481,50.85,21.587,64.764,21.587,89.957,37.21,89.957,56.481" fill="#fff"/>
    <path id="Path_5486" data-name="Path 5486" d="M64.365,89.142c-21.088,0-39.94,5.054-52.478,12.993a64.732,64.732,0,0,0,105.5.351c-12.534-8.141-31.628-13.344-53.025-13.344" fill="#fff"/>
    <path id="Path_5487" data-name="Path 5487" d="M68.6,105.891H60.927A9.654,9.654,0,0,1,51.3,96.266V74.388a9.654,9.654,0,0,1,9.625-9.625H68.6a9.653,9.653,0,0,1,9.625,9.625V96.266a9.653,9.653,0,0,1-9.625,9.625" fill="#fff"/>
    <path id="Path_5488" data-name="Path 5488" d="M43.548,58.463c.754,5.594-.488,10.445-2.774,10.834s-4.752-3.831-5.506-9.425.488-10.445,2.774-10.834,4.752,3.831,5.506,9.425" fill="#fff"/>
    <path id="Path_5489" data-name="Path 5489" d="M85.978,58.463c-.754,5.594.488,10.445,2.774,10.834s4.752-3.831,5.506-9.425-.488-10.445-2.774-10.834-4.752,3.831-5.506,9.425" fill="#fff"/>
    <path id="Path_5490" data-name="Path 5490" d="M40.451,55.108q-1.271-8.379-2.543-16.757c-.307-2.028-.6-4.166.136-6.079s2.912-3.435,4.833-2.717c-.769-3.886,3.53-6.756,7.276-8.046A43.486,43.486,0,0,1,69.744,19.1a28.331,28.331,0,0,1,17.45,8.7,15.5,15.5,0,0,1,3.285,5.33c1.288,3.833.469,8.016-.362,11.973q-.99,4.716-1.98,9.431a4.212,4.212,0,0,1-.809,2.018c-.78.869-2.1.934-3.266.937l-37.478.081c-2.348.005-5.415-.574-5.725-2.9" fill="#fff"/>
  </g>
</svg>
