<?xml version="1.0" encoding="UTF-8"?>
<svg xmlns="http://www.w3.org/2000/svg" xmlns:xlink="http://www.w3.org/1999/xlink" width="2000" height="2000" viewBox="0 0 2000 2000">
<path fill-rule="evenodd" fill="rgb(95.701599%, 96.875%, 98.046875%)" fill-opacity="1" d="M 0 0.078125 L 1999.921875 0.078125 L 1999.921875 2000 L 0 2000 L 0 0.078125 "/>
<path fill-rule="evenodd" fill="rgb(95.701599%, 96.875%, 98.046875%)" fill-opacity="1" d="M 1908.238281 1915.15625 L 1889.179688 1915.15625 C 1888.300781 1915.15625 1887.589844 1915.871094 1887.589844 1916.746094 L 1887.589844 1935.800781 C 1887.589844 1936.679688 1888.300781 1937.394531 1889.179688 1937.394531 L 1908.238281 1937.394531 C 1909.109375 1937.394531 1909.828125 1936.679688 1909.828125 1935.800781 L 1909.828125 1916.746094 C 1909.828125 1915.871094 1909.109375 1915.15625 1908.238281 1915.15625 "/>
<path fill-rule="evenodd" fill="rgb(95.701599%, 96.875%, 98.046875%)" fill-opacity="1" d="M 1865.28125 1916.171875 L 1847.089844 1916.171875 C 1846.261719 1916.171875 1845.578125 1916.855469 1845.578125 1917.691406 L 1845.578125 1935.875 C 1845.578125 1936.710938 1846.261719 1937.394531 1847.089844 1937.394531 L 1865.28125 1937.394531 C 1866.109375 1937.394531 1866.800781 1936.710938 1866.800781 1935.875 L 1866.800781 1917.691406 C 1866.800781 1916.855469 1866.109375 1916.171875 1865.28125 1916.171875 "/>
<path fill-rule="evenodd" fill="rgb(95.701599%, 96.875%, 98.046875%)" fill-opacity="1" d="M 1822.320312 1917.1875 L 1805.011719 1917.1875 C 1804.210938 1917.1875 1803.558594 1917.839844 1803.558594 1918.636719 L 1803.558594 1935.949219 C 1803.558594 1936.742188 1804.210938 1937.394531 1805.011719 1937.394531 L 1822.320312 1937.394531 C 1823.121094 1937.394531 1823.769531 1936.742188 1823.769531 1935.949219 L 1823.769531 1918.636719 C 1823.769531 1917.839844 1823.121094 1917.1875 1822.320312 1917.1875 "/>
<path fill-rule="evenodd" fill="rgb(95.701599%, 96.875%, 98.046875%)" fill-opacity="1" d="M 1779.371094 1918.207031 L 1762.929688 1918.207031 C 1762.171875 1918.207031 1761.550781 1918.824219 1761.550781 1919.582031 L 1761.550781 1936.019531 C 1761.550781 1936.777344 1762.171875 1937.394531 1762.929688 1937.394531 L 1779.371094 1937.394531 C 1780.121094 1937.394531 1780.738281 1936.777344 1780.738281 1936.019531 L 1780.738281 1919.582031 C 1780.738281 1918.824219 1780.121094 1918.207031 1779.371094 1918.207031 "/>
<path fill-rule="evenodd" fill="rgb(95.701599%, 96.875%, 98.046875%)" fill-opacity="1" d="M 1736.410156 1919.222656 L 1720.839844 1919.222656 C 1720.128906 1919.222656 1719.539062 1919.808594 1719.539062 1920.523438 L 1719.539062 1936.09375 C 1719.539062 1936.808594 1720.128906 1937.394531 1720.839844 1937.394531 L 1736.410156 1937.394531 C 1737.128906 1937.394531 1737.710938 1936.808594 1737.710938 1936.09375 L 1737.710938 1920.523438 C 1737.710938 1919.808594 1737.128906 1919.222656 1736.410156 1919.222656 "/>
<path fill-rule="evenodd" fill="rgb(95.701599%, 96.875%, 98.046875%)" fill-opacity="1" d="M 1693.460938 1920.238281 L 1678.761719 1920.238281 C 1678.078125 1920.238281 1677.53125 1920.792969 1677.53125 1921.46875 L 1677.53125 1936.167969 C 1677.53125 1936.84375 1678.078125 1937.394531 1678.761719 1937.394531 L 1693.460938 1937.394531 C 1694.128906 1937.394531 1694.679688 1936.84375 1694.679688 1936.167969 L 1694.679688 1921.46875 C 1694.679688 1920.792969 1694.128906 1920.238281 1693.460938 1920.238281 "/>
<path fill-rule="evenodd" fill="rgb(95.701599%, 96.875%, 98.046875%)" fill-opacity="1" d="M 1650.5 1921.257812 L 1636.671875 1921.257812 C 1636.039062 1921.257812 1635.519531 1921.777344 1635.519531 1922.414062 L 1635.519531 1936.238281 C 1635.519531 1936.875 1636.039062 1937.394531 1636.671875 1937.394531 L 1650.5 1937.394531 C 1651.140625 1937.394531 1651.648438 1936.875 1651.648438 1936.238281 L 1651.648438 1922.414062 C 1651.648438 1921.777344 1651.140625 1921.257812 1650.5 1921.257812 "/>
<path fill-rule="evenodd" fill="rgb(95.701599%, 96.875%, 98.046875%)" fill-opacity="1" d="M 1607.539062 1922.273438 L 1594.589844 1922.273438 C 1593.988281 1922.273438 1593.511719 1922.761719 1593.511719 1923.355469 L 1593.511719 1936.3125 C 1593.511719 1936.90625 1593.988281 1937.394531 1594.589844 1937.394531 L 1607.539062 1937.394531 C 1608.140625 1937.394531 1608.628906 1936.90625 1608.628906 1936.3125 L 1608.628906 1923.355469 C 1608.628906 1922.761719 1608.140625 1922.273438 1607.539062 1922.273438 "/>
<path fill-rule="evenodd" fill="rgb(95.701599%, 96.875%, 98.046875%)" fill-opacity="1" d="M 1564.589844 1923.292969 L 1552.5 1923.292969 C 1551.949219 1923.292969 1551.488281 1923.746094 1551.488281 1924.300781 L 1551.488281 1936.386719 C 1551.488281 1936.941406 1551.949219 1937.394531 1552.5 1937.394531 L 1564.589844 1937.394531 C 1565.140625 1937.394531 1565.601562 1936.941406 1565.601562 1936.386719 L 1565.601562 1924.300781 C 1565.601562 1923.746094 1565.140625 1923.292969 1564.589844 1923.292969 "/>
<path fill-rule="evenodd" fill="rgb(23.535156%, 43.920898%, 72.851562%)" fill-opacity="1" d="M 999.960938 69.859375 C 1511.558594 69.859375 1930.140625 488.441406 1930.140625 1000.039062 C 1930.140625 1511.636719 1511.558594 1930.21875 999.960938 1930.21875 C 488.363281 1930.21875 69.78125 1511.636719 69.78125 1000.039062 C 69.78125 488.441406 488.363281 69.859375 999.960938 69.859375 "/>
<path fill-rule="evenodd" fill="rgb(18.041992%, 34.910583%, 53.709412%)" fill-opacity="1" d="M 888.519531 1923.46875 C 428.960938 1867.960938 69.78125 1473.9375 69.78125 1000.039062 C 69.78125 924.679688 78.933594 851.359375 96.058594 781.070312 L 861.5625 327.691406 L 1048.921875 1228.238281 L 1555.398438 1564.140625 L 888.519531 1923.46875 "/>
<path fill-rule="evenodd" fill="rgb(18.041992%, 34.910583%, 53.709412%)" fill-opacity="1" d="M 690.191406 672.03125 C 700.386719 668.671875 711.921875 672.539062 722.476562 681.558594 C 712.371094 532.488281 754.804688 353.679688 998.464844 353.679688 C 1241.621094 353.679688 1284.378906 531.75 1274.511719 680.628906 C 1284.761719 672.28125 1295.851562 668.789062 1305.679688 672.03125 C 1326.738281 678.960938 1334.078125 714.089844 1322.101562 750.5 C 1310.109375 786.910156 1283.320312 810.800781 1262.261719 803.859375 C 1259.859375 803.070312 1257.628906 801.910156 1255.589844 800.421875 C 1245.699219 840.199219 1234.738281 868.761719 1229.148438 876.988281 C 1213.738281 899.691406 1167.558594 942.378906 1117.988281 977.269531 L 1117.988281 1116.441406 C 1052.25 1196.960938 944.671875 1194.171875 878.941406 1116.441406 L 878.941406 977.269531 C 829.367188 942.378906 783.1875 899.691406 767.769531 876.988281 C 762.152344 868.710938 751.101562 839.878906 741.164062 799.738281 C 738.886719 801.558594 736.363281 802.960938 733.597656 803.871094 C 712.554688 810.800781 685.765625 786.910156 673.777344 750.5 C 661.78125 714.089844 669.136719 678.960938 690.191406 672.03125 "/>
<path fill="none" stroke-width="198.237" stroke-linecap="round" stroke-linejoin="round" stroke="rgb(100%, 100%, 100%)" stroke-opacity="1" stroke-miterlimit="2.61313" d="M 6901.914062 13279.6875 C 7003.867188 13313.28125 7119.21875 13274.609375 7224.765625 13184.414062 C 7123.710938 14675.117188 7548.046875 16463.203125 9984.648438 16463.203125 C 12416.210938 16463.203125 12843.789062 14682.5 12745.117188 13193.710938 C 12847.617188 13277.1875 12958.515625 13312.109375 13056.796875 13279.6875 C 13267.382812 13210.390625 13340.78125 12859.101562 13221.015625 12495 C 13101.09375 12130.898438 12833.203125 11891.992188 12622.617188 11961.40625 C 12598.59375 11969.296875 12576.289062 11980.898438 12555.898438 11995.78125 C 12456.992188 11598.007812 12347.382812 11312.382812 12291.484375 11230.117188 C 12137.382812 11003.085938 11675.585938 10576.210938 11179.882812 10227.304688 L 11179.882812 8835.585938 C 10522.5 8030.390625 9446.71875 8058.28125 8789.414062 8835.585938 L 8789.414062 10227.304688 C 8293.671875 10576.210938 7831.875 11003.085938 7677.695312 11230.117188 C 7621.523438 11312.890625 7511.015625 11601.210938 7411.640625 12002.617188 C 7388.867188 11984.414062 7363.632812 11970.390625 7335.976562 11961.289062 C 7125.546875 11891.992188 6857.65625 12130.898438 6737.773438 12495 C 6617.8125 12859.101562 6691.367188 13210.390625 6901.914062 13279.6875 Z M 6901.914062 13279.6875 " transform="matrix(0.1, 0, 0, -0.1, 0, 2000)"/>
<path fill-rule="evenodd" fill="rgb(100%, 100%, 100%)" fill-opacity="1" d="M 878.941406 1062.289062 C 639.328125 1167.890625 566.773438 1224.4375 537.914062 1249.984375 C 492.929688 1289.789062 468.050781 1438.160156 441.519531 1564.140625 L 1555.398438 1564.140625 C 1528.871094 1438.160156 1503.988281 1289.789062 1459.011719 1249.984375 C 1430.050781 1224.339844 1359.71875 1168.925781 1117.988281 1062.574219 L 1117.988281 1116.441406 C 1052.25 1196.960938 944.671875 1194.171875 878.941406 1116.441406 L 878.941406 1062.289062 "/>
<path fill="none" stroke-width="198.237" stroke-linecap="round" stroke-linejoin="round" stroke="rgb(100%, 100%, 100%)" stroke-opacity="1" stroke-miterlimit="2.61313" d="M 8789.414062 9377.109375 C 6393.28125 8321.09375 5667.734375 7755.625 5379.140625 7500.15625 C 4929.296875 7102.109375 4680.507812 5618.398438 4415.195312 4358.59375 L 15553.984375 4358.59375 C 15288.710938 5618.398438 15039.882812 7102.109375 14590.117188 7500.15625 C 14300.507812 7756.601562 13597.1875 8310.742188 11179.882812 9374.257812 L 11179.882812 8835.585938 C 10522.5 8030.390625 9446.71875 8058.28125 8789.414062 8835.585938 Z M 8789.414062 9377.109375 " transform="matrix(0.1, 0, 0, -0.1, 0, 2000)"/>
<path fill-rule="evenodd" fill="rgb(100%, 100%, 100%)" fill-opacity="1" d="M 999.085938 1175.785156 C 999.085938 1175.785156 832.28125 1215.605469 832.28125 1225.703125 C 832.28125 1235.800781 895.753906 1564.140625 895.753906 1564.140625 L 1122.210938 1564.140625 L 1148.171875 1227.148438 L 999.085938 1175.785156 "/>
<path fill="none" stroke-width="198.241" stroke-linecap="round" stroke-linejoin="round" stroke="rgb(100%, 100%, 100%)" stroke-opacity="1" stroke-miterlimit="2.61313" d="M 9990.859375 8242.148438 C 9990.859375 8242.148438 8322.8125 7843.945312 8322.8125 7742.96875 C 8322.8125 7641.992188 8957.539062 4358.59375 8957.539062 4358.59375 L 11222.109375 4358.59375 L 11481.71875 7728.515625 Z M 9990.859375 8242.148438 " transform="matrix(0.1, 0, 0, -0.1, 0, 2000)"/>
<path fill-rule="evenodd" fill="rgb(18.041992%, 34.910583%, 53.709412%)" fill-opacity="1" d="M 878.941406 1062.292969 L 878.941406 1116.441406 L 930.863281 1564.140625 L 841.582031 1564.140625 L 743.363281 1364.738281 L 837.117188 1302.238281 L 722.539062 1248.667969 L 827.898438 1085.179688 L 878.941406 1062.292969 "/>
<path fill="none" stroke-width="198.241" stroke-linecap="round" stroke-linejoin="round" stroke="rgb(100%, 100%, 100%)" stroke-opacity="1" stroke-miterlimit="2.61313" d="M 8789.414062 9377.070312 L 8789.414062 8835.585938 L 9308.632812 4358.59375 L 8415.820312 4358.59375 L 7433.632812 6352.617188 L 8371.171875 6977.617188 L 7225.390625 7513.320312 L 8278.984375 9148.203125 Z M 8789.414062 9377.070312 " transform="matrix(0.1, 0, 0, -0.1, 0, 2000)"/>
<path fill-rule="evenodd" fill="rgb(18.041992%, 34.910583%, 53.709412%)" fill-opacity="1" d="M 1117.988281 1062.578125 L 1118 1116.441406 L 1065.558594 1564.140625 L 1154.839844 1564.140625 L 1253.050781 1364.738281 L 1159.300781 1302.238281 L 1273.878906 1248.667969 L 1180.238281 1090.21875 L 1117.988281 1062.578125 "/>
<path fill="none" stroke-width="198.241" stroke-linecap="round" stroke-linejoin="round" stroke="rgb(100%, 100%, 100%)" stroke-opacity="1" stroke-miterlimit="2.61313" d="M 11179.882812 9374.21875 L 11180 8835.585938 L 10655.585938 4358.59375 L 11548.398438 4358.59375 L 12530.507812 6352.617188 L 11593.007812 6977.617188 L 12738.789062 7513.320312 L 11802.382812 9097.8125 Z M 11179.882812 9374.21875 " transform="matrix(0.1, 0, 0, -0.1, 0, 2000)"/>
<path fill-rule="evenodd" fill="rgb(100%, 100%, 100%)" fill-opacity="1" d="M 897.734375 1278.570312 L 999.085938 1175.792969 L 999.078125 1175.78125 C 955.542969 1175.617188 911.964844 1155.492188 878.941406 1116.441406 L 897.734375 1278.570312 "/>
<path fill="none" stroke-width="198.237" stroke-linecap="round" stroke-linejoin="round" stroke="rgb(100%, 100%, 100%)" stroke-opacity="1" stroke-miterlimit="2.61313" d="M 8977.34375 7214.296875 L 9990.859375 8242.070312 L 9990.78125 8242.1875 C 9555.429688 8243.828125 9119.648438 8445.078125 8789.414062 8835.585938 Z M 8977.34375 7214.296875 " transform="matrix(0.1, 0, 0, -0.1, 0, 2000)"/>
<path fill-rule="evenodd" fill="rgb(18.041992%, 34.910583%, 53.709412%)" fill-opacity="1" d="M 947.0625 1231.152344 L 976.011719 1275.996094 L 934.800781 1564.140625 L 1062.128906 1564.140625 L 1020.921875 1275.996094 L 1020.910156 1275.996094 L 1049.871094 1231.152344 L 999.085938 1175.785156 L 947.0625 1231.152344 "/>
<path fill="none" stroke-width="198.237" stroke-linecap="round" stroke-linejoin="round" stroke="rgb(100%, 100%, 100%)" stroke-opacity="1" stroke-miterlimit="2.61313" d="M 9470.625 7688.476562 L 9760.117188 7240.039062 L 9348.007812 4358.59375 L 10621.289062 4358.59375 L 10209.21875 7240.039062 L 10209.101562 7240.039062 L 10498.710938 7688.476562 L 9990.859375 8242.148438 Z M 9470.625 7688.476562 " transform="matrix(0.1, 0, 0, -0.1, 0, 2000)"/>
<path fill-rule="evenodd" fill="rgb(100%, 100%, 100%)" fill-opacity="1" d="M 1098.761719 1280.683594 L 999.085938 1175.792969 L 999.097656 1175.78125 C 1042.210938 1175.9375 1085.28125 1156.503906 1117.988281 1116.441406 L 1098.761719 1280.683594 "/>
<path fill="none" stroke-width="198.237" stroke-linecap="round" stroke-linejoin="round" stroke="rgb(100%, 100%, 100%)" stroke-opacity="1" stroke-miterlimit="2.61313" d="M 10987.617188 7193.164062 L 9990.859375 8242.070312 L 9990.976562 8242.1875 C 10422.109375 8240.625 10852.8125 8434.960938 11179.882812 8835.585938 Z M 10987.617188 7193.164062 " transform="matrix(0.1, 0, 0, -0.1, 0, 2000)"/>
<path fill-rule="nonzero" fill="rgb(100%, 100%, 100%)" fill-opacity="1" d="M 1300.109375 568.640625 C 1311.429688 578.148438 1317.558594 588.238281 1317.558594 598.371094 C 1317.558594 624.609375 1269.21875 659.761719 1193.261719 681.679688 C 1140.050781 697.03125 1071.878906 708.5 997.933594 708.5 C 923.992188 708.5 855.816406 697.03125 802.605469 681.679688 C 726.652344 659.761719 678.3125 624.609375 678.3125 598.371094 C 678.3125 588.238281 684.4375 578.148438 695.757812 568.640625 L 1300.109375 568.640625 "/>
<path fill="none" stroke-width="198.241" stroke-linecap="round" stroke-linejoin="round" stroke="rgb(100%, 100%, 100%)" stroke-opacity="1" stroke-miterlimit="2.61313" d="M 13001.09375 14313.59375 C 13114.296875 14218.515625 13175.585938 14117.617188 13175.585938 14016.289062 C 13175.585938 13753.90625 12692.1875 13402.382812 11932.617188 13183.203125 C 11400.507812 13029.6875 10718.789062 12915 9979.335938 12915 C 9239.921875 12915 8558.164062 13029.6875 8026.054688 13183.203125 C 7266.523438 13402.382812 6783.125 13753.90625 6783.125 14016.289062 C 6783.125 14117.617188 6844.375 14218.515625 6957.578125 14313.59375 Z M 13001.09375 14313.59375 " transform="matrix(0.1, 0, 0, -0.1, 0, 2000)"/>
<path fill-rule="evenodd" fill="rgb(100%, 100%, 100%)" fill-opacity="1" d="M 996.007812 306.070312 C 1181.921875 306.070312 1298.539062 422.890625 1332.628906 490.898438 C 1349.339844 524.21875 1327.101562 533.421875 1299.769531 533.421875 L 694.898438 533.421875 C 667.160156 533.421875 651.847656 519.648438 659.378906 490.898438 C 676.386719 425.96875 810.09375 306.070312 996.007812 306.070312 "/>
<path fill="none" stroke-width="198.241" stroke-linecap="round" stroke-linejoin="round" stroke="rgb(100%, 100%, 100%)" stroke-opacity="1" stroke-miterlimit="2.61313" d="M 9960.078125 16939.296875 C 11819.21875 16939.296875 12985.390625 15771.09375 13326.289062 15091.015625 C 13493.398438 14757.8125 13271.015625 14665.78125 12997.695312 14665.78125 L 6948.984375 14665.78125 C 6671.601562 14665.78125 6518.476562 14803.515625 6593.789062 15091.015625 C 6763.867188 15740.3125 8100.9375 16939.296875 9960.078125 16939.296875 Z M 9960.078125 16939.296875 " transform="matrix(0.1, 0, 0, -0.1, 0, 2000)"/>
<path fill-rule="evenodd" fill="rgb(18.041992%, 34.910583%, 53.709412%)" fill-opacity="1" d="M 695.734375 568.851562 L 1300.128906 568.851562 L 1300.128906 533.421875 L 695.734375 533.421875 L 695.734375 568.851562 "/>
<path fill="none" stroke-width="198.241" stroke-linecap="round" stroke-linejoin="round" stroke="rgb(100%, 100%, 100%)" stroke-opacity="1" stroke-miterlimit="2.61313" d="M 6957.34375 14311.484375 L 13001.289062 14311.484375 L 13001.289062 14665.78125 L 6957.34375 14665.78125 Z M 6957.34375 14311.484375 " transform="matrix(0.1, 0, 0, -0.1, 0, 2000)"/>
<path fill-rule="evenodd" fill="rgb(18.041992%, 34.910583%, 53.709412%)" fill-opacity="1" d="M 997.933594 411.589844 C 1021.210938 411.589844 1040.078125 429.839844 1040.078125 452.351562 C 1040.078125 474.859375 1021.210938 493.101562 997.933594 493.101562 C 974.65625 493.101562 955.789062 474.859375 955.789062 452.351562 C 955.789062 429.839844 974.65625 411.589844 997.933594 411.589844 "/>
<path fill="none" stroke-width="198.241" stroke-linecap="round" stroke-linejoin="round" stroke="rgb(100%, 100%, 100%)" stroke-opacity="1" stroke-miterlimit="2.61313" d="M 9979.335938 15884.101562 C 10212.109375 15884.101562 10400.78125 15701.601562 10400.78125 15476.484375 C 10400.78125 15251.40625 10212.109375 15068.984375 9979.335938 15068.984375 C 9746.5625 15068.984375 9557.890625 15251.40625 9557.890625 15476.484375 C 9557.890625 15701.601562 9746.5625 15884.101562 9979.335938 15884.101562 Z M 9979.335938 15884.101562 " transform="matrix(0.1, 0, 0, -0.1, 0, 2000)"/>
<path fill-rule="nonzero" fill="rgb(18.041992%, 34.910583%, 53.709412%)" fill-opacity="1" d="M 998.464844 1105.96875 C 784.867188 1105.96875 611.714844 1279.121094 611.714844 1492.714844 C 611.714844 1517.117188 613.996094 1540.980469 618.316406 1564.128906 L 675.789062 1564.128906 C 675.5625 1563.097656 675.324219 1562.074219 675.109375 1561.039062 L 801.5 1523.996094 C 860.820312 1510.894531 881.417969 1507.964844 912.203125 1530.570312 L 928.863281 1544.757812 C 936.273438 1551.253906 941.871094 1557.457031 946.109375 1564.128906 L 1050.808594 1564.128906 C 1055.050781 1557.457031 1060.648438 1551.253906 1068.058594 1544.757812 L 1084.71875 1530.570312 C 1115.511719 1507.964844 1136.109375 1510.894531 1195.429688 1523.996094 L 1321.808594 1561.039062 C 1321.601562 1562.074219 1321.359375 1563.097656 1321.128906 1564.128906 L 1378.601562 1564.128906 C 1382.921875 1540.980469 1385.210938 1517.117188 1385.210938 1492.714844 C 1385.210938 1279.121094 1212.050781 1105.96875 998.464844 1105.96875 Z M 998.464844 1162.273438 C 1174.890625 1162.273438 1319.011719 1300.542969 1328.398438 1474.628906 C 1291.109375 1459.882812 1125.488281 1397.359375 998.464844 1397.359375 C 871.4375 1397.359375 705.8125 1459.882812 668.519531 1474.628906 C 677.914062 1300.542969 822.03125 1162.273438 998.464844 1162.273438 "/>
<path fill="none" stroke-width="198.241" stroke-linecap="round" stroke-linejoin="round" stroke="rgb(100%, 100%, 100%)" stroke-opacity="1" stroke-miterlimit="2.61313" d="M 9984.648438 8940.3125 C 7848.671875 8940.3125 6117.148438 7208.789062 6117.148438 5072.851562 C 6117.148438 4828.828125 6139.960938 4590.195312 6183.164062 4358.710938 L 6757.890625 4358.710938 C 6755.625 4369.023438 6753.242188 4379.257812 6751.09375 4389.609375 L 8015 4760.039062 C 8608.203125 4891.054688 8814.179688 4920.351562 9122.03125 4694.296875 L 9288.632812 4552.421875 C 9362.734375 4487.460938 9418.710938 4425.429688 9461.09375 4358.710938 L 10508.085938 4358.710938 C 10550.507812 4425.429688 10606.484375 4487.460938 10680.585938 4552.421875 L 10847.1875 4694.296875 C 11155.117188 4920.351562 11361.09375 4891.054688 11954.296875 4760.039062 L 13218.085938 4389.609375 C 13216.015625 4379.257812 13213.59375 4369.023438 13211.289062 4358.710938 L 13786.015625 4358.710938 C 13829.21875 4590.195312 13852.109375 4828.828125 13852.109375 5072.851562 C 13852.109375 7208.789062 12120.507812 8940.3125 9984.648438 8940.3125 Z M 9984.648438 8377.265625 C 11748.90625 8377.265625 13190.117188 6994.570312 13283.984375 5253.710938 C 12911.09375 5401.171875 11254.882812 6026.40625 9984.648438 6026.40625 C 8714.375 6026.40625 7058.125 5401.171875 6685.195312 5253.710938 C 6779.140625 6994.570312 8220.3125 8377.265625 9984.648438 8377.265625 Z M 9984.648438 8377.265625 " transform="matrix(0.1, 0, 0, -0.1, 0, 2000)"/>
<path fill-rule="evenodd" fill="rgb(100%, 100%, 100%)" fill-opacity="1" d="M 997.699219 1435.398438 C 1023.171875 1435.398438 1043.820312 1456.046875 1043.820312 1481.515625 C 1043.820312 1506.988281 1023.171875 1527.632812 997.699219 1527.632812 C 972.226562 1527.632812 951.582031 1506.988281 951.582031 1481.515625 C 951.582031 1456.046875 972.226562 1435.398438 997.699219 1435.398438 "/>
<path fill="none" stroke-width="198.237" stroke-linecap="round" stroke-linejoin="round" stroke="rgb(100%, 100%, 100%)" stroke-opacity="1" stroke-miterlimit="2.61313" d="M 9976.992188 5646.015625 C 10231.71875 5646.015625 10438.203125 5439.53125 10438.203125 5184.84375 C 10438.203125 4930.117188 10231.71875 4723.671875 9976.992188 4723.671875 C 9722.265625 4723.671875 9515.820312 4930.117188 9515.820312 5184.84375 C 9515.820312 5439.53125 9722.265625 5646.015625 9976.992188 5646.015625 Z M 9976.992188 5646.015625 " transform="matrix(0.1, 0, 0, -0.1, 0, 2000)"/>
</svg>
