<svg xmlns="http://www.w3.org/2000/svg" width="54.211" height="9.617" viewBox="0 0 54.211 9.617">
  <defs>
    <style>
      .cls-1, .cls-2 {
        fill: #2aafc0;
      }

      .cls-1 {
        stroke: #2aafc0;
      }

      .cls-3 {
        fill: #fff;
      }
    </style>
  </defs>
  <g id="Group_3" data-name="Group 3" transform="translate(-0.57 -0.568)">
    <g id="Group_1" data-name="Group 1" transform="translate(-303.281 -953)">
      <path id="Path_1" data-name="Path 1" class="cls-1" d="M350.188,954.219h7.673v8.323h-7.673Z" transform="translate(-0.298 -0.075)"/>
      <path id="Path_4" data-name="Path 4" class="cls-2" d="M5.8-8.94a.981.981,0,0,1,.414-.378,1.227,1.227,0,0,1,.522-.114.617.617,0,0,1,.5.222.9.9,0,0,1,.186.594V0H5.8V-6.324L1.788,0H-.156ZM14.94,0H12.66L10.176-2.628a2.218,2.218,0,0,1-.33-.432.83.83,0,0,1-.114-.408q0-.768.972-.84a4.052,4.052,0,0,0,1.938-.522,1.452,1.452,0,0,0,.63-1.29,1.475,1.475,0,0,0-.486-1.206,2.12,2.12,0,0,0-1.386-.4H9.6V0H7.968V-9.36h3.468a4.45,4.45,0,0,1,1.38.21,3.272,3.272,0,0,1,1.122.612,2.86,2.86,0,0,1,.75,1,3.269,3.269,0,0,1,.276,1.38,3.409,3.409,0,0,1-.144.96,2.761,2.761,0,0,1-.48.924,3.161,3.161,0,0,1-.888.762,3.862,3.862,0,0,1-1.38.462Zm5.688-8.94a.981.981,0,0,1,.414-.378,1.227,1.227,0,0,1,.522-.114.617.617,0,0,1,.5.222.9.9,0,0,1,.186.594V0h-1.62V-6.324L16.62,0H14.676ZM22.716,0V-9.36h1.62v7.728H26.88V0Zm8.976,0H27.048V-9.36H31.62v1.632H28.68v2.172h2.532v1.62H28.68v2.3h3.012ZM33.54-6.492V0H31.968V-8.544a.844.844,0,0,1,.2-.594.759.759,0,0,1,.588-.222,1.016,1.016,0,0,1,.45.1,1.287,1.287,0,0,1,.426.378l4.572,6.012V-9.36h1.56V-.8q0,.9-.612.9a1,1,0,0,1-.528-.138,2.589,2.589,0,0,1-.5-.426Z" transform="translate(310 963)"/>
      <path id="Path_5" data-name="Path 5" class="cls-3" d="M.516,0V-9.36H3.2a5.223,5.223,0,0,1,1.908.336A4.393,4.393,0,0,1,6.6-8.082a4.265,4.265,0,0,1,.972,1.446,4.815,4.815,0,0,1,.348,1.86,4.981,4.981,0,0,1-.354,1.884,4.653,4.653,0,0,1-.978,1.518A4.478,4.478,0,0,1,5.094-.366,4.824,4.824,0,0,1,3.2,0ZM2.148-7.728v6.1H3.2a3.335,3.335,0,0,0,1.26-.228,2.934,2.934,0,0,0,.972-.63,2.777,2.777,0,0,0,.63-.954,3.186,3.186,0,0,0,.222-1.2,3.281,3.281,0,0,0-.228-1.23,2.874,2.874,0,0,0-.636-.978,2.948,2.948,0,0,0-.978-.642A3.239,3.239,0,0,0,3.2-7.728Z" transform="translate(349 963)"/>
    </g>
    <g id="F" transform="translate(-0.36 0.335)">
      <path id="Path_2" class="cls-2" d="M.93.49,5.95,9.85l1.21-1.8a.487.487,0,0,0,0-.44L4.88,3.51a.494.494,0,0,1,.44-.72h5.14a.486.486,0,0,0,.44-.28l.84-1.31A.5.5,0,0,0,11.3.48H.93Z"/>
      <path id="Path_3" class="cls-2" d="M4.84,3.65H9.18a.494.494,0,0,1,.44.72l-.64.96a.487.487,0,0,1-.44.27H4.83a.5.5,0,0,1-.5-.5V4.14a.506.506,0,0,1,.5-.49Z"/>
    </g>
    <g id="F-2" data-name="F" transform="translate(-0.36 0.335)">
      <path id="Path_2-2" data-name="Path_2" class="cls-2" d="M.93.49,5.95,9.85l1.21-1.8a.487.487,0,0,0,0-.44L4.88,3.51a.494.494,0,0,1,.44-.72h5.14a.486.486,0,0,0,.44-.28l.84-1.31A.5.5,0,0,0,11.3.48H.93Z"/>
      <path id="Path_3-2" data-name="Path_3" class="cls-2" d="M4.84,3.65H9.18a.494.494,0,0,1,.44.72l-.64.96a.487.487,0,0,1-.44.27H4.83a.5.5,0,0,1-.5-.5V4.14a.506.506,0,0,1,.5-.49Z"/>
    </g>
  </g>
</svg>
