<svg width="40" height="40" viewBox="0 0 40 40" fill="none" xmlns="http://www.w3.org/2000/svg">
<path opacity="0.5" d="M23.6665 5H16.3332C9.41924 5 5.96227 5 3.81439 7.1967C1.6665 9.3934 1.6665 12.9289 1.6665 20C1.6665 27.0711 1.6665 30.6066 3.81439 32.8033C5.96227 35 9.41924 35 16.3332 35H23.6665C30.5804 35 34.0374 35 36.1853 32.8033C38.3332 30.6066 38.3332 27.0711 38.3332 20C38.3332 12.9289 38.3332 9.3934 36.1853 7.1967C34.0374 5 30.5804 5 23.6665 5Z" fill="#40BAD5"/>
<path d="M31.8808 13.39C32.4642 12.9038 32.543 12.0368 32.0568 11.4534C31.5707 10.87 30.7037 10.7912 30.1203 11.2773L26.1623 14.5757C24.4519 16.001 23.2644 16.9874 22.2618 17.6322C21.2913 18.2564 20.6332 18.4659 20.0005 18.4659C19.3679 18.4659 18.7098 18.2564 17.7393 17.6322C16.7367 16.9874 15.5492 16.001 13.8388 14.5757L9.88078 11.2773C9.2974 10.7912 8.43037 10.87 7.94422 11.4534C7.45807 12.0368 7.53689 12.9038 8.12027 13.39L12.1472 16.7457C13.7722 18.0999 15.0892 19.1975 16.2517 19.9451C17.4626 20.7239 18.6419 21.2159 20.0005 21.2159C21.3592 21.2159 22.5385 20.7239 23.7494 19.9451C24.9118 19.1975 26.2289 18.0999 27.8539 16.7457L31.8808 13.39Z" fill="#40BAD5"/>
</svg>
