<svg width="40" height="40" viewBox="0 0 40 40" fill="none" xmlns="http://www.w3.org/2000/svg">
<path opacity="0.5" d="M32.861 33.9374C35.2386 32.641 36.6668 30.9789 36.6668 29.1667C36.6668 27.2459 35.0621 25.4936 32.423 24.1667C29.3712 22.6324 24.9363 21.6667 20.0002 21.6667C15.0641 21.6667 10.6291 22.6324 7.57735 24.1667C4.93824 25.4936 3.3335 27.2459 3.3335 29.1667C3.3335 31.0876 4.93824 32.8399 7.57735 34.1667C10.6291 35.7011 15.0641 36.6667 20.0002 36.6667C25.1778 36.6667 29.8041 35.6043 32.861 33.9374Z" fill="#40BAD5"/>
<path fill-rule="evenodd" clip-rule="evenodd" d="M8.3335 14.191C8.3335 8.19442 13.5568 3.33325 20.0002 3.33325C26.4435 3.33325 31.6668 8.19442 31.6668 14.191C31.6668 20.1405 27.9432 27.0831 22.1336 29.5658C20.7793 30.1446 19.221 30.1446 17.8667 29.5658C12.0571 27.0831 8.3335 20.1405 8.3335 14.191ZM20.0002 18.3333C21.8411 18.3333 23.3335 16.8409 23.3335 14.9999C23.3335 13.159 21.8411 11.6666 20.0002 11.6666C18.1592 11.6666 16.6668 13.159 16.6668 14.9999C16.6668 16.8409 18.1592 18.3333 20.0002 18.3333Z" fill="#40BAD5"/>
</svg>
