<svg width="40" height="40" viewBox="0 0 40 40" fill="none" xmlns="http://www.w3.org/2000/svg">
<path opacity="0.5" d="M16.7292 8.86024L17.8108 10.7985C18.787 12.5476 18.3951 14.8422 16.8577 16.3796C16.8577 16.3796 16.8577 16.3796 16.8577 16.3796C16.8576 16.3797 14.9929 18.2446 18.374 21.6258C21.7545 25.0062 23.6194 23.1429 23.6202 23.1421C23.6202 23.1421 23.6202 23.1421 23.6202 23.1421C25.1577 21.6046 27.4522 21.2128 29.2013 22.189L31.1396 23.2706C33.7808 24.7447 34.0927 28.4487 31.7711 30.7703C30.3761 32.1653 28.6672 33.2508 26.778 33.3224C23.5978 33.4429 18.197 32.6381 12.7793 27.2205C7.36172 21.8028 6.55686 16.402 6.67742 13.2218C6.74904 11.3326 7.83451 9.62368 9.22951 8.22868C11.5511 5.9071 15.2551 6.21902 16.7292 8.86024Z" fill="#40BAD5"/>
<path d="M22.0993 3.13346C22.2096 2.45198 22.8539 1.98969 23.5354 2.10001C23.5775 2.10809 23.7133 2.13346 23.7844 2.14929C23.9266 2.18097 24.125 2.22973 24.3723 2.30177C24.8669 2.44584 25.558 2.68318 26.3873 3.06341C28.0478 3.82467 30.2575 5.15634 32.5505 7.44934C34.8435 9.74234 36.1751 11.952 36.9364 13.6125C37.3166 14.4419 37.554 15.1329 37.698 15.6275C37.7701 15.8748 37.8188 16.0732 37.8505 16.2154C37.8663 16.2865 37.8779 16.3436 37.886 16.3858L37.8956 16.4378C38.0059 17.1193 37.5478 17.7902 36.8663 17.9005C36.1868 18.0105 35.5466 17.5505 35.4336 16.8722C35.4301 16.854 35.4206 16.805 35.4103 16.7589C35.3897 16.6666 35.3542 16.5202 35.2978 16.3266C35.185 15.9394 34.9891 15.3638 34.6638 14.6544C34.0141 13.2372 32.8458 11.2802 30.7827 9.21711C28.7196 7.15401 26.7626 5.98568 25.3454 5.33597C24.636 5.01071 24.0604 4.81482 23.6732 4.70203C23.4796 4.64564 23.2363 4.58979 23.144 4.56923C22.4657 4.4562 21.9893 3.813 22.0993 3.13346Z" fill="#40BAD5"/>
<path fill-rule="evenodd" clip-rule="evenodd" d="M22.4764 8.88257C22.666 8.21877 23.3579 7.83441 24.0217 8.02406L23.6783 9.22597C24.0217 8.02406 24.0217 8.02406 24.0217 8.02406L24.0241 8.02475L24.0266 8.02549L24.0322 8.02711L24.0451 8.03097L24.0781 8.04124C24.1032 8.04928 24.1346 8.05975 24.172 8.07302C24.2469 8.09958 24.3458 8.13736 24.4672 8.18936C24.71 8.29343 25.0417 8.45413 25.4493 8.69531C26.265 9.17811 27.3787 9.98008 28.687 11.2884C29.9953 12.5967 30.7972 13.7103 31.28 14.5261C31.5212 14.9336 31.6819 15.2654 31.786 15.5082C31.838 15.6295 31.8757 15.7284 31.9023 15.8033C31.9156 15.8407 31.9261 15.8721 31.9341 15.8972L31.9444 15.9302L31.9482 15.9431L31.9498 15.9487L31.9506 15.9512C31.9506 15.9512 31.9513 15.9536 30.7494 16.297L31.9513 15.9536C32.1409 16.6174 31.7566 17.3093 31.0928 17.4989C30.4346 17.687 29.7489 17.3107 29.5524 16.6573L29.5462 16.6393C29.5374 16.6143 29.519 16.565 29.4881 16.493C29.4264 16.3491 29.3146 16.1137 29.1286 15.7994C28.757 15.1715 28.0858 14.2227 26.9192 13.0561C25.7526 11.8895 24.8039 11.2184 24.176 10.8468C23.8616 10.6607 23.6263 10.5489 23.4824 10.4872C23.4104 10.4564 23.3611 10.438 23.336 10.4291L23.318 10.4229C22.6646 10.2265 22.2883 9.54073 22.4764 8.88257Z" fill="#40BAD5"/>
</svg>
