<svg xmlns="http://www.w3.org/2000/svg" width="352.461" height="160" viewBox="0 0 352.461 160">
  <g id="Group_23324" data-name="Group 23324" transform="translate(-70.596 -63.94)">
    <g id="Group_23318" data-name="Group 23318" transform="translate(-12.588 -32.788)" opacity="0.5">
      <path id="Path_6358" data-name="Path 6358" d="M421.984,256.727h-151.6c-1.2,0-2.177-.572-2.177-1.28s.973-1.28,2.177-1.28H421.845c1.2,0,2.245.574,2.245,1.28S423.185,256.727,421.984,256.727Zm-252.571,0H96.98c-7.606,0-13.8-3.64-13.8-8.112V188.1c0-.708.974-1.28,2.177-1.28s2.177.572,2.177,1.28v60.52c0,3.062,4.235,5.552,9.443,5.552h72.433c1.2,0,2.177.574,2.177,1.28S170.614,256.727,169.413,256.727Zm264.054-55.545c-1.2,0-2.177-.574-2.177-1.28v-95.06c0-3.062-4.237-5.554-9.445-5.554h-72.5c-1.2,0-2.177-.572-2.177-1.28s.973-1.28,2.177-1.28h72.5c7.609,0,13.8,3.64,13.8,8.114V199.9C435.645,200.608,434.668,201.182,433.468,201.182ZM328.987,99.29l-170.277,0c-1.2,0-2.211-.572-2.211-1.278s.942-1.28,2.143-1.28v1.28l.011-1.28H328.987c1.2,0,2.177.574,2.177,1.28S330.191,99.29,328.987,99.29Z" transform="translate(0)" fill="#4f7497"/>
      <path id="Path_6362" data-name="Path 6362" d="M421.984,256.727h-151.6c-1.2,0-2.177-.572-2.177-1.28s.973-1.28,2.177-1.28H421.845c1.2,0,2.245.574,2.245,1.28S423.185,256.727,421.984,256.727Zm-252.571,0H96.98c-7.606,0-13.8-3.64-13.8-8.112V188.1c0-.708.974-1.28,2.177-1.28s2.177.572,2.177,1.28v60.52c0,3.062,4.235,5.552,9.443,5.552h72.433c1.2,0,2.177.574,2.177,1.28S170.614,256.727,169.413,256.727Zm264.054-55.545c-1.2,0-2.177-.574-2.177-1.28v-95.06c0-3.062-4.237-5.554-9.445-5.554h-72.5c-1.2,0-2.177-.572-2.177-1.28s.973-1.28,2.177-1.28h72.5c7.609,0,13.8,3.64,13.8,8.114V199.9C435.645,200.608,434.668,201.182,433.468,201.182ZM328.987,99.29l-170.277,0c-1.2,0-2.211-.572-2.211-1.278s.942-1.28,2.143-1.28v1.28l.011-1.28H328.987c1.2,0,2.177.574,2.177,1.28S330.191,99.29,328.987,99.29Z" fill="#4f7497"/>
      <path id="Path_6363" data-name="Path 6363" d="M421.984,256.727h-151.6c-1.2,0-2.177-.572-2.177-1.28s.973-1.28,2.177-1.28H421.845c1.2,0,2.245.574,2.245,1.28S423.185,256.727,421.984,256.727Zm-177.82,0H96.98c-7.606,0-13.8-3.64-13.8-8.112V188.1c0-.708.974-1.28,2.177-1.28s2.177.572,2.177,1.28v60.52c0,3.062,4.235,5.552,9.443,5.552H244.165c1.2,0,2.177.574,2.177,1.28S244.165,256.727,244.165,256.727Zm189.3-55.545c-1.2,0-2.177-.574-2.177-1.28v-95.06c0-3.062-4.237-5.554-9.445-5.554h-72.5c-1.2,0-2.177-.572-2.177-1.28s.973-1.28,2.177-1.28h72.5c7.609,0,13.8,3.64,13.8,8.114V199.9C435.645,200.608,434.668,201.182,433.468,201.182ZM328.987,99.29l-170.277,0c-1.2,0-2.211-.572-2.211-1.278s.942-1.28,2.143-1.28v1.28l.011-1.28H328.987c1.2,0,2.177.574,2.177,1.28S330.191,99.29,328.987,99.29Z" fill="#4f7497"/>
    </g>
    <g id="Group_23323" data-name="Group 23323" transform="translate(0 1.76)">
      <g id="Group_23319" data-name="Group 23319" transform="translate(70.596 62.23)">
        <path id="Path_6359" data-name="Path 6359" d="M72.076,71.626A14.8,14.8,0,0,1,76.226,66.5a18.986,18.986,0,0,1,6.255-3.183,26.913,26.913,0,0,1,7.86-1.091,29.178,29.178,0,0,1,8.188,1.1,20.4,20.4,0,0,1,6.646,3.256,15.768,15.768,0,0,1,4.484,5.258,14.85,14.85,0,0,1,1.638,6.977,13.907,13.907,0,0,1-.078,1.5q-.069.636-.138,1.323l-.145,1.444H94.582l.264-1.833a5.107,5.107,0,0,0,.053-.724v-.952a12.055,12.055,0,0,0-.153-1.926,3.7,3.7,0,0,0-.465-1.331,2.255,2.255,0,0,0-.83-.789,3.23,3.23,0,0,0-1.552-.3,2.9,2.9,0,0,0-1.278.257,3.063,3.063,0,0,0-.971.716,2.969,2.969,0,0,0-.6,1.028,4.045,4.045,0,0,0-.223,1.344,3.77,3.77,0,0,0,.472,1.885A10.707,10.707,0,0,0,90.793,82.5a28.966,28.966,0,0,0,2.1,2.048c.809.714,1.585,1.454,2.307,2.2a13.571,13.571,0,0,1,1.942,2.515,6.292,6.292,0,0,1,.9,3.239v6.661H82.712V94.54a1.236,1.236,0,0,0-.429-.7,17.781,17.781,0,0,0-2.063-1.725q-1.36-.994-2.929-2.179a22.235,22.235,0,0,1-3.135-2.893,16.022,16.022,0,0,1-2.5-3.751A11.417,11.417,0,0,1,70.6,78.3,15.032,15.032,0,0,1,72.076,71.626Z" transform="translate(-70.596 -62.23)" fill="#ffb412"/>
        <rect id="Rectangle_10291" data-name="Rectangle 10291" width="15.458" height="14.644" transform="translate(11.947 40.306)" fill="#ffb412"/>
      </g>
      <g id="Group_23322" data-name="Group 23322" transform="translate(70.596 62.23)">
        <g id="Group_23320" data-name="Group 23320">
          <path id="Path_6360" data-name="Path 6360" d="M90.341,63.959a27.468,27.468,0,0,1,7.7,1.034,18.714,18.714,0,0,1,6.087,2.975,14.051,14.051,0,0,1,4,4.684,13.137,13.137,0,0,1,1.44,6.173,12.066,12.066,0,0,1-.068,1.316c-.042.4-.085.8-.128,1.224h-12.8a6.778,6.778,0,0,0,.051-.827v-.952a13.8,13.8,0,0,0-.175-2.2,5.4,5.4,0,0,0-.692-1.95,3.99,3.99,0,0,0-1.445-1.392,4.825,4.825,0,0,0-2.416-.536,4.577,4.577,0,0,0-2.027.428,4.73,4.73,0,0,0-1.51,1.119,4.642,4.642,0,0,0-.943,1.617,5.759,5.759,0,0,0-.319,1.911,5.534,5.534,0,0,0,.691,2.726,12.358,12.358,0,0,0,1.731,2.361,30.418,30.418,0,0,0,2.224,2.171c.776.685,1.519,1.393,2.209,2.106a11.874,11.874,0,0,1,1.7,2.191,4.593,4.593,0,0,1,.658,2.361V97.43H84.442V94.54a2.751,2.751,0,0,0-.936-1.923,19.44,19.44,0,0,0-2.265-1.9c-.889-.651-1.867-1.378-2.906-2.162a20.471,20.471,0,0,1-2.89-2.667,14.3,14.3,0,0,1-2.231-3.347,9.7,9.7,0,0,1-.888-4.238,13.319,13.319,0,0,1,1.3-5.918A13.073,13.073,0,0,1,77.3,67.861a17.252,17.252,0,0,1,5.689-2.886,25.192,25.192,0,0,1,7.354-1.016m0-1.729a26.913,26.913,0,0,0-7.86,1.091A18.986,18.986,0,0,0,76.226,66.5a14.8,14.8,0,0,0-4.149,5.123A15.032,15.032,0,0,0,70.6,78.3a11.417,11.417,0,0,0,1.059,4.989,16.022,16.022,0,0,0,2.5,3.751,22.235,22.235,0,0,0,3.135,2.893q1.569,1.184,2.929,2.179a17.781,17.781,0,0,1,2.063,1.725,1.236,1.236,0,0,1,.429.7v4.618H98.039V92.5a6.292,6.292,0,0,0-.9-3.239A13.571,13.571,0,0,0,95.2,86.743c-.722-.745-1.5-1.485-2.307-2.2a28.966,28.966,0,0,1-2.1-2.048A10.707,10.707,0,0,1,89.3,80.466a3.769,3.769,0,0,1-.472-1.884,4.047,4.047,0,0,1,.223-1.345,2.969,2.969,0,0,1,.6-1.028,3.063,3.063,0,0,1,.971-.716,2.9,2.9,0,0,1,1.278-.257,3.23,3.23,0,0,1,1.552.3,2.255,2.255,0,0,1,.83.789,3.7,3.7,0,0,1,.465,1.331,12.055,12.055,0,0,1,.153,1.926v.952a5.107,5.107,0,0,1-.053.724l-.264,1.833h16.355l.145-1.444q.069-.686.138-1.323a13.907,13.907,0,0,0,.078-1.5,14.85,14.85,0,0,0-1.638-6.977,15.768,15.768,0,0,0-4.484-5.258,20.4,20.4,0,0,0-6.646-3.256,29.178,29.178,0,0,0-8.188-1.1Z" transform="translate(-70.596 -62.23)"/>
        </g>
        <g id="Group_23321" data-name="Group 23321" transform="translate(11.947 40.306)">
          <path id="Path_6361" data-name="Path 6361" d="M85.6,108.729h12v11.184h-12V108.729M83.866,107v14.643H99.324V107Z" transform="translate(-83.866 -107)"/>
        </g>
      </g>
    </g>
  </g>
</svg>
