<svg id="Group_25706" data-name="Group 25706" xmlns="http://www.w3.org/2000/svg" width="60.66"
                    height="60.66" viewBox="0 0 60.66 60.66">
                    <path id="Path_23354" data-name="Path 23354"
                        d="M49.661,2a13,13,0,0,1,13,13V49.661a13,13,0,0,1-13,13H15a13,13,0,0,1-13-13V15A13,13,0,0,1,15,2Z"
                        transform="translate(-2 -2)" fill="#2698a7" fill-rule="evenodd" />
                    <path id="credit-card-alt-svgrepo-com"
                        d="M3,11.852H33.832M8.481,28.981h19.87c1.919,0,2.878,0,3.611-.373a3.425,3.425,0,0,0,1.5-1.5c.373-.733.373-1.692.373-3.611V10.481c0-1.919,0-2.878-.373-3.611a3.425,3.425,0,0,0-1.5-1.5C31.229,5,30.27,5,28.351,5H8.481C6.563,5,5.6,5,4.871,5.373a3.426,3.426,0,0,0-1.5,1.5C3,7.6,3,8.563,3,10.481V23.5c0,1.919,0,2.878.373,3.611a3.425,3.425,0,0,0,1.5,1.5C5.6,28.981,6.563,28.981,8.481,28.981Z"
                        transform="translate(11.914 13.34)" fill="none" stroke="#fff" stroke-linecap="round"
                        stroke-linejoin="round" stroke-width="2" />
                </svg>