<svg id="Group_25707" data-name="Group 25707" xmlns="http://www.w3.org/2000/svg" width="60.66"
                    height="60.66" viewBox="0 0 60.66 60.66">
                    <path id="Path_23357" data-name="Path 23357"
                        d="M49.661,2a13,13,0,0,1,13,13V49.661a13,13,0,0,1-13,13H15a13,13,0,0,1-13-13V15A13,13,0,0,1,15,2Z"
                        transform="translate(-2 -2)" fill="#2698a7" fill-rule="evenodd" />
                    <g id="db-material-svgrepo-com_1_" data-name="db-material-svgrepo-com (1)"
                        transform="translate(16.769 12.972)">
                        <path id="Path_23356" data-name="Path 23356"
                            d="M69.561,0C61.83,0,56,3.349,56,7.79V26.926c0,4.441,5.83,7.79,13.561,7.79s13.561-3.349,13.561-7.79V7.79C83.122,3.349,77.292,0,69.561,0Zm8.888,13.761c.048-.023.091-.049.138-.073.287-.142.57-.288.837-.444v4.083c0,1.748-3.752,4.186-9.862,4.186S59.7,19.074,59.7,17.326V13.235a19.5,19.5,0,0,0,9.863,2.346A20.617,20.617,0,0,0,78.37,13.8ZM59.7,22.771a19.5,19.5,0,0,0,9.863,2.346,20.6,20.6,0,0,0,8.835-1.8l.05-.022c.058-.028.11-.06.167-.089.278-.138.551-.278.81-.43v4.146c0,1.748-3.752,4.186-9.862,4.186S59.7,28.674,59.7,26.926Zm9.863-10.795c-6.11,0-9.863-2.438-9.863-4.186S63.451,3.6,69.561,3.6s9.862,2.438,9.862,4.186S75.672,11.976,69.561,11.976Z"
                            transform="translate(-56)" fill="#fff" />
                    </g>
                </svg>