<svg xmlns="http://www.w3.org/2000/svg" width="60.66" height="60.66" viewBox="0 0 60.66 60.66">
  <path id="Path_23350" data-name="Path 23350" d="M49.661,2a13,13,0,0,1,13,13V49.661a13,13,0,0,1-13,13H15a13,13,0,0,1-13-13V15A13,13,0,0,1,15,2ZM45.854,19.177a2.166,2.166,0,0,0-3.064,0L24.038,37.932l0-9.935A2.166,2.166,0,1,0,19.7,28V43.162a2.166,2.166,0,0,0,2.166,2.166H37.035a2.166,2.166,0,0,0,0-4.333L27.1,41,45.854,22.241a2.166,2.166,0,0,0,0-3.064Z" transform="translate(-2 -2)" fill="#2698a7" fill-rule="evenodd"/>
</svg>