<svg id="Group_25708" data-name="Group 25708" xmlns="http://www.w3.org/2000/svg" width="60.66"
                    height="60.66" viewBox="0 0 60.66 60.66">
                    <path id="Path_23355" data-name="Path 23355"
                        d="M49.661,2a13,13,0,0,1,13,13V49.661a13,13,0,0,1-13,13H15a13,13,0,0,1-13-13V15A13,13,0,0,1,15,2Z"
                        transform="translate(-2 -2)" fill="#2698a7" fill-rule="evenodd" />
                    <path id="store-2-svgrepo-com"
                        d="M17.737,13.528a1.573,1.573,0,1,0-3.146,0Zm9.676,0a1.573,1.573,0,1,0-3.146,0ZM14.591,13.5a1.573,1.573,0,1,0,3.145.054Zm3.166-1.166a1.573,1.573,0,1,0-3.145-.054Zm-.068,1.576a1.573,1.573,0,1,0-3.051-.765Zm-1.855.93,1.522.4,0-.015Zm-2.992,3.3.546,1.475h0ZM9.315,16.293a1.573,1.573,0,1,0-1.792,2.585ZM9.992,17.6a1.573,1.573,0,1,0-3.146-.032ZM8.3,28.841l1.573.019v0Zm1.211,3L8.4,32.945h0ZM12.5,33.085V31.513h0Zm4.31,1.573a1.573,1.573,0,0,0,0-3.146ZM7.519,18.875a1.573,1.573,0,0,0,1.8-2.579ZM6.488,12.307l-1.474-.548q-.026.071-.046.143ZM8.239,7.593l1.474.548q.023-.061.04-.124Zm2.326-1.77V4.25h0Zm20.873,0,0-1.573h0Zm2.326,1.77-1.515.424q.018.063.04.124Zm1.751,4.716,1.52-.4c-.013-.049-.028-.1-.046-.143ZM32.684,16.3a1.573,1.573,0,1,0,1.8,2.579ZM15.235,33.085a1.573,1.573,0,1,0,3.146,0Zm8.388,0a1.573,1.573,0,1,0,3.146,0Zm-6.816-1.573a1.573,1.573,0,0,0,0,3.146ZM25.2,34.658a1.573,1.573,0,1,0,0-3.146Zm-.929-21.112a1.573,1.573,0,1,0,3.145-.038ZM27.4,12.288a1.573,1.573,0,0,0-3.145.038Zm-.027.855a1.573,1.573,0,1,0-3.05.769Zm-1.2,1.691-1.525.384,0,.012Zm2.988,3.3-.548,1.474Zm5.315.74a1.573,1.573,0,0,0-1.788-2.588Zm.679-1.309a1.573,1.573,0,1,0-3.145.031ZM33.694,28.841l-1.573.015v0Zm-1.21,3-1.119-1.106ZM29.5,33.085V31.513h0Zm-4.3-1.573a1.573,1.573,0,0,0,0,3.146ZM14.591,13.528A6.411,6.411,0,0,0,21,19.939V16.793a3.265,3.265,0,0,1-3.265-3.265ZM21,19.939a6.411,6.411,0,0,0,6.411-6.411H24.267A3.265,3.265,0,0,1,21,16.793Zm-3.265-6.384.021-1.221-3.145-.054L14.591,13.5Zm-3.1-.41-.329,1.313,3.051.765.329-1.313Zm-.325,1.3A3.25,3.25,0,0,1,12.3,16.67l1.092,2.95a6.4,6.4,0,0,0,3.968-4.382ZM12.3,16.67a3.25,3.25,0,0,1-2.981-.377L7.523,18.878a6.4,6.4,0,0,0,5.865.742Zm-5.45.9L6.731,28.825l3.146.032L9.992,17.6ZM6.731,28.822A5.767,5.767,0,0,0,8.4,32.945l2.238-2.211a2.622,2.622,0,0,1-.757-1.874ZM8.4,32.945a5.767,5.767,0,0,0,4.1,1.714V31.513a2.621,2.621,0,0,1-1.865-.779Zm4.1,1.714h4.31V31.513H12.5ZM9.319,16.3a3.328,3.328,0,0,1-1.312-3.584L4.968,11.9a6.474,6.474,0,0,0,2.551,6.972ZM7.962,12.855,9.713,8.14l-2.949-1.1L5.013,11.759ZM9.754,8.016a.849.849,0,0,1,.816-.621L10.56,4.25A4,4,0,0,0,6.724,7.169Zm.811-.621H31.437V4.25H10.565Zm20.868,0a.849.849,0,0,1,.815.621l3.029-.847A4,4,0,0,0,31.442,4.25Zm.856.745,1.751,4.716,2.949-1.095L35.237,7.045Zm1.706,4.573a3.329,3.329,0,0,1-1.31,3.583l1.8,2.579a6.474,6.474,0,0,0,2.549-6.97ZM18.38,33.085V26.794H15.235v6.291Zm0-6.291a.524.524,0,0,1,.524-.524V23.124a3.67,3.67,0,0,0-3.67,3.67Zm.524-.524H23.1V23.124H18.9Zm4.194,0a.524.524,0,0,1,.524.524h3.146a3.67,3.67,0,0,0-3.67-3.67Zm.524.524v6.291h3.146V26.794Zm-6.816,7.864H25.2V31.513H16.808ZM27.413,13.509,27.4,12.288l-3.145.038.015,1.221Zm-3.092.4.329,1.307,3.05-.769-.329-1.307Zm.332,1.319a6.4,6.4,0,0,0,3.962,4.382l1.1-2.949A3.25,3.25,0,0,1,27.7,14.437Zm3.962,4.382a6.4,6.4,0,0,0,5.863-.734l-1.788-2.588a3.251,3.251,0,0,1-2.979.373Zm3.4-2.012.109,11.255,3.145-.031L35.157,17.57Zm.109,11.259a2.621,2.621,0,0,1-.757,1.874L33.6,32.945a5.767,5.767,0,0,0,1.664-4.123Zm-.757,1.874a2.621,2.621,0,0,1-1.865.779v3.146a5.767,5.767,0,0,0,4.1-1.714Zm-1.865.779H25.2v3.146h4.3Z"
                        transform="translate(8.822 10.68)" fill="#fff" />
                </svg>