<svg xmlns="http://www.w3.org/2000/svg" width="352.46" height="160.314" viewBox="0 0 352.46 160.314">
  <g id="Group_23350" data-name="Group 23350" transform="translate(-773 -979.02)">
    <g id="Group_23325" data-name="Group 23325" transform="translate(702.404 915.395)">
      <g id="Group_23318" data-name="Group 23318" transform="translate(-12.588 -32.788)" opacity="0.5">
        <path id="Path_6358" data-name="Path 6358" d="M421.984,256.727h-151.6c-1.2,0-2.177-.572-2.177-1.28s.973-1.28,2.177-1.28H421.845c1.2,0,2.245.574,2.245,1.28S423.185,256.727,421.984,256.727Zm-252.571,0H96.98c-7.606,0-13.8-3.64-13.8-8.112V188.1c0-.708.974-1.28,2.177-1.28s2.177.572,2.177,1.28v60.52c0,3.062,4.235,5.552,9.443,5.552h72.433c1.2,0,2.177.574,2.177,1.28S170.614,256.727,169.413,256.727Zm264.054-55.545c-1.2,0-2.177-.574-2.177-1.28v-95.06c0-3.062-4.237-5.554-9.445-5.554h-72.5c-1.2,0-2.177-.572-2.177-1.28s.973-1.28,2.177-1.28h72.5c7.609,0,13.8,3.64,13.8,8.114V199.9C435.645,200.608,434.668,201.182,433.468,201.182ZM328.987,99.29l-170.277,0c-1.2,0-2.211-.572-2.211-1.278s.942-1.28,2.143-1.28v1.28l.011-1.28H328.987c1.2,0,2.177.574,2.177,1.28S330.191,99.29,328.987,99.29Z" transform="translate(0)"/>
        <path id="Path_6362" data-name="Path 6362" d="M421.984,256.727h-151.6c-1.2,0-2.177-.572-2.177-1.28s.973-1.28,2.177-1.28H421.845c1.2,0,2.245.574,2.245,1.28S423.185,256.727,421.984,256.727Zm-252.571,0H96.98c-7.606,0-13.8-3.64-13.8-8.112V188.1c0-.708.974-1.28,2.177-1.28s2.177.572,2.177,1.28v60.52c0,3.062,4.235,5.552,9.443,5.552h72.433c1.2,0,2.177.574,2.177,1.28S170.614,256.727,169.413,256.727Zm264.054-55.545c-1.2,0-2.177-.574-2.177-1.28v-95.06c0-3.062-4.237-5.554-9.445-5.554h-72.5c-1.2,0-2.177-.572-2.177-1.28s.973-1.28,2.177-1.28h72.5c7.609,0,13.8,3.64,13.8,8.114V199.9C435.645,200.608,434.668,201.182,433.468,201.182ZM328.987,99.29l-170.277,0c-1.2,0-2.211-.572-2.211-1.278s.942-1.28,2.143-1.28v1.28l.011-1.28H328.987c1.2,0,2.177.574,2.177,1.28S330.191,99.29,328.987,99.29Z"/>
        <path id="Path_6363" data-name="Path 6363" d="M421.984,256.727h-151.6c-1.2,0-2.177-.572-2.177-1.28s.973-1.28,2.177-1.28H421.845c1.2,0,2.245.574,2.245,1.28S423.185,256.727,421.984,256.727Zm-177.82,0H96.98c-7.606,0-13.8-3.64-13.8-8.112V188.1c0-.708.974-1.28,2.177-1.28s2.177.572,2.177,1.28v60.52c0,3.062,4.235,5.552,9.443,5.552H244.165c1.2,0,2.177.574,2.177,1.28S244.165,256.727,244.165,256.727Zm189.3-55.545c-1.2,0-2.177-.574-2.177-1.28v-95.06c0-3.062-4.237-5.554-9.445-5.554h-72.5c-1.2,0-2.177-.572-2.177-1.28s.973-1.28,2.177-1.28h72.5c7.609,0,13.8,3.64,13.8,8.114V199.9C435.645,200.608,434.668,201.182,433.468,201.182ZM328.987,99.29l-170.277,0c-1.2,0-2.211-.572-2.211-1.278s.942-1.28,2.143-1.28v1.28l.011-1.28H328.987c1.2,0,2.177.574,2.177,1.28S330.191,99.29,328.987,99.29Z" fill="#4f7497"/>
      </g>
    </g>
    <g id="Group_23331" data-name="Group 23331" transform="translate(189.426 948.254)">
      <g id="Group_23329" data-name="Group 23329" transform="translate(597.11 42.123)">
        <path id="Path_6364" data-name="Path 6364" d="M611.805,58.9a2.144,2.144,0,1,0,2.221,2.063A2.146,2.146,0,0,0,611.805,58.9Zm-.245-6.615a8.763,8.763,0,1,0,9.081,8.436A8.763,8.763,0,0,0,611.56,52.283Zm.492,13.252a4.5,4.5,0,1,1,4.327-4.661A4.5,4.5,0,0,1,612.052,65.535Zm14.855-.007-.726,1.877a.608.608,0,0,1-.74.366l-2.746-.682a12.458,12.458,0,0,1-4.092,4.357l.849,2.617a.6.6,0,0,1-.316.764l-1.82.853a.611.611,0,0,1-.791-.248l-1.518-2.4a12.348,12.348,0,0,1-5.563.157l-1.361,2.56a.609.609,0,0,1-.77.3l-1.88-.716a.611.611,0,0,1-.371-.74l.683-2.793a12.419,12.419,0,0,1-4.234-3.987l-2.883.947a.607.607,0,0,1-.767-.31L597,66.631a.61.61,0,0,1,.241-.791l2.653-1.689a12.362,12.362,0,0,1-.39-2.653,12.5,12.5,0,0,1,.277-3.119l-2.788-1.5a.605.605,0,0,1-.3-.771l.723-1.877a.611.611,0,0,1,.742-.367l3.118.776a12.463,12.463,0,0,1,3.9-4.018l-1.059-2.969a.6.6,0,0,1,.288-.773l1.8-.909a.616.616,0,0,1,.8.225l1.864,2.765a.426.426,0,0,1,.029.057,12.392,12.392,0,0,1,5.3-.148l.009-.022,1.657-2.9a.609.609,0,0,1,.781-.278l1.856.772a.61.61,0,0,1,.349.751L618,50.269a12.449,12.449,0,0,1,3.951,3.552l2.86-.941a.609.609,0,0,1,.765.314l.863,1.816a.611.611,0,0,1-.247.792l-2.473,1.576a12.437,12.437,0,0,1,.543,3.2,12.665,12.665,0,0,1-.215,2.8l2.559,1.376A.612.612,0,0,1,626.908,65.528Z" transform="translate(-596.613 -45.618)" fill="#8b6bd4" stroke="#3700b4" stroke-width="1"/>
        <g id="Group_23328" data-name="Group 23328" transform="translate(0 0.281)">
          <g id="Group_23327" data-name="Group 23327">
            <path id="Path_6365" data-name="Path 6365" d="M608.87,49a.363.363,0,0,0-.029-.058l-1.864-2.764a.612.612,0,0,0-.8-.225l-1.8.908a.606.606,0,0,0-.288.774l1.059,2.968a12.461,12.461,0,0,0-3.9,4.018l-3.119-.776a.611.611,0,0,0-.742.368l-.723,1.876a.606.606,0,0,0,.3.771l2.789,1.5a12.393,12.393,0,0,0,.112,5.772l-2.653,1.689a.607.607,0,0,0-.241.79l.86,1.818a.607.607,0,0,0,.767.31l2.883-.947a12.419,12.419,0,0,0,4.234,3.987l-.682,2.794a.608.608,0,0,0,.37.739l1.881.717a.609.609,0,0,0,.769-.3l1.359-2.561a12.268,12.268,0,0,0,2.366.24V69.779a8.758,8.758,0,0,1-.248-17.51c.084,0,.165,0,.248,0V48.644c-.127,0-.253,0-.381,0A12.3,12.3,0,0,0,608.87,49Z" transform="translate(-596.615 -45.887)" fill="#8b6bd4" stroke="#3700b4" stroke-width="1"/>
            <path id="Path_6366" data-name="Path 6366" d="M606.882,60.719a4.494,4.494,0,0,0,4.419,4.325V62.686a2.139,2.139,0,0,1,0-4.276h0V56.059c-.03,0-.061,0-.091,0A4.5,4.5,0,0,0,606.882,60.719Z" transform="translate(-596.136 -45.413)" fill="#8b6bd4" stroke="#3700b4" stroke-width="1"/>
          </g>
        </g>
      </g>
      <g id="Group_23330" data-name="Group 23330" transform="translate(585.987 31.266)">
        <path id="Path_6368" data-name="Path 6368" d="M633.89,67.083c-.8,1.437-5.437,7.911-15.492,10.8a4.911,4.911,0,0,0-3.6-1.3c-2.256,0-4.087,1.082-4.087,2.418s1.831,2.418,4.087,2.418,4.065-1.073,4.08-2.4C622.376,77.979,633.89,67.083,633.89,67.083Z" transform="translate(-584.835 -29.73)" fill="#8b6bd4" stroke="#3700b4" stroke-width="1"/>
        <path id="Path_6369" data-name="Path 6369" d="M638.284,63.516a14.089,14.089,0,0,0-1.218-2.776,25.767,25.767,0,0,0,.317-3.983,25.128,25.128,0,1,0-50.252,0,25.885,25.885,0,0,0,.338,4.1,14.614,14.614,0,0,0-1.19,2.735c-.593,1.589-.212,9.3.511,10.344,1.325,1.919,4.94,3.421,7.238,3.714a1.391,1.391,0,0,0,1.166.456,1.363,1.363,0,0,0,1.256-1.458L595.189,62.79a1.363,1.363,0,0,0-1.5-1.206,1.392,1.392,0,0,0-.876.418c-.115-.014-.234-.028-.365-.038a3.506,3.506,0,0,1-2.337-1.783,22.751,22.751,0,0,1-.263-3.423c0-12.554,10.031-21.187,22.409-21.187s22.409,8.633,22.409,21.187a22.432,22.432,0,0,1-.269,3.451,3.505,3.505,0,0,1-2.285,1.684c-.132.009-.25.022-.365.038a1.4,1.4,0,0,0-.876-.42,1.365,1.365,0,0,0-1.5,1.207l-1.261,13.856a1.363,1.363,0,0,0,1.256,1.458,1.391,1.391,0,0,0,1.167-.456c2.3-.293,5.911-1.795,7.238-3.715C638.494,72.812,638.876,65.1,638.284,63.516Z" transform="translate(-585.987 -31.267)" fill="#8b6bd4" stroke="#3700b4" stroke-width="1"/>
      </g>
    </g>
  </g>
</svg>
