<svg id="Group_25705" data-name="Group 25705" xmlns="http://www.w3.org/2000/svg" width="60.66"
                    height="60.66" viewBox="0 0 60.66 60.66">
                    <path id="Path_23351" data-name="Path 23351"
                        d="M49.661,2a13,13,0,0,1,13,13V49.661a13,13,0,0,1-13,13H15a13,13,0,0,1-13-13V15A13,13,0,0,1,15,2Z"
                        transform="translate(-2 -2)" fill="#2698a7" fill-rule="evenodd" />
                    <g id="user-5-svgrepo-com" transform="translate(16.287 16.287)">
                        <path id="Path_23352" data-name="Path 23352"
                            d="M24,12.752A7.752,7.752,0,1,1,21.733,7.27,7.752,7.752,0,0,1,24,12.752Z"
                            transform="translate(-2.686 -5)" fill="none" stroke="#fff" stroke-linecap="round"
                            stroke-linejoin="round" stroke-width="2.5" fill-rule="evenodd" />
                        <path id="Path_23353" data-name="Path 23353" d="M5.5,20.871a25.74,25.74,0,0,1,27.132,0"
                            transform="translate(-5.5 6.261)" fill="none" stroke="#fff" stroke-linecap="round"
                            stroke-width="2.5" />
                    </g>
                </svg>