<svg xmlns="http://www.w3.org/2000/svg" xmlns:xlink="http://www.w3.org/1999/xlink" width="1358.795" height="718.123" viewBox="0 0 1358.795 718.123">
  <defs>
    <clipPath id="clip-path">
      <rect id="Rectangle_11663" data-name="Rectangle 11663" width="63.129" height="138.901" fill="none"/>
    </clipPath>
    <clipPath id="clip-path-2">
      <rect id="Rectangle_11664" data-name="Rectangle 11664" width="145" height="126.387" transform="translate(-44 -41)" fill="none"/>
    </clipPath>
  </defs>
  <g id="Background_about_us" data-name="Background about us" transform="translate(-245 -141.263)">
    <path id="solid_plus" data-name="solid plus" d="M22.286,41.429H14.571V33.714A1.715,1.715,0,0,0,12.857,32H11.143a1.715,1.715,0,0,0-1.714,1.714v7.714H1.714A1.715,1.715,0,0,0,0,43.143v1.714a1.714,1.714,0,0,0,1.714,1.714H9.429v7.714A1.714,1.714,0,0,0,11.143,56h1.714a1.714,1.714,0,0,0,1.714-1.714V46.571h7.714A1.714,1.714,0,0,0,24,44.857V43.143A1.715,1.715,0,0,0,22.286,41.429Z" transform="translate(245 144)" fill="#ffc700"/>
    <path id="solid_plus-2" data-name="solid plus" d="M20.429,40.643H13.357V33.571A1.572,1.572,0,0,0,11.786,32H10.214a1.572,1.572,0,0,0-1.571,1.571v7.071H1.571A1.572,1.572,0,0,0,0,42.214v1.571a1.572,1.572,0,0,0,1.571,1.571H8.643v7.071A1.572,1.572,0,0,0,10.214,54h1.571a1.572,1.572,0,0,0,1.571-1.571V45.357h7.071A1.572,1.572,0,0,0,22,43.786V42.214A1.572,1.572,0,0,0,20.429,40.643Z" transform="matrix(0.454, -0.891, 0.891, 0.454, 1545.693, 294.904)" fill="#d6293e"/>
    <path id="solid_certificate" data-name="solid certificate" d="M17.915,10l1.8-1.758a.931.931,0,0,0-.417-1.576l-2.447-.625.69-2.422a.946.946,0,0,0-1.159-1.159l-2.422.69L13.333.7A.937.937,0,0,0,11.757.282L10,2.092,8.243.282A.937.937,0,0,0,6.667.7L6.043,3.147l-2.422-.69A.946.946,0,0,0,2.463,3.616l.69,2.422L.705,6.663A.931.931,0,0,0,.289,8.238L2.085,10l-1.8,1.758A.931.931,0,0,0,.705,13.33l2.447.625-.69,2.422a.946.946,0,0,0,1.159,1.159l2.422-.69.624,2.448a.929.929,0,0,0,1.575.417L10,17.914l1.757,1.8a.933.933,0,0,0,1.575-.417l.624-2.448,2.422.69a.946.946,0,0,0,1.159-1.159l-.69-2.422,2.447-.625a.931.931,0,0,0,.417-1.576L17.915,10Z" transform="translate(1503.105 146.776) rotate(-16)" fill="#fd7e14"/>
    <g id="Group_25439" data-name="Group 25439" transform="matrix(-0.259, -0.966, 0.966, -0.259, 699.085, 405.001)">
      <g id="Group_25438" data-name="Group 25438" transform="translate(0 0)" clip-path="url(#clip-path)">
        <path id="Path_7707" data-name="Path 7707" d="M32.571,6.6l9.23-1C41.617,2.325,39.915.461,37.85.327c-4.617-.3-9.333-.68-13.863.328-5,1.116-6.007,5.235-3.495,11.487,2.248,5.6,4.621,11.088,6.983,16.588.734,1.71,1.379,3.844,3.541,2.77.743-4.179-1.421-7.174-2.441-10.585-1.056-3.533-2.395-6.889-4.04-11.539,2.144,1.149,3.46,1.695,4.679,2.532C40.885,19.93,50.042,31.7,55.5,48.869a65.519,65.519,0,0,1,3.187,24.909c-.958,12.905-5.268,20.258-14.041,23.143-3.672,1.208-7.542,1.16-11.414,1.7-.325-3-.528-5.025-.765-7.037-1.157-9.813-5.507-15.344-11.872-17.93-2.531-1.029-5.221-1.26-7.066,2.206-1.753,3.291-1.357,7.056-.291,10.546a24.528,24.528,0,0,0,7.911,11.769c2.184,1.869,4.551,3.294,7.022,5.049.381,3.86-1.134,6.978-2.392,10.076a35.046,35.046,0,0,1-13.842,16.566c-3.872,2.57-7.8,4.948-11.937,7.554,2.82,2.456,3.978,2.38,13.319-4.249A45.154,45.154,0,0,0,24.741,122c3.276-4.807,5.39-11.26,8.565-18.2a57.4,57.4,0,0,0,7.985-.055C54.737,102.058,62.552,90.077,63.1,70.723a78.039,78.039,0,0,0-7.076-34.649C51.134,25.157,44.616,16.781,36.6,10.822q-2.1-1.559-4.2-3.108.089-.557.175-1.117M28.7,96.1c-7.856-2.849-12.481-9.581-11.578-16.852C24.5,79.273,29.177,86.076,28.7,96.1" transform="translate(0 0)" fill="#0cbc87"/>
      </g>
    </g>
    <g id="Group_25441" data-name="Group 25441" transform="translate(708 774)">
      <g id="Group_25440" data-name="Group 25440" transform="translate(0 0)" clip-path="url(#clip-path-2)">
        <path id="Path_7708" data-name="Path 7708" d="M23.284,69.656c5.311.038,5.379-8.217.059-8.254s-5.379,8.217-.059,8.254" transform="translate(4.951 15.73)" fill="#1d3b53"/>
        <path id="Path_7709" data-name="Path 7709" d="M39.96,27.266c-1.261-6.8-8.811-11.118-15.014-7.359a4.532,4.532,0,0,0-.844.666,4.474,4.474,0,0,0-1.329.755,9.628,9.628,0,0,0-1.105,1.1A6.262,6.262,0,0,0,19.809,24.9a18.787,18.787,0,0,0-1.583,8.376,10.118,10.118,0,0,0,12.35,9.433c6.747-1.5,10.592-8.929,9.384-15.445" transform="translate(4.662 4.743)" fill="#1d3b53"/>
        <path id="Path_7710" data-name="Path 7710" d="M36.157,4.623A6.513,6.513,0,0,0,28.542.186c-2.907.735-5.432,3.678-5.1,6.79a4.746,4.746,0,0,0,1.012,2.7,4.932,4.932,0,0,0,.8,1.269A6.664,6.664,0,0,0,33.29,12.11a6.322,6.322,0,0,0,2.868-7.487" transform="translate(5.999 0)" fill="#1d3b53"/>
        <path id="Path_7721" data-name="Path 7721" d="M36.157,4.623A6.513,6.513,0,0,0,28.542.186c-2.907.735-5.432,3.678-5.1,6.79a4.746,4.746,0,0,0,1.012,2.7,4.932,4.932,0,0,0,.8,1.269A6.664,6.664,0,0,0,33.29,12.11a6.322,6.322,0,0,0,2.868-7.487" transform="translate(-21.455 -19)" fill="#1d3b53"/>
        <path id="Path_7711" data-name="Path 7711" d="M57.182,16.578a6.388,6.388,0,0,0-4.3,7.344,7.907,7.907,0,0,0-.006.828,7.439,7.439,0,0,0,3.579,6.035c4.943,2.873,10.08-1.829,10.022-6.9-.055-4.784-4.481-8.784-9.3-7.31" transform="translate(13.521 4.168)" fill="#1d3b53"/>
        <path id="Path_7712" data-name="Path 7712" d="M45.8,8.967c-3.1,0-3.1,4.817,0,4.817s3.1-4.817,0-4.817" transform="translate(11.138 2.297)" fill="#1d3b53"/>
        <path id="Path_7713" data-name="Path 7713" d="M12.441,12.371c-3.1,0-3.105,4.817,0,4.817s3.105-4.817,0-4.817" transform="translate(2.591 3.169)" fill="#1d3b53"/>
        <path id="Path_7723" data-name="Path 7723" d="M12.441,12.371c-3.1,0-3.105,4.817,0,4.817s3.105-4.817,0-4.817" transform="translate(-14.604 -48.448)" fill="#1d3b53"/>
        <path id="Path_7714" data-name="Path 7714" d="M6.313,51.18c-3.1,0-3.105,4.817,0,4.817s3.105-4.817,0-4.817" transform="translate(1.021 13.112)" fill="#1d3b53"/>
        <path id="Path_7724" data-name="Path 7724" d="M6.313,51.18c-3.1,0-3.105,4.817,0,4.817s3.105-4.817,0-4.817" transform="translate(-16.174 -38.506)" fill="#1d3b53"/>
        <path id="Path_7715" data-name="Path 7715" d="M29.121,45.392c-3.1,0-3.1,4.819,0,4.819s3.105-4.819,0-4.819" transform="translate(6.864 11.629)" fill="#1d3b53"/>
        <path id="Path_7725" data-name="Path 7725" d="M29.121,45.392c-3.1,0-3.1,4.819,0,4.819s3.105-4.819,0-4.819" transform="translate(-10.331 -39.988)" fill="#1d3b53"/>
        <path id="Path_7716" data-name="Path 7716" d="M47.5,27.69c-3.1,0-3.105,4.817,0,4.817s3.1-4.817,0-4.817" transform="translate(11.574 7.094)" fill="#1d3b53"/>
        <path id="Path_7717" data-name="Path 7717" d="M55.974,42.712c-3.1,0-3.105,4.817,0,4.817s3.1-4.817,0-4.817" transform="translate(13.743 10.942)" fill="#1d3b53"/>
        <path id="Path_7718" data-name="Path 7718" d="M13.185,31.252a19.738,19.738,0,0,0-.742-1.9A5.385,5.385,0,0,0,11.4,27.614,4.8,4.8,0,0,0,6.36,26.7c-2.481.28-4.2,2.605-5.2,4.751A9.549,9.549,0,0,0,0,35.483a5.145,5.145,0,0,0,1.759,3.853A12.038,12.038,0,0,0,5.3,41.27c1.48.6,2.993,1,4.458.067a8.816,8.816,0,0,0,3.752-6.25,8.894,8.894,0,0,0-.33-3.835" transform="translate(0 6.758)" fill="#1d3b53"/>
        <path id="Path_7722" data-name="Path 7722" d="M13.185,31.252a19.738,19.738,0,0,0-.742-1.9A5.385,5.385,0,0,0,11.4,27.614,4.8,4.8,0,0,0,6.36,26.7c-2.481.28-4.2,2.605-5.2,4.751A9.549,9.549,0,0,0,0,35.483a5.145,5.145,0,0,0,1.759,3.853A12.038,12.038,0,0,0,5.3,41.27c1.48.6,2.993,1,4.458.067a8.816,8.816,0,0,0,3.752-6.25,8.894,8.894,0,0,0-.33-3.835" transform="translate(-17.195 -44.859)" fill="#1d3b53"/>
        <path id="Path_7719" data-name="Path 7719" d="M60.436,68.752a6.386,6.386,0,0,0,4.349-7.312,7.9,7.9,0,0,0,.011-.828,7.441,7.441,0,0,0-3.535-6.06c-4.923-2.908-10.092,1.757-10.071,6.824.021,4.785,4.418,8.817,9.246,7.376" transform="translate(13.114 13.746)" fill="#1d3b53"/>
        <path id="Path_7720" data-name="Path 7720" d="M41.06,61.185c3.1.023,3.139-4.795.034-4.817s-3.138,4.795-.034,4.817" transform="translate(9.927 14.441)" fill="#1d3b53"/>
      </g>
    </g>
  </g>
</svg>
